<?xml version="1.0" standalone="no"?>
<!DOCTYPE svg PUBLIC "-//W3C//DTD SVG 1.1//EN" "http://www.w3.org/Graphics/SVG/1.1/DTD/svg11.dtd" >
<svg xmlns="http://www.w3.org/2000/svg" xmlns:xlink="http://www.w3.org/1999/xlink" version="1.1">
<metadata></metadata>
<defs>
<font id="cormorant_unicasebold" horiz-adv-x="1161" >
<font-face units-per-em="2048" ascent="1485" descent="-563" />
<missing-glyph horiz-adv-x="479" />
<glyph horiz-adv-x="0" />
<glyph horiz-adv-x="682" />
<glyph unicode=" "  horiz-adv-x="479" />
<glyph unicode="&#x09;" horiz-adv-x="479" />
<glyph unicode="&#xa0;" horiz-adv-x="479" />
<glyph unicode="!" horiz-adv-x="538" d="M125 1260q-4 14 43 21t100 7t101.5 -7t44.5 -21q-32 -112 -56 -271.5t-33 -261.5t-22 -286q-1 -12 -1.5 -18.5t-1 -17t-1.5 -18.5q0 -11 -35 -11t-35 11q-12 203 -19 303.5t-30 275.5t-55 294zM264 -23q-58 0 -91.5 33.5t-33.5 91.5q0 54 33.5 86.5t91.5 32.5 q56 0 87.5 -32t31.5 -87q0 -59 -31 -92t-88 -33z" />
<glyph unicode="&#x22;" horiz-adv-x="618" d="M117 748l-60 493q-2 27 80 52q85 26 128 16q17 -4 14 -15l-129 -544q-2 -3 -10 -5t-15.5 -1.5t-7.5 4.5zM428 748l-59 493q-2 27 80 52q84 26 126 16q18 -4 15 -15l-129 -544q-2 -3 -10 -5t-15.5 -1.5t-7.5 4.5z" />
<glyph unicode="#" horiz-adv-x="1077" d="M948 655q9 0 9 -48t-9 -48h-129l-55 -309h113q9 0 9 -49t-9 -49h-129l-58 -322q0 -10 -62 1q-42 9 -40 15l53 306h-276l-58 -322q-4 -5 -28 -3.5t-51 8t-25 11.5l53 306h-127q-6 0 -8 24.5t-0.5 49t6.5 24.5h147l56 309h-129q-6 0 -8 24t-0.5 48t6.5 24h147l60 332 q4 5 27 2.5t49.5 -10.5t25.5 -14l-55 -310h276l59 332q4 5 27 2.5t50 -10.5t26 -14l-55 -310h112zM659 250l54 309h-277l-55 -309h278z" />
<glyph unicode="$" horiz-adv-x="864" d="M801 268q0 -115 -90.5 -197t-231.5 -94v-186q0 -13 -29.5 -13t-29.5 13v184q-91 1 -176.5 24.5t-118.5 51.5q-16 10 -16 43l-11 232q0 9 10 10.5t15 -6.5q33 -57 58 -95t64.5 -87.5t83.5 -80t91 -40.5v389l-62 33q-47 25 -74 41t-65 43.5t-58 52.5t-35 61t-15 76 q0 110 88.5 178.5t220.5 79.5v168q0 15 29.5 15t29.5 -15v-166q65 -1 132.5 -15t107.5 -32q31 -9 31 -41v-195q0 -6 -10 -9t-15 3q-9 19 -17.5 36t-32.5 53t-49.5 63t-65 52t-81.5 34v-344l49 -25q127 -67 173 -104q100 -81 100 -191zM281 803q0 -107 139 -185v318 q-71 -3 -105 -39t-34 -94zM479 23q60 5 99.5 43.5t39.5 107.5q0 114 -139 205v-356z" />
<glyph unicode="%" horiz-adv-x="1175" d="M307 455q-117 0 -193.5 77t-76.5 189q0 109 76.5 185.5t193.5 76.5q116 0 191 -77.5t75 -188.5t-75 -186.5t-191 -75.5zM305 -23q-5 -5 -34.5 17.5t-26.5 28.5l651 954q6 7 35 -16.5t26 -28.5zM322 489q27 0 44.5 15t25.5 46.5t11 65.5t3 86q0 246 -111 246 q-28 0 -47 -16.5t-28.5 -49t-13 -68.5t-3.5 -85q0 -240 119 -240zM915 -10q-117 0 -193.5 77t-76.5 189q0 109 76.5 185.5t193.5 76.5q116 0 191.5 -77.5t75.5 -188.5t-75.5 -186.5t-191.5 -75.5zM930 25q27 0 44.5 15t25.5 46.5t11 65.5t3 86q0 245 -111 245 q-36 0 -57.5 -31.5t-28 -76.5t-6.5 -111q0 -239 119 -239z" />
<glyph unicode="&#x26;" horiz-adv-x="1130" d="M1126 25q4 0 4 -12.5t-4 -12.5h-288q-48 0 -136 61q-128 -86 -301 -86q-154 0 -235.5 62t-81.5 151q0 40 15.5 76.5t50 72t63 59t80.5 61.5q-51 69 -70 110q-37 80 -37 150q0 118 95.5 192t224.5 74q37 0 74 -7.5t73.5 -24t59 -48.5t22.5 -76q0 -26 -7 -50t-23.5 -45.5 t-32.5 -38t-44.5 -37t-47 -32.5t-54 -34t-53.5 -33q108 -167 266 -303q30 -26 47 -39q35 71 35 152q0 74 -37 114.5t-96 40.5q-6 0 -6.5 12.5t6.5 12.5l389 2q7 0 7 -12.5t-7 -12.5q-17 0 -31 -1.5t-24.5 -3t-20 -6.5t-15.5 -7t-12.5 -11.5t-9 -12t-7.5 -15t-6.5 -15.5 t-6.5 -19.5t-6 -20.5q-36 -127 -111 -230q94 -70 174.5 -111t124.5 -46zM373 831q0 -104 84 -247q102 99 102 209q0 65 -31 108t-75 43q-36 0 -58 -30t-22 -83zM528 51q84 0 140 35q-64 47 -133 111q-127 114 -213 223q-43 -62 -43 -141q0 -109 71.5 -168.5t177.5 -59.5z " />
<glyph unicode="'" horiz-adv-x="307" d="M117 748l-60 493q-2 27 80 52q85 26 128 16q17 -4 14 -15l-129 -544q-2 -3 -10 -5t-15.5 -1.5t-7.5 4.5z" />
<glyph unicode="(" horiz-adv-x="632" d="M90 623q0 291 124 522t347 340q3 2 7.5 -3t0.5 -9q-250 -280 -250 -850t250 -850q4 -3 -0.5 -9t-7.5 -4q-223 111 -347 341.5t-124 521.5z" />
<glyph unicode=")" horiz-adv-x="632" d="M541 623q0 -290 -123.5 -521t-345.5 -342q-3 -2 -8.5 4t-2.5 9q252 279 252 850t-252 850q-3 4 2.5 9t8.5 3q222 -109 345.5 -340t123.5 -522z" />
<glyph unicode="*" horiz-adv-x="917" d="M463 1083l-53 263q-4 19 59.5 38.5t117.5 24t58 -5.5l-162 -320q-1 -6 -10.5 -6t-9.5 6zM418 1047l-268 30q-27 4 -14 125q11 98 27 116q3 3 5 1l256 -254q1 -1 1.5 -3.5t0 -5t-1.5 -5t-2.5 -4t-3.5 -0.5zM870 977l-358 55q-5 0 -7.5 9t3.5 10l231 133q18 8 55.5 -44 t62.5 -108t13 -55zM328 750q-12 -23 -124 26q-89 40 -102 60q-3 4 0 6l320 164q4 4 12 -1.5t6 -11.5zM535 633l-60 352q-3 4 6.5 10.5t12.5 3.5l196 -182q14 -13 -24 -64.5t-83.5 -92t-47.5 -27.5z" />
<glyph unicode="+" horiz-adv-x="815" d="M745 510q9 0 9 -50t-9 -50h-288v-287q0 -6 -25 -8.5t-50.5 -1t-25.5 5.5v291h-286q-6 0 -8 25t-0.5 50t6.5 25h288v287q0 9 50.5 9t50.5 -9v-287h288z" />
<glyph unicode="," horiz-adv-x="454" d="M207 217q71 0 111 -55t40 -158q0 -93 -41 -172t-122 -158q-5 -4 -11 -1.5t-7.5 7.5t1.5 9q101 104 101 241q0 56 -21 84q-18 -30 -76 -30q-50 0 -79 31t-29 83q0 56 36 87.5t97 31.5z" />
<glyph unicode="-" horiz-adv-x="577" d="M66 406q-6 -2 -8.5 24.5t-1.5 54.5t5 29l439 74q6 1 8 -26.5t0 -55.5t-8 -29z" />
<glyph unicode="." horiz-adv-x="423" d="M215 -23q-57 0 -91 33.5t-34 91.5q0 54 34 86.5t91 32.5q58 0 89.5 -32t31.5 -87q0 -59 -31.5 -92t-89.5 -33z" />
<glyph unicode="/" horiz-adv-x="718" d="M152 -338q-4 -9 -52.5 5t-46.5 22l516 1806q4 9 51.5 -5.5t45.5 -23.5z" />
<glyph unicode="0" horiz-adv-x="1120" d="M563 -27q-215 0 -351 142t-136 368q0 221 136.5 358.5t352.5 137.5q213 0 346 -139t133 -363t-134 -364t-347 -140zM588 16q73 0 122 56t71 152t22 229q0 237 -74.5 360t-185.5 123q-108 0 -170 -121t-62 -317q0 -213 75.5 -347.5t201.5 -134.5z" />
<glyph unicode="1" horiz-adv-x="704" d="M109 0q-6 0 -6 12.5t6 12.5q98 0 127.5 26t29.5 115v559q0 83 -36 104.5t-121 -12.5q-9 -5 -16 8q-6 10 3 13l350 147q6 3 12.5 -3t6.5 -11v-805q0 -90 27 -115.5t129 -25.5q5 0 5 -12.5t-5 -12.5q-31 0 -116.5 2t-139.5 2q-53 0 -139 -2t-117 -2z" />
<glyph unicode="2" horiz-adv-x="919" d="M72 25q48 57 125 146t118 137.5t94 117t79.5 114t45.5 97t19 96.5q0 76 -44.5 136.5t-127.5 60.5q-47 0 -86 -20.5t-71.5 -63t-55.5 -86t-53 -111.5q-1 -4 -7.5 -4t-12.5 2.5t-5 5.5l90 351q2 8 17 2q8 -4 6 -7q-12 -61 28 -61q13 0 98 23.5t152 23.5q130 0 210.5 -70.5 t80.5 -183.5q0 -68 -31.5 -126t-87.5 -106.5t-116 -92.5t-133.5 -105.5t-124.5 -122.5q-11 -14 8 -14h137.5t111 1.5t89.5 2.5t68.5 4.5t52.5 7t36.5 10t27 13t17 17t12.5 20.5t9 26q1 5 7 6t11.5 -1t5.5 -5l-20 -243q0 -9 -5 -16t-13 -7h-748q-9 0 -14 8.5t0 16.5z" />
<glyph unicode="3" horiz-adv-x="909" d="M481 449q146 -3 231 -81.5t85 -193.5q0 -74 -41.5 -144.5t-124 -135.5t-215.5 -121t-305 -95q-5 -1 -8.5 5t-3.5 12t3 8q106 28 188.5 69t133.5 85.5t84 97t46 100t13 97.5q0 99 -54.5 170t-154.5 71q-59 0 -102 -16q-8 -5 -14.5 3.5t0.5 14.5q71 40 172 51 q60 70 83 128.5t23 132.5q0 96 -42.5 156.5t-123.5 60.5q-102 0 -166.5 -55t-101.5 -183q-1 -4 -7.5 -4.5t-12.5 2t-5 6.5l80 311q2 7 19 1q6 -3 6 -5q-8 -33 3 -47t28 -14q14 0 90.5 24.5t148.5 24.5q124 0 212.5 -63t88.5 -162q0 -157 -256 -311z" />
<glyph unicode="4" horiz-adv-x="983" d="M907 98q6 0 7 -24t-2 -48t-9 -24l-135 6v-284q0 -21 -16 -29l-160 -80q-10 -6 -14.5 -3.5t-4.5 15.5v385q-141 4 -528 4q-9 0 -13.5 8t-0.5 17l706 938q6 7 18.5 4t12.5 -12v-877q41 0 139 4zM168 86q175 0 405 4v559l-415 -549q-8 -14 10 -14z" />
<glyph unicode="5" horiz-adv-x="886" d="M182 569q310 -3 455 -92.5t145 -249.5q0 -159 -150 -286.5t-495 -264.5q-8 -3 -13.5 8t1.5 15q235 120 330.5 241t95.5 253q0 152 -106.5 234.5t-307.5 82.5q-10 0 -16 8t-4 17l65 364q1 10 2.5 13.5t6.5 6t18 3.5q409 43 476 60q49 12 60 35l7 17q1 4 7 5t11 -1.5 t4 -7.5l-41 -235q-7 -23 -18.5 -29t-38.5 -6l-434 -10q-25 0 -31 -29z" />
<glyph unicode="6" horiz-adv-x="1026" d="M670 602q139 0 208.5 -75.5t69.5 -186.5q0 -163 -118.5 -265t-309.5 -102q-181 0 -300.5 146t-119.5 373q0 133 49 257.5t140.5 227.5t234.5 174.5t320 93.5q4 1 7 -3.5t2.5 -10t-5.5 -6.5q-127 -28 -227 -97.5t-161 -164.5t-92.5 -205t-31.5 -226q0 -132 30 -247.5 t86.5 -188.5t127.5 -73q72 0 101.5 67.5t29.5 196.5q0 117 -35 183.5t-101 66.5q-36 0 -64.5 -15t-61.5 -53q-5 -2 -10.5 0t-10 6.5t-2.5 7.5q87 119 244 119z" />
<glyph unicode="7" horiz-adv-x="974" d="M494 -211q-15 -33 -43 -49l-215 -64q-5 -2 -11.5 4.5t-3.5 10.5l557 1067q7 14 -10 14q-102 0 -172 -0.5t-137.5 -2t-109 -3t-81.5 -6t-61 -8.5t-41.5 -12.5t-29 -16.5t-17.5 -21.5t-12.5 -26t-9.5 -31.5q-2 -7 -3 -11q-2 -5 -8.5 -6t-11.5 2t-4 8l88 377q2 6 18 3 q6 -3 6 -5q-7 -35 10 -44.5t87 -9.5h614q9 0 14.5 -9.5t1.5 -16.5z" />
<glyph unicode="8" horiz-adv-x="1169" d="M717 752q44 -24 69 -38.5t65 -40.5t63 -46t51 -50t43 -59.5t25.5 -68t10.5 -80.5q0 -111 -66 -202.5t-175.5 -142.5t-237.5 -51q-194 0 -317 111.5t-123 263.5q0 110 67.5 205t174.5 160q-138 105 -138 248q0 70 32.5 126.5t85 90t113.5 51.5t122 18q147 0 237 -73.5 t90 -161.5q0 -76 -54 -147.5t-138 -112.5zM547 1210q-49 0 -80 -46t-31 -120q0 -45 17.5 -83.5t54.5 -71.5t72 -57t92 -56q22 62 22 187q0 99 -42 173t-105 74zM625 25q86 0 141 67.5t55 171.5q0 53 -18.5 99.5t-44 79t-71 67.5t-80 56t-92 54t-87.5 52q-78 -106 -78 -266 q0 -158 77.5 -269.5t197.5 -111.5z" />
<glyph unicode="9" horiz-adv-x="1026" d="M379 354q-94 0 -159 42t-92.5 104.5t-27.5 138.5q0 154 112.5 249t293.5 95q191 0 316.5 -142t125.5 -364q0 -136 -51 -266.5t-144.5 -239.5t-239 -185.5t-320.5 -98.5q-5 -1 -8 3.5t-3 10t4 6.5q127 28 229.5 102.5t167 175.5t98.5 217t34 234q0 128 -29.5 241t-87 185 t-129.5 72t-101.5 -62t-29.5 -180q0 -128 35 -200t102 -72q65 0 127 65q4 6 14 -1t7 -13q-88 -117 -244 -117z" />
<glyph unicode=":" horiz-adv-x="423" d="M215 674q-58 0 -91.5 32.5t-33.5 90.5q0 55 34 86.5t91 31.5q58 0 89.5 -31t31.5 -87q0 -59 -31.5 -91t-89.5 -32zM215 -23q-57 0 -91 33.5t-34 91.5q0 54 34 86.5t91 32.5q58 0 89.5 -32t31.5 -87q0 -59 -31.5 -92t-89.5 -33z" />
<glyph unicode=";" horiz-adv-x="462" d="M221 674q-59 0 -92 32.5t-33 90.5q0 55 33 86.5t92 31.5q57 0 88 -31t31 -87q0 -59 -31 -91t-88 -32zM213 217q73 0 113.5 -55t40.5 -158q0 -93 -42 -172t-124 -158q-6 -6 -14 1.5t-3 13.5q101 104 101 241q0 52 -19 82q-22 -28 -78 -28q-48 0 -77 31t-29 83 q0 56 35 87.5t96 31.5z" />
<glyph unicode="&#x3c;" horiz-adv-x="833" d="M758 246q14 -6 13 -60q-1 -45 -13 -41l-684 306q-10 5 -10 34t10 35l684 301q8 4 11 -16q8 -40 -4 -71q-3 -9 -7 -11l-557 -238z" />
<glyph unicode="=" horiz-adv-x="958" d="M70 580q-6 0 -8 24t-0.5 48t6.5 24h821q9 0 9 -48t-9 -48h-819zM70 293q-6 0 -8 23.5t-0.5 47t6.5 23.5h821q9 0 9 -47t-9 -47h-819z" />
<glyph unicode="&#x3e;" horiz-adv-x="833" d="M760 518q10 -6 10 -35t-10 -34l-684 -304q-7 -3 -10 12q-9 35 1 71q4 14 9 16l555 239l-555 238q-15 8 -13 62q2 41 13 38z" />
<glyph unicode="?" horiz-adv-x="694" d="M338 1241q-49 0 -57 -84q-11 -141 -117 -141q-53 0 -78 29t-25 67q0 71 79.5 119.5t197.5 48.5q133 0 224 -63.5t91 -180.5q0 -40 -10.5 -74t-35.5 -64t-42.5 -47t-56.5 -48t-53 -43q-121 -107 -121 -252q0 -31 10 -109q2 -4 -6 -7.5t-16 -3.5t-11 3q-24 55 -38.5 126.5 t-14.5 121.5q0 53 17.5 95t42 72.5t49 62.5t42 81.5t17.5 112.5q0 78 -23.5 128t-64.5 50zM330 -23q-57 0 -90 33.5t-33 91.5q0 54 33 86.5t90 32.5q58 0 89.5 -32t31.5 -87q0 -59 -31.5 -92t-89.5 -33z" />
<glyph unicode="@" horiz-adv-x="1492" d="M956 174q-84 0 -115.5 48.5t-9.5 139.5l3 13q-68 -95 -146.5 -150t-148.5 -55q-59 0 -93.5 43.5t-21.5 138.5q16 110 87.5 214.5t166 167.5t178.5 63q70 0 102 -49q59 27 70 63q3 4 19 3.5t16 -5.5l-84 -459q-23 -123 72 -123q35 0 72.5 20t71.5 57.5t55.5 100 t21.5 138.5q0 137 -65.5 251t-182.5 181t-262 67q-117 0 -214 -46t-159.5 -124.5t-96.5 -181.5t-34 -219q0 -255 153 -406t410 -151q95 0 175.5 23t166.5 81q4 3 9 0t6 -8t-2 -8q-107 -91 -211 -125.5t-217 -34.5q-173 0 -311.5 67t-222 200t-83.5 311q0 146 58 272.5 t155 213t224.5 135.5t265.5 49q123 0 228 -39.5t174.5 -106t108.5 -154t39 -182.5q0 -181 -124.5 -307.5t-303.5 -126.5zM641 301q59 0 138 104t102 218q8 55 -5 91.5t-45 35.5q-72 -3 -136.5 -90.5t-88.5 -202.5q-15 -53 -8 -104.5t43 -51.5z" />
<glyph unicode="A" horiz-adv-x="1466" d="M1468 25q9 0 9 -12.5t-9 -12.5q-41 0 -128 4t-128 4q-48 0 -121 -4t-114 -4q-9 0 -9 12.5t9 12.5q85 0 97.5 34t-38.5 134l-213 419h-364l-146 -321q-51 -123 -2.5 -194.5t168.5 -71.5q9 0 9 -12.5t-9 -12.5q-38 0 -112 4t-129 4t-128.5 -4t-117.5 -4q-8 0 -8 12.5 t8 12.5q83 0 135.5 56.5t130.5 229.5l444 977q2 6 18 6.5t19 -6.5l512 -1007q72 -146 119 -201t98 -55zM485 670h310l-164 323z" />
<glyph unicode="B" horiz-adv-x="1218" d="M737 719q172 -22 273.5 -116t101.5 -232q0 -161 -135.5 -270t-337.5 -109q-35 0 -141 6t-154 6q-52 0 -139.5 -2t-120.5 -2q-6 0 -6 12.5t6 12.5q88 0 117.5 27t29.5 114v948q0 87 -29 114t-116 27q-4 0 -4 12.5t4 12.5q33 0 119.5 -3t138.5 -3q38 0 122.5 6t129.5 6 q187 0 289 -67.5t102 -196.5q0 -98 -64 -178t-186 -125zM565 1241q-60 0 -82 -28t-22 -103v-389q47 -2 82 -2q106 0 163.5 80.5t57.5 204.5q0 116 -51.5 176.5t-147.5 60.5zM604 43q268 0 268 279q0 158 -75.5 250t-229.5 92q-47 0 -106 -5v-493q0 -68 27 -95.5t116 -27.5z " />
<glyph unicode="C" horiz-adv-x="1370" d="M862 1303q90 0 188 -15.5t154 -40.5q18 -6 24 -15t9 -32l25 -285q0 -6 -10 -7.5t-13 5.5q-69 161 -186 249.5t-271 88.5q-203 0 -313.5 -149.5t-110.5 -401.5q0 -188 60 -343t170.5 -247t249.5 -92q259 0 419 353q3 7 14 5.5t11 -7.5l-31 -279q-5 -26 -9.5 -33t-22.5 -14 q-184 -68 -375 -68q-153 0 -280 40.5t-211.5 107t-142.5 154.5t-84 180.5t-26 187.5q0 146 63 271t169 209t243.5 131t286.5 47z" />
<glyph unicode="D" horiz-adv-x="1443" d="M668 -8q-41 0 -164 6t-180 6q-52 0 -141 -2t-122 -2q-5 0 -5 12.5t5 12.5q94 0 122 26t28 115v948q0 88 -26.5 114.5t-118.5 26.5q-6 0 -6 12.5t6 12.5q33 0 119.5 -3t138.5 -3t163.5 5t151.5 5q156 0 288.5 -48t223 -131t141.5 -197.5t51 -245.5q0 -150 -54 -277 t-146 -212.5t-215 -133t-260 -47.5zM647 39q199 0 322 151.5t123 425.5q0 174 -52.5 315t-152 224.5t-228.5 83.5q-127 0 -174 -24.5t-47 -104.5v-922q0 -81 42.5 -115t166.5 -34z" />
<glyph unicode="E" horiz-adv-x="1130" d="M1016 326q2 6 13 3.5t11 -7.5q-20 -160 -20 -291q0 -18 -6.5 -24.5t-24.5 -6.5h-905q-6 0 -6 12.5t6 12.5q93 0 119 25.5t26 115.5v948q0 89 -26 115t-119 26q-6 0 -6 12.5t6 12.5h868q21 0 21 -18l4 -273q0 -5 -11 -6.5t-14 4.5q-34 120 -110.5 177t-204.5 57h-62 q-61 0 -89.5 -26.5t-28.5 -82.5v-418h170q119 0 182 41.5t63 114.5q0 6 11.5 6t11.5 -6q0 -49 -1 -105t-1 -79q0 -34 3 -101.5t3 -107.5q0 -5 -12.5 -5t-12.5 5q0 85 -64 132.5t-185 47.5h-168v-463q0 -60 22.5 -88.5t71.5 -28.5h67q160 0 257 65.5t141 203.5z" />
<glyph unicode="F" horiz-adv-x="1069" d="M973 1262l4 -273q0 -5 -11 -6.5t-14 4.5q-34 120 -110.5 177t-204.5 57h-62q-61 0 -89.5 -26.5t-28.5 -82.5v-442h147q118 0 181 42t63 115q0 5 12 5t12 -5q0 -51 -1 -107t-1 -79q0 -33 2 -100.5t2 -106.5q0 -6 -12 -6t-12 6q0 83 -64 130.5t-184 47.5h-145v-438 q0 -64 16.5 -94t61.5 -42.5t141 -12.5q4 0 4 -12.5t-4 -12.5q-39 0 -150 2t-190 2q-52 0 -142.5 -2t-123.5 -2q-6 0 -6 12.5t6 12.5q102 0 130.5 25.5t28.5 115.5v948q0 89 -26 115t-119 26q-6 0 -6 12.5t6 12.5h868q21 0 21 -18z" />
<glyph unicode="G" horiz-adv-x="1472" d="M838 -25q-170 0 -310.5 51t-233.5 139.5t-143.5 207t-50.5 254.5q0 197 102 352t278.5 239.5t396.5 84.5q95 0 193.5 -15t158.5 -41q18 -6 23.5 -15t7.5 -32l26 -285q0 -6 -10 -7.5t-14 5.5q-71 157 -198 245.5t-288 88.5q-209 0 -318.5 -145t-109.5 -397 q0 -308 153 -501.5t388 -193.5q63 0 100.5 9t65 36t38.5 75.5t11 127.5q0 54 -1.5 85t-9.5 59t-19.5 40t-36.5 21.5t-55 11.5t-81 2q-7 0 -10.5 8.5t-1 16.5t9.5 8q247 -16 498 -4q9 0 9.5 -14.5t-9.5 -14.5q-52 1 -63 -36.5t-11 -202.5q0 -82 7 -129.5t7 -51.5 q0 -11 -4.5 -15t-19.5 -9q-267 -58 -475 -58z" />
<glyph unicode="H" horiz-adv-x="1564" d="M1499 25q6 0 6 -12.5t-6 -12.5q-33 0 -126.5 2t-145.5 2q-71 0 -164 -2t-121 -2q-6 0 -6 12.5t6 12.5q109 0 139.5 25.5t30.5 115.5v471h-661v-471q0 -90 31 -115.5t139 -25.5q5 0 5 -12.5t-5 -12.5q-34 0 -129.5 2t-163.5 2q-52 0 -143 -2t-124 -2q-5 0 -5 12.5t5 12.5 q103 0 132.5 26t29.5 115v948q0 88 -29 114.5t-128 26.5q-6 0 -6 12.5t6 12.5q33 0 121.5 -3t140.5 -3q68 0 164 3t129 3q5 0 5 -12.5t-5 -12.5q-106 0 -138 -28t-32 -117v-416h661v416q0 90 -31 117.5t-139 27.5q-6 0 -6 12.5t6 12.5q28 0 121 -3t164 -3q52 0 145.5 3 t126.5 3q6 0 6 -12.5t-6 -12.5q-102 0 -131 -26t-29 -115v-948q0 -90 29 -115.5t131 -25.5z" />
<glyph unicode="I" horiz-adv-x="700" d="M465 166q0 -90 25.5 -115.5t119.5 -25.5q6 0 6 -12.5t-6 -12.5q-32 0 -119 2t-143 2q-52 0 -140.5 -2t-121.5 -2q-4 0 -4 12.5t4 12.5q94 0 122 26t28 115v948q0 88 -28 114.5t-122 26.5q-4 0 -4 12.5t4 12.5q33 0 121.5 -3t140.5 -3q56 0 143.5 3t118.5 3q6 0 6 -12.5 t-6 -12.5q-92 0 -118.5 -27.5t-26.5 -117.5v-944z" />
<glyph unicode="J" horiz-adv-x="694" d="M610 1280q6 0 6 -12.5t-6 -12.5q-77 0 -99 -28t-22 -117v-1118q0 -230 -113.5 -359t-316.5 -129q-78 0 -127 32.5t-49 90.5q0 42 27 73.5t80 31.5q37 0 63.5 -19t40.5 -46t24.5 -54.5t24 -46.5t31.5 -19q44 0 64 70t20 231v1266q0 88 -32 114.5t-140 26.5q-4 0 -4 12.5 t4 12.5q40 0 135 -3t150 -3q52 0 132 3t107 3z" />
<glyph unicode="K" horiz-adv-x="1341" d="M1360 25q6 0 6 -12.5t-6 -12.5h-230q-24 0 -60 -2q-69 -5 -103.5 25.5t-171.5 215.5q-28 37 -43 58l-269 360l-45 -45v-446q0 -90 26 -115.5t120 -25.5q8 0 8 -12.5t-8 -12.5q-32 0 -118.5 2t-141.5 2q-52 0 -141 -2t-122 -2q-5 0 -5 12.5t5 12.5q94 0 122 26t28 115v948 q0 88 -26.5 114.5t-118.5 26.5q-6 0 -6 12.5t6 12.5q33 0 119.5 -3t138.5 -3q55 0 142 3t118 3q6 0 6 -12.5t-6 -12.5q-91 0 -118.5 -28t-27.5 -117v-434l385 393q75 75 55.5 130.5t-120.5 55.5q-6 0 -6 12.5t6 12.5q30 0 112 -3t152 -3q73 0 155 3t111 3q6 0 6 -12.5 t-6 -12.5q-94 0 -206.5 -54t-204.5 -144l-232 -236l303 -409q68 -97 114.5 -160.5t86 -108t62.5 -67t51 -35t46 -14.5t52 -2z" />
<glyph unicode="L" horiz-adv-x="1116" d="M436 1112v-938q0 -75 21 -96t96 -21h70q160 0 277 85.5t155 230.5q1 6 11.5 4t10.5 -8q-18 -203 -18 -338q0 -17 -7 -24t-24 -7h-967q-5 0 -5 12.5t5 12.5q94 0 121 26t27 115v948q0 88 -27.5 114.5t-120.5 26.5q-5 0 -5 12.5t5 12.5q29 0 118.5 -3t142.5 -3q55 0 142 3 t118 3q6 0 6 -12.5t-6 -12.5q-93 0 -119.5 -27t-26.5 -116z" />
<glyph unicode="M" horiz-adv-x="1755" d="M1706 25q4 0 4 -12.5t-4 -12.5q-33 0 -121.5 2t-140.5 2q-55 0 -141.5 -2t-118.5 -2q-6 0 -6 12.5t6 12.5q96 0 123.5 26t21.5 115l-43 838l-422 -990q-3 -8 -16.5 -8t-16.5 8l-518 985l-16 -739q-2 -110 44 -172.5t130 -62.5q6 0 6 -12.5t-6 -12.5q-27 0 -92.5 2 t-106.5 2q-48 0 -119.5 -2t-97.5 -2q-6 0 -6 12.5t6 12.5q83 0 133.5 63.5t51.5 171.5l18 848l-2 2q-40 75 -84.5 110t-101.5 35q-6 0 -6 12.5t6 12.5q30 0 90 -2t80 -2q40 0 92 2t63 2q26 0 41 -18t53 -88l447 -838l389 893q12 29 25 40t36 11q12 0 43.5 -2t53.5 -2 q47 0 111.5 2t91.5 2q6 0 6 -12.5t-6 -12.5q-96 0 -139.5 -39t-39.5 -120l49 -930q6 -91 32 -116t118 -25z" />
<glyph unicode="N" horiz-adv-x="1505" d="M1481 1280q5 0 5 -12.5t-5 -12.5q-82 0 -129 -64t-47 -173v-1049q0 -6 -10 -7.5t-13 1.5l-960 1094v-797q0 -109 45.5 -172t124.5 -63q4 0 4 -12.5t-4 -12.5q-27 0 -93 2t-106 2q-43 0 -119.5 -2t-107.5 -2q-6 0 -6 12.5t6 12.5q89 0 141.5 63t52.5 172v866 q-67 73 -115.5 101t-99.5 28q-5 0 -5 12.5t5 12.5q27 0 83.5 -2t80.5 -2q56 0 133 2t92 2q13 0 22.5 -6.5t16.5 -16t25.5 -35t38.5 -48.5l708 -818v662q0 109 -45.5 173t-124.5 64q-5 0 -5 12.5t5 12.5q27 0 93 -3t106 -3q39 0 109 3t98 3z" />
<glyph unicode="O" horiz-adv-x="1568" d="M750 -25q-191 0 -341 91t-229.5 242t-79.5 331q0 129 43 239t115 187t165.5 131.5t195 80.5t202.5 26q146 0 270 -55t205.5 -146.5t126.5 -208t45 -240.5q0 -140 -58 -266t-155 -216t-229 -143t-276 -53zM817 27q176 0 288 150.5t112 416.5q0 188 -57 335.5t-166.5 232.5 t-254.5 85q-186 0 -286.5 -140.5t-100.5 -391.5q0 -198 60 -355.5t166.5 -245t238.5 -87.5z" />
<glyph unicode="P" horiz-adv-x="1132" d="M442 174q0 -65 14.5 -94.5t55 -42t127.5 -12.5q6 0 6 -12.5t-6 -12.5q-40 0 -142 2t-167 2q-52 0 -139.5 -2t-120.5 -2q-6 0 -6 12.5t6 12.5q93 0 119 25.5t26 115.5v948q0 89 -26 115t-119 26q-6 0 -6 12.5t6 12.5q33 0 119.5 -3t138.5 -3q30 0 129.5 6t148.5 6 q133 0 230 -33t156.5 -109.5t64.5 -193.5q3 -81 -21.5 -150.5t-69 -117t-103.5 -81t-123.5 -49t-129.5 -15.5q-55 0 -96 10q-4 1 -4.5 8t2.5 13t8 5q31 -8 70 -8q93 0 156 88t63 250q0 163 -68.5 250.5t-199.5 87.5q-58 0 -78.5 -26.5t-20.5 -104.5v-936z" />
<glyph unicode="Q" horiz-adv-x="1568" d="M1526 -367q4 1 7 -4t3.5 -9.5t-2.5 -6.5q-88 -25 -166 -25q-157 0 -325.5 102t-288.5 285h-4q-191 0 -341 91t-229.5 242t-79.5 331q0 129 43 239t115 187t165.5 131.5t195 80.5t202.5 26q146 0 270 -55t205.5 -146.5t126.5 -208t45 -240.5q0 -216 -128 -388t-332 -245 q79 -172 205 -281.5t241 -109.5q36 0 72 4zM352 715q0 -198 60 -355.5t166.5 -245t238.5 -87.5q176 0 288 150.5t112 416.5q0 188 -57 335.5t-166.5 232.5t-254.5 85q-186 0 -286.5 -140.5t-100.5 -391.5z" />
<glyph unicode="R" horiz-adv-x="1429" d="M1450 25q4 0 4 -12.5t-4 -12.5h-365q-45 0 -167.5 169t-296.5 472q-16 -2 -48 -2q-79 0 -112 2v-475q0 -90 25.5 -115.5t119.5 -25.5q4 0 4 -12.5t-4 -12.5q-32 0 -119 2t-143 2q-52 0 -139.5 -2t-120.5 -2q-6 0 -6 12.5t6 12.5q94 0 120.5 26t26.5 115v948q0 89 -26 115 t-119 26q-4 0 -4 12.5t4 12.5q33 0 119.5 -3t138.5 -3q40 0 134 6t140 6q189 0 292.5 -68.5t103.5 -191.5q0 -94 -57.5 -179.5t-149.5 -139.5q242 -381 382 -531.5t261 -150.5zM461 700q49 -8 119 -8q110 0 154 54t44 202q0 88 -14 147.5t-41 91t-59 44t-76 12.5 q-70 0 -98.5 -31t-28.5 -102v-410z" />
<glyph unicode="S" horiz-adv-x="1054" d="M356 1073q0 -38 9.5 -72t32.5 -65t43.5 -54t60.5 -52.5t63.5 -45.5t71.5 -47q43 -27 66.5 -43t61.5 -44t60 -49t48.5 -52.5t40.5 -61.5t24 -68t10 -79q0 -161 -125.5 -263t-316.5 -102q-91 0 -191.5 25.5t-136.5 56.5q-20 13 -20 39l-6 326q-1 9 9 10.5t13 -6.5 q82 -169 132 -238q114 -161 253 -161q82 0 135.5 44t53.5 150q0 40 -10 77.5t-22 65.5t-39.5 60t-45.5 50.5t-57 47.5t-57.5 41.5t-63.5 42.5q-43 28 -62 41t-56 40.5t-55 45.5t-44 48t-37.5 56.5t-21 62t-9.5 73.5q0 82 38 147.5t100.5 104t137 58.5t154.5 20 q72 0 146 -13.5t118 -32.5q31 -14 31 -40v-302q0 -6 -10 -9t-13 3q-4 9 -20 48.5t-30.5 72.5t-43 77.5t-59 75t-76.5 52.5t-98 22q-81 0 -134 -47t-53 -137z" />
<glyph unicode="T" horiz-adv-x="1316" d="M455 1233q-243 0 -351 -318q-2 -6 -12 -4.5t-10 7.5q29 276 29 407q0 9 11 9.5t11 -9.5q0 -45 117 -45q175 -6 412 -6q106 0 229 3t166 3q78 0 114 10t46 41q1 7 12.5 7t11.5 -7q-7 -62 -13.5 -207.5t-6.5 -205.5q0 -6 -10.5 -6t-12.5 6q-30 157 -114 236t-207 79 q-60 0 -79.5 -25.5t-19.5 -97.5v-944q0 -90 30.5 -115.5t139.5 -25.5q6 0 6 -12.5t-6 -12.5q-34 0 -129 2t-157 2q-58 0 -154 -2t-131 -2q-6 0 -6 12.5t6 12.5q108 0 140 26t32 115v948q0 69 -18.5 94t-75.5 25z" />
<glyph unicode="U" horiz-adv-x="1439" d="M1169 1018q0 110 -50 173.5t-140 63.5q-5 0 -5 12.5t5 12.5q32 0 105 -3t118 -3q39 0 108.5 3t98.5 3q5 0 5 -12.5t-5 -12.5q-81 0 -125.5 -63.5t-44.5 -173.5v-569q0 -217 -140 -347.5t-370 -130.5t-374 129.5t-144 352.5v661q0 88 -26.5 114.5t-118.5 26.5 q-6 0 -6 12.5t6 12.5q33 0 119.5 -3t138.5 -3q55 0 142 3t118 3q6 0 6 -12.5t-6 -12.5q-91 0 -118.5 -28t-27.5 -117v-586q0 -244 97 -360.5t272 -116.5q170 0 266 103.5t96 295.5v572z" />
<glyph unicode="V" horiz-adv-x="1351" d="M1362 1280q6 0 6 -12.5t-6 -12.5q-75 0 -141.5 -65t-108.5 -176l-379 -1012q-3 -8 -22.5 -8t-22.5 8l-522 1108q-37 74 -73.5 109.5t-82.5 35.5q-6 0 -6 12.5t6 12.5q17 0 54.5 -3t95.5 -3q134 0 251 3t130 3q6 0 6 -12.5t-6 -12.5q-88 0 -117.5 -49.5t10.5 -132.5 l354 -756l267 703q39 100 5 167.5t-132 67.5q-6 0 -6 12.5t6 12.5q34 0 112.5 -3t141.5 -3q39 0 93 3t87 3z" />
<glyph unicode="W" horiz-adv-x="1865" d="M1878 1280q4 0 4 -12.5t-4 -12.5q-75 0 -142 -64t-110 -177l-379 -1012q-3 -8 -22.5 -8t-22.5 8l-262 555l-207 -555q-3 -8 -22.5 -8t-22.5 8l-522 1108q-44 93 -71.5 119t-84.5 26q-6 0 -6 12.5t6 12.5q17 0 54.5 -3t95.5 -3q107 0 196 3t101 3q6 0 6 -12.5t-6 -12.5 q-35 0 -55 -4.5t-31 -15t-8 -33t13.5 -52t33.5 -77.5l368 -782l129 338l-227 481q-35 73 -65.5 109t-65.5 36q-6 0 -6 12.5t6 12.5q15 0 46.5 -3t80.5 -3q91 0 165 3t83 3q6 0 6 -12.5t-6 -12.5q-19 0 -30.5 -2.5t-18 -11t-6.5 -20.5t6.5 -33.5t18 -48t30.5 -66.5l90 -190 l51 137q46 122 45 178.5t-51 56.5q-6 0 -6 12.5t6 12.5q10 0 35.5 -3t97.5 -3q35 0 82.5 3t77.5 3q4 0 4 -12.5t-4 -12.5q-138 0 -228 -241l-75 -203l245 -518l265 706q40 110 12.5 183t-105.5 73q-6 0 -6 12.5t6 12.5q32 0 103.5 -3t126.5 -3q39 0 93.5 3t88.5 3z" />
<glyph unicode="X" horiz-adv-x="1325" d="M1319 25q6 0 6 -12.5t-6 -12.5q-28 0 -99.5 2t-115.5 2q-64 0 -154 -2t-123 -2q-6 0 -6 12.5t6 12.5q21 0 35.5 3t24.5 11.5t7.5 24.5t-17.5 40l-281 435l-176 -252q-87 -121 -80 -191.5t106 -70.5q4 0 4 -12.5t-4 -12.5q-35 0 -112.5 2t-140.5 2q-40 0 -94.5 -2 t-88.5 -2q-6 0 -6 12.5t6 12.5q64 0 155.5 67.5t192.5 206.5l209 283l-327 510q-56 88 -106.5 125.5t-108.5 37.5q-6 0 -6 12.5t6 12.5q28 0 87.5 -3t86.5 -3q64 0 163 3t132 3q4 0 4 -12.5t-4 -12.5q-22 0 -37 -3t-25.5 -11t-8 -25t18.5 -42l271 -416l164 233 q86 123 79.5 193.5t-106.5 70.5q-4 0 -4 12.5t4 12.5q35 0 113 -3t141 -3q40 0 94 3t88 3q6 0 6 -12.5t-6 -12.5q-65 0 -157 -68.5t-193 -207.5l-195 -266l351 -543q51 -77 104.5 -111t122.5 -34z" />
<glyph unicode="Y" horiz-adv-x="1267" d="M1280 1280q4 0 4 -12.5t-4 -12.5q-64 0 -156 -78.5t-163 -197.5l-213 -356v-457q0 -90 25.5 -115.5t119.5 -25.5q6 0 6 -12.5t-6 -12.5q-32 0 -118.5 2t-141.5 2q-52 0 -140.5 -2t-121.5 -2q-5 0 -5 12.5t5 12.5q94 0 121.5 26t27.5 115v414l-299 464q-77 118 -126 164.5 t-85 46.5q-6 0 -6 12.5t6 12.5q21 0 63.5 -3t63.5 -3q63 0 186.5 3t155.5 3q5 0 5 -12.5t-5 -12.5q-59 0 -71 -40.5t26 -96.5l281 -442l188 321q68 114 52 186t-111 72q-6 0 -6 12.5t6 12.5q38 0 122 -3t154 -3q35 0 82.5 3t77.5 3z" />
<glyph unicode="Z" horiz-adv-x="1239" d="M123 27l719 1202q6 11 4 13.5t-15 2.5q-117 0 -192 -3t-149.5 -13t-121 -27t-91 -47.5t-76 -72.5t-60.5 -103q-2 -3 -8.5 -3t-11.5 2.5t-4 6.5l82 356q1 3 7.5 3t12 -2t4.5 -5q-6 -36 16 -46.5t101 -10.5h747q9 0 15 -10.5t0 -16.5l-709 -1198q-5 -7 -6 -10.5t2.5 -4.5 t11.5 -1h414q112 0 208 81.5t116 192.5q1 6 11.5 6t10.5 -6l-28 -297q0 -7 -5.5 -13.5t-13.5 -6.5q-305 4 -981 4q-8 0 -12 10t2 17z" />
<glyph unicode="[" horiz-adv-x="561" d="M137 -217v1681q0 13 3.5 17t15.5 4h327q6 0 6 -12.5t-6 -12.5q-92 0 -118.5 -27.5t-26.5 -117.5v-1385q0 -90 26.5 -117.5t118.5 -27.5q6 0 6 -12.5t-6 -12.5h-327q-12 0 -15.5 4t-3.5 19z" />
<glyph unicode="\" horiz-adv-x="718" d="M567 -338l-514 1804q-2 9 45.5 23.5t51.5 5.5l516 -1806q2 -8 -46.5 -22t-52.5 -5z" />
<glyph unicode="]" horiz-adv-x="561" d="M424 -217q0 -15 -3 -19t-15 -4h-330q-4 0 -4 12.5t4 12.5q92 0 119.5 28t27.5 117v1385q0 89 -27.5 117t-119.5 28q-4 0 -4 12.5t4 12.5h330q12 0 15 -3.5t3 -17.5v-1681z" />
<glyph unicode="^" horiz-adv-x="802" d="M682 449q3 -6 -6 -11t-12 0l-263 277l-262 -277q-4 -4 -13 0.5t-7 10.5l260 509q1 10 21.5 10t23.5 -10z" />
<glyph unicode="_" horiz-adv-x="815" d="M70 -166q-6 0 -8 25t-0.5 50t6.5 25h677q9 0 9 -50t-9 -50h-675z" />
<glyph unicode="`" horiz-adv-x="561" d="M506 901q-234 103 -455 158q-27 5 31 32q81 36 147 46q23 3 29 -2q25 -20 113 -96.5t143 -116.5q5 -2 5 -8.5t-3.5 -11t-9.5 -1.5z" />
<glyph unicode="a" horiz-adv-x="985" d="M958 119q6 3 10.5 -2t4.5 -10.5t-4 -8.5l-226 -108q-12 -4 -20 -4q-31 0 -63.5 37t-49.5 92l-121 -64q-68 -35 -114 -50t-94 -15q-81 0 -125.5 37.5t-44.5 103.5q0 118 159 174l328 121v268q0 125 -26 182.5t-83 57.5q-45 0 -79 -34.5t-50 -76t-30 -100.5 q-23 -115 -119 -115q-52 0 -82 27t-29 76q2 61 79.5 125t186.5 104.5t201 40.5q108 0 172 -56t64 -169v-484q0 -76 27 -117.5t73 -41.5q22 0 55 10zM512 111l90 43q-4 28 -4 45v178l-164 -64q-98 -34 -98 -118q0 -47 27 -77t69 -30q33 0 80 23z" />
<glyph unicode="b" horiz-adv-x="1075" d="M666 530q159 -7 242 -68.5t83 -170.5q0 -133 -112.5 -216t-288.5 -83q-34 0 -141.5 6t-153.5 6q-44 0 -123.5 -2t-110.5 -2q-5 0 -5 12.5t5 12.5q87 0 111.5 25.5t24.5 115.5v627q0 89 -23.5 115t-107.5 26q-6 0 -6 12t6 12q29 0 106.5 -3t122.5 -3q41 0 133.5 6.5 t140.5 6.5q151 0 236.5 -51.5t85.5 -147.5q0 -77 -57.5 -137.5t-167.5 -98.5zM518 938q-72 0 -95.5 -29t-23.5 -121v-253q53 -3 93 -3q108 0 151 35.5t43 147.5q0 223 -168 223zM553 25q223 0 223 217q0 250 -309 250q-34 0 -68 -3v-323q0 -77 31.5 -109t122.5 -32z" />
<glyph unicode="c" horiz-adv-x="1085" d="M631 983q76 0 165 -15.5t146 -43.5q14 -6 18.5 -13t4.5 -22l10 -211q0 -6 -10.5 -7.5t-14.5 5.5q-77 134 -159 198t-185 64q-145 0 -223 -116t-78 -308q0 -93 19.5 -178.5t59 -158t108.5 -116t159 -43.5q105 0 178 63.5t142 205.5q3 7 12.5 5.5t9.5 -7.5l-16 -217 q-2 -18 -6.5 -24t-22.5 -13q-160 -56 -327 -56q-121 0 -219 32.5t-160 84.5t-104 120.5t-59.5 135.5t-17.5 135q0 140 74.5 255t205 180t290.5 65z" />
<glyph unicode="d" d="M569 -8q-37 0 -132 6t-140 6t-125 -2t-111 -2q-5 0 -5 12.5t5 12.5q87 0 111.5 25.5t24.5 115.5v627q0 89 -23.5 115t-107.5 26q-6 0 -6 12t6 12q29 0 107 -3t124 -3q41 0 125.5 5.5t124.5 5.5q259 0 406 -134t147 -344q0 -214 -149 -353.5t-382 -139.5zM547 37 q150 0 233.5 110.5t83.5 315.5q0 75 -12 141.5t-38 125t-64.5 101t-95.5 67t-126 24.5q-70 0 -99.5 -29.5t-29.5 -104.5v-600q0 -83 30 -117t118 -34z" />
<glyph unicode="e" horiz-adv-x="927" d="M291 688q-12 -62 -12 -137q0 -227 100 -362.5t283 -135.5q115 0 198 58q3 2 7.5 -2t6.5 -9.5t0 -9.5q-143 -115 -315 -115q-120 0 -217 41t-157 110t-92 155.5t-32 181.5q0 217 152 365.5t379 148.5q138 0 217.5 -67.5t79.5 -174.5q0 -24 -5.5 -34.5t-19.5 -10.5z M522 928q-170 0 -223 -201l371 6q-1 93 -42 144t-106 51z" />
<glyph unicode="f" horiz-adv-x="862" d="M815 942q0 -36 2 -119t2 -106q0 -6 -11.5 -6t-12.5 6q-47 111 -115 163t-166 52h-14q-65 0 -84 -26t-19 -115v-299q89 2 160 6t104.5 7t38.5 3q6 0 10.5 -14t4.5 -31q0 -19 -4.5 -36t-10.5 -17q-4 0 -38 5.5t-104.5 12t-160.5 8.5v-262q0 -92 34 -120.5t149 -28.5 q6 0 6 -12.5t-6 -12.5q-37 0 -133 2t-150 2q-48 0 -127 -2t-109 -2q-5 0 -5 12.5t5 12.5q85 0 109.5 26t24.5 115v627q0 88 -25 114.5t-109 26.5q-5 0 -5 12t5 12h734q20 0 20 -16z" />
<glyph unicode="g" horiz-adv-x="1128" d="M596 -25q-124 0 -227 41.5t-169.5 110.5t-102.5 156t-36 180q0 242 159.5 381t432.5 139q201 0 312 -63q14 -7 17 -15t5 -31l10 -192q0 -5 -10.5 -7t-13.5 5q-157 258 -367 258q-146 0 -228.5 -117t-82.5 -332q0 -208 94.5 -337t255.5 -129q62 0 95.5 7.5t55 35t27.5 70 t6 122.5q0 75 -21.5 93t-113.5 18q-8 0 -11 8t-0.5 16t9.5 8q182 -13 379 -4q9 0 9.5 -14t-9.5 -14q-44 1 -53.5 -19t-9.5 -112q0 -81 5 -129.5t5 -51.5v-5t-1 -3.5t-1 -3t-1.5 -2.5t-2.5 -2t-3.5 -2t-4 -1.5t-5.5 -2t-6 -2.5q-139 -58 -397 -58z" />
<glyph unicode="h" horiz-adv-x="1294" d="M1231 25q6 0 6 -12.5t-6 -12.5q-29 0 -108.5 2t-125.5 2q-49 0 -127 -2t-108 -2q-6 0 -6 12.5t6 12.5q83 0 107 26t24 115v291h-494v-291q0 -89 24.5 -115t108.5 -26q4 0 4 -12.5t-4 -12.5q-30 0 -108.5 2t-126.5 2q-45 0 -125 -2t-111 -2q-5 0 -5 12.5t5 12.5 q85 0 110.5 26t25.5 115v627q0 88 -24.5 114.5t-106.5 26.5q-6 0 -6 12t6 12q29 0 107 -3t124 -3q48 0 127.5 3t107.5 3q4 0 4 -12t-4 -12q-82 0 -107.5 -28.5t-25.5 -117.5v-278h494v278q0 89 -24.5 117.5t-106.5 28.5q-6 0 -6 12t6 12q30 0 108 -3t127 -3q46 0 125.5 3 t108.5 3q6 0 6 -12t-6 -12q-84 0 -108.5 -26.5t-24.5 -114.5v-627q0 -89 24 -115t109 -26z" />
<glyph unicode="i" horiz-adv-x="620" d="M414 166q0 -89 24 -115t109 -26q5 0 5 -12.5t-5 -12.5q-30 0 -109.5 2t-128.5 2q-45 0 -125 -2t-110 -2q-4 0 -4 12.5t4 12.5q86 0 110.5 26t24.5 115v627q0 88 -24.5 114.5t-110.5 26.5q-4 0 -4 12t4 12q30 0 109.5 -3t125.5 -3q50 0 130 3t108 3q5 0 5 -12t-5 -12 q-83 0 -108 -28.5t-25 -117.5v-622z" />
<glyph unicode="j" horiz-adv-x="559" d="M193 45v748q0 88 -20.5 114.5t-86.5 26.5q-4 0 -4 12t4 12q26 0 98.5 -3t112.5 -3q46 0 111.5 3t89.5 3q6 0 6 -12t-6 -12q-64 0 -83.5 -28.5t-19.5 -117.5v-647q0 -227 -69.5 -334.5t-266.5 -177.5q-3 -1 -6.5 4t-4 10t2.5 7q68 43 105 145.5t37 249.5z" />
<glyph unicode="k" horiz-adv-x="1134" d="M1161 25q6 0 6 -12.5t-6 -12.5h-272h-24q-39 -1 -53 9q-15 10 -63 79q-77 111 -151 209l-143 192l-56 -55v-268q0 -89 24.5 -115t108.5 -26q4 0 4 -12.5t-4 -12.5q-30 0 -108.5 2t-126.5 2q-45 0 -125 -2t-111 -2q-5 0 -5 12.5t5 12.5q85 0 110.5 26t25.5 115v627 q0 88 -24.5 114.5t-106.5 26.5q-6 0 -6 12t6 12q29 0 107 -3t124 -3q48 0 127.5 3t107.5 3q4 0 4 -12t-4 -12q-82 0 -107.5 -28.5t-25.5 -117.5v-272l248 246q108 108 81 151q-13 21 -58 21q-4 0 -4 12t4 12q27 0 98.5 -3t132.5 -3q67 0 132 3t73 3q6 0 6 -12t-6 -12 q-79 0 -203 -60t-209 -145l-96 -96l174 -227q128 -172 195 -249.5t107.5 -104.5t86.5 -27z" />
<glyph unicode="l" horiz-adv-x="958" d="M387 791v-617q0 -79 26.5 -105t112.5 -26h23q117 0 212.5 76t141.5 205q1 4 13 3.5t12 -5.5q-15 -117 -15 -291q0 -17 -6.5 -24t-25.5 -7h-820q-5 0 -5 12.5t5 12.5q77 0 99 26t22 115v627q0 88 -22.5 114.5t-98.5 26.5q-5 0 -5 12t5 12q31 0 110 -3t124 -3q49 0 127.5 3 t105.5 3q6 0 6 -12t-6 -12q-90 0 -115.5 -27t-25.5 -116z" />
<glyph unicode="m" horiz-adv-x="1880" d="M1821 25q5 0 5 -12.5t-5 -12.5q-28 0 -106.5 2t-129.5 2q-47 0 -124.5 -2t-104.5 -2q-6 0 -6 12.5t6 12.5q83 0 107 26t24 115v438q0 153 -42.5 231t-135.5 78q-152 0 -269 -172q7 -44 7 -75v-500q0 -90 23.5 -115.5t107.5 -25.5q6 0 6 -12.5t-6 -12.5q-27 0 -105.5 2 t-128.5 2q-47 0 -124.5 -2t-104.5 -2q-6 0 -6 12.5t6 12.5q82 0 106.5 26t24.5 115v438q0 151 -45 231t-135 80q-150 0 -267 -174v-575q0 -89 24 -115t109 -26q4 0 4 -12.5t-4 -12.5q-28 0 -106 2t-129 2q-47 0 -124.5 -2t-104.5 -2q-6 0 -6 12.5t6 12.5q83 0 106 25.5 t23 115.5v627q0 89 -24.5 115t-111.5 26q-5 0 -5 12t5 12q35 0 102 -1t105 -1q21 0 51 1t43 1q25 0 31 -6.5t6 -31.5v-111q143 176 344 176q112 0 184.5 -49.5t100.5 -140.5q149 190 356 190q147 0 226.5 -84.5t79.5 -234.5v-500q0 -90 23.5 -115.5t107.5 -25.5z" />
<glyph unicode="n" horiz-adv-x="1214" d="M1155 25q5 0 5 -12.5t-5 -12.5q-23 0 -86.5 2t-99.5 2q-43 0 -112.5 -2t-92.5 -2q-4 0 -4 12.5t4 12.5q68 0 88 28t20 117v408q0 101 -16 170.5t-47 104t-66 48.5t-81 14q-167 0 -285 -174v-571q0 -90 18.5 -117.5t83.5 -27.5q5 0 5 -12.5t-5 -12.5q-26 0 -100 2t-113 2 q-37 0 -107.5 -2t-97.5 -2q-5 0 -5 12.5t5 12.5q69 0 90 26t21 115v627q0 88 -19 114.5t-85 26.5q-6 0 -6 12t6 12q22 0 65.5 -1t67.5 -1q30 0 73.5 1t63.5 1q25 0 32 -6.5t7 -31.5v-113q151 176 366 176q67 0 122 -16.5t104.5 -55t77.5 -111.5t28 -175v-459 q0 -89 14.5 -115t65.5 -26z" />
<glyph unicode="o" d="M563 -25q-146 0 -262 69.5t-178 184t-62 250.5q0 96 32.5 179t87 141.5t125 100.5t148 62.5t154.5 20.5q109 0 203 -42.5t156.5 -112.5t97.5 -158t35 -181q0 -102 -42 -196.5t-113 -164.5t-171.5 -111.5t-210.5 -41.5zM610 23q116 0 186 112.5t70 310.5q0 135 -40 245 t-115.5 175.5t-173.5 65.5q-119 0 -180.5 -98t-61.5 -291q0 -222 90.5 -371t224.5 -149z" />
<glyph unicode="p" horiz-adv-x="964" d="M397 174q0 -93 34 -121t149 -28q6 0 6 -12.5t-6 -12.5q-38 0 -131.5 2t-151.5 2q-45 0 -125 -2t-111 -2q-5 0 -5 12.5t5 12.5q83 0 108.5 26.5t25.5 114.5v627q0 87 -26 114t-108 27q-5 0 -5 12t5 12q31 0 110 -3t124 -3q35 0 118 6.5t130 6.5q345 0 360 -230 q6 -98 -47 -172.5t-134 -109.5t-171 -35q-39 0 -47 4q-7 3 -6.5 15t14.5 12q3 0 12 -1.5t17 -1.5q62 0 97.5 60t35.5 182q0 128 -45 184t-133 56q-50 0 -74.5 -28t-24.5 -112v-614z" />
<glyph unicode="q" d="M1233 -322q4 1 7 -4t3.5 -9.5t-2.5 -6.5q-70 -25 -158 -25q-146 0 -286 88.5t-242 253.5q-144 2 -258 71.5t-175 183.5t-61 249q0 96 32.5 179t87 141.5t125 100.5t148 62.5t154.5 20.5q109 0 203 -42.5t156.5 -112.5t97.5 -158t35 -181q0 -155 -91 -284.5t-239 -190.5 q65 -148 177.5 -245t223.5 -97q35 0 62 6zM295 543q0 -222 90.5 -371t224.5 -149q116 0 186 112.5t70 310.5q0 135 -40 245t-115.5 175.5t-173.5 65.5q-119 0 -180.5 -98t-61.5 -291z" />
<glyph unicode="r" horiz-adv-x="1120" d="M1159 25q6 0 6 -12.5t-6 -12.5h-336q-31 0 -110.5 123.5t-186.5 337.5q-43 -6 -86 -6h-34v-289q0 -90 22 -115.5t104 -25.5q4 0 4 -12.5t-4 -12.5q-30 0 -107.5 2t-127.5 2q-44 0 -124.5 -2t-111.5 -2q-5 0 -5 12.5t5 12.5q83 0 107.5 26t24.5 115v627q0 88 -24 114.5 t-103 26.5q-6 0 -6 12t6 12q29 0 107.5 -3t123.5 -3q38 0 128.5 6.5t127.5 6.5q160 0 244 -51t84 -148q0 -80 -52 -148t-141 -110q162 -274 265.5 -378.5t205.5 -104.5zM406 496q14 -2 49 -2q116 0 161.5 54.5t45.5 162.5q0 213 -156 213q-63 0 -81.5 -25.5t-18.5 -110.5 v-292z" />
<glyph unicode="s" horiz-adv-x="864" d="M293 807q0 -35 14.5 -66.5t32.5 -53t55 -46.5t61.5 -38.5t71.5 -37.5q127 -67 173 -104q100 -81 100 -193q0 -125 -105 -209t-264 -84q-94 0 -183.5 23.5t-123.5 52.5q-16 10 -16 43l-11 232q0 9 10 10.5t15 -6.5q28 -49 49.5 -83t57 -80t68.5 -74.5t76.5 -49t88.5 -20.5 q61 0 102 37t41 110q0 34 -9 63.5t-29 55.5t-38.5 45t-53.5 42t-56 35t-62 35q-47 25 -74 41t-64.5 44t-58 53.5t-35.5 61.5t-15 77q0 119 104.5 189.5t251.5 70.5q67 0 138 -14t114 -33q31 -9 31 -41v-195q0 -6 -10 -9t-15 3q-10 22 -20.5 41.5t-38.5 59.5t-58.5 68 t-77.5 50.5t-98 22.5q-70 0 -104.5 -35.5t-34.5 -93.5z" />
<glyph unicode="t" horiz-adv-x="778" d="M735 117q5 4 10 0t6 -9.5t-3 -9.5q-85 -68 -150.5 -95.5t-148.5 -27.5q-56 0 -105 14t-92 45t-68.5 88t-25.5 136v537q0 56 -23 74t-88 18q-6 0 -6 18.5t6 18.5q105 0 182.5 45t100.5 118q3 7 17.5 4.5t14.5 -8.5v-149q143 3 330 18q6 0 10.5 -14.5t4.5 -34.5 q0 -13 -3.5 -27t-8.5 -22.5t-9 -7.5q-95 24 -324 33v-574q0 -244 181 -244q109 0 192 56z" />
<glyph unicode="u" horiz-adv-x="1226" d="M1163 934q-67 0 -87.5 -26.5t-20.5 -114.5v-627q0 -89 19 -115t85 -26q6 0 6 -12.5t-6 -12.5q-22 0 -65.5 1t-67.5 1q-30 0 -73.5 -1t-63.5 -1q-25 0 -32 6.5t-7 32.5v111q-153 -175 -365 -175q-66 0 -124 17.5t-106 53t-75.5 97t-27.5 142.5v508q0 88 -14.5 114.5 t-65.5 26.5q-4 0 -4 12t4 12q23 0 86 -3t100 -3q43 0 112.5 3t92.5 3q5 0 5 -12t-5 -12q-68 0 -88.5 -28.5t-20.5 -117.5v-454q0 -156 58.5 -223.5t154.5 -67.5q161 0 283 174v571q0 90 -18.5 118t-83.5 28q-6 0 -6 12t6 12q26 0 100 -3t113 -3q37 0 106 3t96 3q6 0 6 -12 t-6 -12z" />
<glyph unicode="v" horiz-adv-x="1044" d="M1057 958q5 0 5 -12t-5 -12q-60 0 -109 -48.5t-82 -135.5l-288 -748q-3 -8 -23 -8t-23 8l-378 786q-41 86 -71.5 116t-84.5 30q-6 0 -6 12t6 12q32 0 103 -3t137 -3q52 0 124 3t101 3q5 0 5 -12t-5 -12q-75 0 -96.5 -31t6.5 -94l256 -537l182 490q33 75 6.5 123.5 t-117.5 48.5q-6 0 -6 12t6 12q23 0 84.5 -3t116.5 -3q32 0 79.5 3t76.5 3z" />
<glyph unicode="w" horiz-adv-x="1521" d="M1534 958q4 0 4 -12t-4 -12q-73 0 -126.5 -54t-104.5 -178l-273 -700q-3 -8 -22.5 -8t-22.5 8l-213 444l-192 -444q-3 -8 -22.5 -8t-22.5 8l-381 786q-41 86 -71.5 116t-84.5 30q-6 0 -6 12t6 12q30 0 93 -3t91 -3q56 0 121 3t74 3q5 0 5 -12t-5 -12q-41 0 -43 -25 t35 -100l272 -549l102 242l-137 286q-41 87 -65.5 116.5t-55.5 29.5q-5 0 -5 12t5 12q13 0 73 -3t95 -3q23 0 79 3t69 3q5 0 5 -12t-5 -12q-27 0 -27 -18q0 -19 45 -107l55 -113l25 66q22 62 25.5 102t-7 55t-30.5 15q-6 0 -6 12t6 12q10 0 53.5 -3t81.5 -3q34 0 67 3t60 3 q6 0 6 -12t-6 -12q-58 0 -94.5 -18.5t-60.5 -54t-58 -111.5l-39 -97l188 -383l160 435q40 107 32.5 168t-60.5 61q-5 0 -5 12t5 12q19 0 60.5 -3t74.5 -3q39 0 93.5 3t88.5 3z" />
<glyph unicode="x" horiz-adv-x="1110" d="M1102 25q6 0 6 -12.5t-6 -12.5q-21 0 -124 2t-122 2q-49 0 -116.5 -2t-90.5 -2q-6 0 -6 12.5t6 12.5q65 0 73.5 14.5t-26.5 64.5l-192 289l-133 -190q-49 -73 -34.5 -125.5t85.5 -52.5q4 0 4 -12.5t-4 -12.5q-30 0 -105 2t-124 2q-35 0 -82.5 -2t-77.5 -2q-5 0 -5 12.5 t5 12.5q131 0 274 190l166 225l-233 348q-52 78 -107.5 112t-101.5 34q-5 0 -5 12t5 12q21 0 64 -3t63 -3q48 0 175 3t150 3q6 0 6 -12t-6 -12q-64 0 -72.5 -15.5t25.5 -66.5l170 -256l105 158q32 48 40.5 89.5t-8 66t-53.5 24.5q-6 0 -6 12t6 12q28 0 91.5 -3t113.5 -3 q35 0 82.5 3t77.5 3q5 0 5 -12t-5 -12q-142 0 -281 -191l-137 -192l256 -381q53 -78 108 -111.5t101 -33.5z" />
<glyph unicode="y" horiz-adv-x="1046" d="M1057 958q5 0 5 -12t-5 -12q-61 0 -111.5 -48.5t-79.5 -135.5l-288 -748q-49 -135 -122.5 -239t-154.5 -146q-13 -8 -42.5 15.5t-47.5 58.5q-19 40 -20 81t16 44q113 16 194.5 57.5t128.5 130.5l-376 784q-41 86 -71.5 116t-84.5 30q-6 0 -6 12t6 12q32 0 103 -3t137 -3 q48 0 119.5 3t99.5 3q6 0 6 -12t-6 -12q-149 0 -88 -125l262 -533l180 486q33 75 6.5 123.5t-117.5 48.5q-6 0 -6 12t6 12q23 0 84.5 -3t116.5 -3q32 0 79.5 3t76.5 3z" />
<glyph unicode="z" horiz-adv-x="923" d="M82 27l512 886q7 11 5.5 14t-15.5 3q-175 0 -286 -58.5t-189 -191.5q-4 -3 -10 -2.5t-11 3.5t-4 7l82 332q2 7 16 2q8 -2 6 -6q-5 -36 17.5 -47t101.5 -11h512q9 0 13.5 -9t1.5 -17l-508 -881q-5 -11 -3.5 -14.5t13.5 -3.5h182q209 0 320 282q3 6 13.5 5t10.5 -7 l-26 -297q0 -7 -5.5 -13.5t-13.5 -6.5l-723 4q-9 0 -13 10t1 17z" />
<glyph unicode="{" horiz-adv-x="591" d="M66 610q-6 0 -6 13.5t6 13.5q31 5 53 34.5t34.5 70t19.5 102t9 115t2 124.5q0 89 5.5 149.5t20.5 107.5t37 73.5t61 43.5t86 22.5t118 5.5q8 0 8 -12.5t-8 -12.5q-54 0 -82.5 -56t-30.5 -161q-2 -101 -3 -150t-5.5 -117t-10.5 -97.5t-18.5 -72t-28 -61.5t-41.5 -44.5 t-57 -41.5t-75 -34q58 -25 96 -47.5t65 -63.5t40.5 -73t22 -110t11 -138t4.5 -191q2 -105 30.5 -161t82.5 -56q8 0 8 -12.5t-8 -12.5q-71 0 -119 6t-86.5 23.5t-60.5 44t-37 74t-20 107.5t-5 149q0 72 -2 126t-9 115t-19.5 101.5t-34.5 69.5t-53 34z" />
<glyph unicode="|" horiz-adv-x="344" d="M127 -293v1575q0 14 48 14t48 -14v-1575q0 -13 -48 -13t-48 13z" />
<glyph unicode="}" horiz-adv-x="579" d="M514 610q-31 -5 -53 -34t-34.5 -69.5t-20 -101.5t-9.5 -115.5t-2 -125.5q0 -89 -5 -149t-19.5 -107.5t-36.5 -74t-60.5 -44t-86.5 -23.5t-119 -6q-8 0 -8 12.5t8 12.5q54 0 82 56t30 161q2 130 4.5 191t11 138t22 110t41 73.5t65 63t96.5 47.5q-59 24 -96 45.5t-65 61 t-41.5 71t-22 108.5t-11 138.5t-4.5 193.5q-2 105 -30 161t-82 56q-8 0 -8 12.5t8 12.5q71 0 118 -5.5t86 -22.5t60.5 -43.5t37 -73.5t20.5 -107.5t5 -149.5q0 -70 2 -124.5t9.5 -115t20 -101.5t34.5 -70.5t53 -34.5q6 0 6 -13.5t-6 -13.5z" />
<glyph unicode="~" horiz-adv-x="931" d="M666 522q40 0 72 13.5t46.5 27t36.5 39.5q3 2 8 -0.5t7 -6.5t0 -7q-88 -128 -141.5 -171.5t-119.5 -43.5q-56 0 -153 38t-156 38q-20 0 -37 -3.5t-26.5 -5.5t-25.5 -13.5t-19 -14t-22.5 -21.5t-22.5 -22t-10.5 3.5t-4.5 10.5q21 36 44.5 68t56.5 67.5t72.5 56.5t78.5 21 q42 0 148 -37t168 -37z" />
<glyph unicode="&#xa1;" horiz-adv-x="538" d="M276 748q58 0 90.5 -33t32.5 -92q0 -54 -33 -85.5t-90 -31.5q-58 0 -89 31t-31 86q0 60 31 92.5t89 32.5zM414 -535q4 -12 -45 -20t-99 -8q-51 0 -100 8t-45 20q34 119 59 291t34 283t22 299q0 10 34.5 10t34.5 -10q9 -149 14 -223t17.5 -209.5t30.5 -242.5t43 -198z" />
<glyph unicode="&#xa2;" horiz-adv-x="1085" d="M971 287q3 7 12.5 5.5t9.5 -7.5l-16 -217q-2 -18 -6.5 -24t-22.5 -13q-160 -56 -327 -56h-3v-184q0 -13 -29.5 -13t-29.5 13v186q-107 8 -194.5 44t-142.5 87.5t-92.5 117t-53 129.5t-15.5 128q0 197 140.5 335.5t357.5 160.5v170q0 15 29.5 15t29.5 -15v-166h13 q76 0 165 -15.5t146 -43.5q14 -6 18.5 -13t4.5 -22l10 -211q0 -6 -10.5 -7.5t-14.5 5.5q-75 130 -154 194t-178 68v-918q10 -2 33 -2q105 0 178 63.5t142 205.5zM305 514q0 -108 24.5 -204t83.5 -174t146 -105v903q-123 -18 -188.5 -131.5t-65.5 -288.5z" />
<glyph unicode="&#xa3;" horiz-adv-x="884" d="M754 264q0 3 6 3.5t12 -1.5t6 -6q-18 -106 -18 -229q0 -17 -7 -24t-24 -7h-702q-6 0 -6 12t6 13q59 13 98 36.5t56 54.5t22.5 60t3.5 66q-5 97 -35 198h-84q-14 0 -14 30t14 30h64q-35 107 -35 170q0 83 32 145.5t88 98t123 52.5t146 17q90 0 182 -27q30 -12 33 -38 l14 -213q0 -9 -9.5 -9t-14.5 9q-28 51 -43.5 77t-42 62.5t-47.5 54t-51.5 30.5t-63.5 13q-53 0 -87 -30.5t-45.5 -72.5t-11.5 -96q0 -13 1 -26.5t2 -24.5t4 -26t4 -23.5t5.5 -25.5t6 -23t7.5 -24.5t7 -22.5t7.5 -24.5t7.5 -22.5h190q13 0 13 -30t-13 -30h-174 q19 -82 19 -135q0 -75 -24.5 -122.5t-68.5 -84.5h201q130 0 173.5 30.5t66.5 135.5z" />
<glyph unicode="&#xa4;" horiz-adv-x="847" d="M752 139l-78 -73l-101 112q-82 -45 -172 -45q-80 0 -139 35l-92 -102l-68 65l93 94q-70 82 -70 189q0 103 70 176l-101 102l76 72l106 -115q73 37 156 37q81 0 148 -39l106 111l64 -66l-101 -100q66 -79 66 -180q0 -98 -64 -172zM440 182q55 0 88 49.5t33 137.5 q0 108 -47.5 188t-128.5 80q-51 0 -82 -46t-31 -134q0 -50 10 -97t29.5 -87.5t53 -65.5t75.5 -25z" />
<glyph unicode="&#xa5;" horiz-adv-x="1019" d="M1018 958q6 0 6 -12t-6 -12q-124 0 -227 -184l-156 -281v-33h186q15 0 15 -26.5t-15 -26.5h-592q-13 0 -13 26.5t13 26.5h193v2l-225 350q-95 146 -185 146q-6 0 -6 12t6 12q17 0 78 -3t80 -3q53 0 174 3t148 3q4 0 4 -12t-4 -12q-151 0 -74 -115l190 -297l125 230 q27 50 30.5 90.5t-23 66t-81.5 25.5q-6 0 -6 12t6 12q34 0 110 -3t138 -3q26 0 59 3t52 3zM821 291q15 0 15 -26.5t-15 -26.5h-186v-72q0 -90 26 -115.5t125 -25.5q4 0 4 -12.5t-4 -12.5q-32 0 -118 2t-142 2q-48 0 -136 -2t-122 -2q-6 0 -6 12.5t6 12.5q97 0 125.5 26 t28.5 115v72h-193q-13 0 -13 26.5t13 26.5h592z" />
<glyph unicode="&#xa6;" horiz-adv-x="344" d="M127 631v651q0 14 48 14t48 -14v-651q0 -15 -48 -15t-48 15zM127 -293v629q0 14 48 14t48 -14v-629q0 -13 -48 -13t-48 13z" />
<glyph unicode="&#xa7;" horiz-adv-x="999" d="M729 141q86 -83 86 -188q0 -87 -51.5 -149t-128.5 -89.5t-168 -27.5q-104 0 -176 37q-23 15 -23 34l-16 240q0 4 10.5 4t13.5 -4l14 -28t20.5 -39t25 -42t30.5 -46t34.5 -40.5t41 -36.5t44 -22.5t49.5 -9.5q48 0 76 34.5t28 102.5q0 63 -26 115t-67.5 88.5t-92 69.5 t-100.5 68.5t-91.5 75.5t-67.5 99.5t-26 132.5q0 71 33.5 132.5t122.5 135.5q-84 84 -84 189q0 87 51.5 149t128 89.5t168.5 27.5q106 0 176 -39q22 -11 22 -33l17 -239q0 -6 -11.5 -6t-13.5 6l-14 28q-14 27 -20.5 39t-24.5 41.5t-31 46.5t-34.5 40.5t-41 36.5t-44 22.5 t-48.5 9.5q-49 0 -77.5 -34.5t-28.5 -102.5q0 -63 26 -115t68 -88.5t92 -70t100.5 -69t92.5 -75.5t68 -99t26 -132q0 -71 -34 -133t-124 -136zM324 621q0 -74 23.5 -134t68 -105t86.5 -76.5t103 -71t93 -66.5q33 53 33 141q0 74 -24 134t-68.5 104.5t-87.5 76t-103.5 71 t-93.5 67.5q-30 -52 -30 -141z" />
<glyph unicode="&#xa8;" horiz-adv-x="659" d="M154 950q-53 0 -83 29.5t-30 83.5q0 49 30 77.5t83 28.5q51 0 78.5 -28t27.5 -78q0 -54 -27.5 -83.5t-78.5 -29.5zM510 950q-53 0 -82 29.5t-29 83.5q0 49 29 76.5t82 27.5q51 0 78.5 -27t27.5 -77q0 -54 -27.5 -83.5t-78.5 -29.5z" />
<glyph unicode="&#xa9;" horiz-adv-x="1466" d="M758 -158q-132 0 -249 41t-206.5 115.5t-141.5 189.5t-52 254q0 113 39 215.5t107 180t157.5 135t194 87.5t212.5 30q120 0 222.5 -39.5t171 -106t107 -154t38.5 -182.5q0 -90 -40 -174.5t-109.5 -150t-172 -105t-219.5 -39.5q-99 0 -174.5 28t-118 75.5t-63.5 102.5 t-21 116q0 105 54.5 185.5t136 119.5t172.5 39q87 0 153 -32t66 -93q0 -86 -88 -86q-52 0 -88 74q-11 20 -15.5 27t-16.5 22.5t-21.5 22t-24.5 12.5t-33 6q-63 0 -85.5 -54.5t-22.5 -171.5q0 -70 17.5 -129t52.5 -106t94.5 -73.5t136.5 -26.5q118 0 205.5 96t87.5 250 q0 209 -135.5 354t-337.5 145q-114 0 -208 -43.5t-155 -119t-94 -174t-33 -209.5q0 -266 155.5 -424t417.5 -158q104 0 193.5 23.5t185.5 80.5q3 3 7.5 0t5.5 -8t-2 -8q-200 -160 -463 -160z" />
<glyph unicode="&#xaa;" horiz-adv-x="589" d="M563 834q7 3 12 -6.5t0 -12.5l-139 -65q-27 -12 -52 8t-32 63l-61 -33q-44 -25 -73 -32.5t-64 -7.5q-46 0 -73.5 22t-27.5 57q0 37 19.5 62t70.5 43l205 69v101q0 94 -18 122.5t-51 28.5q-28 0 -46.5 -29.5t-23.5 -74.5q-13 -78 -78 -78q-35 0 -56.5 20t-21.5 52 q0 54 99.5 100.5t181.5 46.5q64 0 104.5 -37t40.5 -110v-240q0 -69 17.5 -82t66.5 13zM301 821l47 25v12v121l-88 -35q-57 -22 -57 -74q0 -27 14.5 -43t38.5 -16q22 0 45 10zM541 651q9 0 9 -35.5t-9 -35.5h-459q-6 0 -8 18t-0.5 35.5t6.5 17.5h461z" />
<glyph unicode="&#xab;" horiz-adv-x="972" d="M494 154l-385 307q-9 7 -9 21.5t9 23.5l385 305q2 3 6 2t7 -5t1 -7l-189 -318l189 -317q2 -6 -6 -13q-6 -4 -8 1zM844 154l-387 307q-7 7 -7 21.5t7 23.5l387 305q2 3 6 2t7 -5t1 -7l-190 -318l190 -317q2 -6 -6 -13q-6 -4 -8 1z" />
<glyph unicode="&#xac;" horiz-adv-x="808" d="M745 627v-398q0 -6 -24 -8t-48 -0.5t-24 6.5v305h-579q-6 0 -8 24t-0.5 47.5t6.5 23.5h677z" />
<glyph unicode="&#xad;" horiz-adv-x="661" d="M66 322q-6 -1 -8.5 25.5t-1.5 54.5t5 30l535 94q6 1 8 -25.5t0 -54t-8 -28.5z" />
<glyph unicode="&#xae;" horiz-adv-x="1492" d="M791 1065q133 0 245 -43t188 -117.5t118 -177.5t42 -221q0 -176 -87 -323.5t-239.5 -233.5t-336.5 -86q-117 0 -227 41t-195.5 114t-137.5 182.5t-52 237.5q0 114 36.5 214.5t100.5 175.5t150 128.5t187 81t208 27.5zM801 -84q111 0 197 39t140 109.5t81.5 164.5 t27.5 207q0 272 -147 426t-389 154q-122 0 -216 -41t-149 -112t-82.5 -159t-27.5 -190q0 -260 162 -429t403 -169zM1126 158q3 -2 3 -9.5t-3 -7.5h-202q-33 0 -183 328q-50 -4 -77 -4v-209q0 -60 15 -75t71 -15q3 0 3 -12.5t-3 -12.5q-18 0 -67 1t-81 1q-26 0 -78.5 -1 t-68.5 -1q-3 0 -3 12.5t3 12.5q43 0 54 14.5t11 75.5v440q0 58 -11.5 75t-53.5 17q-3 0 -3 11.5t3 11.5q20 0 70.5 -1t76.5 -1q25 0 84.5 4t81.5 4q105 0 156 -33.5t51 -107.5q0 -114 -115 -172q72 -151 131 -227t135 -119zM664 496q95 -6 129 24t34 115q0 156 -92 156 q-44 0 -57.5 -15.5t-13.5 -83.5v-196z" />
<glyph unicode="&#xaf;" horiz-adv-x="706" d="M96 971q-20 0 -20 38t20 38h514q14 0 19.5 -19t0 -38t-19.5 -19h-514z" />
<glyph unicode="&#xb0;" horiz-adv-x="679" d="M342 764q-126 0 -204.5 76t-78.5 190q0 108 79 184t204 76t202 -75.5t77 -188.5q0 -112 -77.5 -187t-201.5 -75zM356 793q35 0 57.5 15t33.5 46.5t14.5 67t3.5 90.5q0 128 -33 189t-102 61q-65 0 -89 -58t-24 -168q0 -117 30.5 -180t108.5 -63z" />
<glyph unicode="&#xb1;" horiz-adv-x="815" d="M70 514q-6 0 -8 25.5t-0.5 51t6.5 25.5h288v287q0 9 50.5 9t50.5 -9v-287h288q9 0 9 -51t-9 -51h-288v-287q0 -6 -25 -8t-50.5 -0.5t-25.5 6.5v289h-286zM745 139q9 0 9 -44t-9 -44h-675q-6 0 -8 22t-0.5 44t6.5 22h677z" />
<glyph unicode="&#xb2;" horiz-adv-x="518" d="M41 838q20 81 53 144t65 99t61.5 69.5t48 74.5t18.5 94q0 119 -84 119q-44 0 -78.5 -29.5t-48.5 -75.5q-1 -4 -7 -4.5t-11.5 2.5t-4.5 8q23 72 70.5 114t136.5 42t134.5 -42.5t45.5 -109.5q0 -51 -27 -95t-68 -76.5t-84 -63.5t-80.5 -69.5t-51.5 -80.5q-3 -8 4 -8 q185 0 244 15.5t59 66.5q0 3 12.5 3t12.5 -3l-4 -196q0 -9 -8 -9h-402q-10 0 -6 11z" />
<glyph unicode="&#xb3;" horiz-adv-x="514" d="M322 1178q65 -14 106 -55.5t41 -102.5q0 -79 -61 -144t-170 -65q-80 0 -125.5 37t-69.5 104q-1 5 5 8.5t12.5 3t7.5 -5.5q20 -43 56 -67.5t79 -24.5q47 0 78.5 34.5t31.5 111.5q0 143 -153 143q-10 0 -9 11.5t9 11.5q62 0 94.5 37.5t32.5 101.5q0 113 -86 113 q-44 0 -78.5 -30t-42.5 -69q-2 -4 -8.5 -4.5t-12 2.5t-4.5 8q20 72 70.5 114t134.5 42q88 0 135 -43.5t47 -108.5q0 -54 -34.5 -97.5t-85.5 -65.5z" />
<glyph unicode="&#xb4;" horiz-adv-x="563" d="M57 901q-6 -3 -10 2t-3.5 10.5t3.5 8.5q57 41 147.5 119t110.5 94q16 14 121 -23q94 -33 94 -48q-2 -3 -8 -5q-218 -54 -455 -158z" />
<glyph unicode="&#xb6;" horiz-adv-x="1177" d="M659 0q-156 0 -281 61t-196 171t-71 247q0 202 156.5 340.5t391.5 138.5q23 0 93 -3t98 -3q47 0 126 3t109 3q5 0 5 -12t-5 -12q-88 0 -135 -43t-47 -123v-580q0 -78 47 -120.5t135 -42.5q5 0 5 -12.5t-5 -12.5q-30 0 -109 2t-126 2q-28 0 -98 -2t-93 -2zM731 94 q0 -27 19 -38t38 0.5t19 39.5v766q0 28 -19 39.5t-38 0t-19 -39.5v-768z" />
<glyph unicode="&#xb7;" horiz-adv-x="423" d="M215 362q-58 0 -91.5 32.5t-33.5 90.5q0 55 34 87t91 32q58 0 89.5 -31.5t31.5 -87.5q0 -59 -31.5 -91t-89.5 -32z" />
<glyph unicode="&#xb8;" horiz-adv-x="475" d="M246 -4q-17 -63 -1 -107t74 -77q53 -33 83 -69t30 -91q0 -85 -62.5 -150t-187.5 -65q-153 0 -153 98q0 30 24.5 55t57.5 25q32 0 50 -13.5t24.5 -32.5t12.5 -37.5t21.5 -32t44.5 -13.5q45 0 45 49q0 54 -37.5 96.5t-132.5 96.5q-15 6 -17.5 17.5t7.5 39.5q30 72 82 213z " />
<glyph unicode="&#xb9;" horiz-adv-x="536" d="M76 827q-4 0 -4 11.5t4 11.5q89 0 110 22t21 119v242q0 120 -22.5 138.5t-116.5 -23.5q-9 -4 -15 12q-3 9 2 10l279 123q7 3 13.5 -3t6.5 -11v-488q0 -97 19 -119t104 -22q5 0 5 -11.5t-5 -11.5q-25 0 -90 2t-104 2q-41 0 -111.5 -2t-95.5 -2z" />
<glyph unicode="&#xba;" horiz-adv-x="665" d="M324 735q-117 0 -190 83t-73 202q0 66 26 119.5t68.5 85t92 48.5t100.5 17q116 0 187 -82t71 -194q0 -116 -83.5 -197.5t-198.5 -81.5zM354 766q47 0 75 56.5t28 154.5q0 118 -42 199t-106 81q-47 0 -72.5 -51.5t-25.5 -146.5q0 -119 40.5 -206t102.5 -87zM86 580 q-6 0 -8 18t-0.5 35.5t6.5 17.5h498q9 0 9 -35.5t-9 -35.5h-496z" />
<glyph unicode="&#xbb;" horiz-adv-x="972" d="M129 811l385 -305q9 -9 9 -23.5t-9 -21.5l-385 -307q-4 -7 -11 1q-5 6 -3 11l190 315l-190 320q-2 5 6 11q6 4 8 -1zM479 811l385 -305q9 -9 9 -23.5t-9 -21.5l-385 -307q-4 -7 -11 1q-5 6 -3 11l188 315l-188 320q-2 5 6 11q6 4 8 -1z" />
<glyph unicode="&#xbc;" horiz-adv-x="1243" d="M477 655q5 0 5 -11t-5 -11q-25 0 -90 2t-104 2q-41 0 -111.5 -2t-95.5 -2q-4 0 -4 11t4 11q89 0 110 22.5t21 119.5v243q0 64 -3.5 93.5t-19.5 43t-41 7t-75 -28.5q-8 -5 -14 10q-4 10 1 11l279 122q7 3 13.5 -3t6.5 -11v-487q0 -97 19.5 -119.5t103.5 -22.5zM893 1290 q4 7 37 -7.5t31 -20.5l-574 -1264q-1 -4 -17.5 2.5t-32.5 16t-15 12.5zM1200 23q2 0 2 -12.5t-2 -12.5q-20 0 -66 1t-77 1q-37 0 -97 -1t-83 -1q-3 0 -3 12.5t3 12.5q66 0 83 10t17 51v104q-180 5 -256 5q-9 0 -13 8t1 14l340 440q9 10 39 8.5t30 -10.5v-422q14 1 41.5 2.5 t40.5 2.5q4 0 4 -28t-4 -28q-14 1 -41 2t-41 2v-100q0 -40 12 -50.5t70 -10.5zM786 223q42 0 105 1t86 1v262l-197 -258q-3 -6 6 -6z" />
<glyph unicode="&#xbd;" horiz-adv-x="1253" d="M76 633q-4 0 -4 11t4 11q89 0 110 22.5t21 119.5v243q0 64 -3.5 93.5t-19.5 43t-41 7t-75 -28.5q-8 -5 -14 10q-4 10 1 11l279 122q7 3 13.5 -3t6.5 -11v-487q0 -97 19.5 -119.5t103.5 -22.5q5 0 5 -11t-5 -11q-25 0 -90 2t-104 2q-41 0 -111.5 -2t-95.5 -2zM387 -2 q-1 -4 -17.5 2.5t-32.5 16t-15 12.5l571 1261q4 7 37 -7.5t31 -20.5zM776 12q20 81 53 144t65 99t61.5 69.5t48 74.5t18.5 95q0 116 -84 116q-44 0 -78.5 -29t-48.5 -73q-1 -5 -7 -5.5t-11.5 2.5t-4.5 7q23 72 71 114t138 42q88 0 133.5 -41.5t45.5 -108.5q0 -51 -27 -95 t-68.5 -77t-84.5 -64t-80.5 -70t-51.5 -81q-3 -6 6 -6q183 0 242 15.5t59 66.5q0 3 12.5 3t12.5 -3l-4 -197q0 -10 -8 -10h-402q-9 0 -6 12z" />
<glyph unicode="&#xbe;" horiz-adv-x="1220" d="M469 827q0 -80 -60.5 -144.5t-170.5 -64.5q-81 0 -126 37t-69 105q-1 4 5 7t12.5 2.5t7.5 -5.5q20 -42 56 -66t79 -24q47 0 78.5 33t31.5 110q0 144 -153 144q-10 0 -9 12t9 12q62 0 94.5 37.5t32.5 101.5q0 57 -23.5 85t-62.5 28q-44 0 -78.5 -30t-42.5 -68 q-2 -5 -8.5 -6t-12 2t-4.5 8q43 155 205 155q88 0 135 -43t47 -108q0 -55 -35.5 -98.5t-87.5 -65.5q66 -14 108 -55t42 -101zM872 1290q2 3 9 2t17 -5t19.5 -8.5t15.5 -9.5t5 -7l-571 -1264q-1 -4 -18.5 2.5t-34 16t-15.5 12.5zM1178 23q3 0 3 -12.5t-3 -12.5q-19 0 -65 1 t-79 1q-38 0 -97 -1t-81 -1q-4 0 -4 12.5t4 12.5q66 0 83 10t17 51v104q-180 5 -256 5q-9 0 -13.5 8t1.5 14l340 440q9 10 39.5 8.5t30.5 -10.5v-422q14 1 41 2.5t39 2.5q6 0 6 -28t-6 -28q-14 1 -40.5 2t-39.5 2v-100q0 -40 12 -50.5t68 -10.5zM764 223q43 0 106 1t86 1 v264l-196 -260q-3 -6 4 -6z" />
<glyph unicode="&#xbf;" horiz-adv-x="669" d="M340 737q59 0 92 -32.5t33 -92.5q0 -54 -33.5 -85t-91.5 -31q-57 0 -88 31t-31 85q0 60 31 92.5t88 32.5zM334 -524q20 0 32.5 14t16.5 29t8 41q12 141 117 141q52 0 76 -29t24 -67q0 -72 -78 -120t-196 -48q-133 0 -225.5 63t-92.5 178q0 40 10.5 74t36 65t42.5 48 t57.5 49t52.5 43q123 108 123 252q0 39 -12 106q-1 5 6.5 9t15 4.5t10.5 -2.5q25 -54 39.5 -125.5t14.5 -124.5q0 -52 -17.5 -93.5t-42 -72t-49 -63t-42 -82t-17.5 -113.5q0 -77 24 -126.5t66 -49.5z" />
<glyph unicode="&#xc0;" horiz-adv-x="1466" d="M475 1548q-26 4 29 29q81 37 149 48q23 4 29 -1q28 -23 77 -66t92.5 -79.5t86.5 -67.5q8 -3 4.5 -14t-12.5 -8q-209 95 -455 159zM1468 25q9 0 9 -12.5t-9 -12.5q-41 0 -128 4t-128 4q-48 0 -121 -4t-114 -4q-9 0 -9 12.5t9 12.5q85 0 97.5 34t-38.5 134l-213 419h-364 l-146 -321q-51 -123 -2.5 -194.5t168.5 -71.5q9 0 9 -12.5t-9 -12.5q-38 0 -112 4t-129 4t-128.5 -4t-117.5 -4q-8 0 -8 12.5t8 12.5q83 0 135.5 56.5t130.5 229.5l444 977q2 6 18 6.5t19 -6.5l512 -1007q72 -146 119 -201t98 -55zM485 670h310l-164 323z" />
<glyph unicode="&#xc1;" horiz-adv-x="1466" d="M526 1389q-9 -3 -12.5 8t4.5 14q43 31 87 67.5t93 79.5t76 66q16 13 125 -26q94 -33 91 -46q-1 -3 -7 -4q-247 -64 -457 -159zM1468 25q9 0 9 -12.5t-9 -12.5q-41 0 -128 4t-128 4q-48 0 -121 -4t-114 -4q-9 0 -9 12.5t9 12.5q85 0 97.5 34t-38.5 134l-213 419h-364 l-146 -321q-51 -123 -2.5 -194.5t168.5 -71.5q9 0 9 -12.5t-9 -12.5q-38 0 -112 4t-129 4t-128.5 -4t-117.5 -4q-8 0 -8 12.5t8 12.5q83 0 135.5 56.5t130.5 229.5l444 977q2 6 18 6.5t19 -6.5l512 -1007q72 -146 119 -201t98 -55zM485 670h310l-164 323z" />
<glyph unicode="&#xc2;" horiz-adv-x="1466" d="M504 1327q-6 -2 -13 6q-4 6 1 8l210 238q9 9 23 9t23 -9l210 -238q2 -2 0.5 -6t-5.5 -7t-7 -1l-221 80zM1468 25q9 0 9 -12.5t-9 -12.5q-41 0 -128 4t-128 4q-48 0 -121 -4t-114 -4q-9 0 -9 12.5t9 12.5q85 0 97.5 34t-38.5 134l-213 419h-364l-146 -321 q-51 -123 -2.5 -194.5t168.5 -71.5q9 0 9 -12.5t-9 -12.5q-38 0 -112 4t-129 4t-128.5 -4t-117.5 -4q-8 0 -8 12.5t8 12.5q83 0 135.5 56.5t130.5 229.5l444 977q2 6 18 6.5t19 -6.5l512 -1007q72 -146 119 -201t98 -55zM485 670h310l-164 323z" />
<glyph unicode="&#xc3;" horiz-adv-x="1466" d="M479 1427q-2 -2 -6 0.5t-7 7t-1 7.5q93 166 180 166q23 0 110.5 -26t135.5 -26q34 0 55.5 12t50.5 44q2 2 6.5 0t7.5 -6.5t1 -8.5q-56 -99 -90.5 -132t-79.5 -33q-36 0 -123 25.5t-135 25.5q-14 0 -26 -2.5t-19.5 -4.5t-17 -9t-13 -10t-14.5 -14.5t-15 -15.5zM1468 25 q9 0 9 -12.5t-9 -12.5q-41 0 -128 4t-128 4q-48 0 -121 -4t-114 -4q-9 0 -9 12.5t9 12.5q85 0 97.5 34t-38.5 134l-213 419h-364l-146 -321q-51 -123 -2.5 -194.5t168.5 -71.5q9 0 9 -12.5t-9 -12.5q-38 0 -112 4t-129 4t-128.5 -4t-117.5 -4q-8 0 -8 12.5t8 12.5 q83 0 135.5 56.5t130.5 229.5l444 977q2 6 18 6.5t19 -6.5l512 -1007q72 -146 119 -201t98 -55zM485 670h310l-164 323z" />
<glyph unicode="&#xc4;" horiz-adv-x="1466" d="M549 1440q-53 0 -83 29t-30 83q0 48 30.5 76.5t82.5 28.5q50 0 78 -28.5t28 -76.5q0 -54 -27.5 -83t-78.5 -29zM905 1440q-53 0 -81.5 29t-28.5 83q0 48 29 75.5t81 27.5q51 0 79 -27.5t28 -75.5q0 -54 -28 -83t-79 -29zM1468 25q9 0 9 -12.5t-9 -12.5q-41 0 -128 4 t-128 4q-48 0 -121 -4t-114 -4q-9 0 -9 12.5t9 12.5q85 0 97.5 34t-38.5 134l-213 419h-364l-146 -321q-51 -123 -2.5 -194.5t168.5 -71.5q9 0 9 -12.5t-9 -12.5q-38 0 -112 4t-129 4t-128.5 -4t-117.5 -4q-8 0 -8 12.5t8 12.5q83 0 135.5 56.5t130.5 229.5l444 977 q2 6 18 6.5t19 -6.5l512 -1007q72 -146 119 -201t98 -55zM485 670h310l-164 323z" />
<glyph unicode="&#xc5;" horiz-adv-x="1466" d="M709 1352q-100 0 -158.5 47t-58.5 114q0 74 73 116t164 42q90 0 153.5 -47.5t63.5 -114.5q0 -71 -72 -114t-165 -43zM688 1642q-49 0 -49 -88q0 -67 27.5 -120.5t72.5 -53.5q56 0 56 93q0 69 -31.5 119t-75.5 50zM1468 25q9 0 9 -12.5t-9 -12.5q-41 0 -128 4t-128 4 q-48 0 -121 -4t-114 -4q-9 0 -9 12.5t9 12.5q85 0 97.5 34t-38.5 134l-213 419h-364l-146 -321q-51 -123 -2.5 -194.5t168.5 -71.5q9 0 9 -12.5t-9 -12.5q-38 0 -112 4t-129 4t-128.5 -4t-117.5 -4q-8 0 -8 12.5t8 12.5q83 0 135.5 56.5t130.5 229.5l444 977q2 6 18 6.5 t19 -6.5l512 -1007q72 -146 119 -201t98 -55zM485 670h310l-164 323z" />
<glyph unicode="&#xc6;" horiz-adv-x="1818" d="M1704 326q2 6 12 3.5t10 -7.5q-18 -180 -18 -291q0 -17 -7 -24t-24 -7h-895q-4 0 -4 12.5t4 12.5q94 0 121 26t27 115v471h-307l-226 -354q-73 -119 -46.5 -188.5t145.5 -69.5q9 0 9 -12.5t-9 -12.5q-45 0 -133.5 4t-155.5 4q-50 0 -116 -4t-105 -4q-9 0 -9 12.5t9 12.5 q86 0 156.5 55t158.5 190l590 906q34 48 23 61q-12 17 -119 18h-35q-6 0 -6 12.5t6 12.5h880q21 0 21 -18l4 -273q0 -5 -11.5 -6.5t-13.5 4.5q-22 79 -106.5 156.5t-185.5 77.5h-86q-117 0 -117 -109v-418h170q118 0 181 41.5t63 114.5q0 6 12 6t12 -6q0 -49 -1 -105t-1 -79 q0 -34 2 -101.5t2 -107.5q0 -5 -11 -5t-11 5q0 84 -65 132t-185 48h-168v-463q0 -117 94 -117h90q116 0 228 80.5t147 188.5zM659 694h271v426z" />
<glyph unicode="&#xc7;" horiz-adv-x="1370" d="M1257 371q3 7 14 5.5t11 -7.5l-31 -279q-5 -26 -9.5 -33t-22.5 -14q-184 -68 -375 -68h-33q-12 -57 5 -95t71 -68q53 -32 82.5 -68t29.5 -92q0 -85 -62 -150t-187 -65q-154 0 -154 98q0 30 24.5 55t57.5 25q32 0 50.5 -13.5t25 -32.5t12.5 -37.5t21.5 -32t43.5 -13.5 q46 0 46 49q0 54 -37.5 96.5t-132.5 96.5q-28 12 -11 57q38 89 74 192q-138 10 -252 54.5t-190.5 110.5t-128.5 151t-75.5 173t-23.5 179q0 146 63 271t169 209t243.5 131t286.5 47q90 0 188 -15.5t154 -40.5q18 -6 24 -15t9 -32l25 -285q0 -6 -10 -7.5t-13 5.5 q-69 161 -186 249.5t-271 88.5q-203 0 -313.5 -149.5t-110.5 -401.5q0 -188 60 -343t170.5 -247t249.5 -92q259 0 419 353z" />
<glyph unicode="&#xc8;" horiz-adv-x="1130" d="M358 1548q-24 4 28 28q80 37 149 49q26 4 32 -1q27 -23 76 -66t93 -79.5t87 -67.5q8 -3 4.5 -14t-12.5 -8q-210 95 -457 159zM1016 326q2 6 13 3.5t11 -7.5q-20 -160 -20 -291q0 -18 -6.5 -24.5t-24.5 -6.5h-905q-6 0 -6 12.5t6 12.5q93 0 119 25.5t26 115.5v948 q0 89 -26 115t-119 26q-6 0 -6 12.5t6 12.5h868q21 0 21 -18l4 -273q0 -5 -11 -6.5t-14 4.5q-34 120 -110.5 177t-204.5 57h-62q-61 0 -89.5 -26.5t-28.5 -82.5v-418h170q119 0 182 41.5t63 114.5q0 6 11.5 6t11.5 -6q0 -49 -1 -105t-1 -79q0 -34 3 -101.5t3 -107.5 q0 -5 -12.5 -5t-12.5 5q0 85 -64 132.5t-185 47.5h-168v-463q0 -60 22.5 -88.5t71.5 -28.5h67q160 0 257 65.5t141 203.5z" />
<glyph unicode="&#xc9;" horiz-adv-x="1130" d="M412 1389q-3 -1 -6.5 0.5t-5 4.5t-2.5 6.5t0 6.5t3 4q44 31 87.5 67t94 80t76.5 66q16 13 125 -26q93 -33 90 -46q-1 -3 -8 -4q-243 -64 -454 -159zM1016 326q2 6 13 3.5t11 -7.5q-20 -160 -20 -291q0 -18 -6.5 -24.5t-24.5 -6.5h-905q-6 0 -6 12.5t6 12.5q93 0 119 25.5 t26 115.5v948q0 89 -26 115t-119 26q-6 0 -6 12.5t6 12.5h868q21 0 21 -18l4 -273q0 -5 -11 -6.5t-14 4.5q-34 120 -110.5 177t-204.5 57h-62q-61 0 -89.5 -26.5t-28.5 -82.5v-418h170q119 0 182 41.5t63 114.5q0 6 11.5 6t11.5 -6q0 -49 -1 -105t-1 -79q0 -34 3 -101.5 t3 -107.5q0 -5 -12.5 -5t-12.5 5q0 85 -64 132.5t-185 47.5h-168v-463q0 -60 22.5 -88.5t71.5 -28.5h67q160 0 257 65.5t141 203.5z" />
<glyph unicode="&#xca;" horiz-adv-x="1130" d="M391 1423q-3 -1 -7.5 1.5t-6 6.5t1.5 7l211 237q9 7 22.5 7t22.5 -7l211 -237q5 -5 -0.5 -12t-11.5 -3l-222 78zM1016 326q2 6 13 3.5t11 -7.5q-20 -160 -20 -291q0 -18 -6.5 -24.5t-24.5 -6.5h-905q-6 0 -6 12.5t6 12.5q93 0 119 25.5t26 115.5v948q0 89 -26 115 t-119 26q-6 0 -6 12.5t6 12.5h868q21 0 21 -18l4 -273q0 -5 -11 -6.5t-14 4.5q-34 120 -110.5 177t-204.5 57h-62q-61 0 -89.5 -26.5t-28.5 -82.5v-418h170q119 0 182 41.5t63 114.5q0 6 11.5 6t11.5 -6q0 -49 -1 -105t-1 -79q0 -34 3 -101.5t3 -107.5q0 -5 -12.5 -5 t-12.5 5q0 85 -64 132.5t-185 47.5h-168v-463q0 -60 22.5 -88.5t71.5 -28.5h67q160 0 257 65.5t141 203.5z" />
<glyph unicode="&#xcb;" horiz-adv-x="1130" d="M434 1440q-53 0 -82.5 29t-29.5 83q0 48 30 76.5t82 28.5q49 0 78 -28.5t29 -76.5q0 -53 -28.5 -82.5t-78.5 -29.5zM791 1440q-53 0 -82 29t-29 83q0 48 29.5 75.5t81.5 27.5q50 0 77 -27.5t27 -75.5q0 -54 -26.5 -83t-77.5 -29zM1016 326q2 6 13 3.5t11 -7.5 q-20 -160 -20 -291q0 -18 -6.5 -24.5t-24.5 -6.5h-905q-6 0 -6 12.5t6 12.5q93 0 119 25.5t26 115.5v948q0 89 -26 115t-119 26q-6 0 -6 12.5t6 12.5h868q21 0 21 -18l4 -273q0 -5 -11 -6.5t-14 4.5q-34 120 -110.5 177t-204.5 57h-62q-61 0 -89.5 -26.5t-28.5 -82.5v-418 h170q119 0 182 41.5t63 114.5q0 6 11.5 6t11.5 -6q0 -49 -1 -105t-1 -79q0 -34 3 -101.5t3 -107.5q0 -5 -12.5 -5t-12.5 5q0 85 -64 132.5t-185 47.5h-168v-463q0 -60 22.5 -88.5t71.5 -28.5h67q160 0 257 65.5t141 203.5z" />
<glyph unicode="&#xcc;" horiz-adv-x="700" d="M553 1389q-213 96 -455 159q-26 4 28 29q80 36 150 48q25 4 31 -1q20 -17 74 -64.5t96 -82.5t86 -66q4 -3 4.5 -8.5t-4 -10.5t-10.5 -3zM465 166q0 -90 25.5 -115.5t119.5 -25.5q6 0 6 -12.5t-6 -12.5q-32 0 -119 2t-143 2q-52 0 -140.5 -2t-121.5 -2q-4 0 -4 12.5 t4 12.5q94 0 122 26t28 115v948q0 88 -28 114.5t-122 26.5q-4 0 -4 12.5t4 12.5q33 0 121.5 -3t140.5 -3q56 0 143.5 3t118.5 3q6 0 6 -12.5t-6 -12.5q-92 0 -118.5 -27.5t-26.5 -117.5v-944z" />
<glyph unicode="&#xcd;" horiz-adv-x="700" d="M152 1389q-6 -2 -10.5 3t-4.5 10.5t4 8.5q43 31 87 67.5t93 79.5t76 66q18 13 126 -26q94 -33 91 -46q-1 -3 -8 -4q-240 -62 -454 -159zM465 166q0 -90 25.5 -115.5t119.5 -25.5q6 0 6 -12.5t-6 -12.5q-32 0 -119 2t-143 2q-52 0 -140.5 -2t-121.5 -2q-4 0 -4 12.5 t4 12.5q94 0 122 26t28 115v948q0 88 -28 114.5t-122 26.5q-4 0 -4 12.5t4 12.5q33 0 121.5 -3t140.5 -3q56 0 143.5 3t118.5 3q6 0 6 -12.5t-6 -12.5q-92 0 -118.5 -27.5t-26.5 -117.5v-944z" />
<glyph unicode="&#xce;" horiz-adv-x="700" d="M117 1438l211 237q9 7 23.5 7t21.5 -7l211 -237q4 -3 2 -8t-6 -7t-7 0l-221 78l-223 -78q-3 -2 -9.5 4.5t-2.5 10.5zM465 166q0 -90 25.5 -115.5t119.5 -25.5q6 0 6 -12.5t-6 -12.5q-32 0 -119 2t-143 2q-52 0 -140.5 -2t-121.5 -2q-4 0 -4 12.5t4 12.5q94 0 122 26 t28 115v948q0 88 -28 114.5t-122 26.5q-4 0 -4 12.5t4 12.5q33 0 121.5 -3t140.5 -3q56 0 143.5 3t118.5 3q6 0 6 -12.5t-6 -12.5q-92 0 -118.5 -27.5t-26.5 -117.5v-944z" />
<glyph unicode="&#xcf;" horiz-adv-x="700" d="M195 1440q-53 0 -83 29t-30 83q0 48 30.5 76.5t82.5 28.5q49 0 77.5 -28.5t28.5 -76.5q0 -54 -28 -83t-78 -29zM506 1440q-53 0 -82 29t-29 83q0 48 29.5 75.5t81.5 27.5q50 0 77 -27.5t27 -75.5q0 -54 -26.5 -83t-77.5 -29zM465 166q0 -90 25.5 -115.5t119.5 -25.5 q6 0 6 -12.5t-6 -12.5q-32 0 -119 2t-143 2q-52 0 -140.5 -2t-121.5 -2q-4 0 -4 12.5t4 12.5q94 0 122 26t28 115v948q0 88 -28 114.5t-122 26.5q-4 0 -4 12.5t4 12.5q33 0 121.5 -3t140.5 -3q56 0 143.5 3t118.5 3q6 0 6 -12.5t-6 -12.5q-92 0 -118.5 -27.5t-26.5 -117.5 v-944z" />
<glyph unicode="&#xd0;" horiz-adv-x="1443" d="M639 1284q156 0 288.5 -48t223 -131t141.5 -197.5t51 -245.5q0 -150 -54 -277t-146 -212.5t-215 -133t-260 -47.5q-41 0 -164 6t-180 6q-52 0 -141 -2t-122 -2q-5 0 -5 12.5t5 12.5q94 0 122 26t28 115v442h-102q-9 0 -9 29t9 29h102v448q0 88 -26.5 114.5t-118.5 26.5 q-6 0 -6 12.5t6 12.5q33 0 119.5 -3t138.5 -3t163.5 5t151.5 5zM647 39q199 0 322 151.5t123 425.5q0 174 -52.5 315t-152 224.5t-228.5 83.5q-127 0 -174 -24.5t-47 -104.5v-444h279q9 0 9 -29t-9 -29h-279v-420q0 -81 42.5 -115t166.5 -34z" />
<glyph unicode="&#xd1;" horiz-adv-x="1505" d="M537 1427q-2 -2 -6.5 0.5t-7.5 7t-1 7.5q93 166 180 166q23 0 110.5 -26t135.5 -26q35 0 56.5 12t50.5 44q2 2 6 0t7 -6.5t1 -8.5q-56 -99 -90.5 -132t-79.5 -33q-36 0 -123 25.5t-135 25.5q-14 0 -26 -2t-19.5 -4.5t-16.5 -9.5t-13 -10.5t-14.5 -14.5t-14.5 -15z M1481 1280q5 0 5 -12.5t-5 -12.5q-82 0 -129 -64t-47 -173v-1049q0 -6 -10 -7.5t-13 1.5l-960 1094v-797q0 -109 45.5 -172t124.5 -63q4 0 4 -12.5t-4 -12.5q-27 0 -93 2t-106 2q-43 0 -119.5 -2t-107.5 -2q-6 0 -6 12.5t6 12.5q89 0 141.5 63t52.5 172v866 q-67 73 -115.5 101t-99.5 28q-5 0 -5 12.5t5 12.5q27 0 83.5 -2t80.5 -2q56 0 133 2t92 2q13 0 22.5 -6.5t16.5 -16t25.5 -35t38.5 -48.5l708 -818v662q0 109 -45.5 173t-124.5 64q-5 0 -5 12.5t5 12.5q27 0 93 -3t106 -3q39 0 109 3t98 3z" />
<glyph unicode="&#xd2;" horiz-adv-x="1568" d="M999 1389q-212 96 -456 159q-24 4 27 27q79 37 150 49q26 5 32 0q27 -23 76 -66t93 -79.5t87 -67.5q5 -2 5 -8t-4 -11t-10 -3zM750 -25q-191 0 -341 91t-229.5 242t-79.5 331q0 129 43 239t115 187t165.5 131.5t195 80.5t202.5 26q146 0 270 -55t205.5 -146.5t126.5 -208 t45 -240.5q0 -140 -58 -266t-155 -216t-229 -143t-276 -53zM817 27q176 0 288 150.5t112 416.5q0 188 -57 335.5t-166.5 232.5t-254.5 85q-186 0 -286.5 -140.5t-100.5 -391.5q0 -198 60 -355.5t166.5 -245t238.5 -87.5z" />
<glyph unicode="&#xd3;" horiz-adv-x="1568" d="M596 1389q-9 -3 -12.5 8t4.5 14q43 31 87 67.5t93 79.5t76 66q16 13 125 -26q93 -33 90 -46q-1 -3 -8 -4q-246 -64 -455 -159zM750 -25q-191 0 -341 91t-229.5 242t-79.5 331q0 129 43 239t115 187t165.5 131.5t195 80.5t202.5 26q146 0 270 -55t205.5 -146.5t126.5 -208 t45 -240.5q0 -140 -58 -266t-155 -216t-229 -143t-276 -53zM817 27q176 0 288 150.5t112 416.5q0 188 -57 335.5t-166.5 232.5t-254.5 85q-186 0 -286.5 -140.5t-100.5 -391.5q0 -198 60 -355.5t166.5 -245t238.5 -87.5z" />
<glyph unicode="&#xd4;" horiz-adv-x="1568" d="M563 1438l211 237q9 7 22.5 7t22.5 -7l211 -237q5 -5 -0.5 -12t-11.5 -3l-221 78l-222 -78q-3 -1 -7.5 1.5t-6 6.5t1.5 7zM750 -25q-191 0 -341 91t-229.5 242t-79.5 331q0 129 43 239t115 187t165.5 131.5t195 80.5t202.5 26q146 0 270 -55t205.5 -146.5t126.5 -208 t45 -240.5q0 -140 -58 -266t-155 -216t-229 -143t-276 -53zM817 27q176 0 288 150.5t112 416.5q0 188 -57 335.5t-166.5 232.5t-254.5 85q-186 0 -286.5 -140.5t-100.5 -391.5q0 -198 60 -355.5t166.5 -245t238.5 -87.5z" />
<glyph unicode="&#xd5;" horiz-adv-x="1568" d="M961 1556q34 0 55.5 12t48.5 44q5 3 11.5 -3t2.5 -12q-55 -99 -89.5 -132t-80.5 -33q-35 0 -121.5 25.5t-134.5 25.5q-14 0 -26 -2t-19.5 -4.5t-16.5 -9.5t-13 -10.5t-14.5 -14.5t-14.5 -15q-5 -3 -11.5 4t-2.5 11q93 166 180 166q22 0 110 -26t136 -26zM750 -25 q-191 0 -341 91t-229.5 242t-79.5 331q0 129 43 239t115 187t165.5 131.5t195 80.5t202.5 26q146 0 270 -55t205.5 -146.5t126.5 -208t45 -240.5q0 -140 -58 -266t-155 -216t-229 -143t-276 -53zM817 27q176 0 288 150.5t112 416.5q0 188 -57 335.5t-166.5 232.5t-254.5 85 q-186 0 -286.5 -140.5t-100.5 -391.5q0 -198 60 -355.5t166.5 -245t238.5 -87.5z" />
<glyph unicode="&#xd6;" horiz-adv-x="1568" d="M618 1440q-53 0 -82.5 29t-29.5 83q0 48 30 76.5t82 28.5q50 0 78.5 -28.5t28.5 -76.5q0 -54 -28 -83t-79 -29zM975 1440q-53 0 -82 29t-29 83q0 48 29.5 75.5t81.5 27.5q50 0 77 -27.5t27 -75.5q0 -54 -26.5 -83t-77.5 -29zM750 -25q-191 0 -341 91t-229.5 242 t-79.5 331q0 129 43 239t115 187t165.5 131.5t195 80.5t202.5 26q146 0 270 -55t205.5 -146.5t126.5 -208t45 -240.5q0 -140 -58 -266t-155 -216t-229 -143t-276 -53zM817 27q176 0 288 150.5t112 416.5q0 188 -57 335.5t-166.5 232.5t-254.5 85q-186 0 -286.5 -140.5 t-100.5 -391.5q0 -198 60 -355.5t166.5 -245t238.5 -87.5z" />
<glyph unicode="&#xd7;" horiz-adv-x="817" d="M682 258q5 -4 -11 -23.5t-35.5 -36t-23.5 -12.5l-202 203l-203 -205q-7 -4 -43 30t-33 40l207 207l-205 203q-3 5 13.5 24t35 35.5t21.5 13.5l207 -205l200 201q5 5 25 -11.5t36 -35.5t11 -22l-203 -203z" />
<glyph unicode="&#xd8;" horiz-adv-x="1615" d="M1292 1106q85 -90 130.5 -208.5t45.5 -244.5q0 -140 -58 -266t-155 -216t-229 -143t-276 -53q-243 0 -424 150l-142 -143q-3 -4 -14.5 4.5t-20 20t-4.5 16.5l140 141q-88 91 -136.5 214.5t-48.5 260.5q0 129 43 239t115 187t165.5 131.5t195 80.5t202.5 26 q251 0 430 -158l150 151q4 3 16 -5t21 -18.5t4 -15.5zM352 715q0 -228 80 -402l688 699q-63 111 -160.5 173t-220.5 62q-186 0 -286.5 -140.5t-100.5 -391.5zM817 27q176 0 288 150.5t112 416.5q0 205 -70 364l-688 -698q64 -110 156.5 -171.5t201.5 -61.5z" />
<glyph unicode="&#xd9;" horiz-adv-x="1439" d="M969 1389q-210 95 -457 159q-24 4 28 28q80 37 149 49q26 4 32 -1q27 -23 76 -66t93 -79.5t87 -67.5q4 -3 4.5 -8.5t-3.5 -10.5t-9 -3zM1169 1018q0 110 -50 173.5t-140 63.5q-5 0 -5 12.5t5 12.5q32 0 105 -3t118 -3q39 0 108.5 3t98.5 3q5 0 5 -12.5t-5 -12.5 q-81 0 -125.5 -63.5t-44.5 -173.5v-569q0 -217 -140 -347.5t-370 -130.5t-374 129.5t-144 352.5v661q0 88 -26.5 114.5t-118.5 26.5q-6 0 -6 12.5t6 12.5q33 0 119.5 -3t138.5 -3q55 0 142 3t118 3q6 0 6 -12.5t-6 -12.5q-91 0 -118.5 -28t-27.5 -117v-586q0 -244 97 -360.5 t272 -116.5q170 0 266 103.5t96 295.5v572z" />
<glyph unicode="&#xda;" horiz-adv-x="1439" d="M565 1389q-9 -3 -12.5 8t2.5 14q44 31 86 66t96 82.5t74 64.5q18 13 126 -26q94 -33 91 -46q-1 -3 -8 -4q-242 -63 -455 -159zM1169 1018q0 110 -50 173.5t-140 63.5q-5 0 -5 12.5t5 12.5q32 0 105 -3t118 -3q39 0 108.5 3t98.5 3q5 0 5 -12.5t-5 -12.5 q-81 0 -125.5 -63.5t-44.5 -173.5v-569q0 -217 -140 -347.5t-370 -130.5t-374 129.5t-144 352.5v661q0 88 -26.5 114.5t-118.5 26.5q-6 0 -6 12.5t6 12.5q33 0 119.5 -3t138.5 -3q55 0 142 3t118 3q6 0 6 -12.5t-6 -12.5q-91 0 -118.5 -28t-27.5 -117v-586q0 -244 97 -360.5 t272 -116.5q170 0 266 103.5t96 295.5v572z" />
<glyph unicode="&#xdb;" horiz-adv-x="1439" d="M532 1438l211 237q7 7 21.5 7t23.5 -7l211 -237q3 -3 1 -8t-6 -7t-7 0l-221 78l-223 -78q-4 -2 -10 4.5t-1 10.5zM1169 1018q0 110 -50 173.5t-140 63.5q-5 0 -5 12.5t5 12.5q32 0 105 -3t118 -3q39 0 108.5 3t98.5 3q5 0 5 -12.5t-5 -12.5q-81 0 -125.5 -63.5 t-44.5 -173.5v-569q0 -217 -140 -347.5t-370 -130.5t-374 129.5t-144 352.5v661q0 88 -26.5 114.5t-118.5 26.5q-6 0 -6 12.5t6 12.5q33 0 119.5 -3t138.5 -3q55 0 142 3t118 3q6 0 6 -12.5t-6 -12.5q-91 0 -118.5 -28t-27.5 -117v-586q0 -244 97 -360.5t272 -116.5 q170 0 266 103.5t96 295.5v572z" />
<glyph unicode="&#xdc;" horiz-adv-x="1439" d="M588 1440q-53 0 -83 29t-30 83q0 48 30.5 76.5t82.5 28.5q49 0 77.5 -28.5t28.5 -76.5q0 -54 -28 -83t-78 -29zM944 1440q-53 0 -81.5 29t-28.5 83q0 48 29 75.5t81 27.5q50 0 77.5 -27.5t27.5 -75.5q0 -54 -27 -83t-78 -29zM1169 1018q0 110 -50 173.5t-140 63.5 q-5 0 -5 12.5t5 12.5q32 0 105 -3t118 -3q39 0 108.5 3t98.5 3q5 0 5 -12.5t-5 -12.5q-81 0 -125.5 -63.5t-44.5 -173.5v-569q0 -217 -140 -347.5t-370 -130.5t-374 129.5t-144 352.5v661q0 88 -26.5 114.5t-118.5 26.5q-6 0 -6 12.5t6 12.5q33 0 119.5 -3t138.5 -3 q55 0 142 3t118 3q6 0 6 -12.5t-6 -12.5q-91 0 -118.5 -28t-27.5 -117v-586q0 -244 97 -360.5t272 -116.5q170 0 266 103.5t96 295.5v572z" />
<glyph unicode="&#xdd;" horiz-adv-x="1267" d="M465 1389q-9 -3 -12.5 8t2.5 14q44 31 86 66t96 82.5t74 64.5q18 13 126 -26q94 -33 91 -46q-1 -3 -8 -4q-242 -63 -455 -159zM1280 1280q4 0 4 -12.5t-4 -12.5q-64 0 -156 -78.5t-163 -197.5l-213 -356v-457q0 -90 25.5 -115.5t119.5 -25.5q6 0 6 -12.5t-6 -12.5 q-32 0 -118.5 2t-141.5 2q-52 0 -140.5 -2t-121.5 -2q-5 0 -5 12.5t5 12.5q94 0 121.5 26t27.5 115v414l-299 464q-77 118 -126 164.5t-85 46.5q-6 0 -6 12.5t6 12.5q21 0 63.5 -3t63.5 -3q63 0 186.5 3t155.5 3q5 0 5 -12.5t-5 -12.5q-59 0 -71 -40.5t26 -96.5l281 -442 l188 321q68 114 52 186t-111 72q-6 0 -6 12.5t6 12.5q38 0 122 -3t154 -3q35 0 82.5 3t77.5 3z" />
<glyph unicode="&#xde;" horiz-adv-x="1124" d="M608 301q86 0 144.5 88.5t58.5 257.5q0 162 -66.5 246t-179.5 84q-59 0 -131 -10v-793q0 -65 14.5 -94.5t55 -42t127.5 -12.5q5 0 5 -12.5t-5 -12.5q-41 0 -143.5 2t-165.5 2q-48 0 -128 -2t-110 -2q-6 0 -6 12.5t6 12.5q78 0 100.5 26t22.5 115v948q0 88 -22.5 114.5 t-100.5 26.5q-6 0 -6 12.5t6 12.5q30 0 110 -3t128 -3q63 0 165.5 3t143.5 3q5 0 5 -12.5t-5 -12.5q-88 0 -128 -12.5t-54.5 -42.5t-14.5 -96v-92q85 10 182 10q197 0 317 -79.5t126 -254.5q2 -84 -23.5 -154.5t-69 -118t-100 -80.5t-116 -48t-119.5 -15q-43 0 -103 11 q-4 1 -4 8t3 13t8 5q50 -8 73 -8z" />
<glyph unicode="&#xdf;" horiz-adv-x="1114" d="M803 33q98 0 98 121q0 86 -49.5 157.5t-169.5 159.5q-20 14 -6 33l153 239q-170 187 -294 187q-96 0 -141.5 -68t-45.5 -237v-459q0 -91 15 -116t71 -25q4 0 4 -12.5t-4 -12.5l-194 2q-45 0 -120.5 -1t-107.5 -1q-6 0 -6 12.5t6 12.5q80 0 105.5 26.5t25.5 114.5v416 q0 73 29.5 143t83.5 128.5t140.5 94t191.5 35.5q134 0 286 -41q45 -13 63.5 -9t51.5 32q7 7 16.5 1t6.5 -14l-211 -321q153 -109 217.5 -196t64.5 -179q0 -106 -95.5 -189t-256.5 -83q-95 0 -182 20q-21 6 -21 39l-4 242q-1 9 9.5 10.5t15.5 -4.5q72 -128 130.5 -193 t123.5 -65z" />
<glyph unicode="&#xe0;" horiz-adv-x="985" d="M268 1227q-26 5 30 31q81 37 149 47q24 3 30 -2q23 -18 111 -95t145 -118q4 -3 4.5 -8.5t-4 -10.5t-10.5 -2q-237 104 -455 158zM958 119q6 3 10.5 -2t4.5 -10.5t-4 -8.5l-226 -108q-12 -4 -20 -4q-31 0 -63.5 37t-49.5 92l-121 -64q-68 -35 -114 -50t-94 -15 q-81 0 -125.5 37.5t-44.5 103.5q0 118 159 174l328 121v268q0 125 -26 182.5t-83 57.5q-45 0 -79 -34.5t-50 -76t-30 -100.5q-23 -115 -119 -115q-52 0 -82 27t-29 76q2 61 79.5 125t186.5 104.5t201 40.5q108 0 172 -56t64 -169v-484q0 -76 27 -117.5t73 -41.5q22 0 55 10z M512 111l90 43q-4 28 -4 45v178l-164 -64q-98 -34 -98 -118q0 -47 27 -77t69 -30q33 0 80 23z" />
<glyph unicode="&#xe1;" horiz-adv-x="985" d="M334 1069q-6 -3 -10.5 2t-4 10.5t4.5 8.5q57 41 145 118t111 95q17 14 124 -23q92 -33 92 -48q0 -4 -8 -5q-223 -55 -454 -158zM958 119q6 3 10.5 -2t4.5 -10.5t-4 -8.5l-226 -108q-12 -4 -20 -4q-31 0 -63.5 37t-49.5 92l-121 -64q-68 -35 -114 -50t-94 -15 q-81 0 -125.5 37.5t-44.5 103.5q0 118 159 174l328 121v268q0 125 -26 182.5t-83 57.5q-45 0 -79 -34.5t-50 -76t-30 -100.5q-23 -115 -119 -115q-52 0 -82 27t-29 76q2 61 79.5 125t186.5 104.5t201 40.5q108 0 172 -56t64 -169v-484q0 -76 27 -117.5t73 -41.5q22 0 55 10z M512 111l90 43q-4 28 -4 45v178l-164 -64q-98 -34 -98 -118q0 -47 27 -77t69 -30q33 0 80 23z" />
<glyph unicode="&#xe2;" horiz-adv-x="985" d="M299 1077q-2 -1 -6 2t-6 7t0 6l211 237q9 9 23.5 9t21.5 -9l211 -237q3 -2 2 -6.5t-5.5 -7.5t-7.5 -1l-221 80zM958 119q6 3 10.5 -2t4.5 -10.5t-4 -8.5l-226 -108q-12 -4 -20 -4q-31 0 -63.5 37t-49.5 92l-121 -64q-68 -35 -114 -50t-94 -15q-81 0 -125.5 37.5 t-44.5 103.5q0 118 159 174l328 121v268q0 125 -26 182.5t-83 57.5q-45 0 -79 -34.5t-50 -76t-30 -100.5q-23 -115 -119 -115q-52 0 -82 27t-29 76q2 61 79.5 125t186.5 104.5t201 40.5q108 0 172 -56t64 -169v-484q0 -76 27 -117.5t73 -41.5q22 0 55 10zM512 111l90 43 q-4 28 -4 45v178l-164 -64q-98 -34 -98 -118q0 -47 27 -77t69 -30q33 0 80 23z" />
<glyph unicode="&#xe3;" horiz-adv-x="985" d="M260 1106q-2 -2 -6 0.5t-7 6.5t-1 7q106 166 205 166q29 0 114.5 -24.5t130.5 -24.5q34 0 55 11t50 42q2 2 6 0.5t7 -6t1 -8.5q-61 -97 -101 -130.5t-89 -33.5q-38 0 -126.5 24.5t-133.5 24.5q-11 0 -20 -1t-15.5 -2.5t-14 -5t-11 -5.5t-11 -8.5t-10 -9l-11.5 -11.5z M958 119q6 3 10.5 -2t4.5 -10.5t-4 -8.5l-226 -108q-12 -4 -20 -4q-31 0 -63.5 37t-49.5 92l-121 -64q-68 -35 -114 -50t-94 -15q-81 0 -125.5 37.5t-44.5 103.5q0 118 159 174l328 121v268q0 125 -26 182.5t-83 57.5q-45 0 -79 -34.5t-50 -76t-30 -100.5 q-23 -115 -119 -115q-52 0 -82 27t-29 76q2 61 79.5 125t186.5 104.5t201 40.5q108 0 172 -56t64 -169v-484q0 -76 27 -117.5t73 -41.5q22 0 55 10zM512 111l90 43q-4 28 -4 45v178l-164 -64q-98 -34 -98 -118q0 -47 27 -77t69 -30q33 0 80 23z" />
<glyph unicode="&#xe4;" horiz-adv-x="985" d="M342 1118q-53 0 -83 29.5t-30 83.5q0 49 30 77.5t83 28.5q51 0 80 -28t29 -78q0 -54 -29 -83.5t-80 -29.5zM700 1118q-53 0 -81.5 29.5t-28.5 83.5q0 49 28.5 75.5t81.5 26.5q50 0 77.5 -26.5t27.5 -75.5q0 -54 -27.5 -83.5t-77.5 -29.5zM958 119q6 3 10.5 -2t4.5 -10.5 t-4 -8.5l-226 -108q-12 -4 -20 -4q-31 0 -63.5 37t-49.5 92l-121 -64q-68 -35 -114 -50t-94 -15q-81 0 -125.5 37.5t-44.5 103.5q0 118 159 174l328 121v268q0 125 -26 182.5t-83 57.5q-45 0 -79 -34.5t-50 -76t-30 -100.5q-23 -115 -119 -115q-52 0 -82 27t-29 76 q2 61 79.5 125t186.5 104.5t201 40.5q108 0 172 -56t64 -169v-484q0 -76 27 -117.5t73 -41.5q22 0 55 10zM512 111l90 43q-4 28 -4 45v178l-164 -64q-98 -34 -98 -118q0 -47 27 -77t69 -30q33 0 80 23z" />
<glyph unicode="&#xe5;" horiz-adv-x="952" d="M449 1126q-100 0 -160 48t-60 114q0 74 73.5 116t164.5 42t155 -47.5t64 -114.5q0 -71 -72 -114.5t-165 -43.5zM426 1417q-47 0 -47 -88q0 -68 27 -121t73 -53q56 0 56 92q0 69 -32.5 119.5t-76.5 50.5zM958 119q6 3 10.5 -2t4.5 -10.5t-4 -8.5l-226 -108q-12 -4 -20 -4 q-31 0 -63.5 37t-49.5 92l-121 -64q-68 -35 -114 -50t-94 -15q-81 0 -125.5 37.5t-44.5 103.5q0 118 159 174l328 121v268q0 125 -26 182.5t-83 57.5q-45 0 -79 -34.5t-50 -76t-30 -100.5q-23 -115 -119 -115q-52 0 -82 27t-29 76q2 61 79.5 125t186.5 104.5t201 40.5 q108 0 172 -56t64 -169v-484q0 -76 27 -117.5t73 -41.5q22 0 55 10zM512 111l90 43q-4 28 -4 45v178l-164 -64q-98 -34 -98 -118q0 -47 27 -77t69 -30q33 0 80 23z" />
<glyph unicode="&#xe6;" horiz-adv-x="1323" d="M1315 111q6 3 13 -6t1 -15q-143 -115 -315 -115q-254 0 -359 179l-198 -103q-127 -65 -207 -65q-81 0 -125.5 37.5t-44.5 103.5q0 118 160 174l346 127q-2 12 -2 39q-3 195 -14.5 289t-38 133t-80.5 39q-40 0 -69.5 -16.5t-46.5 -46t-26 -59t-14 -67.5q-7 -46 -34 -80 t-77 -34q-48 0 -74 26t-26 70q0 59 68.5 119t171.5 98.5t200 38.5q89 0 138.5 -38.5t68.5 -117.5q105 156 316 156q127 0 199.5 -67.5t72.5 -174.5q0 -45 -23 -45l-493 -2q-12 -77 -12 -174q0 -223 72.5 -339t246.5 -116q101 0 205 52zM983 936q-62 0 -106 -54t-66 -155 l285 6q-2 97 -30 150t-83 53zM481 111l158 73q-39 82 -51 201l-187 -72q-96 -35 -96 -118q0 -47 26.5 -77t67.5 -30q35 0 82 23z" />
<glyph unicode="&#xe7;" horiz-adv-x="1085" d="M971 287q3 7 12.5 5.5t9.5 -7.5l-16 -217q-2 -18 -6.5 -24t-22.5 -13q-149 -52 -313 -56q-11 -57 6 -95t70 -68q53 -32 82.5 -68t29.5 -92q0 -85 -61.5 -150t-186.5 -65q-153 0 -153 98q0 30 24 55t58 25q32 0 50 -13.5t24.5 -32.5t12.5 -37.5t21 -32t43 -13.5 q47 0 47 49q0 54 -37.5 96.5t-132.5 96.5q-15 6 -17.5 17.5t7.5 39.5q33 76 74 190q-115 3 -209 37.5t-153 86t-99.5 119t-57 133.5t-16.5 132q0 140 74.5 255t205 180t290.5 65q76 0 165 -15.5t146 -43.5q14 -6 18.5 -13t4.5 -22l10 -211q0 -6 -10.5 -7.5t-14.5 5.5 q-77 134 -159 198t-185 64q-145 0 -223 -116t-78 -308q0 -93 19.5 -178.5t59 -158t108.5 -116t159 -43.5q105 0 178 63.5t142 205.5z" />
<glyph unicode="&#xe8;" horiz-adv-x="927" d="M268 1227q-26 5 30 31q81 37 149 47q24 3 30 -2q23 -18 111 -95t145 -118q4 -3 4.5 -8.5t-4 -10.5t-10.5 -2q-237 104 -455 158zM291 688q-12 -62 -12 -137q0 -227 100 -362.5t283 -135.5q115 0 198 58q3 2 7.5 -2t6.5 -9.5t0 -9.5q-143 -115 -315 -115q-120 0 -217 41 t-157 110t-92 155.5t-32 181.5q0 217 152 365.5t379 148.5q138 0 217.5 -67.5t79.5 -174.5q0 -24 -5.5 -34.5t-19.5 -10.5zM522 928q-170 0 -223 -201l371 6q-1 93 -42 144t-106 51z" />
<glyph unicode="&#xe9;" horiz-adv-x="927" d="M334 1069q-6 -3 -10.5 2t-4 10.5t4.5 8.5q57 41 145 118t111 95q17 14 124 -23q92 -33 92 -48q0 -4 -8 -5q-223 -55 -454 -158zM291 688q-12 -62 -12 -137q0 -227 100 -362.5t283 -135.5q115 0 198 58q3 2 7.5 -2t6.5 -9.5t0 -9.5q-143 -115 -315 -115q-120 0 -217 41 t-157 110t-92 155.5t-32 181.5q0 217 152 365.5t379 148.5q138 0 217.5 -67.5t79.5 -174.5q0 -24 -5.5 -34.5t-19.5 -10.5zM522 928q-170 0 -223 -201l371 6q-1 93 -42 144t-106 51z" />
<glyph unicode="&#xea;" horiz-adv-x="927" d="M299 1077q-2 -1 -6 2t-6 7t0 6l211 237q9 9 23.5 9t21.5 -9l211 -237q3 -2 2 -6.5t-5.5 -7.5t-7.5 -1l-221 80zM291 688q-12 -62 -12 -137q0 -227 100 -362.5t283 -135.5q115 0 198 58q3 2 7.5 -2t6.5 -9.5t0 -9.5q-143 -115 -315 -115q-120 0 -217 41t-157 110 t-92 155.5t-32 181.5q0 217 152 365.5t379 148.5q138 0 217.5 -67.5t79.5 -174.5q0 -24 -5.5 -34.5t-19.5 -10.5zM522 928q-170 0 -223 -201l371 6q-1 93 -42 144t-106 51z" />
<glyph unicode="&#xeb;" horiz-adv-x="927" d="M342 1118q-53 0 -83 29.5t-30 83.5q0 49 30 77.5t83 28.5q51 0 80 -28t29 -78q0 -54 -29 -83.5t-80 -29.5zM700 1118q-53 0 -81.5 29.5t-28.5 83.5q0 49 28.5 75.5t81.5 26.5q50 0 77.5 -26.5t27.5 -75.5q0 -54 -27.5 -83.5t-77.5 -29.5zM291 688q-12 -62 -12 -137 q0 -227 100 -362.5t283 -135.5q115 0 198 58q3 2 7.5 -2t6.5 -9.5t0 -9.5q-143 -115 -315 -115q-120 0 -217 41t-157 110t-92 155.5t-32 181.5q0 217 152 365.5t379 148.5q138 0 217.5 -67.5t79.5 -174.5q0 -24 -5.5 -34.5t-19.5 -10.5zM522 928q-170 0 -223 -201l371 6 q-1 93 -42 144t-106 51z" />
<glyph unicode="&#xec;" horiz-adv-x="620" d="M520 1069q-236 103 -454 158q-27 5 31 32q82 37 147 46q22 3 28 -2q25 -20 113 -96.5t143 -116.5q5 -2 5 -8.5t-3.5 -11t-9.5 -1.5zM414 166q0 -89 24 -115t109 -26q5 0 5 -12.5t-5 -12.5q-30 0 -109.5 2t-128.5 2q-45 0 -125 -2t-110 -2q-4 0 -4 12.5t4 12.5 q86 0 110.5 26t24.5 115v627q0 88 -24.5 114.5t-110.5 26.5q-4 0 -4 12t4 12q30 0 109.5 -3t125.5 -3q50 0 130 3t108 3q5 0 5 -12t-5 -12q-83 0 -108 -28.5t-25 -117.5v-622z" />
<glyph unicode="&#xed;" horiz-adv-x="620" d="M129 1069q-6 -3 -10 2t-3.5 10.5t3.5 8.5q57 41 147.5 119t110.5 94q16 14 121 -23q94 -33 94 -48q-2 -3 -8 -5q-218 -54 -455 -158zM414 166q0 -89 24 -115t109 -26q5 0 5 -12.5t-5 -12.5q-30 0 -109.5 2t-128.5 2q-45 0 -125 -2t-110 -2q-4 0 -4 12.5t4 12.5 q86 0 110.5 26t24.5 115v627q0 88 -24.5 114.5t-110.5 26.5q-4 0 -4 12t4 12q30 0 109.5 -3t125.5 -3q50 0 130 3t108 3q5 0 5 -12t-5 -12q-83 0 -108 -28.5t-25 -117.5v-622z" />
<glyph unicode="&#xee;" horiz-adv-x="620" d="M84 1092l211 237q9 9 22.5 9t22.5 -9l211 -237q8 -4 -2 -13q-6 -3 -10 -2l-220 80l-223 -80q-7 -2 -13 7q-2 6 1 8zM414 166q0 -89 24 -115t109 -26q5 0 5 -12.5t-5 -12.5q-30 0 -109.5 2t-128.5 2q-45 0 -125 -2t-110 -2q-4 0 -4 12.5t4 12.5q86 0 110.5 26t24.5 115 v627q0 88 -24.5 114.5t-110.5 26.5q-4 0 -4 12t4 12q30 0 109.5 -3t125.5 -3q50 0 130 3t108 3q5 0 5 -12t-5 -12q-83 0 -108 -28.5t-25 -117.5v-622z" />
<glyph unicode="&#xef;" horiz-adv-x="620" d="M160 1118q-53 0 -83 29.5t-30 83.5q0 49 30 77.5t83 28.5q51 0 79.5 -28t28.5 -78q0 -54 -28.5 -83.5t-79.5 -29.5zM471 1118q-52 0 -80.5 29.5t-28.5 83.5q0 49 28 75.5t81 26.5q51 0 79 -26.5t28 -75.5q0 -54 -28 -83.5t-79 -29.5zM414 166q0 -89 24 -115t109 -26 q5 0 5 -12.5t-5 -12.5q-30 0 -109.5 2t-128.5 2q-45 0 -125 -2t-110 -2q-4 0 -4 12.5t4 12.5q86 0 110.5 26t24.5 115v627q0 88 -24.5 114.5t-110.5 26.5q-4 0 -4 12t4 12q30 0 109.5 -3t125.5 -3q50 0 130 3t108 3q5 0 5 -12t-5 -12q-83 0 -108 -28.5t-25 -117.5v-622z" />
<glyph unicode="&#xf0;" d="M547 963q259 0 406 -134t147 -344q0 -214 -149 -353.5t-382 -139.5q-37 0 -132 6t-140 6t-125 -2t-111 -2q-5 0 -5 12.5t5 12.5q87 0 111.5 25.5t24.5 115.5v289h-80q-9 0 -9 28.5t9 28.5h80v281q0 89 -23.5 115t-107.5 26q-6 0 -6 12t6 12q29 0 107 -3t124 -3 q41 0 125.5 5.5t124.5 5.5zM547 37q150 0 233.5 110.5t83.5 315.5q0 75 -12 141.5t-38 125t-64.5 101t-95.5 67t-126 24.5q-70 0 -99.5 -29.5t-29.5 -104.5v-276h209q9 0 9 -28.5t-9 -28.5h-209v-267q0 -83 30 -117t118 -34z" />
<glyph unicode="&#xf1;" horiz-adv-x="1214" d="M379 1106q-5 -3 -11.5 3.5t-2.5 10.5q101 166 202 166q31 0 117.5 -24.5t130.5 -24.5q33 0 53.5 11t49.5 42q2 2 6 0.5t7 -6t1 -8.5q-61 -97 -101.5 -130.5t-87.5 -33.5q-39 0 -128 24.5t-134 24.5q-11 0 -20 -1t-15.5 -2t-13.5 -5l-10.5 -6t-11 -8.5t-9.5 -9 t-10.5 -11.5t-11.5 -12zM1155 25q5 0 5 -12.5t-5 -12.5q-23 0 -86.5 2t-99.5 2q-43 0 -112.5 -2t-92.5 -2q-4 0 -4 12.5t4 12.5q68 0 88 28t20 117v408q0 101 -16 170.5t-47 104t-66 48.5t-81 14q-167 0 -285 -174v-571q0 -90 18.5 -117.5t83.5 -27.5q5 0 5 -12.5t-5 -12.5 q-26 0 -100 2t-113 2q-37 0 -107.5 -2t-97.5 -2q-5 0 -5 12.5t5 12.5q69 0 90 26t21 115v627q0 88 -19 114.5t-85 26.5q-6 0 -6 12t6 12q22 0 65.5 -1t67.5 -1q30 0 73.5 1t63.5 1q25 0 32 -6.5t7 -31.5v-113q151 176 366 176q67 0 122 -16.5t104.5 -55t77.5 -111.5t28 -175 v-459q0 -89 14.5 -115t65.5 -26z" />
<glyph unicode="&#xf2;" d="M786 1063q-220 100 -456 158q-25 5 30 30q80 37 148 48q25 4 31 -1q27 -23 76 -66t93 -79.5t87 -67.5q7 -4 3 -14.5t-12 -7.5zM563 -25q-146 0 -262 69.5t-178 184t-62 250.5q0 96 32.5 179t87 141.5t125 100.5t148 62.5t154.5 20.5q109 0 203 -42.5t156.5 -112.5 t97.5 -158t35 -181q0 -102 -42 -196.5t-113 -164.5t-171.5 -111.5t-210.5 -41.5zM610 23q116 0 186 112.5t70 310.5q0 135 -40 245t-115.5 175.5t-173.5 65.5q-119 0 -180.5 -98t-61.5 -291q0 -222 90.5 -371t224.5 -149z" />
<glyph unicode="&#xf3;" d="M395 1063q-9 -3 -12.5 7t2.5 15q44 31 86 66t96 82.5t74 64.5q18 13 125 -25q94 -33 92 -47q-1 -4 -8 -5q-234 -58 -455 -158zM563 -25q-146 0 -262 69.5t-178 184t-62 250.5q0 96 32.5 179t87 141.5t125 100.5t148 62.5t154.5 20.5q109 0 203 -42.5t156.5 -112.5 t97.5 -158t35 -181q0 -102 -42 -196.5t-113 -164.5t-171.5 -111.5t-210.5 -41.5zM610 23q116 0 186 112.5t70 310.5q0 135 -40 245t-115.5 175.5t-173.5 65.5q-119 0 -180.5 -98t-61.5 -291q0 -222 90.5 -371t224.5 -149z" />
<glyph unicode="&#xf4;" d="M350 1087l211 238q9 9 22.5 9t22.5 -9l211 -238q2 -2 0.5 -6t-5.5 -7t-7 -1l-221 80l-222 -80q-6 -2 -13 6q-4 6 1 8zM563 -25q-146 0 -262 69.5t-178 184t-62 250.5q0 96 32.5 179t87 141.5t125 100.5t148 62.5t154.5 20.5q109 0 203 -42.5t156.5 -112.5t97.5 -158 t35 -181q0 -102 -42 -196.5t-113 -164.5t-171.5 -111.5t-210.5 -41.5zM610 23q116 0 186 112.5t70 310.5q0 135 -40 245t-115.5 175.5t-173.5 65.5q-119 0 -180.5 -98t-61.5 -291q0 -222 90.5 -371t224.5 -149z" />
<glyph unicode="&#xf5;" d="M760 1231q33 0 54 11.5t48 43.5q3 3 10.5 -2.5t4.5 -11.5q-61 -97 -101.5 -131.5t-87.5 -34.5q-39 0 -128 25.5t-134 25.5q-14 0 -25.5 -2t-18.5 -4.5t-16.5 -9.5t-13 -10t-14 -14t-14.5 -15q-3 -3 -10.5 3.5t-4.5 10.5q21 32 36.5 52.5t43.5 51t59.5 46.5t63.5 16 q31 0 117.5 -25.5t130.5 -25.5zM563 -25q-146 0 -262 69.5t-178 184t-62 250.5q0 96 32.5 179t87 141.5t125 100.5t148 62.5t154.5 20.5q109 0 203 -42.5t156.5 -112.5t97.5 -158t35 -181q0 -102 -42 -196.5t-113 -164.5t-171.5 -111.5t-210.5 -41.5zM610 23 q116 0 186 112.5t70 310.5q0 135 -40 245t-115.5 175.5t-173.5 65.5q-119 0 -180.5 -98t-61.5 -291q0 -222 90.5 -371t224.5 -149z" />
<glyph unicode="&#xf6;" d="M406 1114q-53 0 -83 29.5t-30 83.5q0 48 30.5 76t82.5 28q49 0 77.5 -28t28.5 -76q0 -54 -28 -83.5t-78 -29.5zM762 1114q-53 0 -82 29.5t-29 83.5q0 47 29.5 74.5t81.5 27.5q50 0 77 -27t27 -75q0 -54 -26.5 -83.5t-77.5 -29.5zM563 -25q-146 0 -262 69.5t-178 184 t-62 250.5q0 96 32.5 179t87 141.5t125 100.5t148 62.5t154.5 20.5q109 0 203 -42.5t156.5 -112.5t97.5 -158t35 -181q0 -102 -42 -196.5t-113 -164.5t-171.5 -111.5t-210.5 -41.5zM610 23q116 0 186 112.5t70 310.5q0 135 -40 245t-115.5 175.5t-173.5 65.5 q-119 0 -180.5 -98t-61.5 -291q0 -222 90.5 -371t224.5 -149z" />
<glyph unicode="&#xf7;" horiz-adv-x="815" d="M408 645q-59 0 -92 32.5t-33 90.5q0 56 33.5 87.5t91.5 31.5q57 0 87.5 -31.5t30.5 -87.5q0 -59 -30.5 -91t-87.5 -32zM70 422q-6 0 -8 25t-0.5 50t6.5 25h677q9 0 9 -50t-9 -50h-675zM408 61q-58 0 -91.5 33.5t-33.5 91.5q0 54 33.5 86.5t91.5 32.5q56 0 87 -32t31 -87 q0 -59 -30.5 -92t-87.5 -33z" />
<glyph unicode="&#xf8;" d="M958 838q67 -70 104.5 -162t37.5 -187q0 -102 -42 -196.5t-113 -164.5t-171.5 -111.5t-210.5 -41.5q-197 0 -336 123l-114 -116q-4 -4 -15 4.5t-19.5 20t-4.5 16.5l114 114q-127 146 -127 342q0 96 32.5 179t87 141.5t125 100.5t148 62.5t154.5 20.5q178 0 310 -109 l108 109q3 3 14.5 -5t20.5 -19t4 -15zM295 543q0 -139 39 -258l465 469q-44 84 -111 131t-151 47q-119 0 -180.5 -98t-61.5 -291zM610 23q116 0 186 112.5t70 310.5q0 145 -43 252l-467 -471q44 -95 110 -149.5t144 -54.5z" />
<glyph unicode="&#xf9;" horiz-adv-x="1226" d="M362 1227q-27 5 31 32q81 36 147 46q23 3 29 -2q20 -16 110.5 -94t147.5 -119q3 -3 3.5 -8.5t-3.5 -10.5t-10 -2q-234 103 -455 158zM1163 934q-67 0 -87.5 -26.5t-20.5 -114.5v-627q0 -89 19 -115t85 -26q6 0 6 -12.5t-6 -12.5q-22 0 -65.5 1t-67.5 1q-30 0 -73.5 -1 t-63.5 -1q-25 0 -32 6.5t-7 32.5v111q-153 -175 -365 -175q-66 0 -124 17.5t-106 53t-75.5 97t-27.5 142.5v508q0 88 -14.5 114.5t-65.5 26.5q-4 0 -4 12t4 12q23 0 86 -3t100 -3q43 0 112.5 3t92.5 3q5 0 5 -12t-5 -12q-68 0 -88.5 -28.5t-20.5 -117.5v-454 q0 -156 58.5 -223.5t154.5 -67.5q161 0 283 174v571q0 90 -18.5 118t-83.5 28q-6 0 -6 12t6 12q26 0 100 -3t113 -3q37 0 106 3t96 3q6 0 6 -12t-6 -12z" />
<glyph unicode="&#xfa;" horiz-adv-x="1226" d="M426 1069q-6 -3 -9.5 1.5t-3.5 11t5 8.5q55 40 143 116.5t113 96.5q16 14 121 -23q94 -33 94 -48q-2 -3 -8 -5q-221 -55 -455 -158zM1163 934q-67 0 -87.5 -26.5t-20.5 -114.5v-627q0 -89 19 -115t85 -26q6 0 6 -12.5t-6 -12.5q-22 0 -65.5 1t-67.5 1q-30 0 -73.5 -1 t-63.5 -1q-25 0 -32 6.5t-7 32.5v111q-153 -175 -365 -175q-66 0 -124 17.5t-106 53t-75.5 97t-27.5 142.5v508q0 88 -14.5 114.5t-65.5 26.5q-4 0 -4 12t4 12q23 0 86 -3t100 -3q43 0 112.5 3t92.5 3q5 0 5 -12t-5 -12q-68 0 -88.5 -28.5t-20.5 -117.5v-454 q0 -156 58.5 -223.5t154.5 -67.5q161 0 283 174v571q0 90 -18.5 118t-83.5 28q-6 0 -6 12t6 12q26 0 100 -3t113 -3q37 0 106 3t96 3q6 0 6 -12t-6 -12z" />
<glyph unicode="&#xfb;" horiz-adv-x="1226" d="M393 1077q-7 -2 -13 7q-2 6 1 8l211 237q9 9 22.5 9t22.5 -9l211 -237q8 -4 -2 -13q-6 -3 -10 -2l-220 80zM1163 934q-67 0 -87.5 -26.5t-20.5 -114.5v-627q0 -89 19 -115t85 -26q6 0 6 -12.5t-6 -12.5q-22 0 -65.5 1t-67.5 1q-30 0 -73.5 -1t-63.5 -1q-25 0 -32 6.5 t-7 32.5v111q-153 -175 -365 -175q-66 0 -124 17.5t-106 53t-75.5 97t-27.5 142.5v508q0 88 -14.5 114.5t-65.5 26.5q-4 0 -4 12t4 12q23 0 86 -3t100 -3q43 0 112.5 3t92.5 3q5 0 5 -12t-5 -12q-68 0 -88.5 -28.5t-20.5 -117.5v-454q0 -156 58.5 -223.5t154.5 -67.5 q161 0 283 174v571q0 90 -18.5 118t-83.5 28q-6 0 -6 12t6 12q26 0 100 -3t113 -3q37 0 106 3t96 3q6 0 6 -12t-6 -12z" />
<glyph unicode="&#xfc;" horiz-adv-x="1226" d="M436 1118q-53 0 -82.5 29.5t-29.5 83.5q0 50 30 78t82 28q51 0 79 -28t28 -78q0 -54 -28 -83.5t-79 -29.5zM793 1118q-53 0 -82 29.5t-29 83.5q0 49 29 75.5t82 26.5q51 0 78.5 -26.5t27.5 -75.5q0 -54 -27.5 -83.5t-78.5 -29.5zM1163 934q-67 0 -87.5 -26.5 t-20.5 -114.5v-627q0 -89 19 -115t85 -26q6 0 6 -12.5t-6 -12.5q-22 0 -65.5 1t-67.5 1q-30 0 -73.5 -1t-63.5 -1q-25 0 -32 6.5t-7 32.5v111q-153 -175 -365 -175q-66 0 -124 17.5t-106 53t-75.5 97t-27.5 142.5v508q0 88 -14.5 114.5t-65.5 26.5q-4 0 -4 12t4 12 q23 0 86 -3t100 -3q43 0 112.5 3t92.5 3q5 0 5 -12t-5 -12q-68 0 -88.5 -28.5t-20.5 -117.5v-454q0 -156 58.5 -223.5t154.5 -67.5q161 0 283 174v571q0 90 -18.5 118t-83.5 28q-6 0 -6 12t6 12q26 0 100 -3t113 -3q37 0 106 3t96 3q6 0 6 -12t-6 -12z" />
<glyph unicode="&#xfd;" horiz-adv-x="1046" d="M356 1069q-6 -3 -9.5 1.5t-3.5 11t5 8.5q57 41 145 118t111 95q16 14 121 -23q94 -33 94 -48q-2 -3 -8 -5q-221 -55 -455 -158zM1057 958q5 0 5 -12t-5 -12q-61 0 -111.5 -48.5t-79.5 -135.5l-288 -748q-49 -135 -122.5 -239t-154.5 -146q-13 -8 -42.5 15.5t-47.5 58.5 q-19 40 -20 81t16 44q113 16 194.5 57.5t128.5 130.5l-376 784q-41 86 -71.5 116t-84.5 30q-6 0 -6 12t6 12q32 0 103 -3t137 -3q48 0 119.5 3t99.5 3q6 0 6 -12t-6 -12q-149 0 -88 -125l262 -533l180 486q33 75 6.5 123.5t-117.5 48.5q-6 0 -6 12t6 12q23 0 84.5 -3 t116.5 -3q32 0 79.5 3t76.5 3z" />
<glyph unicode="&#xfe;" horiz-adv-x="962" d="M510 229q68 0 116 65t48 185q0 127 -52 190.5t-139 63.5q-48 0 -86 -6v-553q0 -93 25 -121t110 -28q4 0 4 -12.5t-4 -12.5q-32 0 -110 2t-125 2q-45 0 -125 -2t-111 -2q-5 0 -5 12.5t5 12.5q87 0 110.5 25.5t23.5 115.5v627q0 89 -23.5 115t-110.5 26q-5 0 -5 12t5 12 q30 0 110 -3t126 -3q47 0 125.5 3t109.5 3q4 0 4 -12t-4 -12q-85 0 -110 -28.5t-25 -123.5v-18q82 10 135 10q369 0 369 -254q0 -64 -22.5 -118.5t-60 -90.5t-86 -61.5t-99 -37t-101.5 -11.5q-46 0 -77 10q-4 1 -4.5 8t2.5 13.5t8 5.5q24 -9 49 -9z" />
<glyph unicode="&#xff;" horiz-adv-x="1046" d="M367 1118q-53 0 -83 29.5t-30 83.5q0 49 30 77.5t83 28.5q51 0 79.5 -28t28.5 -78q0 -54 -28.5 -83.5t-79.5 -29.5zM723 1118q-53 0 -82 29.5t-29 83.5q0 49 29 75.5t82 26.5q51 0 78.5 -26.5t27.5 -75.5q0 -54 -27.5 -83.5t-78.5 -29.5zM1057 958q5 0 5 -12t-5 -12 q-61 0 -111.5 -48.5t-79.5 -135.5l-288 -748q-49 -135 -122.5 -239t-154.5 -146q-13 -8 -42.5 15.5t-47.5 58.5q-19 40 -20 81t16 44q113 16 194.5 57.5t128.5 130.5l-376 784q-41 86 -71.5 116t-84.5 30q-6 0 -6 12t6 12q32 0 103 -3t137 -3q48 0 119.5 3t99.5 3q6 0 6 -12 t-6 -12q-149 0 -88 -125l262 -533l180 486q33 75 6.5 123.5t-117.5 48.5q-6 0 -6 12t6 12q23 0 84.5 -3t116.5 -3q32 0 79.5 3t76.5 3z" />
<glyph unicode="&#x152;" horiz-adv-x="1908" d="M1794 326q2 6 13.5 3.5t11.5 -7.5q-21 -168 -21 -291q0 -18 -6.5 -24.5t-24.5 -6.5h-653q-43 0 -131 -4t-131 -4q-167 0 -308.5 48t-238 131.5t-151 198.5t-54.5 246q0 150 58.5 277t157.5 211.5t230 132t277 47.5q50 0 155.5 -2t156.5 -2h598q18 0 18 -18l4 -273 q0 -5 -10.5 -6.5t-11.5 4.5q-22 80 -107.5 159t-185.5 79h-86q-61 0 -89 -27.5t-28 -85.5v-418h170q118 0 181 41.5t63 114.5q0 6 12 6t12 -6q0 -49 -2 -105t-2 -79q0 -34 3 -101.5t3 -107.5q0 -5 -12 -5t-12 5q0 85 -64.5 132.5t-185.5 47.5h-166v-463q0 -117 92 -117h92 q117 0 228 80.5t145 188.5zM1008 166v948q0 79 -29.5 103t-132.5 24q-221 0 -357.5 -153t-136.5 -426q0 -175 58 -316.5t169 -225t255 -83.5q112 0 143 23.5t31 105.5z" />
<glyph unicode="&#x153;" horiz-adv-x="1622" d="M1018 688q-17 -93 -17 -192q0 -211 84.5 -324t239.5 -113q130 0 227 60q3 3 8 -0.5t7 -9t0 -9.5q-76 -67 -152.5 -96t-171.5 -29q-101 0 -193.5 54t-156.5 147q-71 -93 -176.5 -147t-227.5 -54q-98 0 -181 40.5t-139 108.5t-87 158t-31 189q0 121 46.5 221.5t121.5 162 t163 95t177 33.5q225 0 354 -188q65 86 162 134t209 48q136 0 217.5 -66.5t81.5 -175.5q0 -25 -5 -35t-19 -10zM1239 936q-77 0 -130.5 -54.5t-80.5 -154.5l332 8q-1 95 -35 148t-86 53zM553 27q107 0 175 112.5t65 306.5q-2 129 -38 236.5t-105 174.5t-158 67 q-112 0 -168 -99.5t-54 -281.5q3 -140 37.5 -256t99 -188t146.5 -72z" />
<glyph unicode="&#x178;" horiz-adv-x="1267" d="M485 1440q-52 0 -82 29.5t-30 82.5q0 47 30.5 76t81.5 29t80 -28.5t29 -76.5q0 -54 -29 -83t-80 -29zM844 1440q-53 0 -82 29t-29 83q0 48 29.5 75.5t81.5 27.5q49 0 76.5 -27.5t27.5 -75.5q0 -54 -27 -83t-77 -29zM1280 1280q4 0 4 -12.5t-4 -12.5q-64 0 -156 -78.5 t-163 -197.5l-213 -356v-457q0 -90 25.5 -115.5t119.5 -25.5q6 0 6 -12.5t-6 -12.5q-32 0 -118.5 2t-141.5 2q-52 0 -140.5 -2t-121.5 -2q-5 0 -5 12.5t5 12.5q94 0 121.5 26t27.5 115v414l-299 464q-77 118 -126 164.5t-85 46.5q-6 0 -6 12.5t6 12.5q21 0 63.5 -3t63.5 -3 q63 0 186.5 3t155.5 3q5 0 5 -12.5t-5 -12.5q-59 0 -71 -40.5t26 -96.5l281 -442l188 321q68 114 52 186t-111 72q-6 0 -6 12.5t6 12.5q38 0 122 -3t154 -3q35 0 82.5 3t77.5 3z" />
<glyph unicode="&#x2c6;" horiz-adv-x="536" d="M47 924l211 237q9 9 23.5 9t23.5 -9l209 -237q3 -2 2 -6.5t-5 -7.5t-7 -1l-221 80l-224 -80q-2 -1 -6 2t-6 7t0 6z" />
<glyph unicode="&#x2dc;" horiz-adv-x="786" d="M573 1069q33 0 53.5 11.5t49.5 43.5q2 2 6 -0.5t7 -6.5t1 -7q-61 -98 -101 -132t-89 -34q-38 0 -126.5 24.5t-133.5 24.5q-9 0 -17 -0.5t-15.5 -2.5t-12 -3t-11 -5.5t-9.5 -6t-9.5 -8l-8.5 -8.5l-10 -10t-10 -11q-3 -2 -7.5 0.5t-6.5 6.5t0 7q101 166 203 166 q31 0 117 -24.5t130 -24.5z" />
<glyph unicode="&#x2000;" horiz-adv-x="841" />
<glyph unicode="&#x2001;" horiz-adv-x="1682" />
<glyph unicode="&#x2002;" horiz-adv-x="841" />
<glyph unicode="&#x2003;" horiz-adv-x="1682" />
<glyph unicode="&#x2004;" horiz-adv-x="560" />
<glyph unicode="&#x2005;" horiz-adv-x="420" />
<glyph unicode="&#x2006;" horiz-adv-x="280" />
<glyph unicode="&#x2007;" horiz-adv-x="280" />
<glyph unicode="&#x2008;" horiz-adv-x="210" />
<glyph unicode="&#x2009;" horiz-adv-x="336" />
<glyph unicode="&#x200a;" horiz-adv-x="93" />
<glyph unicode="&#x2010;" horiz-adv-x="577" d="M66 406q-6 -2 -8.5 24.5t-1.5 54.5t5 29l439 74q6 1 8 -26.5t0 -55.5t-8 -29z" />
<glyph unicode="&#x2011;" horiz-adv-x="577" d="M66 406q-6 -2 -8.5 24.5t-1.5 54.5t5 29l439 74q6 1 8 -26.5t0 -55.5t-8 -29z" />
<glyph unicode="&#x2012;" horiz-adv-x="577" d="M66 406q-6 -2 -8.5 24.5t-1.5 54.5t5 29l439 74q6 1 8 -26.5t0 -55.5t-8 -29z" />
<glyph unicode="&#x2013;" horiz-adv-x="1054" d="M70 436q-6 0 -8 25t-0.5 50.5t6.5 25.5h917q9 0 9 -50.5t-9 -50.5h-915z" />
<glyph unicode="&#x2014;" horiz-adv-x="1699" d="M70 436q-6 0 -8 25t-0.5 50.5t6.5 25.5h1562q9 0 9 -50.5t-9 -50.5h-1560z" />
<glyph unicode="&#x2018;" horiz-adv-x="364" d="M207 1034q48 0 77 -31t29 -83q0 -56 -35.5 -87.5t-95.5 -31.5q-73 0 -113 55t-40 158q0 93 41.5 171.5t124.5 157.5q6 6 13.5 -1t2.5 -13q-100 -103 -100 -242q0 -52 18 -81q22 28 78 28z" />
<glyph unicode="&#x2019;" horiz-adv-x="339" d="M158 1282q72 0 112.5 -55.5t40.5 -157.5q0 -94 -42 -173.5t-124 -158.5q-4 -3 -9 0t-7 7.5t0 7.5q100 106 100 241q0 58 -18 82q-22 -28 -78 -28q-48 0 -77 31t-29 83q0 57 35.5 89t95.5 32z" />
<glyph unicode="&#x201a;" horiz-adv-x="339" d="M158 217q73 0 113 -55t40 -158q0 -93 -42 -172t-124 -158q-6 -6 -13.5 1.5t-2.5 13.5q100 103 100 241q0 53 -18 82q-22 -28 -78 -28q-48 0 -77 31t-29 83q0 56 35.5 87.5t95.5 31.5z" />
<glyph unicode="&#x201c;" horiz-adv-x="694" d="M207 1034q48 0 77 -31t29 -83q0 -56 -35.5 -87.5t-95.5 -31.5q-73 0 -113 55t-40 158q0 93 41.5 171.5t124.5 157.5q6 6 13.5 -1t2.5 -13q-100 -103 -100 -242q0 -52 18 -81q22 28 78 28zM561 1034q48 0 77.5 -31t29.5 -83q0 -56 -35 -87.5t-96 -31.5q-73 0 -113.5 55 t-40.5 158q0 92 42 170.5t124 158.5q5 4 10.5 2t7 -7t-1.5 -9q-100 -103 -100 -242q0 -52 18 -81q22 28 78 28z" />
<glyph unicode="&#x201d;" horiz-adv-x="694" d="M158 1282q72 0 112.5 -55.5t40.5 -157.5q0 -94 -42 -173.5t-124 -158.5q-4 -3 -9 0t-7 7.5t0 7.5q100 106 100 241q0 58 -18 82q-22 -28 -78 -28q-48 0 -77 31t-29 83q0 57 35.5 89t95.5 32zM512 1282q73 0 113.5 -55.5t40.5 -157.5q0 -94 -42 -173.5t-124 -158.5 q-4 -3 -9.5 0t-7.5 7.5t0 7.5q101 107 101 241q0 57 -19 82q-22 -28 -76 -28q-50 0 -79 31t-29 83q0 57 35.5 89t95.5 32z" />
<glyph unicode="&#x201e;" horiz-adv-x="718" d="M158 217q73 0 113 -55t40 -158q0 -93 -42 -172t-124 -158q-6 -6 -13.5 1.5t-2.5 13.5q100 103 100 241q0 53 -18 82q-22 -28 -78 -28q-48 0 -77 31t-29 83q0 56 35.5 87.5t95.5 31.5zM512 217q73 0 113.5 -55t40.5 -158q0 -93 -42 -172t-124 -158q-6 -6 -14 1.5t-3 13.5 q101 104 101 241q0 52 -19 82q-22 -28 -76 -28q-50 0 -79 31t-29 83q0 56 35.5 87.5t95.5 31.5z" />
<glyph unicode="&#x2022;" horiz-adv-x="663" d="M334 264q-91 0 -155 62.5t-64 152.5q0 88 64.5 151.5t154.5 63.5q88 0 151.5 -63.5t63.5 -151.5q0 -90 -63.5 -152.5t-151.5 -62.5z" />
<glyph unicode="&#x2026;" horiz-adv-x="1382" d="M215 -23q-57 0 -91 33.5t-34 91.5q0 54 34 86.5t91 32.5q58 0 89.5 -32t31.5 -87q0 -59 -31.5 -92t-89.5 -33zM694 -23q-57 0 -91 33.5t-34 91.5q0 54 34 86.5t91 32.5q58 0 89.5 -32t31.5 -87q0 -59 -31.5 -92t-89.5 -33zM1174 -23q-57 0 -91 33.5t-34 91.5 q0 54 34 86.5t91 32.5q58 0 89 -32t31 -87q0 -59 -31 -92t-89 -33z" />
<glyph unicode="&#x202f;" horiz-adv-x="336" />
<glyph unicode="&#x2039;" horiz-adv-x="622" d="M494 154l-385 307q-9 7 -9 21.5t9 23.5l385 305q2 3 6 2t7 -5t1 -7l-189 -318l189 -317q2 -6 -6 -13q-6 -4 -8 1z" />
<glyph unicode="&#x203a;" horiz-adv-x="622" d="M129 811l385 -305q9 -9 9 -23.5t-9 -21.5l-385 -307q-4 -7 -11 1q-5 6 -3 11l190 315l-190 320q-2 5 6 11q6 4 8 -1z" />
<glyph unicode="&#x205f;" horiz-adv-x="420" />
<glyph unicode="&#x20ac;" horiz-adv-x="1202" d="M88 510q-14 0 -14 29.5t14 29.5h94q32 182 192.5 298t385.5 116q198 0 301 -68q10 -6 14 -8t10 -7t7.5 -9t1.5 -10.5t-4 -14.5l-84 -196q-2 -3 -6.5 -2.5t-9.5 4t-5 8.5q0 109 -74.5 186.5t-191.5 77.5q-128 0 -216 -105.5t-102 -269.5h562q15 0 3 -29q-13 -29 -28 -30 h-850zM1087 264q3 6 14 4t11 -8l-29 -192q-3 -18 -7 -24t-21 -13q-163 -56 -330 -56q-119 0 -216 32t-160.5 87.5t-102.5 120t-58 139.5h-100q-14 0 -14 30t14 30h817q14 0 2.5 -30t-26.5 -30h-463q32 -147 116.5 -243.5t210.5 -96.5q107 0 190.5 61t151.5 189z" />
<glyph unicode="&#x2122;" horiz-adv-x="1511" d="M582 1311q2 5 13 5t11 -5q-8 -172 -8 -187q0 -4 -11.5 -4t-11.5 4q0 46 -35 86.5t-75 40.5q-30 0 -38.5 -13t-8.5 -56v-379q0 -46 15.5 -60t70.5 -14q3 0 3 -12t-3 -12q-21 0 -77 1t-91 1q-31 0 -87 -1t-77 -1q-3 0 -3 12t3 12q53 0 69.5 14.5t16.5 59.5v381 q0 44 -8 55.5t-39 11.5q-45 0 -82.5 -37t-44.5 -90q0 -4 -12.5 -4t-12.5 4q13 72 13 181q0 6 12 6.5t12 -6.5q0 -23 56 -23q23 0 85.5 -1t98.5 -1q43 0 95 1t69 1q41 0 59.5 5t22.5 24zM1446 729q4 0 4 -12t-4 -12q-18 0 -68 1t-80 1q-31 0 -77.5 -1t-63.5 -1q-3 0 -3 12 t3 12q45 0 59.5 14.5t12.5 59.5l-12 315l-175 -403q-4 -7 -23 -7t-22 7l-204 389l-11 -273q-6 -102 68 -102q4 0 4 -12t-4 -12q-12 0 -43 1t-55 1l-117 -2q-3 0 -3 12t3 12q47 0 75 25t29 77l13 349q-42 75 -105 75q-5 0 -5 12.5t5 12.5q9 0 43 -2t41 -2q11 0 47.5 2t40.5 2 q18 0 32.5 -12.5t33.5 -50.5l180 -351l164 381q6 15 17 24t22 9q1 0 26.5 -2t42.5 -2q25 0 57 2t46 2q3 0 3 -12.5t-3 -12.5q-45 0 -64 -16.5t-18 -67.5l12 -368q2 -45 16 -59.5t60 -14.5z" />
<glyph unicode="&#x25fc;" horiz-adv-x="962" d="M0 963h963v-963h-963v963z" />
</font>
</defs>
</svg>
