<?xml version="1.0" standalone="no"?>
<!DOCTYPE svg PUBLIC "-//W3C//DTD SVG 1.1//EN" "http://www.w3.org/Graphics/SVG/1.1/DTD/svg11.dtd" >
<svg xmlns="http://www.w3.org/2000/svg" xmlns:xlink="http://www.w3.org/1999/xlink" version="1.1">
<metadata></metadata>
<defs>
<font id="cormorant_infantmedium" horiz-adv-x="1445" >
<font-face units-per-em="2048" ascent="1485" descent="-563" />
<missing-glyph horiz-adv-x="479" />
<glyph horiz-adv-x="0" />
<glyph horiz-adv-x="682" />
<glyph unicode=" "  horiz-adv-x="479" />
<glyph unicode="&#x09;" horiz-adv-x="479" />
<glyph unicode="&#xa0;" horiz-adv-x="479" />
<glyph unicode="!" horiz-adv-x="516" d="M147 1266q-1 7 17 12t43 7.5t51 2.5q41 0 77.5 -6t33.5 -16q-62 -278 -93 -879q0 -7 -21.5 -7t-21.5 7q-11 214 -16.5 306.5t-24.5 271.5t-45 301zM256 -23q-46 0 -73 27t-27 76q0 43 27 67.5t73 24.5q47 0 72.5 -24.5t25.5 -67.5q0 -50 -25.5 -76.5t-72.5 -26.5z" />
<glyph unicode="&#x22;" horiz-adv-x="591" d="M115 748l-35 497q-3 25 67 49q68 23 99 15q10 -2 8 -9l-113 -550q-1 -3 -7.5 -5t-12.5 -1.5t-6 4.5zM414 748l-37 497q-2 26 73 50q70 23 97 14q8 -3 6 -9l-113 -550q-1 -3 -7.5 -5t-12.5 -1.5t-6 4.5z" />
<glyph unicode="#" horiz-adv-x="1077" d="M948 649q9 0 9 -44t-9 -44h-143l-57 -319h129q9 0 9 -43t-9 -43h-144l-57 -322q-3 -4 -22 -3.5t-40.5 5.5t-19.5 10l55 310h-299l-57 -322q-3 -4 -22 -3.5t-40.5 5.5t-19.5 10l55 310h-137q-6 0 -8 21.5t-0.5 43t6.5 21.5h154l55 319h-135q-6 0 -8 22t-0.5 44t6.5 22h153 l60 338q3 5 22 4t41 -7.5t21 -12.5l-58 -322h297l60 338q3 5 22 4t41 -7.5t21 -12.5l-58 -322h127zM664 242l55 319h-297l-57 -319h299z" />
<glyph unicode="$" horiz-adv-x="1038" d="M913 330q0 -136 -93 -231.5t-253 -116.5v-203q0 -13 -24.5 -13t-24.5 13v196h-35q-79 0 -161 20.5t-140 55.5q-15 8 -18 37l-21 295q-1 6 4.5 8.5t12 1.5t8.5 -6q19 -67 47 -126t70 -116t102 -92t131 -39v568q-24 13 -55 34q-57 34 -88.5 54.5t-76 57t-68 69.5t-41 80.5 t-17.5 101.5q0 73 29 132.5t78.5 98t110 61.5t128.5 29v173q0 15 24.5 15t24.5 -15v-170h2q135 0 250 -48q31 -13 31 -36l8 -256q0 -9 -10.5 -10t-13.5 8q-5 30 -16.5 64t-33.5 75.5t-50.5 74.5t-72 58.5t-94.5 32.5v-531q6 -3 17.5 -10t17.5 -10q135 -84 187 -130 q124 -110 124 -255zM315 1051q0 -91 52.5 -156.5t150.5 -128.5v502q-98 -4 -150.5 -64.5t-52.5 -152.5zM567 16q84 8 138.5 61.5t54.5 160.5q0 71 -28.5 131t-66.5 97.5t-98 80.5v-531z" />
<glyph unicode="%" horiz-adv-x="1175" d="M307 621q-113 0 -185.5 76t-72.5 190q0 109 73 184.5t185 75.5q111 0 181.5 -77t70.5 -189q0 -110 -71.5 -185t-180.5 -75zM219 -12q-2 -4 -16 2.5t-26.5 15.5t-10.5 12l760 1115q4 5 18.5 -2.5t26 -18t8.5 -14.5zM322 647q26 0 45 11.5t30 29.5t17 47.5t8 59t2 71.5 q0 254 -129 254q-33 0 -56 -17t-34.5 -50t-16 -71t-4.5 -89q0 -246 138 -246zM874 -10q-111 0 -184.5 77t-73.5 189q0 109 73.5 185.5t184.5 76.5q110 0 181 -77.5t71 -188.5t-71.5 -186.5t-180.5 -75.5zM889 18q33 0 54 15.5t31 48t13.5 67.5t3.5 89q0 251 -129 251 q-33 0 -55.5 -17t-34 -50t-16 -70t-4.5 -88q0 -246 137 -246z" />
<glyph unicode="&#x26;" horiz-adv-x="1439" d="M1446 25q5 -1 6.5 -7t-0.5 -12t-6 -6h-258q-79 0 -254 131q-163 -156 -406 -156q-99 0 -176.5 25.5t-124 68.5t-70.5 95.5t-24 111.5t21.5 112.5t66.5 102.5t85 83t106 83q-32 46 -62 101q-59 124 -59 223q0 146 98.5 244t257.5 98q69 0 123.5 -18.5t91.5 -66t37 -118.5 q0 -27 -5.5 -53t-13 -47t-24.5 -45t-29 -40.5t-37 -39t-39.5 -35.5t-46 -35.5l-45.5 -32.5t-49.5 -34t-48.5 -33q148 -231 432 -449q51 111 51 240q0 89 -32.5 131.5t-118.5 42.5q-6 0 -6.5 12.5t6.5 12.5l446 2q7 0 7 -12.5t-7 -12.5q-41 0 -69 -5.5t-45 -13.5t-29.5 -27.5 t-18.5 -36t-16 -50.5q-52 -189 -131 -309q257 -190 416 -225zM432 1096q0 -160 111 -342q96 78 149 155.5t53 173.5q0 91 -45.5 142t-121.5 51q-146 0 -146 -180zM641 49q156 0 264 105q-7 6 -25 20.5t-28 22.5q-260 207 -422 432q-143 -122 -143 -264q0 -131 99.5 -223.5 t254.5 -92.5z" />
<glyph unicode="'" horiz-adv-x="292" d="M115 748l-37 497q-1 26 73 51q71 23 97 13q8 -3 6 -9l-113 -550q-1 -3 -7.5 -5t-12.5 -1.5t-6 4.5z" />
<glyph unicode="(" horiz-adv-x="632" d="M119 623q0 291 116 522t326 340q3 2 7.5 -3t0.5 -9q-280 -280 -280 -850t280 -850q4 -3 -0.5 -9t-7.5 -4q-210 111 -326 341.5t-116 521.5z" />
<glyph unicode=")" horiz-adv-x="632" d="M512 623q0 -291 -116 -521.5t-324 -341.5q-3 -2 -8.5 4t-2.5 9q281 278 281 850t-281 850q-3 4 2.5 9t8.5 3q208 -109 324 -340t116 -522z" />
<glyph unicode="*" horiz-adv-x="917" d="M463 1083l-14 263q-1 26 86 50q75 21 94 12q3 -2 2 -5l-148 -320q-1 -6 -10.5 -6t-9.5 6zM418 1047l-256 67q-27 8 -20 108q5 77 18 85h4l260 -242q3 -3 2.5 -7t-3 -8t-5.5 -3zM866 989l-352 41q-6 0 -8.5 10t2.5 11l246 94q25 9 75 -66q42 -62 41 -85q0 -5 -4 -5z M295 774q-14 -24 -106 12q-68 27 -77 43q-2 3 1 5l309 172q4 4 12 -2t6 -11zM547 639l-72 346q-1 4 7.5 10.5t11.5 3.5l165 -206q18 -21 -43 -97q-45 -54 -64 -60q-4 -1 -5 3z" />
<glyph unicode="+" horiz-adv-x="815" d="M745 432q9 0 9 -44t-9 -44h-294v-293q0 -6 -22.5 -8.5t-44.5 -1t-22 5.5v297h-292q-6 0 -8 22t-0.5 44t6.5 22h294v293q0 9 44.5 9t44.5 -9v-293h294z" />
<glyph unicode="," horiz-adv-x="454" d="M207 168q67 0 103 -48t36 -140q0 -158 -151 -306q-5 -4 -11 -1.5t-7.5 7.5t1.5 9q101 104 101 241q0 56 -21 84q-18 -30 -68 -30q-41 0 -64.5 25t-23.5 67q0 44 27 68t78 24z" />
<glyph unicode="-" horiz-adv-x="661" d="M66 334q-6 -1 -8.5 22.5t-1.5 48.5t5 27l535 94q6 1 8 -22.5t0 -48t-8 -25.5z" />
<glyph unicode="." horiz-adv-x="411" d="M207 -23q-46 0 -73.5 27t-27.5 74q0 44 27.5 70t73.5 26q47 0 72.5 -25.5t25.5 -70.5q0 -48 -25.5 -74.5t-72.5 -26.5z" />
<glyph unicode="/" horiz-adv-x="706" d="M137 -336q-3 -7 -44.5 5t-39.5 20l516 1806q2 3 11 3t22 -3.5t25 -8t19.5 -10t6.5 -8.5z" />
<glyph unicode="0" horiz-adv-x="1026" d="M514 -27q-192 0 -308 182t-116 486q0 301 116.5 482.5t311.5 181.5q190 0 304 -182.5t114 -487.5q0 -301 -115 -481.5t-307 -180.5zM539 6q113 0 166 152t53 452q0 335 -69.5 498.5t-192.5 163.5q-115 0 -173.5 -159t-58.5 -458q0 -313 71 -481t204 -168z" />
<glyph unicode="1" horiz-adv-x="800" d="M127 0q-5 0 -5 12.5t5 12.5q135 0 180 27t45 114v803q0 125 -59 125q-46 0 -170 -88q-6 -3 -11.5 1t-6 9.5t3.5 9.5l366 268q3 1 7.5 3.5t6.5 2.5q4 0 8.5 -4.5t4.5 -9.5v-1120q0 -89 42.5 -115t182.5 -26q6 0 6 -12.5t-6 -12.5q-36 0 -138 2t-161 2t-162 -2t-139 -2z " />
<glyph unicode="2" horiz-adv-x="913" d="M80 0q-9 0 -17.5 15t-1.5 22q32 40 93.5 116t92 114.5t81.5 104t77 104.5t63 95.5t56 98t38.5 90.5t27.5 94t8 90q0 126 -61.5 192t-169.5 66q-101 0 -170 -55.5t-99 -155.5q-1 -3 -7.5 -3t-11.5 2.5t-3 6.5q26 142 124.5 224t241.5 82q150 0 235 -85.5t85 -222.5 q0 -94 -42 -196t-112 -195t-138.5 -171t-144.5 -159t-108 -124q-12 -15 10 -15q93 0 155 1t122.5 3.5t97 6.5t70.5 12t51.5 18t31.5 25.5t19 34t6 43.5q0 5 11.5 5t11.5 -5l-2 -256q0 -8 -6 -15.5t-13 -7.5h-702z" />
<glyph unicode="3" horiz-adv-x="890" d="M502 684q142 -9 220.5 -102t78.5 -224q0 -170 -109 -276.5t-282 -106.5q-192 0 -334 154q-5 8 4.5 15.5t15.5 0.5q50 -51 121.5 -77.5t140.5 -26.5q139 0 206 84t67 217q0 315 -357 315q-8 0 -8.5 14.5t8.5 14.5q172 0 244 72t72 200q0 127 -59 191.5t-162 64.5 q-84 0 -160 -41t-111 -120q-2 -3 -7 -2.5t-10.5 4.5t-4.5 8q44 113 139 176.5t221 63.5q144 0 229 -81t85 -204q0 -108 -66.5 -201t-181.5 -133z" />
<glyph unicode="4" horiz-adv-x="964" d="M856 449q8 0 8 -43.5t-8 -43.5l-156 7v-203q0 -90 25 -115.5t117 -25.5q6 0 6 -12.5t-6 -12.5q-25 0 -98.5 2t-120.5 2q-55 0 -145 -2t-122 -2q-6 0 -6 12.5t6 12.5q48 0 75 1t51.5 7t35 14t18.5 25.5t9.5 38t1.5 55.5v207q-270 4 -502 4q-10 0 -14.5 6.5t0.5 15.5 l639 891q4 6 17 3.5t13 -11.5v-840zM150 436q171 0 397 4v594l-406 -583q-12 -15 9 -15z" />
<glyph unicode="5" horiz-adv-x="915" d="M426 772q184 0 289.5 -100.5t105.5 -286.5q0 -194 -115 -302t-292 -108q-184 0 -314 154q-3 5 1 11t9 7.5t9 -2.5q91 -104 252 -104q140 0 210 88.5t70 232.5q0 158 -78 252.5t-233 94.5q-81 0 -176 -27q-10 0 -16.5 8t-4.5 17l66 548q1 10 3 14.5t7.5 7.5t16.5 3 q386 0 451 8q54 7 70 32l11 19q2 5 11.5 3t8.5 -9l-28 -164q-4 -25 -14.5 -32t-38.5 -7l-424 11q-27 0 -33 -29l-45 -375q122 35 221 35z" />
<glyph unicode="6" horiz-adv-x="1007" d="M608 696q141 0 225.5 -97.5t84.5 -240.5q0 -166 -114 -275.5t-288 -109.5q-193 0 -295 133.5t-102 358.5q0 118 28 235t84 222.5t133.5 188t184 134t227.5 58.5q5 0 8 -5t2.5 -10t-4.5 -6q-121 -29 -217.5 -107.5t-156 -187t-90.5 -235t-31 -260.5q0 -97 17 -182 t49.5 -152t86.5 -105.5t123 -38.5q187 0 187 289q0 155 -54 241.5t-153 86.5q-87 0 -154 -62q-6 -4 -14.5 3.5t-5.5 13.5q88 110 239 110z" />
<glyph unicode="7" horiz-adv-x="878" d="M406 82q-20 -54 -30.5 -68t-29.5 -14h-213q-5 0 -5 12.5t5 12.5q62 0 109 45.5t88 144.5l372 911q9 15 -8 15h-158.5t-126.5 -2.5t-100 -3.5t-75 -7t-56 -9t-39 -14t-27 -17t-16.5 -24t-13 -28t-10.5 -35q-1 -5 -7.5 -5t-12.5 3t-5 7l78 327q1 4 7.5 5t12.5 -1t5 -6 q-7 -33 9.5 -42t86.5 -9h542q9 0 14.5 -10.5t2.5 -16.5z" />
<glyph unicode="8" horiz-adv-x="1007" d="M649 733q51 -32 85 -56.5t74.5 -63t64.5 -76.5t40.5 -91t16.5 -114q0 -161 -122 -260t-304 -99q-192 0 -303 101.5t-111 253.5q0 128 80 232t199 167q-80 59 -123 126t-43 159q0 94 50 162t122.5 98.5t156.5 30.5q131 0 217.5 -75t86.5 -186q0 -87 -50.5 -166.5 t-136.5 -142.5zM492 1266q-73 0 -116.5 -48.5t-43.5 -123.5q0 -49 16.5 -92t38 -73t64.5 -65t72.5 -54.5t86.5 -53.5q78 116 78 264q0 120 -54 183t-142 63zM553 12q109 0 170 69t61 187q0 42 -10 81t-23 68t-40 60t-47 50.5t-59 46.5t-60.5 40.5t-65.5 40.5 q-12 7 -25.5 15.5t-29 19t-23.5 15.5q-141 -113 -141 -330q0 -160 80.5 -261.5t212.5 -101.5z" />
<glyph unicode="9" horiz-adv-x="1001" d="M408 586q-146 0 -232 100t-86 250q0 162 113 264.5t286 102.5q193 0 295.5 -133t102.5 -359q0 -118 -28.5 -234.5t-85.5 -222t-135.5 -188t-187 -133.5t-231.5 -58q-5 -1 -8 4t-2 10.5t6 6.5q123 29 221.5 107t159.5 186.5t93 234.5t32 260q0 133 -28.5 238.5t-93 173.5 t-157.5 68q-186 0 -186 -281q0 -158 59.5 -247t163.5 -89q74 0 139 55q6 3 14.5 -4.5t4.5 -13.5q-86 -98 -229 -98z" />
<glyph unicode=":" horiz-adv-x="411" d="M209 553q-47 0 -73.5 26.5t-26.5 73.5q0 43 26.5 69t73.5 26q45 0 71.5 -26t26.5 -69q0 -47 -26 -73.5t-72 -26.5zM209 -23q-47 0 -73.5 27t-26.5 76q0 43 26.5 67.5t73.5 24.5q46 0 72 -24.5t26 -67.5q0 -49 -26 -76t-72 -27z" />
<glyph unicode=";" horiz-adv-x="462" d="M213 553q-46 0 -73 26.5t-27 73.5q0 43 27 69t73 26q47 0 72.5 -26t25.5 -69q0 -47 -25.5 -73.5t-72.5 -26.5zM217 168q65 0 102 -49t37 -142q0 -85 -38 -156.5t-115 -146.5q-5 -4 -11 -1.5t-7.5 7.5t1.5 9q101 104 101 241q0 56 -21 84q-18 -30 -65 -30 q-41 0 -66.5 24.5t-25.5 65.5q0 94 108 94z" />
<glyph unicode="&#x3c;" horiz-adv-x="833" d="M758 141q15 -8 13 -57q-2 -36 -13 -33l-684 303q-10 6 -10 36t10 34l684 301q8 5 12 -16q6 -38 -6 -64q-2 -6 -6 -8l-578 -248z" />
<glyph unicode="=" horiz-adv-x="958" d="M70 489q-6 0 -8 21.5t-0.5 43t6.5 21.5h821q9 0 9 -43t-9 -43h-819zM70 201q-6 0 -8 21.5t-0.5 43t6.5 21.5h821q9 0 9 -43t-9 -43h-819z" />
<glyph unicode="&#x3e;" horiz-adv-x="833" d="M760 422q10 -6 10 -36t-10 -34l-684 -301q-9 -5 -12 16q-6 39 6 63q3 5 6 7l581 250l-581 248q-15 8 -13 57q2 36 13 33z" />
<glyph unicode="?" horiz-adv-x="681" d="M328 1249q-41 0 -56.5 -25t-21.5 -67q-3 -22 -7 -36.5t-13 -32.5t-26.5 -27.5t-43.5 -9.5q-40 0 -60 23t-20 54q0 63 73.5 107.5t180.5 44.5q124 0 207.5 -63.5t83.5 -180.5q0 -33 -8.5 -64t-17 -51t-32 -48t-32.5 -38t-41.5 -40t-38.5 -35q-69 -65 -99 -122.5 t-30 -129.5q0 -21 12 -111q1 -4 -5 -7t-13 -3t-9 4q-24 54 -38.5 125.5t-14.5 120.5q0 53 20.5 96t50 74t58.5 63t49.5 80.5t20.5 110.5q0 84 -35.5 136t-93.5 52zM324 -23q-48 0 -74.5 27t-26.5 76q0 43 27 67.5t74 24.5q46 0 72 -24.5t26 -67.5q0 -49 -26 -76t-72 -27z " />
<glyph unicode="@" horiz-adv-x="1478" d="M956 109q-75 0 -102.5 47t-9.5 133l14 71q-69 -116 -154.5 -186t-160.5 -70q-56 0 -87 41t-20 127q16 110 85 218t161.5 174.5t173.5 66.5q65 0 98 -45q38 23 47 59q3 3 20 2t17 -4l-84 -460q-6 -39 -6 -68t18.5 -46t55.5 -17q39 0 80 22t77 61.5t58.5 104.5t22.5 143 q0 203 -146 344.5t-362 141.5q-116 0 -213 -45.5t-160 -123t-98 -178.5t-35 -214q0 -247 155 -397t408 -150q97 0 174 21.5t168 76.5q4 2 8 -1.5t5 -8t-1 -6.5q-180 -148 -422 -148q-167 0 -301.5 65.5t-214.5 194.5t-80 301q0 142 56.5 267t149.5 210.5t216 135t254 49.5 q116 0 216 -38.5t167 -103.5t104.5 -151t37.5 -180q0 -115 -52.5 -215.5t-143 -160.5t-194.5 -60zM612 201q49 0 108 53t107 136.5t66 166.5q10 56 -9.5 92t-66.5 35q-77 -3 -152 -102.5t-98 -229.5q-28 -151 45 -151z" />
<glyph unicode="A" d="M1442 25q9 0 9 -12.5t-9 -12.5q-39 0 -122 4t-122 4q-45 0 -113.5 -4t-107.5 -4q-9 0 -9 12.5t9 12.5q102 0 123 32t-23 123l-229 477h-377l-168 -389q-51 -123 -6.5 -183t176.5 -60q9 0 9 -12.5t-9 -12.5q-38 0 -112.5 4t-129.5 4q-52 0 -121 -4t-110 -4q-9 0 -9 12.5 t9 12.5q83 0 135.5 53t120.5 211l436 1005q2 6 15 6t16 -6l489 -1013q71 -149 120 -202.5t110 -53.5zM492 705h333l-176 366z" />
<glyph unicode="B" horiz-adv-x="1167" d="M698 721q165 -15 265 -111t100 -235q0 -164 -122.5 -273.5t-305.5 -109.5q-40 0 -146 6t-153 6q-49 0 -133 -2t-115 -2q-6 0 -6 12.5t6 12.5q104 0 136 26.5t32 114.5v948q0 88 -31.5 114.5t-134.5 26.5q-4 0 -4 12.5t4 12.5q31 0 114 -3t132 -3q36 0 122 6t124 6 q176 0 266 -72.5t90 -195.5q0 -100 -63 -178t-177 -119zM541 1251q-72 0 -97.5 -26t-25.5 -115v-389q51 -2 90 -2q136 0 202 77.5t66 204.5q0 115 -58 182.5t-177 67.5zM602 33q287 0 287 293q0 156 -86 250.5t-244 95.5q-55 3 -141 -4v-502q0 -75 36 -104t148 -29z" />
<glyph unicode="C" horiz-adv-x="1370" d="M854 1303q95 0 194.5 -18t159.5 -48q17 -9 22 -18t7 -31l25 -248q0 -5 -11 -6.5t-12 4.5q-53 159 -173.5 238t-291.5 79q-225 0 -355 -150t-130 -400q0 -190 72.5 -350t199 -253.5t277.5 -93.5q291 0 419 338q3 6 14 4t11 -8l-31 -244q-3 -27 -7.5 -34.5t-22.5 -14.5 q-180 -74 -385 -74q-127 0 -236 28t-188 77.5t-140 114t-98 141t-55.5 155t-18.5 158.5q0 143 63 267t167.5 208t241 131.5t282.5 47.5z" />
<glyph unicode="D" horiz-adv-x="1425" d="M635 -8q-39 0 -152.5 6t-165.5 6q-50 0 -133 -2t-114 -2q-6 0 -6 12.5t6 12.5q106 0 137 26t31 115v948q0 88 -30.5 114.5t-135.5 26.5q-6 0 -6 12.5t6 12.5q31 0 113 -3t132 -3q48 0 150.5 5t138.5 5q159 0 294 -48t228 -131t145 -197.5t52 -245.5q0 -150 -55 -277 t-149 -212.5t-220 -133t-266 -47.5zM614 29q234 0 379.5 154.5t145.5 432.5q0 177 -62 320.5t-179.5 228t-270.5 84.5q-131 0 -179.5 -26t-48.5 -113v-922q0 -88 43.5 -123.5t171.5 -35.5z" />
<glyph unicode="E" horiz-adv-x="1110" d="M987 311q0 4 6.5 4.5t12.5 -2t6 -6.5q-21 -155 -21 -276q0 -18 -6 -24.5t-24 -6.5h-873q-6 0 -6 12.5t6 12.5q106 0 136 26t30 115v948q0 88 -30.5 114.5t-135.5 26.5q-6 0 -6 12.5t6 12.5h838q18 0 18 -18l4 -261q0 -5 -11 -5.5t-11 5.5q-17 112 -82.5 172t-171.5 60 h-107q-88 0 -118.5 -26.5t-30.5 -100.5v-416h225q105 0 154 36t49 112q0 4 11 4t11 -4q0 -46 -1 -98.5t-1 -73.5q0 -32 3 -95t3 -100q0 -6 -12 -6t-12 6q0 88 -50.5 130t-160.5 42h-219v-469q0 -75 27.5 -101t111.5 -26h133q116 0 193 68.5t106 195.5z" />
<glyph unicode="F" horiz-adv-x="1050" d="M944 1262l4 -261q0 -5 -11 -5.5t-11 5.5q-17 112 -82.5 172t-171.5 60h-107q-87 0 -118 -25.5t-31 -95.5v-446h188q112 0 163.5 36t51.5 111q0 6 12.5 6t12.5 -6q0 -46 -1 -98.5t-1 -73.5q0 -32 2 -95t2 -100q0 -4 -12.5 -4t-12.5 4q0 88 -53.5 130t-169.5 42h-182v-444 q0 -49 7.5 -75.5t34.5 -44.5t71.5 -23.5t125.5 -5.5q5 0 5 -12.5t-5 -12.5q-40 0 -146 2t-177 2q-50 0 -134.5 -2t-115.5 -2q-6 0 -6 12.5t6 12.5q109 0 140.5 26t31.5 115v948q0 88 -30.5 114.5t-135.5 26.5q-6 0 -6 12.5t6 12.5h838q18 0 18 -18z" />
<glyph unicode="G" horiz-adv-x="1466" d="M831 -25q-169 0 -308 51t-231 139.5t-142 207t-50 254.5q0 197 101.5 352t279 239.5t398.5 84.5q97 0 191 -18t153 -50q12 -7 17.5 -14t6.5 -12t2 -21l25 -248q0 -5 -11 -6.5t-12 4.5q-54 152 -174 234.5t-289 82.5q-243 0 -374 -148.5t-131 -406.5q0 -304 169.5 -497 t430.5 -193q73 0 117 9t77 36t46.5 75.5t13.5 127.5q0 54 -2 85t-10.5 59t-21.5 40t-40.5 21.5t-60.5 11.5t-89 2q-7 0 -10.5 8.5t-1 16.5t9.5 8q234 -16 473 -4q8 0 9 -14.5t-9 -14.5q-28 1 -43.5 -4t-27 -15.5t-16 -42t-6 -68t-1.5 -109.5q0 -82 7.5 -130t7.5 -51 q0 -11 -5 -15t-20 -9q-251 -58 -449 -58z" />
<glyph unicode="H" horiz-adv-x="1558" d="M1487 25q5 0 5 -12.5t-5 -12.5q-31 0 -118 2t-136 2q-60 0 -145 -2t-113 -2q-6 0 -6 12.5t6 12.5q48 0 77.5 3.5t50.5 11.5t30.5 25.5t13.5 40t4 60.5v477h-745v-477q0 -48 5.5 -73t25.5 -41.5t52.5 -21.5t92.5 -5q4 0 4 -12.5t-4 -12.5q-32 0 -119 2t-144 2 q-50 0 -134 -2t-115 -2q-6 0 -6 12.5t6 12.5q109 0 140.5 26t31.5 115v948q0 88 -31 114.5t-139 26.5q-6 0 -6 12.5t6 12.5q31 0 114 -3t133 -3q57 0 144.5 3t118.5 3q4 0 4 -12.5t-4 -12.5q-111 0 -143.5 -28t-32.5 -117v-420h745v420q0 47 -5.5 72.5t-25 43.5t-53 23.5 t-92.5 5.5q-6 0 -6 12.5t6 12.5q28 0 113 -3t145 -3q49 0 136 3t118 3q5 0 5 -12.5t-5 -12.5q-110 0 -142 -26.5t-32 -114.5v-948q0 -89 32 -115t142 -26z" />
<glyph unicode="I" horiz-adv-x="686" d="M426 166q0 -90 29 -115.5t137 -25.5q4 0 4 -12.5t-4 -12.5q-30 0 -114 2t-138 2q-49 0 -133 -2t-115 -2q-4 0 -4 12.5t4 12.5q106 0 137 26t31 115v948q0 88 -31.5 114.5t-136.5 26.5q-4 0 -4 12.5t4 12.5q31 0 115 -3t133 -3q54 0 138.5 3t113.5 3q4 0 4 -12.5t-4 -12.5 q-104 0 -135 -28t-31 -117v-944z" />
<glyph unicode="J" horiz-adv-x="671" d="M586 1280q4 0 4 -12.5t-4 -12.5q-91 0 -117.5 -28t-26.5 -117v-1151q0 -213 -99.5 -335t-285.5 -122q-72 0 -115.5 26.5t-43.5 72.5q0 34 22 57t60 23q31 0 53 -14t34.5 -34.5t23 -41t26.5 -34.5t37 -14q63 0 94 80t31 260v1231q0 46 -6.5 71.5t-29 42.5t-58 22t-99.5 5 q-4 0 -4 12.5t4 12.5q37 0 128.5 -3t143.5 -3q49 0 125 3t103 3z" />
<glyph unicode="K" horiz-adv-x="1335" d="M1327 25q6 0 6 -12.5t-6 -12.5h-229q-15 0 -38.5 -0.5t-29.5 -1t-22 3t-19.5 6.5t-19 15.5t-23 24.5t-29 38t-39 51.5t-51.5 70t-69 89.5l-297 385l-62 -59v-457q0 -90 29.5 -115.5t136.5 -25.5q6 0 6 -12.5t-6 -12.5q-31 0 -114 2t-134 2q-50 0 -133 -2t-114 -2 q-6 0 -6 12.5t6 12.5q106 0 137 26t31 115v948q0 88 -30.5 114.5t-135.5 26.5q-6 0 -6 12.5t6 12.5q31 0 113 -3t132 -3q52 0 135.5 3t112.5 3q5 0 5 -12.5t-5 -12.5q-104 0 -135 -28t-31 -117v-434l420 424q78 76 63.5 115.5t-118.5 39.5q-6 0 -6 12.5t6 12.5 q28 0 104.5 -3t141.5 -3q64 0 136 3t97 3q6 0 6 -12.5t-6 -12.5q-88 0 -188 -42.5t-185 -125.5l-295 -292l297 -387q73 -96 125 -161.5t94.5 -108.5t68 -65.5t56.5 -33.5t48 -12.5t54 -1.5h9z" />
<glyph unicode="L" horiz-adv-x="1099" d="M397 1112v-938q0 -81 27 -104t123 -23h174q130 0 215.5 77t110.5 210q1 5 12.5 3.5t11.5 -7.5q-18 -144 -18 -299q0 -17 -7 -24t-24 -7h-952q-6 0 -6 12.5t6 12.5q105 0 134 25.5t29 115.5v948q0 89 -29 115t-134 26q-6 0 -6 12.5t6 12.5q28 0 111 -3t134 -3 q52 0 135.5 3t112.5 3q5 0 5 -12.5t-5 -12.5q-105 0 -135.5 -27t-30.5 -116z" />
<glyph unicode="M" horiz-adv-x="1726" d="M1677 25q5 0 5 -12.5t-5 -12.5q-31 0 -114.5 2t-132.5 2q-51 0 -129.5 -2t-106.5 -2q-6 0 -6 12.5t6 12.5q99 0 127.5 26t24.5 115l-39 901l-453 -1053q-3 -8 -16.5 -8t-16.5 8l-510 1045l-16 -823q-2 -109 39 -160t135 -51q5 0 5 -12.5t-5 -12.5q-28 0 -94 2t-107 2 q-39 0 -105 -2t-91 -2q-4 0 -4 12.5t4 12.5q169 0 172 211l18 917q-66 102 -176 102q-4 0 -4 12.5t4 12.5q26 0 77 -2t68 -2q29 0 70 2t49 2q27 0 43 -19t51 -87l455 -922l426 977q23 51 64 51q6 0 35 -2t51 -2q42 0 97.5 2t78.5 2q6 0 6 -12.5t-6 -12.5 q-101 0 -145.5 -32.5t-41.5 -114.5l45 -942q2 -48 8.5 -73t25.5 -41.5t49 -21.5t85 -5z" />
<glyph unicode="N" horiz-adv-x="1492" d="M1454 1280q6 0 6 -12.5t-6 -12.5q-166 0 -166 -211v-1071q0 -4 -10.5 -5.5t-13.5 1.5l-961 1139v-872q0 -108 39.5 -159.5t122.5 -51.5q6 0 6 -12.5t-6 -12.5q-25 0 -86.5 2t-99.5 2t-105.5 -2t-95.5 -2q-6 0 -6 12.5t6 12.5q89 0 130.5 51.5t41.5 159.5v929 q-90 90 -178 90q-6 0 -6 12.5t6 12.5q25 0 76.5 -2t72.5 -2q38 0 90 2t62 2q13 0 22.5 -6.5t16 -16.5t23.5 -34.5t36 -48.5l764 -920v790q0 107 -39 159t-121 52q-5 0 -5 12.5t5 12.5q25 0 87 -3t100 -3q37 0 101.5 3t90.5 3z" />
<glyph unicode="O" horiz-adv-x="1568" d="M750 -25q-191 0 -341 91t-229.5 242t-79.5 331q0 129 43 239t115 187t165.5 131.5t195 80.5t202.5 26q146 0 270 -55t205.5 -146.5t126.5 -208t45 -240.5q0 -140 -58 -266t-155 -216t-229 -143t-276 -53zM821 20q97 0 181 38.5t146.5 110t98 181.5t35.5 246 q0 189 -66 338t-190.5 234t-288.5 85q-214 0 -332 -144t-118 -398q0 -194 67 -351.5t189.5 -248.5t277.5 -91z" />
<glyph unicode="P" horiz-adv-x="1118" d="M410 174q0 -65 16.5 -94.5t63.5 -42t149 -12.5q5 0 5 -12.5t-5 -12.5q-41 0 -143.5 2t-165.5 2q-50 0 -133.5 -2t-114.5 -2q-6 0 -6 12.5t6 12.5q106 0 136 26t30 115v948q0 88 -30.5 114.5t-135.5 26.5q-6 0 -6 12.5t6 12.5q31 0 113.5 -3t132.5 -3q28 0 127 6t155 6 q92 0 167 -19t133 -58.5t91 -105t35 -153.5q1 -82 -25.5 -152t-71 -117t-103.5 -80.5t-122.5 -48.5t-127.5 -15q-60 0 -99 10q-5 1 -5 8t3 13t7 5q33 -8 73 -8q121 0 205 88.5t84 253.5q0 161 -82 252.5t-217 91.5q-48 0 -72.5 -4t-43 -19t-24 -42t-5.5 -76v-936z" />
<glyph unicode="Q" horiz-adv-x="1568" d="M1526 -340q4 1 7 -4.5t3.5 -10.5t-2.5 -7q-94 -23 -172 -23q-146 0 -307 95t-275 265h-30q-191 0 -341 91t-229.5 242t-79.5 331q0 129 43 239t115 187t165.5 131.5t195 80.5t202.5 26q146 0 270 -55t205.5 -146.5t126.5 -208t45 -240.5q0 -225 -139 -401.5t-356 -243.5 q84 -155 220 -254.5t259 -99.5q47 0 74 6zM287 711q0 -193 67 -350t189.5 -247.5t277.5 -90.5q97 0 181 38t146.5 109t98 180.5t35.5 245.5q0 189 -66 338t-190.5 234t-288.5 85q-214 0 -332 -144t-118 -398z" />
<glyph unicode="R" horiz-adv-x="1394" d="M1413 25q6 0 6 -12.5t-6 -12.5h-295q-49 0 -184 173.5t-326 481.5q-48 -10 -90 -10q-38 0 -100 4v-483q0 -90 29.5 -115.5t136.5 -25.5q6 0 6 -12.5t-6 -12.5q-30 0 -112.5 2t-135.5 2q-49 0 -133 -2t-115 -2q-6 0 -6 12.5t6 12.5q106 0 137 26t31 115v948 q0 88 -30.5 114.5t-135.5 26.5q-4 0 -4 12.5t4 12.5q31 0 114 -3t132 -3q38 0 127.5 6t126.5 6q174 0 268 -68t94 -190q0 -96 -57 -181.5t-150 -139.5q253 -384 398 -533t270 -149zM418 702q52 -8 121 -8q132 0 187.5 58.5t55.5 201.5q0 162 -61.5 229.5t-169.5 67.5 q-77 0 -105 -26.5t-28 -114.5v-408z" />
<glyph unicode="S" horiz-adv-x="1021" d="M317 1051q0 -35 9 -67t21 -56.5t37.5 -52t44 -44.5t54.5 -42t56.5 -37.5t62.5 -38.5q52 -31 77 -47.5t69 -48t67 -57.5t48.5 -62.5t36.5 -78t11 -89.5q0 -154 -116.5 -254.5t-311.5 -100.5q-78 0 -159.5 20.5t-141.5 55.5q-18 9 -18 39l-21 293q-1 6 4.5 8.5t12 1.5 t8.5 -6q16 -55 36.5 -103.5t52.5 -99.5t70 -87.5t91 -59.5t114 -23q45 0 83.5 11t72 35.5t53 69.5t19.5 106q0 55 -17.5 104t-40.5 82.5t-67 70.5t-75 58t-86 55q-9 5 -13 8q-44 27 -62.5 39t-56.5 39.5t-56 45t-44.5 47.5t-38.5 56.5t-21.5 62.5t-9.5 75q0 80 34.5 143.5 t92 102t127 58.5t143.5 20q137 0 248 -48q33 -14 33 -36l8 -256q0 -8 -10.5 -9.5t-13.5 7.5q-6 33 -18.5 68.5t-37 79.5t-57 78t-82.5 57.5t-109 23.5q-103 0 -158 -61t-55 -156z" />
<glyph unicode="T" horiz-adv-x="1304" d="M408 1241q-127 0 -198.5 -71t-107.5 -228q0 -3 -6 -4t-12 0.5t-6 5.5q9 65 20 191t11 190q0 9 11 9.5t11 -9.5q0 -45 111 -45q178 -6 413 -6q105 0 229 3t167 3q75 0 110 10t45 41q2 7 13.5 7t11.5 -7q-7 -60 -14 -196t-7 -191q0 -6 -11 -6t-11 6q-13 158 -81 227.5 t-202 69.5q-107 0 -136.5 -23t-29.5 -108v-944q0 -63 14 -91t52.5 -39t124.5 -11q4 0 4 -12.5t-4 -12.5q-34 0 -125 2t-150 2q-55 0 -146.5 -2t-125.5 -2q-6 0 -6 12.5t6 12.5q120 0 156 26t36 115v948q0 83 -30.5 105t-136.5 22z" />
<glyph unicode="U" horiz-adv-x="1558" d="M1487 25q6 0 6 -12.5t-6 -12.5q-27 0 -82 1t-86 1q-25 0 -61.5 -1t-57.5 -1q-26 0 -32.5 6.5t-6.5 32.5v154q-121 -114 -236.5 -166t-250.5 -52q-200 0 -330.5 111t-130.5 295v733q0 88 -30.5 114.5t-135.5 26.5q-5 0 -5 12.5t5 12.5q31 0 114 -3t132 -3q53 0 136 3 t112 3q6 0 6 -12.5t-6 -12.5q-104 0 -135 -28t-31 -117v-657q0 -200 97.5 -306t264.5 -106q110 0 210.5 46t213.5 151v872q0 62 -12 91t-46.5 41.5t-107.5 12.5q-5 0 -5 12.5t5 12.5q31 0 113 -3t131 -3q50 0 133.5 3t114.5 3q6 0 6 -12.5t-6 -12.5q-105 0 -136.5 -26.5 t-31.5 -114.5v-948q0 -89 31 -115t137 -26z" />
<glyph unicode="V" horiz-adv-x="1357" d="M1368 1280q6 0 6 -12.5t-6 -12.5q-149 0 -221 -188l-418 -1065q-3 -8 -22.5 -8t-22.5 8l-514 1108q-36 77 -74 111t-94 34q-6 0 -6 12.5t6 12.5q22 0 72 -3t92 -3q90 0 183.5 3t115.5 3q5 0 5 -12.5t-5 -12.5q-86 0 -114.5 -36.5t5.5 -114.5l406 -883l336 856 q68 178 -140 178q-6 0 -6 12.5t6 12.5q32 0 102.5 -3t125.5 -3q40 0 94 3t88 3z" />
<glyph unicode="W" horiz-adv-x="1873" d="M1882 1280q6 0 6 -12.5t-6 -12.5q-73 0 -133 -46t-88 -142l-307 -1065q-2 -8 -22 -8t-23 8l-394 1022l-311 -1022q-2 -8 -23 -8t-24 8l-387 1108q-30 84 -67 114.5t-101 30.5q-6 0 -6 12.5t6 12.5q22 0 72 -3t92 -3q94 0 193 3t116 3q5 0 5 -12.5t-5 -12.5 q-184 0 -129 -151l289 -828l307 1004q3 6 23.5 6t23.5 -6l389 -1014l230 801q26 97 -16 142.5t-156 45.5q-4 0 -4 12.5t4 12.5q34 0 120 -3t146 -3q39 0 93 3t87 3z" />
<glyph unicode="X" horiz-adv-x="1331" d="M1307 25q6 0 6 -12.5t-6 -12.5q-26 0 -94.5 2t-108.5 2q-62 0 -147.5 -2t-116.5 -2q-6 0 -6 12.5t6 12.5q66 0 84 16.5t-11 62.5l-301 461l-233 -332q-71 -100 -56 -154t113 -54q6 0 6 -12.5t-6 -12.5q-33 0 -106.5 2t-134.5 2q-36 0 -86.5 -2t-81.5 -2q-6 0 -6 12.5 t6 12.5q67 0 144 54t157 161l264 358l-330 504q-55 84 -106.5 118.5t-118.5 34.5q-5 0 -5 12.5t5 12.5q26 0 81.5 -3t80.5 -3q61 0 155.5 3t126.5 3q5 0 5 -12.5t-5 -12.5q-68 0 -86 -17t11 -64l290 -445l217 307q73 104 60.5 161.5t-109.5 57.5q-6 0 -6 12.5t6 12.5 q32 0 106 -3t134 -3q37 0 87.5 3t82.5 3q4 0 4 -12.5t-4 -12.5q-142 0 -309 -227l-246 -334l344 -524q52 -79 108 -112t136 -33z" />
<glyph unicode="Y" horiz-adv-x="1253" d="M1264 1280q4 0 4 -12.5t-4 -12.5q-69 0 -150 -62t-145 -165l-256 -403v-459q0 -90 29.5 -115.5t136.5 -25.5q6 0 6 -12.5t-6 -12.5q-30 0 -112.5 2t-135.5 2q-49 0 -133 -2t-115 -2q-6 0 -6 12.5t6 12.5q106 0 137 26t31 115v428l-326 485q-66 99 -116 137.5t-107 38.5 q-6 0 -6 12.5t6 12.5q22 0 69.5 -3t69.5 -3q60 0 166 3t137 3q6 0 6 -12.5t-6 -12.5q-71 0 -88.5 -28.5t17.5 -77.5l315 -471l227 362q63 100 47 157.5t-108 57.5q-6 0 -6 12.5t6 12.5q34 0 111.5 -3t140.5 -3q34 0 81.5 3t76.5 3z" />
<glyph unicode="Z" horiz-adv-x="1224" d="M115 27l780 1202q8 11 6.5 13.5t-14.5 2.5q-99 0 -162.5 -0.5t-133.5 -3t-110.5 -5.5t-86.5 -10t-71 -15t-54 -22.5t-44 -30.5t-33.5 -40t-30.5 -50t-26 -62q-2 -3 -8.5 -3t-11.5 2t-4 5l82 331q1 3 7.5 3t12 -2t4.5 -5q-6 -36 15.5 -46.5t101.5 -10.5h747 q9 0 14.5 -10.5t0.5 -16.5l-770 -1198q-5 -7 -6 -10.5t2.5 -4.5t11.5 -1h487q129 0 209 65t100 185q3 5 14 5t11 -5l-29 -273q0 -7 -5 -13.5t-13 -6.5q-305 4 -981 4q-9 0 -13 10t1 17z" />
<glyph unicode="[" horiz-adv-x="561" d="M166 -217v1681q0 14 3.5 17.5t16.5 3.5h297q6 0 6 -12.5t-6 -12.5q-107 0 -139.5 -28t-32.5 -117v-1385q0 -89 32.5 -117t139.5 -28q6 0 6 -12.5t-6 -12.5h-297q-13 0 -16.5 4t-3.5 19z" />
<glyph unicode="\" horiz-adv-x="706" d="M567 -336l-514 1804q-1 3 6.5 8.5t19.5 10t24.5 8t21 3.5t10.5 -3l518 -1806q2 -8 -40 -20t-46 -5z" />
<glyph unicode="]" horiz-adv-x="561" d="M395 -217q0 -15 -3 -19t-15 -4h-301q-4 0 -4 12.5t4 12.5q109 0 141.5 28t32.5 117v1385q0 89 -32.5 117t-141.5 28q-4 0 -4 12.5t4 12.5h301q12 0 15 -3.5t3 -17.5v-1681z" />
<glyph unicode="^" horiz-adv-x="802" d="M682 778q2 -3 -2 -6.5t-8.5 -4.5t-7.5 1l-263 328l-262 -328q-4 -4 -13 0.5t-7 9.5l260 510q1 10 21.5 10t23.5 -10z" />
<glyph unicode="_" horiz-adv-x="815" d="M70 -160q-6 0 -8 22t-0.5 44t6.5 22h677q9 0 9 -44t-9 -44h-675z" />
<glyph unicode="`" horiz-adv-x="436" d="M74 1489q-6 14 68 2q79 -12 81 -25l92 -491q1 -3 -3.5 -5.5t-10 -2.5t-6.5 4z" />
<glyph unicode="a" horiz-adv-x="1003" d="M987 123q5 3 9.5 -2t5 -11t-2.5 -10l-254 -120q-6 -3 -10 -3q-16 0 -33.5 45.5t-21.5 114.5q-72 -74 -146 -117t-163 -43q-128 0 -213.5 93.5t-85.5 261.5q0 111 42 205t109.5 153t149 92t164.5 33q113 0 198 -57q38 18 64 53q3 3 11.5 0.5t8.5 -6.5v-584 q0 -68 15.5 -96.5t52.5 -28.5q24 0 100 27zM451 57q110 0 229 115v426q0 76 -58.5 127t-138.5 51q-114 0 -184 -106.5t-70 -274.5q0 -154 60 -246t162 -92z" />
<glyph unicode="b" horiz-adv-x="1046" d="M643 817q66 0 125.5 -24t106.5 -69.5t74.5 -119.5t27.5 -166q0 -112 -39 -202.5t-103 -146.5t-143 -86t-164 -30q-155 0 -282 93l-166 -76q-8 -3 -11.5 5.5t3.5 12.5q60 40 86 83t26 120v1008q0 72 -14.5 103.5t-50.5 31.5q-30 0 -88 -25q-5 -2 -9.5 4t-5 12t3.5 9 l271 129q4 2 8 2q7 0 16 -7.5t9 -13.5v-811q156 164 319 164zM588 12q108 0 168.5 93t60.5 262q0 181 -68.5 275.5t-183.5 94.5q-113 0 -241 -121v-325q0 -59 18 -108t46 -80t64 -52t70 -30t66 -9z" />
<glyph unicode="c" horiz-adv-x="849" d="M475 -25q-102 0 -181.5 35.5t-126.5 94.5t-71 129t-24 145q0 99 41 182t107.5 136t147 82.5t162.5 29.5q60 0 115 -15.5t92 -47t37 -70.5q0 -32 -23 -54t-61 -22q-66 0 -102 78q-23 48 -49.5 69t-79.5 21q-107 0 -168.5 -89.5t-61.5 -236.5q0 -81 19.5 -149t58.5 -122.5 t105.5 -85t154.5 -30.5q109 0 203 64q4 2 9 -1.5t6.5 -8t-1.5 -7.5q-72 -66 -145 -96.5t-164 -30.5z" />
<glyph unicode="d" horiz-adv-x="1048" d="M1032 121q5 3 9.5 -2.5t4.5 -11.5t-4 -9l-243 -116q-10 -5 -13 -5q-24 0 -42 43.5t-21 118.5q-162 -166 -332 -166q-133 0 -226 109t-93 285q0 91 29.5 168t77.5 128t110 86.5t125 51.5t125 16q100 0 184 -41v443q0 72 -15 103.5t-51 31.5q-29 0 -88 -27q-7 -3 -12.5 9.5 t0.5 15.5l272 131q6 2 11 2q7 0 14.5 -7.5t7.5 -13.5v-1237q0 -71 16.5 -102t53.5 -31q45 0 100 27zM483 55q119 0 240 121v469q-90 127 -231 127q-123 0 -193 -86.5t-70 -255.5q0 -171 71.5 -273t182.5 -102z" />
<glyph unicode="e" horiz-adv-x="841" d="M758 121q6 3 13 -6t1 -13q-135 -127 -307 -127q-93 0 -169 33t-124 88.5t-74 126t-26 148.5q0 184 128.5 311t319.5 127q116 0 179 -54t63 -149q0 -53 -23 -53l-501 -2q-9 -47 -9 -100q0 -177 85 -285.5t235 -108.5q119 0 209 64zM449 768q-77 0 -130 -48.5t-75 -135.5 l352 8q-3 84 -41.5 130t-105.5 46z" />
<glyph unicode="f" horiz-adv-x="624" d="M653 1487q108 0 174 -31.5t66 -81.5q0 -35 -25 -56.5t-59 -21.5q-31 0 -49.5 15.5t-40.5 50.5q-28 43 -58.5 64.5t-80.5 21.5q-54 0 -97.5 -32t-76 -97t-50.5 -171.5t-18 -248.5v-131q128 6 252 20q14 0 14 -47q0 -12 -3.5 -25t-8 -21t-8.5 -7q-114 27 -246 33v-555 q0 -63 14 -90.5t54 -39t129 -11.5q6 0 6 -12.5t-6 -12.5q-46 0 -135 2t-134 2q-41 0 -110.5 -2t-94.5 -2q-6 0 -6 12.5t6 12.5q85 0 110.5 26t25.5 115v461q0 70 -25.5 89t-116.5 19q-7 0 -7 15.5t7 15.5q80 0 109.5 19t30.5 71q10 333 122.5 482t335.5 149z" />
<glyph unicode="g" horiz-adv-x="956" d="M799 811q3 3 11.5 0.5t8.5 -6.5v-948q0 -195 -110.5 -313.5t-307.5 -118.5q-126 0 -206 43t-80 112q0 40 22 59t53 19q29 0 51.5 -14t35.5 -35t31 -46t37 -46t54.5 -35t83.5 -14q42 0 74 13.5t61.5 48t45.5 105t16 172.5v330q-156 -160 -309 -160q-128 0 -213.5 93.5 t-85.5 261.5q0 111 42 205t109.5 153t149 92t164.5 33q113 0 198 -57q38 18 64 53zM451 57q110 0 229 115v426q0 76 -58.5 127t-138.5 51q-114 0 -184 -106.5t-70 -274.5q0 -154 60 -246t162 -92z" />
<glyph unicode="h" horiz-adv-x="1028" d="M987 25q6 0 6 -12.5t-6 -12.5q-22 0 -87.5 2t-106.5 2q-40 0 -105 -2t-88 -2q-4 0 -4 12.5t4 12.5q75 0 99 28t24 113v315q0 119 -44 175.5t-136 56.5q-124 0 -230 -109v-438q0 -85 24 -113t99 -28q6 0 6 -12.5t-6 -12.5q-22 0 -87.5 2t-106.5 2q-40 0 -105 -2t-88 -2 q-5 0 -5 12.5t5 12.5q75 0 99 28t24 113v1053q0 74 -13.5 105.5t-49.5 31.5q-34 0 -89 -27q-7 -3 -12.5 9.5t0.5 15.5l275 131h6q7 0 15.5 -7.5t8.5 -13.5v-823q147 172 314 172q113 0 175 -66t62 -186v-395q0 -85 24 -113t99 -28z" />
<glyph unicode="i" horiz-adv-x="552" d="M279 1036q-46 0 -73.5 26.5t-27.5 72.5q0 45 27.5 70.5t73.5 25.5q47 0 72.5 -25t25.5 -71t-25.5 -72.5t-72.5 -26.5zM100 0q-4 0 -4 12.5t4 12.5q74 0 98.5 28t24.5 113v377q0 73 -14.5 105t-50.5 32q-35 0 -88 -27q-7 -3 -12 9.5t1 15.5l279 129q4 2 6 2q8 0 15.5 -6.5 t7.5 -11.5q0 -1 -2.5 -83t-2.5 -161v-381q0 -85 24 -113t99 -28q6 0 6 -12.5t-6 -12.5q-23 0 -87.5 2t-104.5 2q-41 0 -106 -2t-87 -2z" />
<glyph unicode="j" horiz-adv-x="530" d="M266 1036q-46 0 -73 26.5t-27 72.5q0 45 27 70.5t73 25.5q47 0 73 -25t26 -71t-26 -72.5t-73 -26.5zM356 791q0 -1 -2 -83t-2 -161v-645q0 -206 -68 -312t-245 -168q-6 -1 -10.5 9.5t0.5 13.5q100 42 141 137t41 273v688q0 74 -13.5 105.5t-47.5 31.5q-41 0 -91 -27 q-9 -3 -13.5 9.5t1.5 15.5l279 129q4 2 8 2q7 0 14.5 -6.5t7.5 -11.5z" />
<glyph unicode="k" horiz-adv-x="1005" d="M999 25q5 0 5 -12.5t-5 -12.5q-23 0 -88.5 2t-105.5 2q-57 0 -135.5 -2t-104.5 -2q-6 0 -6 12.5t6 12.5q134 0 74 84l-244 329l-82 -67v-205q0 -85 24 -113t99 -28q6 0 6 -12.5t-6 -12.5q-22 0 -87.5 2t-106.5 2q-40 0 -105 -2t-88 -2q-5 0 -5 12.5t5 12.5q75 0 99 28 t24 113v1053q0 74 -13.5 105.5t-49.5 31.5q-34 0 -89 -27q-7 -3 -12.5 9.5t0.5 15.5l273 129q4 2 8 2q7 0 15.5 -7.5t8.5 -13.5v-1056l248 210q71 60 58.5 104t-103.5 44q-4 0 -4 12.5t4 12.5q28 0 102.5 -2.5t139.5 -2.5q59 0 126 2.5t91 2.5q5 0 5 -12.5t-5 -12.5 q-81 0 -180 -39.5t-191 -116.5l-104 -86l266 -358q106 -141 233 -141z" />
<glyph unicode="l" horiz-adv-x="534" d="M78 0q-4 0 -4 12.5t4 12.5q75 0 99 28t24 113l2 1053q0 73 -14.5 105t-49.5 32q-33 0 -88 -27q-6 -2 -11 4t-5 12t4 9l272 129q6 2 11 2q7 0 14.5 -7.5t7.5 -13.5v-1298q0 -85 24.5 -113t100.5 -28q6 0 6 -12.5t-6 -12.5q-22 0 -89 2t-108 2q-40 0 -105.5 -2t-88.5 -2z " />
<glyph unicode="m" horiz-adv-x="1572" d="M1532 25q6 0 6 -12.5t-6 -12.5q-23 0 -89 2t-106 2t-104.5 -2t-87.5 -2q-5 0 -5 12.5t5 12.5q75 0 99 28t24 113v315q0 119 -41 175.5t-127 56.5q-60 0 -118.5 -30.5t-104.5 -84.5v-27v-405q0 -85 23.5 -113t98.5 -28q6 0 6 -12.5t-6 -12.5q-23 0 -87.5 2t-104.5 2 t-105 -2t-88 -2q-6 0 -6 12.5t6 12.5q74 0 98.5 28t24.5 113v315q0 119 -41 175.5t-129 56.5q-57 0 -114 -29t-103 -80v-438q0 -85 24 -113t99 -28q6 0 6 -12.5t-6 -12.5q-23 0 -87.5 2t-104.5 2t-106 -2t-89 -2q-4 0 -4 12.5t4 12.5q75 0 100 28t25 113v397q0 68 -17 98.5 t-55 30.5q-36 0 -106 -28q-5 -3 -9.5 2t-4.5 11t4 9l253 121q8 4 13 4q21 0 40.5 -46t20.5 -122q144 170 301 170q94 0 151 -46t70 -136q147 182 312 182q108 0 165.5 -63t57.5 -189v-395q0 -85 24.5 -113t100.5 -28z" />
<glyph unicode="n" horiz-adv-x="1064" d="M1024 25q6 0 6 -12.5t-6 -12.5q-23 0 -88 2t-105 2t-105.5 -2t-88.5 -2q-5 0 -5 12.5t5 12.5q75 0 100 28t25 113v319q0 118 -44.5 174t-137.5 56q-59 0 -120 -29.5t-110 -81.5v-438q0 -85 24 -113t99 -28q6 0 6 -12.5t-6 -12.5q-23 0 -87.5 2t-104.5 2t-106 -2t-89 -2 q-4 0 -4 12.5t4 12.5q75 0 100 28t25 113v397q0 68 -17 98.5t-55 30.5q-36 0 -106 -28q-5 -3 -9.5 2t-4.5 11t4 9l253 121q8 4 13 4q21 0 40.5 -46t20.5 -120q147 170 314 170q113 0 175 -65t62 -185v-399q0 -85 24 -113t99 -28z" />
<glyph unicode="o" horiz-adv-x="989" d="M479 -27q-122 0 -216 60.5t-142.5 158t-48.5 214.5q0 102 40 183t105.5 129.5t141.5 73.5t155 25q92 0 169.5 -36t128 -95.5t78.5 -135.5t28 -157q0 -186 -129 -303t-310 -117zM537 12q102 0 157.5 80t55.5 240q0 200 -87 322t-219 122q-100 0 -154 -77t-54 -226 q0 -197 85.5 -329t215.5 -132z" />
<glyph unicode="p" horiz-adv-x="1048" d="M655 817q133 0 226.5 -102t93.5 -275q0 -97 -29 -177.5t-75 -132.5t-105.5 -88.5t-119.5 -52.5t-118 -16q-109 0 -202 41v-411q0 -88 36 -115t160 -27q6 0 6 -12t-6 -12q-34 0 -123.5 2t-142.5 2q-40 0 -106 -2t-89 -2q-6 0 -6 12t6 12q78 0 101.5 27t23.5 115v958 q0 70 -16 101.5t-55 31.5q-37 0 -105 -30q-6 -2 -11 3t-5 10.5t4 8.5l248 119q4 4 12 4q25 0 44.5 -41t23.5 -113q162 162 329 162zM584 18q106 0 170.5 93.5t64.5 265.5q0 165 -75 257.5t-189 92.5q-119 0 -229 -113v-475q52 -59 112 -90t146 -31z" />
<glyph unicode="q" horiz-adv-x="1007" d="M981 -539q5 0 5 -12t-5 -12q-23 0 -90 2t-107 2q-46 0 -122.5 -2t-106.5 -2q-6 0 -6 12t6 12q101 0 130.5 27t29.5 115v534q-71 -74 -147 -119t-171 -45q-137 0 -231 100.5t-94 278.5q0 96 26.5 175t71 131.5t103 89t120.5 53t127 16.5q147 0 277 -76l147 54q6 3 10 -1.5 t3.5 -10t-3.5 -9.5q-51 -27 -75.5 -66.5t-24.5 -103.5v-1001q0 -88 24 -115t103 -27zM475 53q114 0 240 119v375q0 109 -72.5 169t-177.5 60q-236 0 -236 -352q0 -177 67 -274t179 -97z" />
<glyph unicode="r" horiz-adv-x="755" d="M580 811q46 0 87.5 -28.5t41.5 -67.5q0 -32 -20 -53t-56 -21q-34 0 -72.5 35t-71.5 35q-25 0 -52 -19.5t-87 -85.5v-440q0 -85 38 -113t157 -28q6 0 6 -12.5t-6 -12.5q-31 0 -120.5 2t-143.5 2q-40 0 -106 -2t-89 -2q-4 0 -4 12.5t4 12.5q75 0 100 28t25 113v397 q0 68 -17 98.5t-55 30.5q-36 0 -106 -28q-5 -3 -9.5 2t-4.5 11t4 9l253 121q8 4 13 4q21 0 40.5 -46t20.5 -120q84 94 135 130t95 36z" />
<glyph unicode="s" horiz-adv-x="690" d="M217 674q0 -36 13.5 -65.5t44 -55t53 -40t67.5 -38.5q43 -22 63 -33.5t54.5 -36t51 -46t30.5 -55.5t14 -73q0 -105 -79.5 -179.5t-217.5 -74.5q-107 0 -200 60q-13 13 -13 24l-4 175q0 5 11 5.5t14 -3.5q35 -102 102.5 -161t149.5 -59q60 0 91 30t30 89q-1 34 -12.5 63 t-26 47.5t-43.5 39.5t-47 31t-54 28q-35 17 -50 25.5t-45 26.5t-44.5 34t-32 39t-24.5 51t-7 62q0 78 43 132t105 76.5t137 22.5q82 0 156 -31q20 -9 20 -24q0 -22 -3 -75t-3 -85q0 -4 -11 -4t-11 4q0 64 -70 119t-147 55q-105 0 -105 -100z" />
<glyph unicode="t" horiz-adv-x="692" d="M641 115q5 4 10.5 0.5t6.5 -9.5t-3 -10q-75 -65 -138.5 -93t-133.5 -28q-55 0 -98 14.5t-74 55.5t-31 105v473q0 70 -20 91t-86 21q-6 0 -6 15.5t6 15.5q90 1 146 43.5t71 116.5q1 8 16 8t15 -8v-158q100 2 278 20q14 0 14 -47q0 -12 -3 -25t-7.5 -21t-9.5 -7 q-122 30 -272 33v-502q0 -162 157 -162q88 0 162 58z" />
<glyph unicode="u" horiz-adv-x="1017" d="M1001 123q5 2 10 -3t5.5 -11t-2.5 -9l-254 -120q-6 -3 -10 -3q-12 0 -24.5 19.5t-22 61t-9.5 94.5q-145 -170 -315 -170q-105 0 -165 66t-60 185v310q0 77 -14.5 112t-47.5 35q-22 0 -63 -18q-10 -5 -14 10q-4 11 3 12l242 113q4 2 8 2q8 0 16.5 -6t8.5 -12v-478 q0 -233 172 -233q59 0 119.5 29t109.5 81v353q0 78 -14 112.5t-47 34.5q-23 0 -64 -18q-10 -5 -14 10q-3 11 4 12l242 113q4 2 8 2q8 0 16.5 -6t8.5 -12v-566q0 -71 15 -101t52 -30q27 0 100 29z" />
<glyph unicode="v" horiz-adv-x="892" d="M897 791q5 0 5 -12.5t-5 -12.5q-54 0 -92.5 -36.5t-75.5 -123.5l-254 -604q-5 -9 -24 -9t-23 9l-295 619q-41 89 -70.5 117t-72.5 28q-4 0 -4 12.5t4 12.5q18 0 71 -2.5t91 -2.5q54 0 127.5 2.5t99.5 2.5q5 0 5 -12.5t-5 -12.5q-73 0 -104.5 -17t-8.5 -63l242 -498 l174 424q65 154 -137 154q-5 0 -5 12.5t5 12.5q29 0 93 -2.5t114 -2.5q31 0 74.5 2.5t70.5 2.5z" />
<glyph unicode="w" horiz-adv-x="1372" d="M1376 791q6 0 6 -12.5t-6 -12.5q-54 0 -94 -36.5t-74 -123.5l-233 -604q-3 -8 -22.5 -8t-22.5 8l-273 584l-213 -584q-2 -8 -21 -8t-24 8l-266 619q-38 89 -68 117t-75 28q-4 0 -4 12.5t4 12.5q18 0 71 -2.5t91 -2.5q49 0 119 2.5t96 2.5q6 0 6 -12.5t-6 -12.5 q-68 0 -96.5 -17t-8.5 -63l211 -477l211 582q3 7 22.5 7t22.5 -7l277 -596l157 417q59 154 -137 154q-6 0 -6 12.5t6 12.5q30 0 93 -2.5t114 -2.5q31 0 74 2.5t69 2.5z" />
<glyph unicode="x" horiz-adv-x="899" d="M881 25q5 0 5 -12.5t-5 -12.5q-23 0 -70 2t-68 2q-52 0 -123.5 -2t-95.5 -2q-6 0 -6 12.5t6 12.5q52 0 59.5 17.5t-22.5 61.5l-149 226l-107 -154q-54 -74 -41 -112.5t107 -38.5q6 0 6 -12.5t-6 -12.5q-28 0 -91.5 2t-113.5 2q-32 0 -75.5 -2t-70.5 -2q-6 0 -6 12.5 t6 12.5q57 0 122.5 43t121.5 120l125 174l-172 259q-48 73 -97.5 109t-88.5 36q-5 0 -5 12.5t5 12.5q20 0 63.5 -2.5t63.5 -2.5q52 0 123.5 2.5t95.5 2.5q6 0 6 -12.5t-6 -12.5q-50 0 -58.5 -17t21.5 -63l135 -205l90 133q56 76 43.5 114t-108.5 38q-4 0 -4 12.5t4 12.5 q30 0 93 -2.5t114 -2.5q31 0 74.5 2.5t70.5 2.5q4 0 4 -12.5t-4 -12.5q-58 0 -121.5 -42t-122.5 -122l-112 -151l186 -281q51 -76 103.5 -110.5t95.5 -34.5z" />
<glyph unicode="y" horiz-adv-x="1001" d="M829 809q8 0 16.5 -6t8.5 -12v-934q0 -195 -107 -313.5t-311 -118.5q-119 0 -200.5 43.5t-81.5 115.5q0 35 21.5 54.5t55.5 19.5q32 0 56.5 -19.5t43 -47.5t41 -56t62 -47.5t92.5 -19.5q33 0 58.5 7.5t51 30t42 59t27 98t10.5 144.5v343q-149 -168 -322 -168 q-105 0 -165 66t-60 185v310q0 78 -13.5 112.5t-45.5 34.5q-25 0 -66 -18q-8 -5 -13 10q-4 11 3 12l243 113q4 2 9 2q6 0 15 -6t9 -12v-478q0 -118 42 -174.5t128 -56.5q60 0 122.5 28.5t113.5 79.5v353q0 77 -14.5 112t-47.5 35q-23 0 -63 -18q-8 -5 -13 10q-4 11 3 12 l241 113z" />
<glyph unicode="z" horiz-adv-x="829" d="M80 25l479 725q4 6 2 10t-10 4q-212 0 -312.5 -41.5t-136.5 -153.5q-1 -3 -7.5 -3t-11.5 2.5t-3 6.5l74 281q1 4 7.5 4.5t12 -1.5t4.5 -5q-9 -37 13 -50t85 -13h445q9 0 14.5 -9t1.5 -16l-477 -719q-8 -14 10 -14q107 0 175.5 5.5t121 18t84 37.5t52 60t36.5 90q1 6 13 6 t12 -6l-6 -221q0 -8 -5.5 -15.5t-13.5 -7.5h-645q-9 0 -14 8.5t0 16.5z" />
<glyph unicode="{" horiz-adv-x="591" d="M66 610q-6 0 -6 13.5t6 13.5q38 5 66 34.5t44 70.5t25 102t11.5 115t2.5 124q0 134 11 209t46.5 120.5t89 59t150.5 13.5q8 0 8 -12.5t-8 -12.5q-67 0 -103 -56t-38 -161q-3 -135 -5 -194t-11 -137.5t-21.5 -109t-39 -70.5t-62 -61.5t-91.5 -45.5q56 -25 92 -47.5t62 -64 t39 -72.5t21 -110t10.5 -137.5t5.5 -191.5q2 -105 38 -161t103 -56q8 0 8 -12.5t-8 -12.5q-98 0 -152 14t-89 60.5t-45.5 121t-10.5 208.5q0 71 -2.5 125.5t-11.5 115.5t-25 101.5t-44 69.5t-66 34z" />
<glyph unicode="|" horiz-adv-x="344" d="M133 -315v1812q0 13 42 13t42 -13v-1812q0 -15 -42 -15t-42 15z" />
<glyph unicode="}" horiz-adv-x="579" d="M514 610q-38 -5 -66 -34t-43.5 -69.5t-24 -101.5t-11 -115t-2.5 -126q0 -89 -4.5 -149t-18 -107.5t-33.5 -74t-55.5 -44t-79 -23.5t-108.5 -6q-8 0 -8 12.5t8 12.5q67 0 103 56t38 161q2 131 4.5 191t10.5 138t21 110t39 73t62 63.5t92 47.5q-42 18 -72 34t-54.5 41.5 t-39.5 44.5t-27 61.5t-17.5 72t-10 97.5t-5.5 117t-3 150q-2 105 -38 161t-103 56q-8 0 -8 12.5t8 12.5q64 0 107 -5.5t78.5 -22.5t55.5 -43.5t34 -73.5t19 -107.5t5 -149.5q0 -71 2.5 -124.5t11 -115t24 -102t43.5 -70t66 -34.5q6 0 6 -13.5t-6 -13.5z" />
<glyph unicode="~" horiz-adv-x="907" d="M643 414q40 0 72 14t46.5 27.5t35.5 38.5q5 3 11.5 -4t2.5 -11q-75 -104 -121 -139t-102 -35t-159 37t-165 37q-20 0 -36.5 -3.5t-26.5 -6t-25 -13.5t-19 -14.5t-22 -21t-22 -21.5q-3 -3 -10.5 3.5t-4.5 10.5q119 174 238 174q41 0 143.5 -36.5t163.5 -36.5z" />
<glyph unicode="&#xa1;" horiz-adv-x="516" d="M260 748q47 0 73.5 -27t26.5 -74q0 -43 -26.5 -68.5t-73.5 -25.5q-45 0 -71.5 25.5t-26.5 68.5q0 47 26 74t72 27zM369 -541q1 -6 -16 -11t-43 -8t-52 -3q-24 0 -50 3t-44 8t-17 11q27 122 47.5 296t28.5 282.5t19 300.5q0 8 21.5 8t21.5 -8q27 -605 84 -879z" />
<glyph unicode="&#xa2;" horiz-adv-x="1097" d="M981 287q3 7 14 5.5t11 -7.5l-23 -217q-1 -17 -6 -23t-23 -14q-163 -56 -329 -56h-13v-184q0 -13 -24.5 -13t-24.5 13v186q-106 8 -192 44.5t-140.5 87.5t-92 116.5t-53 129.5t-15.5 128q0 196 139 335t354 161v170q0 15 24.5 15t24.5 -15v-166h23q78 0 167 -15.5 t144 -43.5q14 -6 18.5 -12.5t6.5 -22.5l16 -211q0 -6 -10.5 -7.5t-13.5 5.5q-97 266 -351 272v-938q12 -2 37 -2q241 0 332 279zM248 514q0 -112 32.5 -213.5t105.5 -181t177 -101.5v928q-142 -13 -228.5 -133t-86.5 -299z" />
<glyph unicode="&#xa3;" horiz-adv-x="1032" d="M909 285q0 3 6.5 3.5t12.5 -1t6 -4.5q-21 -120 -21 -252q0 -18 -6 -24.5t-24 -6.5h-801q-6 0 -6 12t6 13q105 42 142.5 103t37.5 185q0 121 -41 281h-119q-15 0 -15 24.5t15 24.5h107q-37 133 -37 231q0 110 35.5 194.5t96 134.5t134.5 75t158 25q117 0 233 -39 q31 -10 31 -33l17 -230q0 -9 -10.5 -9t-12.5 9q-15 49 -37 92.5t-55.5 85t-83.5 66.5t-109 25q-65 0 -112.5 -29t-73 -78.5t-37.5 -106t-12 -120.5q0 -53 10 -111t17.5 -85.5t27.5 -96.5h279q14 0 14 -24.5t-14 -24.5h-265q25 -102 25 -184q0 -65 -11 -116t-33 -89 t-41.5 -61t-51.5 -52h368q125 0 175.5 41t74.5 152z" />
<glyph unicode="&#xa4;" horiz-adv-x="847" d="M745 133l-65 -61l-100 110q-79 -49 -179 -49q-85 0 -147 41l-90 -102l-55 53l90 94q-74 83 -74 195q0 111 78 182l-103 102l64 60l104 -113q77 41 164 41q88 0 158 -45l102 109l51 -52l-100 -100q72 -78 72 -186q0 -106 -70 -179zM440 172q67 0 106.5 51.5t39.5 145.5 q0 112 -54 195t-147 83q-63 0 -100 -48.5t-37 -141.5q0 -70 19 -132.5t64 -107.5t109 -45z" />
<glyph unicode="&#xa5;" horiz-adv-x="1253" d="M1264 1280q4 0 4 -12.5t-4 -12.5q-69 0 -150 -62t-145 -165l-256 -405v-17h219q14 0 14 -24.5t-14 -24.5h-600q-14 0 -14 24.5t14 24.5h209l-316 473q-66 98 -116.5 137t-106.5 39q-6 0 -6 12.5t6 12.5q22 0 69.5 -3t69.5 -3q60 0 166 3t137 3q6 0 6 -12.5t-6 -12.5 q-71 0 -88.5 -28.5t17.5 -77.5l315 -471l227 362q63 100 47 157.5t-108 57.5q-6 0 -6 12.5t6 12.5q34 0 111.5 -3t140.5 -3q34 0 81.5 3t76.5 3zM932 453q14 0 14 -25t-14 -25h-219v-237q0 -90 29.5 -115.5t136.5 -25.5q6 0 6 -12.5t-6 -12.5q-30 0 -112.5 2t-135.5 2 q-49 0 -133 -2t-115 -2q-6 0 -6 12.5t6 12.5q106 0 137 26t31 115v237h-219q-14 0 -14 25t14 25h600z" />
<glyph unicode="&#xa6;" horiz-adv-x="344" d="M133 737v760q0 13 42 13t42 -13v-760q0 -13 -42 -13t-42 13zM133 -315v757q0 15 42 15t42 -15v-757q0 -15 -42 -15t-42 15z" />
<glyph unicode="&#xa7;" horiz-adv-x="933" d="M678 63q84 -77 84 -180q0 -88 -48.5 -151t-119.5 -90t-154 -27q-106 0 -178 37q-21 14 -24 35l-15 213q0 6 11.5 6t13.5 -6q8 -31 30.5 -70t56 -77.5t81 -64.5t96.5 -26q56 0 91.5 36t35.5 109q0 47 -16.5 88t-44.5 72t-64 59.5t-76.5 54t-80.5 52.5t-76 59.5t-64 69 t-44.5 86t-16.5 107.5q0 75 30 135t113 133q-80 83 -80 180q0 67 27.5 120t74 84.5t102.5 47.5t118 16q110 0 178 -38q20 -10 20 -33l19 -213q0 -6 -12.5 -6t-12.5 6q-8 31 -31 70t-56.5 77.5t-81.5 64t-97 25.5q-56 0 -90.5 -36.5t-34.5 -110.5q0 -60 26.5 -109.5 t68.5 -85.5t93 -69t102.5 -69t93.5 -77t68.5 -101.5t26.5 -133.5q0 -77 -29.5 -136.5t-113.5 -132.5zM270 535q0 -73 25 -133t71 -104t90.5 -76t105 -71t93.5 -67q50 65 50 166q0 74 -25 133.5t-70.5 103.5t-90.5 76t-104.5 71t-92.5 68q-52 -62 -52 -167z" />
<glyph unicode="&#xa8;" horiz-adv-x="659" d="M152 969q-44 0 -69.5 25t-25.5 69q0 41 25.5 65.5t69.5 24.5t68 -24t24 -66q0 -44 -24 -69t-68 -25zM510 969q-44 0 -69 25t-25 69q0 42 25 66t69 24q43 0 67.5 -24.5t24.5 -65.5q0 -44 -24.5 -69t-67.5 -25z" />
<glyph unicode="&#xa9;" horiz-adv-x="1478" d="M764 -211q-91 0 -179 23.5t-168 73t-140.5 119t-96 168.5t-35.5 214q0 183 97 331t251 227t330 79q116 0 215 -38.5t165 -103.5t103 -151t37 -180q0 -92 -39 -178t-106 -150.5t-163.5 -103.5t-205.5 -39q-96 0 -169.5 28t-116 74.5t-63.5 101.5t-21 115q0 80 31.5 147 t82.5 109.5t114 66t128 23.5q50 0 95 -12t76 -37.5t32 -58.5q0 -30 -18.5 -50t-51.5 -20q-44 0 -78 62q-17 27 -26.5 39t-33 25.5t-54.5 13.5q-81 0 -114.5 -62.5t-33.5 -185.5q0 -67 16 -123.5t50.5 -102.5t95 -72t141.5 -26q65 0 124.5 22.5t107 65.5t76 112t28.5 154 q0 133 -63.5 244t-176 176.5t-249.5 65.5q-118 0 -214.5 -42.5t-158.5 -116.5t-95.5 -171.5t-33.5 -208.5q0 -138 49 -251.5t130 -183.5t181.5 -108t208.5 -38q116 0 205 20t193 78q2 2 5.5 -1t5 -7.5t-0.5 -7.5q-111 -85 -223.5 -116.5t-245.5 -31.5z" />
<glyph unicode="&#xaa;" horiz-adv-x="575" d="M557 834q6 3 11.5 -6.5t0.5 -12.5l-139 -65q-23 -9 -43.5 12.5t-26.5 66.5l-77 -41q-74 -40 -123 -40q-42 0 -68 22.5t-26 56.5t23.5 57t84.5 44l184 65v109q0 50 -7 82t-21 46t-27 18.5t-33 4.5q-35 0 -57.5 -29t-30.5 -75q-9 -59 -57 -59q-27 0 -43 15t-16 38 q0 33 46.5 68.5t107.5 57t106 21.5q57 0 92 -37t35 -110v-240q0 -69 22 -82t82 13zM283 815l75 39v4v113l-125 -49q-31 -13 -43 -25.5t-12 -36.5q0 -25 15 -40t40 -15q33 0 50 10zM535 647q9 0 9 -30.5t-9 -30.5h-459q-6 0 -8.5 15t-1 30.5t5.5 15.5h463z" />
<glyph unicode="&#xab;" horiz-adv-x="946" d="M487 82l-370 305q-9 9 -9 23.5t9 23.5l370 305q2 3 6.5 2t7.5 -5t1 -7l-232 -317l232 -318q2 -7 -7 -13q-6 -3 -8 1zM811 82l-371 305q-9 9 -9 23.5t9 23.5l371 305q2 3 6 2t7 -5t1 -7l-231 -317l231 -318q2 -6 -6 -13q-6 -4 -8 1z" />
<glyph unicode="&#xac;" horiz-adv-x="808" d="M745 551v-393q0 -6 -21.5 -8t-43 -0.5t-21.5 6.5v309h-589q-6 0 -8 21.5t-0.5 43t6.5 21.5h677z" />
<glyph unicode="&#xad;" horiz-adv-x="661" d="M66 334q-6 -2 -8.5 22t-1.5 49t5 27l535 94q6 1 8 -22.5t0 -48.5t-8 -27z" />
<glyph unicode="&#xae;" horiz-adv-x="1529" d="M811 1485q130 0 240.5 -44.5t185.5 -120.5t116.5 -178.5t41.5 -217.5q0 -176 -86.5 -323.5t-235 -232.5t-323.5 -85q-90 0 -177 24.5t-164.5 74.5t-136 119t-93 164.5t-34.5 204.5q0 135 55 251.5t147 195t212.5 123.5t251.5 45zM813 340q226 0 355.5 143t129.5 379 q0 255 -157 414.5t-400 159.5q-121 0 -217.5 -41t-156 -112t-90.5 -161t-31 -192q0 -134 48.5 -247.5t129 -187t181.5 -114.5t208 -41zM1153 575q5 -1 5 -9.5t-5 -8.5h-174q-35 0 -197 332q-41 -8 -102 -8v-207q0 -61 16.5 -76.5t81.5 -15.5q4 0 4 -12.5t-4 -12.5 q-18 0 -66.5 2t-80.5 2q-26 0 -79 -2t-69 -2q-3 0 -3 12.5t3 12.5q60 0 76 15.5t16 76.5v440q0 56 -16.5 73t-75.5 17q-3 0 -3 12.5t3 12.5q19 0 71 -1t77 -1t85 3t83 3q192 0 192 -137q0 -117 -112 -176q94 -185 147.5 -256t126.5 -89zM680 918q106 -12 153.5 17t47.5 116 q0 155 -117 155q-52 0 -68 -15t-16 -83v-190z" />
<glyph unicode="&#xaf;" horiz-adv-x="706" d="M96 983q-15 0 -15 32t15 32h514q15 0 15 -32t-15 -32h-514z" />
<glyph unicode="&#xb0;" horiz-adv-x="679" d="M342 764q-126 0 -204.5 76t-78.5 190q0 108 79 184t204 76t202 -75.5t77 -188.5q0 -112 -77.5 -187t-201.5 -75zM356 788q43 0 71 15.5t42 48t18.5 69t4.5 91.5q0 128 -39.5 191t-122.5 63q-34 0 -59 -11.5t-40 -31t-23.5 -50.5t-11.5 -62.5t-3 -74.5q0 -57 7.5 -99 t25 -77t50 -53.5t80.5 -18.5z" />
<glyph unicode="&#xb1;" horiz-adv-x="815" d="M70 473q-6 0 -8 22t-0.5 44t6.5 22h294v295q0 8 44.5 8t44.5 -8v-295h294q9 0 9 -44t-9 -44h-294v-293q0 -6 -22.5 -8t-44.5 -0.5t-22 6.5v295h-292zM745 80q9 0 9 -39t-9 -39h-675q-6 0 -8 19.5t-0.5 39t6.5 19.5h677z" />
<glyph unicode="&#xb2;" horiz-adv-x="514" d="M57 838q14 54 46 109t66 99t66 88.5t53 94t21 98.5q0 58 -26 88.5t-70 30.5q-47 0 -83 -32.5t-50 -80.5q-2 -9 -16 -5q-10 3 -7 9q46 156 199 156q83 0 126.5 -41t43.5 -106q0 -45 -26 -92.5t-65.5 -89t-80 -81t-76 -82t-47.5 -77.5q-3 -6 4 -6q69 0 108.5 1t76 5t53 9.5 t30.5 18t20 27t11 39.5q0 3 8.5 3t8.5 -3l-2 -182q0 -11 -11 -11h-375q-5 0 -7 3.5t1 9.5z" />
<glyph unicode="&#xb3;" horiz-adv-x="514" d="M297 1174q71 -15 113.5 -54t42.5 -104q0 -80 -58 -142.5t-159 -62.5q-147 0 -191 141q-1 5 5 8.5t12.5 3t7.5 -5.5q15 -43 52 -72.5t93 -29.5q53 0 87 32.5t34 108.5q0 74 -41.5 116t-112.5 42q-7 0 -6.5 12.5t6.5 12.5q61 0 94 43t33 102q0 53 -27.5 85t-70.5 32 q-46 0 -82 -32.5t-47 -78.5q-1 -4 -7.5 -4.5t-12.5 2.5t-5 8q19 70 68 113t129 43q81 0 126.5 -42.5t45.5 -107.5q0 -56 -36 -101t-93 -68z" />
<glyph unicode="&#xb4;" horiz-adv-x="434" d="M141 971q-1 -4 -7 -4t-11 2.5t-4 5.5l94 491q5 13 84 26q71 11 65 -3z" />
<glyph unicode="&#xb6;" horiz-adv-x="1320" d="M694 -395q-65 0 -104 27t-39 71q0 35 19.5 56.5t56.5 21.5q39 0 58.5 -21t23.5 -45.5t19.5 -45.5t45.5 -21q51 0 72.5 82t21.5 286v240q-64 -6 -139 -6q-91 0 -175.5 16.5t-166.5 57t-142 100.5t-97 154.5t-37 212.5q0 243 149 369t414 126q41 0 140.5 -6t162.5 -6 q40 0 116.5 3t108.5 3q6 0 6 -12.5t-6 -12.5q-88 0 -135 -42.5t-47 -122.5l4 -977q0 -264 -78 -386t-252 -122z" />
<glyph unicode="&#xb7;" horiz-adv-x="399" d="M201 311q-46 0 -73.5 27t-27.5 74q0 44 27.5 69t73.5 25t72 -25t26 -69q0 -47 -26 -74t-72 -27z" />
<glyph unicode="&#xb8;" horiz-adv-x="475" d="M240 -4q-21 -66 -21.5 -98t17 -52t67.5 -49q53 -31 83 -66t30 -91q0 -79 -57 -141t-169 -62q-63 0 -101 21.5t-38 64.5q0 26 20.5 45.5t49.5 19.5t46 -17t22 -37t22.5 -37t48.5 -17q62 0 62 67q0 55 -37.5 97t-134.5 96q-23 12 -26 21.5t9 37.5q24 57 76 199z" />
<glyph unicode="&#xb9;" horiz-adv-x="536" d="M90 825q-6 0 -6 12.5t6 12.5q93 0 114 21.5t21 119.5v242v16v53t-2.5 38.5t-5 29t-11 14.5t-17 6.5t-26.5 -5t-36 -11.5t-49 -22q-5 -2 -10 3t-5.5 10.5t3.5 8.5l249 117q7 3 14 -2.5t7 -11.5v-486q0 -99 19 -120t108 -21q6 0 6 -12.5t-6 -12.5q-23 0 -83 2t-97 2 q-39 0 -104.5 -2t-88.5 -2z" />
<glyph unicode="&#xba;" horiz-adv-x="653" d="M317 735q-118 0 -190 82.5t-72 202.5q0 66 26 119.5t68.5 85t91.5 48.5t99 17q118 0 189 -82t71 -194q0 -116 -84.5 -197.5t-198.5 -81.5zM348 766q65 0 103 56.5t38 154.5q0 118 -52.5 199t-133.5 81q-66 0 -101.5 -51.5t-35.5 -146.5q0 -118 52 -205.5t130 -87.5z M80 586q-6 0 -8 15t-0.5 30.5t6.5 15.5h497q9 0 9 -30.5t-9 -30.5h-495z" />
<glyph unicode="&#xbb;" horiz-adv-x="946" d="M135 739l371 -305q9 -9 9 -23.5t-9 -23.5l-371 -305q-4 -7 -11 1q-5 6 -3 11l231 316l-231 319q-2 5 6 11q6 4 8 -1zM459 739l370 -305q9 -9 9 -23.5t-9 -23.5l-370 -305q-4 -8 -13 2q-3 6 -2 10l232 316l-232 319q-1 2 2 6t7 5.5t6 -1.5z" />
<glyph unicode="&#xbc;" horiz-adv-x="1232" d="M465 655q5 0 5 -11t-5 -11q-24 0 -84.5 2t-97.5 2q-38 0 -104.5 -2t-90.5 -2q-4 0 -4 11t4 11q94 0 115.5 22.5t21.5 119.5v243q0 113 -7 135q-11 29 -50 19q-26 -6 -92 -35q-4 -2 -8.5 3.5t-5 11t3.5 8.5l247 116q8 3 15.5 -3t7.5 -11v-487q0 -98 19.5 -120t109.5 -22z M899 1286q4 10 39 -8q15 -8 14 -12l-571 -1266q-1 -4 -15 1t-27.5 12.5t-12.5 11.5zM1182 23q2 0 2 -12.5t-2 -12.5q-19 0 -61.5 1t-71.5 1q-34 0 -89 -1t-75 -1q-5 0 -5 12.5t5 12.5q69 0 86.5 10t17.5 51v104q-175 5 -256 5q-6 0 -9 5t1 11l326 453q6 5 23.5 2.5 t17.5 -9.5v-424q8 0 90 5q4 0 4 -28t-4 -28q-16 1 -45.5 2t-44.5 2v-100q0 -40 14 -50.5t76 -10.5zM805 223q41 0 101.5 1t82.5 1v287l-188 -283q-6 -6 4 -6z" />
<glyph unicode="&#xbd;" horiz-adv-x="1249" d="M88 633q-4 0 -4 11t4 11q94 0 115.5 22.5t21.5 119.5v243q0 113 -7 135q-11 29 -50 19q-26 -6 -92 -35q-4 -2 -8.5 3.5t-5 11t3.5 8.5l247 116q8 3 15.5 -3t7.5 -11v-487q0 -98 19.5 -120t109.5 -22q5 0 5 -11t-5 -11q-24 0 -84.5 2t-97.5 2q-38 0 -104.5 -2t-90.5 -2z M381 0q-1 -4 -15 1t-27.5 12.5t-12.5 11.5l573 1261q4 10 39 -8q15 -8 14 -12zM793 12q14 54 46 109t65.5 99t66 88.5t53 93.5t20.5 98q0 60 -26 90.5t-70 30.5q-49 0 -83.5 -32t-47.5 -81q-1 -5 -7.5 -5.5t-12 2.5t-4.5 7q46 156 198 156q83 0 125.5 -40.5t42.5 -105.5 q0 -46 -25.5 -93.5t-64.5 -89.5t-79 -81.5t-75.5 -82t-48.5 -77.5q-4 -8 6 -8q68 0 108.5 1t75.5 5.5t52 10.5t30.5 19.5t19.5 28t11 40.5q0 3 8.5 3t8.5 -3l-2 -185q0 -10 -10 -10h-373q-11 0 -8 12z" />
<glyph unicode="&#xbe;" horiz-adv-x="1210" d="M453 821q0 -80 -58 -140t-159 -60q-148 0 -191 141q-1 5 5 8t12.5 2t7.5 -6q15 -43 52.5 -72.5t92.5 -29.5q53 0 87 32.5t34 108.5q0 74 -41.5 116t-112.5 42q-8 0 -8 12t8 12q61 0 94 43.5t33 102.5q0 53 -27 83.5t-71 30.5q-48 0 -83 -30.5t-46 -75.5q-1 -5 -7.5 -6 t-12.5 2t-5 8q45 155 197 155q80 0 126 -42t46 -105q0 -58 -37.5 -104.5t-95.5 -67.5q71 -13 115.5 -53t44.5 -107zM877 1286q3 7 30 -4t25 -16l-574 -1266q-1 -4 -15 1t-27 12.5t-11 11.5zM1159 180q-15 1 -44 2t-44 2v-100q0 -40 13 -50.5t75 -10.5q1 0 1 -12.5t-1 -12.5 q-19 0 -60.5 1t-70.5 1q-36 0 -91 -1t-75 -1q-3 0 -3 12.5t3 12.5q71 0 89 10t18 51v104q-180 5 -258 5q-5 0 -8 5t2 11l325 453q4 5 22.5 2.5t18.5 -9.5v-424q15 1 45.5 2.5t42.5 2.5q6 0 6 -28t-6 -28zM782 223q85 0 187 4v289l-191 -287q-3 -6 4 -6z" />
<glyph unicode="&#xbf;" horiz-adv-x="669" d="M348 737q47 0 74 -26t27 -74q0 -43 -27.5 -68.5t-73.5 -25.5q-47 0 -72.5 25.5t-25.5 68.5q0 100 98 100zM342 -532q22 0 37.5 7.5t23.5 23t11 28t6 33.5t7 36t13.5 32t27.5 26.5t44 9.5q38 0 59 -23t21 -53q0 -63 -74 -107t-180 -44q-125 0 -209 63.5t-84 180.5 q0 28 4.5 53t16.5 48.5t21 39.5t30 38t31 32t36 33t33 30q68 65 97.5 123.5t29.5 130.5q0 38 -10 110q-2 4 4 7.5t12 3t8 -3.5q25 -53 39.5 -125t14.5 -121q0 -54 -20.5 -97t-49 -73.5t-57.5 -62.5t-49.5 -80.5t-20.5 -110.5q0 -84 35 -136t92 -52z" />
<glyph unicode="&#xc0;" d="M455 1548q-20 3 25 25q70 35 117 40q11 1 15 -1q26 -17 88.5 -61.5t114 -78t103.5 -61.5q5 -2 5 -8t-4 -11t-10 -3q-211 95 -454 159zM1442 25q9 0 9 -12.5t-9 -12.5q-38 0 -121 4t-121 4q-45 0 -114.5 -4t-108.5 -4q-9 0 -9 12.5t9 12.5q102 0 123.5 31.5t-23.5 125.5 l-227 473h-381l-168 -387q-51 -124 -6 -183.5t176 -59.5q9 0 9 -12.5t-9 -12.5q-37 0 -111.5 4t-130.5 4q-52 0 -120 -4t-109 -4q-9 0 -9 12.5t9 12.5q84 0 136 53t120 213l436 1005q2 4 15 4t14 -4l491 -1015q73 -149 121 -202.5t109 -53.5zM489 705h336l-176 368z" />
<glyph unicode="&#xc1;" d="M508 1389q-5 -2 -9 3t-3.5 10.5t4.5 8.5q70 37 184.5 115.5t124.5 85.5q14 9 100 -25q67 -27 62 -36q-1 -2 -6 -3q-247 -64 -457 -159zM1442 25q9 0 9 -12.5t-9 -12.5q-38 0 -121 4t-121 4q-45 0 -114.5 -4t-108.5 -4q-9 0 -9 12.5t9 12.5q102 0 123.5 31.5t-23.5 125.5 l-227 473h-381l-168 -387q-51 -124 -6 -183.5t176 -59.5q9 0 9 -12.5t-9 -12.5q-37 0 -111.5 4t-130.5 4q-52 0 -120 -4t-109 -4q-9 0 -9 12.5t9 12.5q84 0 136 53t120 213l436 1005q2 4 15 4t14 -4l491 -1015q73 -149 121 -202.5t109 -53.5zM489 705h336l-176 368z" />
<glyph unicode="&#xc2;" d="M485 1327q-6 -2 -13 6q-4 6 1 8l211 211q9 9 22.5 9t22.5 -9l211 -211q2 -2 1 -6t-5 -7t-8 -1l-221 105zM1442 25q9 0 9 -12.5t-9 -12.5q-38 0 -121 4t-121 4q-45 0 -114.5 -4t-108.5 -4q-9 0 -9 12.5t9 12.5q102 0 123.5 31.5t-23.5 125.5l-227 473h-381l-168 -387 q-51 -124 -6 -183.5t176 -59.5q9 0 9 -12.5t-9 -12.5q-37 0 -111.5 4t-130.5 4q-52 0 -120 -4t-109 -4q-9 0 -9 12.5t9 12.5q84 0 136 53t120 213l436 1005q2 4 15 4t14 -4l491 -1015q73 -149 121 -202.5t109 -53.5zM489 705h336l-176 368z" />
<glyph unicode="&#xc3;" d="M455 1427q-3 -2 -8 0.5t-7 7t0 7.5q90 139 176 139q26 0 113 -25.5t139 -25.5q34 0 56 13.5t47 41.5q2 2 6.5 0.5t7.5 -6t0 -8.5q-54 -83 -88.5 -111t-77.5 -28q-39 0 -125 25.5t-137 25.5q-16 0 -29 -2.5t-23.5 -9.5t-16 -11.5t-17 -16zM1442 25q9 0 9 -12.5t-9 -12.5 q-38 0 -121 4t-121 4q-45 0 -114.5 -4t-108.5 -4q-9 0 -9 12.5t9 12.5q102 0 123.5 31.5t-23.5 125.5l-227 473h-381l-168 -387q-51 -124 -6 -183.5t176 -59.5q9 0 9 -12.5t-9 -12.5q-37 0 -111.5 4t-130.5 4q-52 0 -120 -4t-109 -4q-9 0 -9 12.5t9 12.5q84 0 136 53 t120 213l436 1005q2 4 15 4t14 -4l491 -1015q73 -149 121 -202.5t109 -53.5zM489 705h336l-176 368z" />
<glyph unicode="&#xc4;" d="M528 1458q-43 0 -68.5 25t-25.5 69q0 41 25.5 64.5t68.5 23.5q44 0 68.5 -23.5t24.5 -64.5q0 -44 -24.5 -69t-68.5 -25zM887 1458q-44 0 -68 25t-24 69q0 42 24 65t68 23q43 0 67.5 -23.5t24.5 -64.5q0 -44 -24.5 -69t-67.5 -25zM1442 25q9 0 9 -12.5t-9 -12.5 q-38 0 -121 4t-121 4q-45 0 -114.5 -4t-108.5 -4q-9 0 -9 12.5t9 12.5q102 0 123.5 31.5t-23.5 125.5l-227 473h-381l-168 -387q-51 -124 -6 -183.5t176 -59.5q9 0 9 -12.5t-9 -12.5q-37 0 -111.5 4t-130.5 4q-52 0 -120 -4t-109 -4q-9 0 -9 12.5t9 12.5q84 0 136 53 t120 213l436 1005q2 4 15 4t14 -4l491 -1015q73 -149 121 -202.5t109 -53.5zM489 705h336l-176 368z" />
<glyph unicode="&#xc5;" d="M696 1358q-88 0 -140 48.5t-52 115.5q0 73 65.5 115t145.5 42q79 0 135.5 -47.5t56.5 -115.5q0 -71 -64.5 -114.5t-146.5 -43.5zM674 1655q-60 0 -60 -92q0 -69 31 -125t82 -56q70 0 70 99q0 70 -36.5 122t-86.5 52zM1442 25q9 0 9 -12.5t-9 -12.5q-38 0 -121 4t-121 4 q-45 0 -114.5 -4t-108.5 -4q-9 0 -9 12.5t9 12.5q102 0 123.5 31.5t-23.5 125.5l-227 473h-381l-168 -387q-51 -124 -6 -183.5t176 -59.5q9 0 9 -12.5t-9 -12.5q-37 0 -111.5 4t-130.5 4q-52 0 -120 -4t-109 -4q-9 0 -9 12.5t9 12.5q84 0 136 53t120 213l436 1005q2 4 15 4 t14 -4l491 -1015q73 -149 121 -202.5t109 -53.5zM489 705h336l-176 368z" />
<glyph unicode="&#xc6;" horiz-adv-x="1800" d="M1677 311q0 4 6.5 4.5t12.5 -2t6 -6.5q-21 -155 -21 -276q0 -18 -6 -24.5t-24 -6.5h-854q-6 0 -6 12.5t6 12.5q106 0 136 26t30 115v477h-340l-252 -377q-76 -118 -51.5 -179.5t149.5 -61.5q9 0 9 -12.5t-9 -12.5q-41 0 -121 4t-141 4q-48 0 -110 -4t-99 -4q-9 0 -9 12.5 t9 12.5q141 0 307 245l613 906q32 47 22 61q-12 17 -119 18h-37q-4 0 -4 12.5t4 12.5h830q20 0 20 -18l4 -261q0 -3 -5.5 -4.5t-11.5 -0.5t-7 5q-8 90 -77.5 161t-164.5 71h-102q-90 0 -121 -25.5t-31 -95.5v-422h213q105 0 154 36t49 112q0 4 11 4t11 -4q0 -46 -1 -98.5 t-1 -73.5q0 -32 3.5 -95t3.5 -100q0 -6 -12.5 -6t-12.5 6q0 88 -50.5 130t-160.5 42h-207v-469q0 -74 28.5 -100.5t110.5 -26.5h132q98 0 180.5 75.5t107.5 188.5zM653 690h310v461z" />
<glyph unicode="&#xc7;" horiz-adv-x="1370" d="M1257 344q1 7 13 5.5t12 -7.5l-29 -244q-5 -26 -9.5 -33.5t-22.5 -13.5q-188 -76 -385 -76h-37q-23 -83 -11.5 -110.5t78.5 -65.5q53 -33 83 -68t30 -89q0 -81 -55.5 -143t-167.5 -62q-63 0 -100.5 21.5t-37.5 64.5q0 26 20 45.5t46 19.5q30 0 47 -17t22.5 -37t23 -37 t48.5 -17q62 0 62 67q0 54 -37.5 95.5t-136.5 97.5q-23 12 -25 21t10 40q32 73 68 176q-137 9 -250.5 53t-189 110.5t-127.5 152t-75.5 175t-23.5 181.5q0 143 63 267t167 208t240 131.5t282 47.5q97 0 196.5 -17.5t157.5 -48.5q19 -9 25.5 -18t7.5 -31l23 -246q0 -6 -11 -8 t-12 4q-51 159 -172 238t-293 79q-225 0 -356 -150t-131 -400q0 -190 72.5 -349.5t199 -252.5t277.5 -93q294 0 421 334z" />
<glyph unicode="&#xc8;" horiz-adv-x="1110" d="M348 1548q-20 3 25 25q70 34 117 40q12 1 16 -1q31 -20 90 -62t111.5 -76.5t105.5 -62.5q6 -3 2.5 -14t-12.5 -8q-213 96 -455 159zM987 311q1 6 13 4.5t12 -6.5q-21 -164 -21 -278q0 -18 -6 -24.5t-24 -6.5h-873q-4 0 -4 12.5t4 12.5q106 0 136 26t30 115v948 q0 88 -30.5 114.5t-135.5 26.5q-4 0 -4 12.5t4 12.5h836q20 0 20 -18l4 -261q0 -6 -10.5 -6t-13.5 6q-15 113 -80 171.5t-174 58.5h-105q-88 0 -117.5 -25.5t-29.5 -99.5v-416h221q105 0 155 36.5t50 111.5q0 6 11 6t11 -6q0 -47 -1 -99t-1 -73q0 -30 3 -95t3 -102 q0 -5 -12 -5t-12 5q0 89 -51 130.5t-160 41.5h-217v-467q0 -76 26.5 -101.5t110.5 -25.5h133q116 0 193 68.5t106 195.5z" />
<glyph unicode="&#xc9;" horiz-adv-x="1110" d="M403 1389q-6 -2 -10.5 3t-4 10.5t4.5 8.5q70 37 184.5 115.5t124.5 85.5q14 9 100 -25q67 -27 62 -36q-1 -2 -6 -3q-242 -63 -455 -159zM987 311q1 6 13 4.5t12 -6.5q-21 -164 -21 -278q0 -18 -6 -24.5t-24 -6.5h-873q-4 0 -4 12.5t4 12.5q106 0 136 26t30 115v948 q0 88 -30.5 114.5t-135.5 26.5q-4 0 -4 12.5t4 12.5h836q20 0 20 -18l4 -261q0 -6 -10.5 -6t-13.5 6q-15 113 -80 171.5t-174 58.5h-105q-88 0 -117.5 -25.5t-29.5 -99.5v-416h221q105 0 155 36.5t50 111.5q0 6 11 6t11 -6q0 -47 -1 -99t-1 -73q0 -30 3 -95t3 -102 q0 -5 -12 -5t-12 5q0 89 -51 130.5t-160 41.5h-217v-467q0 -76 26.5 -101.5t110.5 -25.5h133q116 0 193 68.5t106 195.5z" />
<glyph unicode="&#xca;" horiz-adv-x="1110" d="M381 1411q-2 -1 -6 2t-6 6.5t0 5.5l211 211q9 9 23.5 9t21.5 -9l211 -211q7 -4 -2 -11q-5 -4 -9 -3l-221 102zM987 311q1 6 13 4.5t12 -6.5q-21 -164 -21 -278q0 -18 -6 -24.5t-24 -6.5h-873q-4 0 -4 12.5t4 12.5q106 0 136 26t30 115v948q0 88 -30.5 114.5t-135.5 26.5 q-4 0 -4 12.5t4 12.5h836q20 0 20 -18l4 -261q0 -6 -10.5 -6t-13.5 6q-15 113 -80 171.5t-174 58.5h-105q-88 0 -117.5 -25.5t-29.5 -99.5v-416h221q105 0 155 36.5t50 111.5q0 6 11 6t11 -6q0 -47 -1 -99t-1 -73q0 -30 3 -95t3 -102q0 -5 -12 -5t-12 5q0 89 -51 130.5 t-160 41.5h-217v-467q0 -76 26.5 -101.5t110.5 -25.5h133q116 0 193 68.5t106 195.5z" />
<glyph unicode="&#xcb;" horiz-adv-x="1110" d="M422 1458q-43 0 -68.5 25t-25.5 69q0 41 25.5 64.5t68.5 23.5q44 0 69 -23.5t25 -64.5q0 -44 -25 -69t-69 -25zM782 1458q-45 0 -69.5 24.5t-24.5 69.5q0 42 24.5 65t69.5 23q43 0 66.5 -23.5t23.5 -64.5q0 -44 -23.5 -69t-66.5 -25zM987 311q1 6 13 4.5t12 -6.5 q-21 -164 -21 -278q0 -18 -6 -24.5t-24 -6.5h-873q-4 0 -4 12.5t4 12.5q106 0 136 26t30 115v948q0 88 -30.5 114.5t-135.5 26.5q-4 0 -4 12.5t4 12.5h836q20 0 20 -18l4 -261q0 -6 -10.5 -6t-13.5 6q-15 113 -80 171.5t-174 58.5h-105q-88 0 -117.5 -25.5t-29.5 -99.5v-416 h221q105 0 155 36.5t50 111.5q0 6 11 6t11 -6q0 -47 -1 -99t-1 -73q0 -30 3 -95t3 -102q0 -5 -12 -5t-12 5q0 89 -51 130.5t-160 41.5h-217v-467q0 -76 26.5 -101.5t110.5 -25.5h133q116 0 193 68.5t106 195.5z" />
<glyph unicode="&#xcc;" horiz-adv-x="686" d="M545 1389q-209 95 -455 159q-20 3 25 25q70 34 117 40q12 1 16 -1q31 -20 90 -62t111.5 -76.5t105.5 -62.5q6 -3 2.5 -14t-12.5 -8zM426 166q0 -90 29.5 -115.5t136.5 -25.5q4 0 4 -12.5t-4 -12.5q-31 0 -114.5 2t-137.5 2q-50 0 -133 -2t-113 -2q-6 0 -6 12.5t6 12.5 q106 0 136 26t30 115v948q0 88 -30.5 114.5t-135.5 26.5q-6 0 -6 12.5t6 12.5q30 0 113 -3t133 -3q54 0 138 3t114 3q4 0 4 -12.5t-4 -12.5q-104 0 -135 -28t-31 -117v-944z" />
<glyph unicode="&#xcd;" horiz-adv-x="686" d="M145 1389q-6 -2 -10.5 3t-4 10.5t4.5 8.5q70 37 184.5 115.5t124.5 85.5q14 9 100 -25q67 -27 62 -36q-1 -2 -6 -3q-249 -64 -455 -159zM426 166q0 -90 29.5 -115.5t136.5 -25.5q4 0 4 -12.5t-4 -12.5q-31 0 -114.5 2t-137.5 2q-50 0 -133 -2t-113 -2q-6 0 -6 12.5 t6 12.5q106 0 136 26t30 115v948q0 88 -30.5 114.5t-135.5 26.5q-6 0 -6 12.5t6 12.5q30 0 113 -3t133 -3q54 0 138 3t114 3q4 0 4 -12.5t-4 -12.5q-104 0 -135 -28t-31 -117v-944z" />
<glyph unicode="&#xce;" horiz-adv-x="686" d="M111 1425l211 211q9 9 22.5 9t22.5 -9l211 -211q7 -4 -2 -11q-6 -5 -11 -3l-219 102l-223 -102q-2 -1 -6 2t-6 6.5t0 5.5zM426 166q0 -90 29.5 -115.5t136.5 -25.5q4 0 4 -12.5t-4 -12.5q-31 0 -114.5 2t-137.5 2q-50 0 -133 -2t-113 -2q-6 0 -6 12.5t6 12.5 q106 0 136 26t30 115v948q0 88 -30.5 114.5t-135.5 26.5q-6 0 -6 12.5t6 12.5q30 0 113 -3t133 -3q54 0 138 3t114 3q4 0 4 -12.5t-4 -12.5q-104 0 -135 -28t-31 -117v-944z" />
<glyph unicode="&#xcf;" horiz-adv-x="686" d="M195 1458q-45 0 -71 25t-26 69q0 41 26 64.5t71 23.5q43 0 67.5 -23.5t24.5 -64.5q0 -44 -24.5 -69t-67.5 -25zM492 1458q-43 0 -69 25t-26 69q0 41 26 64.5t69 23.5t67.5 -23.5t24.5 -64.5q0 -44 -24.5 -69t-67.5 -25zM426 166q0 -90 29.5 -115.5t136.5 -25.5 q4 0 4 -12.5t-4 -12.5q-31 0 -114.5 2t-137.5 2q-50 0 -133 -2t-113 -2q-6 0 -6 12.5t6 12.5q106 0 136 26t30 115v948q0 88 -30.5 114.5t-135.5 26.5q-6 0 -6 12.5t6 12.5q30 0 113 -3t133 -3q54 0 138 3t114 3q4 0 4 -12.5t-4 -12.5q-104 0 -135 -28t-31 -117v-944z" />
<glyph unicode="&#xd0;" horiz-adv-x="1425" d="M606 1284q160 0 295 -48t227.5 -131t144.5 -197.5t52 -245.5q0 -150 -55.5 -277t-149.5 -212.5t-219.5 -133t-265.5 -47.5q-39 0 -153 6t-167 6q-49 0 -131.5 -2t-113.5 -2q-6 0 -6 12.5t6 12.5q106 0 137 26t31 115v448h-129q-9 0 -9 24t9 24h129v452q0 88 -30.5 114.5 t-135.5 26.5q-4 0 -4 12.5t4 12.5q31 0 112.5 -3t130.5 -3t151.5 5t139.5 5zM612 29q236 0 381.5 154.5t145.5 432.5q0 177 -61.5 320t-179.5 227t-273 84q-130 0 -178 -25.5t-48 -111.5v-448h279q9 0 9 -24t-9 -24h-279v-426q0 -87 43.5 -123t169.5 -36z" />
<glyph unicode="&#xd1;" horiz-adv-x="1492" d="M520 1427q-2 -2 -6 0.5t-7 7t-1 7.5q90 139 178 139q26 0 112.5 -25.5t137.5 -25.5q35 0 57 13t47 42q2 2 6.5 0.5t7.5 -6t1 -8.5q-56 -83 -90 -111t-76 -28q-40 0 -126.5 25.5t-137.5 25.5q-16 0 -29 -2.5t-24 -9.5t-16.5 -11.5t-17 -16zM1454 1280q4 0 4 -12.5 t-4 -12.5q-168 0 -168 -211v-1071q0 -5 -10 -6.5t-14 2.5l-961 1141v-874q0 -211 164 -211q5 0 5 -12.5t-5 -12.5q-26 0 -86.5 2t-97.5 2q-39 0 -107.5 -2t-97.5 -2q-4 0 -4 12.5t4 12.5q90 0 133 52t43 159v927q-92 92 -180 92q-4 0 -4 12.5t4 12.5q24 0 76 -2t73 -2 q38 0 90 2t62 2q13 0 22.5 -6.5t16 -16.5t23.5 -34.5t36 -48.5l766 -922v792q0 211 -162 211q-5 0 -5 12.5t5 12.5q25 0 87 -3t100 -3q36 0 101 3t91 3z" />
<glyph unicode="&#xd2;" horiz-adv-x="1568" d="M991 1389q-214 97 -454 159q-20 3 25 25q70 35 117 40q11 1 15 -1q31 -20 90 -62t111.5 -76.5t105.5 -62.5q6 -3 2.5 -14t-12.5 -8zM750 -25q-191 0 -341 91t-229.5 242t-79.5 331q0 129 43 239t115 187t165.5 131.5t195 80.5t202.5 26q146 0 270 -55t205.5 -146.5 t126.5 -208t45 -240.5q0 -140 -58 -266t-155 -216t-229 -143t-276 -53zM821 23q97 0 181 38t146.5 109t98 180.5t35.5 245.5q0 189 -66 338t-190.5 234t-288.5 85q-214 0 -332 -144t-118 -398q0 -193 67 -350t189.5 -247.5t277.5 -90.5z" />
<glyph unicode="&#xd3;" horiz-adv-x="1568" d="M592 1389q-6 -2 -10.5 3t-4 10.5t4.5 8.5q70 37 184.5 115.5t124.5 85.5q14 9 100 -25q67 -27 62 -36q-1 -2 -6 -3q-242 -63 -455 -159zM750 -25q-191 0 -341 91t-229.5 242t-79.5 331q0 129 43 239t115 187t165.5 131.5t195 80.5t202.5 26q146 0 270 -55t205.5 -146.5 t126.5 -208t45 -240.5q0 -140 -58 -266t-155 -216t-229 -143t-276 -53zM821 23q97 0 181 38t146.5 109t98 180.5t35.5 245.5q0 189 -66 338t-190.5 234t-288.5 85q-214 0 -332 -144t-118 -398q0 -193 67 -350t189.5 -247.5t277.5 -90.5z" />
<glyph unicode="&#xd4;" horiz-adv-x="1568" d="M557 1425l211 211q9 9 23.5 9t21.5 -9l211 -211q3 -2 2 -6t-5 -7t-7 -1l-221 102l-224 -102q-2 -1 -6 2t-6 6.5t0 5.5zM750 -25q-191 0 -341 91t-229.5 242t-79.5 331q0 129 43 239t115 187t165.5 131.5t195 80.5t202.5 26q146 0 270 -55t205.5 -146.5t126.5 -208 t45 -240.5q0 -140 -58 -266t-155 -216t-229 -143t-276 -53zM821 23q97 0 181 38t146.5 109t98 180.5t35.5 245.5q0 189 -66 338t-190.5 234t-288.5 85q-214 0 -332 -144t-118 -398q0 -193 67 -350t189.5 -247.5t277.5 -90.5z" />
<glyph unicode="&#xd5;" horiz-adv-x="1568" d="M950 1530q35 0 56 13t47 42q3 3 7.5 1t6.5 -6.5t0 -8.5q-54 -83 -88 -111t-76 -28q-40 0 -126.5 25.5t-137.5 25.5q-16 0 -29 -2.5t-23.5 -9.5t-16 -11.5t-17 -16l-16.5 -16.5q-3 -2 -8 0.5t-7 7t0 7.5q90 139 176 139q27 0 113.5 -25.5t138.5 -25.5zM750 -25 q-191 0 -341 91t-229.5 242t-79.5 331q0 129 43 239t115 187t165.5 131.5t195 80.5t202.5 26q146 0 270 -55t205.5 -146.5t126.5 -208t45 -240.5q0 -140 -58 -266t-155 -216t-229 -143t-276 -53zM821 23q97 0 181 38t146.5 109t98 180.5t35.5 245.5q0 189 -66 338 t-190.5 234t-288.5 85q-214 0 -332 -144t-118 -398q0 -193 67 -350t189.5 -247.5t277.5 -90.5z" />
<glyph unicode="&#xd6;" horiz-adv-x="1568" d="M610 1458q-43 0 -68.5 25t-25.5 69q0 41 25.5 64.5t68.5 23.5q44 0 69.5 -23.5t25.5 -64.5q0 -44 -25.5 -69t-69.5 -25zM969 1458q-44 0 -68 25t-24 69q0 42 24 65t68 23t68 -23t24 -65q0 -44 -24 -69t-68 -25zM750 -25q-191 0 -341 91t-229.5 242t-79.5 331 q0 129 43 239t115 187t165.5 131.5t195 80.5t202.5 26q146 0 270 -55t205.5 -146.5t126.5 -208t45 -240.5q0 -140 -58 -266t-155 -216t-229 -143t-276 -53zM821 23q97 0 181 38t146.5 109t98 180.5t35.5 245.5q0 189 -66 338t-190.5 234t-288.5 85q-214 0 -332 -144 t-118 -398q0 -193 67 -350t189.5 -247.5t277.5 -90.5z" />
<glyph unicode="&#xd7;" horiz-adv-x="792" d="M668 180q4 -4 -10 -20.5t-31.5 -30.5t-22.5 -10l-207 207l-209 -209q-4 -4 -21 10t-31 31t-11 20l211 211l-209 207q-4 4 10 21t30.5 31.5t20.5 10.5l209 -208l207 206q4 4 21.5 -10t32 -30.5t10.5 -20.5l-207 -207z" />
<glyph unicode="&#xd8;" horiz-adv-x="1591" d="M1284 1114q89 -90 136.5 -210.5t47.5 -250.5q0 -140 -58 -266t-155 -216t-229 -143t-276 -53q-254 0 -433 158l-147 -149q-3 -4 -12.5 2.5t-16.5 16.5t-2 15l146 148q-89 91 -137 213t-48 260q0 129 43 239t115 187t165.5 131.5t195 80.5t202.5 26q251 0 428 -156 l144 145q4 3 14.5 -2.5t17.5 -14t2 -13.5zM287 711q0 -251 108 -432l756 768q-72 98 -178 152t-236 54q-214 0 -332 -144t-118 -398zM821 23q97 0 181 38t146.5 109t98 180.5t35.5 245.5q0 242 -104 412l-756 -768q72 -103 174.5 -160t224.5 -57z" />
<glyph unicode="&#xd9;" horiz-adv-x="1558" d="M530 1548q-18 3 23 24q68 33 119 41q13 1 18 -1q27 -18 88.5 -62t113 -77.5t103.5 -61.5q4 -3 4.5 -8.5t-3.5 -10.5t-9 -3q-210 95 -457 159zM1487 25q6 0 6 -12.5t-6 -12.5q-27 0 -82 1t-88 1q-24 0 -60 -1t-57 -1q-25 0 -32 6.5t-7 32.5v154q-121 -114 -236.5 -166 t-250.5 -52q-200 0 -330.5 111t-130.5 295v733q0 88 -30.5 114.5t-135.5 26.5q-5 0 -5 12.5t5 12.5q31 0 113.5 -3t132.5 -3q53 0 136 3t112 3q6 0 6 -12.5t-6 -12.5q-104 0 -134 -28t-30 -117v-657q0 -199 97.5 -305.5t262.5 -106.5q110 0 210.5 46t213.5 151v872 q0 90 -29.5 117.5t-134.5 27.5q-6 0 -6 12.5t6 12.5q29 0 110 -3t132 -3q49 0 133.5 3t114.5 3q6 0 6 -12.5t-6 -12.5q-105 0 -136.5 -26.5t-31.5 -114.5v-948q0 -89 31 -115t137 -26z" />
<glyph unicode="&#xda;" horiz-adv-x="1558" d="M586 1389q-9 -3 -12.5 8t4.5 14q70 37 184.5 115.5t124.5 85.5q14 9 100 -26q65 -26 60 -35q0 -2 -5 -3q-244 -63 -456 -159zM1487 25q6 0 6 -12.5t-6 -12.5q-27 0 -82 1t-88 1q-24 0 -60 -1t-57 -1q-25 0 -32 6.5t-7 32.5v154q-121 -114 -236.5 -166t-250.5 -52 q-200 0 -330.5 111t-130.5 295v733q0 88 -30.5 114.5t-135.5 26.5q-5 0 -5 12.5t5 12.5q31 0 113.5 -3t132.5 -3q53 0 136 3t112 3q6 0 6 -12.5t-6 -12.5q-104 0 -134 -28t-30 -117v-657q0 -199 97.5 -305.5t262.5 -106.5q110 0 210.5 46t213.5 151v872q0 90 -29.5 117.5 t-134.5 27.5q-6 0 -6 12.5t6 12.5q29 0 110 -3t132 -3q49 0 133.5 3t114.5 3q6 0 6 -12.5t-6 -12.5q-105 0 -136.5 -26.5t-31.5 -114.5v-948q0 -89 31 -115t137 -26z" />
<glyph unicode="&#xdb;" horiz-adv-x="1558" d="M565 1411q-6 -2 -13 6q-4 6 1 8l211 211q9 9 22.5 9t22.5 -9l211 -211q7 -4 -1 -11q-6 -5 -11 -3l-220 102zM1487 25q6 0 6 -12.5t-6 -12.5q-27 0 -82 1t-88 1q-24 0 -60 -1t-57 -1q-25 0 -32 6.5t-7 32.5v154q-121 -114 -236.5 -166t-250.5 -52q-200 0 -330.5 111 t-130.5 295v733q0 88 -30.5 114.5t-135.5 26.5q-5 0 -5 12.5t5 12.5q31 0 113.5 -3t132.5 -3q53 0 136 3t112 3q6 0 6 -12.5t-6 -12.5q-104 0 -134 -28t-30 -117v-657q0 -199 97.5 -305.5t262.5 -106.5q110 0 210.5 46t213.5 151v872q0 90 -29.5 117.5t-134.5 27.5 q-6 0 -6 12.5t6 12.5q29 0 110 -3t132 -3q49 0 133.5 3t114.5 3q6 0 6 -12.5t-6 -12.5q-105 0 -136.5 -26.5t-31.5 -114.5v-948q0 -89 31 -115t137 -26z" />
<glyph unicode="&#xdc;" horiz-adv-x="1558" d="M606 1458q-43 0 -68.5 25t-25.5 69q0 41 25.5 64.5t68.5 23.5q44 0 68 -23t24 -65q0 -44 -24 -69t-68 -25zM965 1458q-44 0 -69.5 25t-25.5 69q0 41 25.5 64.5t69.5 23.5q43 0 67.5 -23.5t24.5 -64.5q0 -44 -24.5 -69t-67.5 -25zM1487 25q6 0 6 -12.5t-6 -12.5 q-27 0 -82 1t-88 1q-24 0 -60 -1t-57 -1q-25 0 -32 6.5t-7 32.5v154q-121 -114 -236.5 -166t-250.5 -52q-200 0 -330.5 111t-130.5 295v733q0 88 -30.5 114.5t-135.5 26.5q-5 0 -5 12.5t5 12.5q31 0 113.5 -3t132.5 -3q53 0 136 3t112 3q6 0 6 -12.5t-6 -12.5 q-104 0 -134 -28t-30 -117v-657q0 -199 97.5 -305.5t262.5 -106.5q110 0 210.5 46t213.5 151v872q0 90 -29.5 117.5t-134.5 27.5q-6 0 -6 12.5t6 12.5q29 0 110 -3t132 -3q49 0 133.5 3t114.5 3q6 0 6 -12.5t-6 -12.5q-105 0 -136.5 -26.5t-31.5 -114.5v-948q0 -89 31 -115 t137 -26z" />
<glyph unicode="&#xdd;" horiz-adv-x="1253" d="M455 1389q-5 -2 -9 3t-4 10.5t4 8.5q70 38 186.5 117t123.5 84q14 9 100 -26q66 -26 61 -35q-1 -2 -6 -3q-244 -63 -456 -159zM1262 1280q6 0 6 -12.5t-6 -12.5q-68 0 -148.5 -61.5t-144.5 -163.5l-254 -401v-463q0 -90 29 -115.5t135 -25.5q6 0 6 -12.5t-6 -12.5 q-30 0 -112.5 2t-135.5 2q-49 0 -133 -2t-115 -2q-5 0 -5 12.5t5 12.5q106 0 137 26t31 115v430l-326 483q-64 98 -115 137t-108 39q-4 0 -4 12.5t4 12.5q22 0 70 -3t69 -3q61 0 167 3t138 3q4 0 4 -12.5t-4 -12.5q-143 0 -75 -108l315 -469l229 362q63 100 46.5 157.5 t-109.5 57.5q-4 0 -4 12.5t4 12.5q36 0 113 -3t139 -3q35 0 82.5 3t75.5 3z" />
<glyph unicode="&#xde;" horiz-adv-x="1107" d="M573 301q118 0 199.5 89t81.5 257q0 163 -84.5 251.5t-226.5 88.5q-73 0 -137 -12v-801q0 -65 16 -94.5t63 -42t150 -12.5q5 0 5 -12.5t-5 -12.5q-41 0 -143.5 2t-165.5 2q-48 0 -129 -2t-109 -2q-6 0 -6 12.5t6 12.5q99 0 126.5 25.5t27.5 115.5v948q0 89 -27.5 115 t-126.5 26q-6 0 -6 12.5t6 12.5q28 0 109 -3t129 -3q63 0 165.5 3t143.5 3q5 0 5 -12.5t-5 -12.5q-103 0 -150 -12.5t-63 -42.5t-16 -96v-94q99 12 188 12q94 0 170.5 -18t138 -56t96.5 -104t37 -156q3 -104 -37 -187t-106.5 -131t-143 -73t-155.5 -25q-40 0 -100 11 q-4 1 -4.5 8t2.5 13t8 5q46 -8 73 -8z" />
<glyph unicode="&#xdf;" horiz-adv-x="1079" d="M735 -23q-98 0 -182 60q-12 9 -12 24l-6 197q0 6 11.5 7.5t12.5 -3.5q41 -112 104.5 -178t127.5 -66q53 0 82 45t24 111q-2 31 -15.5 63t-23.5 51t-42.5 55.5t-41.5 45.5l-51 51q-38 37 -55 54.5t-46.5 52.5t-43.5 60t-25.5 60.5t-11.5 71.5q0 49 19.5 96t47.5 86.5 t56 80.5t47.5 95.5t19.5 114.5q0 42 -9 82t-28.5 77.5t-56 60t-86.5 22.5q-117 0 -176.5 -141.5t-59.5 -399.5v-747q0 -90 22 -115.5t103 -25.5q6 0 6 -12.5t-6 -12.5q-34 0 -97 1t-97 1q-41 0 -111.5 -1t-95.5 -1q-6 0 -6 12.5t6 12.5q85 0 110 26t25 115l-2 752 q0 273 115 421t329 148q132 0 201.5 -58t69.5 -141q0 -55 -26 -104.5t-63 -87t-74 -73t-63 -79t-26 -88.5q0 -34 13.5 -68t46.5 -74t55 -63t71 -71q41 -41 60 -60.5t52.5 -59t49 -67t28.5 -65.5t13 -74q0 -105 -82.5 -191t-206.5 -86z" />
<glyph unicode="&#xe0;" horiz-adv-x="1003" d="M539 971l-222 518q-6 14 70 2q77 -12 80 -25l94 -491q1 -3 -4 -5.5t-11 -2.5t-7 4zM987 125q7 3 12.5 -9.5t-0.5 -15.5l-254 -118q-7 -5 -10 -5q-18 0 -34.5 44.5t-20.5 115.5q-152 -160 -309 -160q-128 0 -213.5 93.5t-85.5 259.5q0 112 42 206.5t109.5 154.5t149 93 t164.5 33q111 0 196 -59q36 16 68 51q1 4 9.5 1.5t8.5 -5.5v-584q0 -68 15.5 -96.5t52.5 -28.5q22 0 100 29zM451 57q106 0 229 115v424q0 78 -58.5 129t-138.5 51q-114 0 -184 -106.5t-70 -274.5q0 -153 60 -245.5t162 -92.5z" />
<glyph unicode="&#xe1;" horiz-adv-x="1003" d="M522 971q-1 -4 -7 -4t-11 2.5t-4 5.5l94 491q3 13 83 26q69 10 64 -3zM987 125q7 3 12.5 -9.5t-0.5 -15.5l-254 -118q-7 -5 -10 -5q-18 0 -34.5 44.5t-20.5 115.5q-152 -160 -309 -160q-128 0 -213.5 93.5t-85.5 259.5q0 112 42 206.5t109.5 154.5t149 93t164.5 33 q111 0 196 -59q36 16 68 51q1 4 9.5 1.5t8.5 -5.5v-584q0 -68 15.5 -96.5t52.5 -28.5q22 0 100 29zM451 57q106 0 229 115v424q0 78 -58.5 129t-138.5 51q-114 0 -184 -106.5t-70 -274.5q0 -153 60 -245.5t162 -92.5z" />
<glyph unicode="&#xe2;" horiz-adv-x="1003" d="M387 971q-1 -4 -6.5 -4t-10 2.5t-3.5 5.5l139 510q2 11 22 11t23 -11l139 -510q1 -3 -4 -5.5t-11 -2.5t-7 4l-140 301zM987 125q7 3 12.5 -9.5t-0.5 -15.5l-254 -118q-7 -5 -10 -5q-18 0 -34.5 44.5t-20.5 115.5q-152 -160 -309 -160q-128 0 -213.5 93.5t-85.5 259.5 q0 112 42 206.5t109.5 154.5t149 93t164.5 33q111 0 196 -59q36 16 68 51q1 4 9.5 1.5t8.5 -5.5v-584q0 -68 15.5 -96.5t52.5 -28.5q22 0 100 29zM451 57q106 0 229 115v424q0 78 -58.5 129t-138.5 51q-114 0 -184 -106.5t-70 -274.5q0 -153 60 -245.5t162 -92.5z" />
<glyph unicode="&#xe3;" horiz-adv-x="1003" d="M268 975q-5 -5 -13 6q-2 5 -1 8q88 141 174 141q29 0 115.5 -25.5t138.5 -25.5q24 0 43.5 8t30.5 17.5t30 30.5q2 2 6.5 0.5t7.5 -6.5t1 -9q-55 -84 -90 -112.5t-76 -28.5q-40 0 -126.5 25.5t-137.5 25.5q-27 0 -47.5 -9.5t-27 -15.5t-28.5 -30zM987 125q7 3 12.5 -9.5 t-0.5 -15.5l-254 -118q-7 -5 -10 -5q-18 0 -34.5 44.5t-20.5 115.5q-152 -160 -309 -160q-128 0 -213.5 93.5t-85.5 259.5q0 112 42 206.5t109.5 154.5t149 93t164.5 33q111 0 196 -59q36 16 68 51q1 4 9.5 1.5t8.5 -5.5v-584q0 -68 15.5 -96.5t52.5 -28.5q22 0 100 29z M451 57q106 0 229 115v424q0 78 -58.5 129t-138.5 51q-114 0 -184 -106.5t-70 -274.5q0 -153 60 -245.5t162 -92.5z" />
<glyph unicode="&#xe4;" horiz-adv-x="1003" d="M346 971q-43 0 -67.5 24t-24.5 68q0 41 24.5 65.5t67.5 24.5q45 0 69.5 -24t24.5 -66q0 -44 -24 -68t-70 -24zM707 971q-45 0 -70 24t-25 68q0 41 25.5 65.5t69.5 24.5q42 0 66 -24t24 -66q0 -44 -23.5 -68t-66.5 -24zM987 125q7 3 12.5 -9.5t-0.5 -15.5l-254 -118 q-7 -5 -10 -5q-18 0 -34.5 44.5t-20.5 115.5q-152 -160 -309 -160q-128 0 -213.5 93.5t-85.5 259.5q0 112 42 206.5t109.5 154.5t149 93t164.5 33q111 0 196 -59q36 16 68 51q1 4 9.5 1.5t8.5 -5.5v-584q0 -68 15.5 -96.5t52.5 -28.5q22 0 100 29zM451 57q106 0 229 115v424 q0 78 -58.5 129t-138.5 51q-114 0 -184 -106.5t-70 -274.5q0 -153 60 -245.5t162 -92.5z" />
<glyph unicode="&#xe5;" horiz-adv-x="1003" d="M510 958q-88 0 -140.5 47.5t-52.5 114.5q0 74 66 117t145 43t136 -48t57 -116q0 -71 -64.5 -114.5t-146.5 -43.5zM487 1255q-32 0 -45.5 -22t-13.5 -72q0 -68 31 -123t82 -55q36 0 51.5 22.5t15.5 73.5q0 71 -35.5 123.5t-85.5 52.5zM987 125q7 3 12.5 -9.5t-0.5 -15.5 l-254 -118q-7 -5 -10 -5q-18 0 -34.5 44.5t-20.5 115.5q-152 -160 -309 -160q-128 0 -213.5 93.5t-85.5 259.5q0 112 42 206.5t109.5 154.5t149 93t164.5 33q111 0 196 -59q36 16 68 51q1 4 9.5 1.5t8.5 -5.5v-584q0 -68 15.5 -96.5t52.5 -28.5q22 0 100 29zM451 57 q106 0 229 115v424q0 78 -58.5 129t-138.5 51q-114 0 -184 -106.5t-70 -274.5q0 -153 60 -245.5t162 -92.5z" />
<glyph unicode="&#xe6;" horiz-adv-x="1284" d="M1196 111q6 3 13 -6t1 -15q-65 -61 -130 -88t-144 -27q-107 0 -189 46.5t-122 140.5q-67 -84 -140 -136.5t-163 -52.5q-105 0 -177.5 82.5t-72.5 223.5q0 115 33.5 209t85 152.5t116.5 98.5t124.5 56t113.5 16q58 0 117 -19.5t100 -60.5q109 78 237 78q106 0 165 -54 t59 -149q0 -51 -25 -51l-450 -2q-9 -53 -9 -113q0 -198 67 -300.5t187 -102.5q123 0 203 74zM406 53q102 0 208 133q-24 67 -24 162q0 154 63 264q-31 86 -72 124t-104 38q-46 0 -89 -25.5t-79.5 -76t-58 -136t-21.5 -194.5q0 -133 49.5 -211t127.5 -78zM930 768 q-65 0 -110 -48t-66 -136l303 8q-1 83 -35.5 129.5t-91.5 46.5z" />
<glyph unicode="&#xe7;" horiz-adv-x="849" d="M475 -25h-10q-23 -83 -11.5 -110.5t78.5 -65.5q53 -33 83 -68t30 -89q0 -81 -55.5 -143t-167.5 -62q-63 0 -100 21.5t-37 64.5q0 26 19.5 45.5t45.5 19.5q30 0 47 -17t23 -37t23.5 -37t48.5 -17q61 0 61 67q0 54 -37.5 95.5t-136.5 97.5q-23 12 -25 21.5t11 39.5 q26 61 67 176q-91 7 -162 45t-113 95.5t-63.5 124t-21.5 137.5q0 99 41 182.5t107.5 136t146.5 82t161 29.5q95 0 170.5 -37t75.5 -96q0 -33 -22.5 -55.5t-61.5 -22.5q-67 0 -100 80q-24 48 -51.5 69t-81.5 21q-106 0 -167 -89.5t-61 -236.5q0 -80 19.5 -148t58.5 -122.5 t105.5 -85.5t154.5 -31q108 0 205 64q3 3 7.5 0t6.5 -8t0 -9q-73 -65 -147 -96t-164 -31z" />
<glyph unicode="&#xe8;" horiz-adv-x="841" d="M481 971l-219 518q-3 6 14 7q44 2 107 -16q26 -8 27 -14l94 -491q1 -3 -4.5 -5.5t-11.5 -2.5t-7 4zM758 123q3 2 7.5 -2t6.5 -9.5t0 -9.5q-135 -127 -307 -127q-93 0 -169 33t-124 88t-74 125.5t-26 147.5q0 187 128.5 313.5t319.5 126.5q116 0 179 -54t63 -149 q0 -53 -25 -53l-499 -2q-9 -47 -9 -100q0 -177 85.5 -285.5t234.5 -108.5q121 0 209 66zM449 768q-77 0 -130 -48.5t-75 -135.5l352 8q-2 84 -40 130t-107 46z" />
<glyph unicode="&#xe9;" horiz-adv-x="841" d="M465 971q-2 -8 -16 -2q-7 3 -5 6l93 491q3 13 81 25q72 12 68 -2zM758 123q3 2 7.5 -2t6.5 -9.5t0 -9.5q-135 -127 -307 -127q-93 0 -169 33t-124 88t-74 125.5t-26 147.5q0 187 128.5 313.5t319.5 126.5q116 0 179 -54t63 -149q0 -53 -25 -53l-499 -2q-9 -47 -9 -100 q0 -177 85.5 -285.5t234.5 -108.5q121 0 209 66zM449 768q-77 0 -130 -48.5t-75 -135.5l352 8q-2 84 -40 130t-107 46z" />
<glyph unicode="&#xea;" horiz-adv-x="841" d="M332 971q-2 -4 -8 -4t-11 2.5t-4 5.5l140 510q1 11 21.5 11t23.5 -11l139 -510q1 -3 -4 -5.5t-11 -2.5t-8 4l-137 301zM758 123q3 2 7.5 -2t6.5 -9.5t0 -9.5q-135 -127 -307 -127q-93 0 -169 33t-124 88t-74 125.5t-26 147.5q0 187 128.5 313.5t319.5 126.5 q116 0 179 -54t63 -149q0 -53 -25 -53l-499 -2q-9 -47 -9 -100q0 -177 85.5 -285.5t234.5 -108.5q121 0 209 66zM449 768q-77 0 -130 -48.5t-75 -135.5l352 8q-2 84 -40 130t-107 46z" />
<glyph unicode="&#xeb;" horiz-adv-x="841" d="M291 971q-43 0 -68.5 24t-25.5 68q0 41 25.5 65.5t68.5 24.5q44 0 68 -24t24 -66q0 -44 -24 -68t-68 -24zM649 971q-44 0 -69 24t-25 68q0 42 25 66t69 24q43 0 67.5 -24.5t24.5 -65.5q0 -44 -24.5 -68t-67.5 -24zM758 123q3 2 7.5 -2t6.5 -9.5t0 -9.5 q-135 -127 -307 -127q-93 0 -169 33t-124 88t-74 125.5t-26 147.5q0 187 128.5 313.5t319.5 126.5q116 0 179 -54t63 -149q0 -53 -25 -53l-499 -2q-9 -47 -9 -100q0 -177 85.5 -285.5t234.5 -108.5q121 0 209 66zM449 768q-77 0 -130 -48.5t-75 -135.5l352 8q-2 84 -40 130 t-107 46z" />
<glyph unicode="&#xec;" horiz-adv-x="552" d="M72 1489q-3 6 14 7q45 2 107 -17q25 -7 26 -13l94 -491q1 -3 -4 -5.5t-11 -2.5t-7 4zM100 0q-4 0 -4 12.5t4 12.5q74 0 98.5 28t24.5 113v377q0 73 -14.5 105t-50.5 32q-35 0 -88 -27q-7 -3 -12 9.5t1 15.5l279 129q4 2 6 2q8 0 15.5 -6.5t7.5 -11.5q0 -1 -2.5 -83 t-2.5 -161v-381q0 -85 24 -113t99 -28q6 0 6 -12.5t-6 -12.5q-23 0 -87.5 2t-104.5 2q-41 0 -106 -2t-87 -2z" />
<glyph unicode="&#xed;" horiz-adv-x="552" d="M274 971q-2 -8 -15 -2q-7 3 -5 6l92 491q3 13 83 25q73 12 67 -2zM100 0q-4 0 -4 12.5t4 12.5q74 0 98.5 28t24.5 113v377q0 73 -14.5 105t-50.5 32q-35 0 -88 -27q-7 -3 -12 9.5t1 15.5l279 129q4 2 6 2q8 0 15.5 -6.5t7.5 -11.5q0 -1 -2.5 -83t-2.5 -161v-381 q0 -85 24 -113t99 -28q6 0 6 -12.5t-6 -12.5q-23 0 -87.5 2t-104.5 2q-41 0 -106 -2t-87 -2z" />
<glyph unicode="&#xee;" horiz-adv-x="552" d="M442 975q1 -3 -3.5 -5.5t-10.5 -2.5t-8 4l-137 301l-142 -301q-2 -4 -8 -4t-10.5 2.5t-3.5 5.5l139 510q2 11 22 11t23 -11zM100 0q-4 0 -4 12.5t4 12.5q74 0 98.5 28t24.5 113v377q0 73 -14.5 105t-50.5 32q-35 0 -88 -27q-7 -3 -12 9.5t1 15.5l279 129q4 2 6 2 q8 0 15.5 -6.5t7.5 -11.5q0 -1 -2.5 -83t-2.5 -161v-381q0 -85 24 -113t99 -28q6 0 6 -12.5t-6 -12.5q-23 0 -87.5 2t-104.5 2q-41 0 -106 -2t-87 -2z" />
<glyph unicode="&#xef;" horiz-adv-x="552" d="M131 971q-45 0 -70.5 24t-25.5 68q0 41 26 65.5t70 24.5q42 0 66 -24t24 -66q0 -44 -23.5 -68t-66.5 -24zM428 971q-43 0 -68.5 24t-25.5 68q0 41 25.5 65.5t68.5 24.5q42 0 66 -24t24 -66q0 -44 -23.5 -68t-66.5 -24zM100 0q-4 0 -4 12.5t4 12.5q74 0 98.5 28t24.5 113 v377q0 73 -14.5 105t-50.5 32q-35 0 -88 -27q-7 -3 -12 9.5t1 15.5l279 129q4 2 6 2q8 0 15.5 -6.5t7.5 -11.5q0 -1 -2.5 -83t-2.5 -161v-381q0 -85 24 -113t99 -28q6 0 6 -12.5t-6 -12.5q-23 0 -87.5 2t-104.5 2q-41 0 -106 -2t-87 -2z" />
<glyph unicode="&#xf0;" horiz-adv-x="962" d="M625 1167q135 -154 208.5 -336.5t73.5 -365.5q0 -126 -35.5 -223t-98.5 -154.5t-142.5 -86t-173.5 -28.5q-181 0 -291.5 119.5t-110.5 288.5q0 86 27.5 159.5t72 123.5t102.5 85.5t117.5 51.5t117.5 16q111 0 200 -59q-57 192 -168 360l-268 -127q-6 -3 -13.5 9t-9 24.5 t4.5 17.5l256 123q-131 186 -310 301q-9 4 1 15q6 6 12 4q227 -105 389 -277l211 101q7 2 14.5 -10.5t9.5 -24.5t-4 -17zM514 14q113 0 173.5 85.5t60.5 291.5q0 97 -21 227q-43 75 -110 116.5t-146 41.5q-112 0 -185 -88.5t-73 -247.5q0 -178 84 -302t217 -124z" />
<glyph unicode="&#xf1;" horiz-adv-x="1064" d="M299 975q-5 -5 -13 6q-2 5 -1 8q93 141 176 141q27 0 114.5 -25.5t139.5 -25.5q34 0 55 13.5t47 42.5q4 6 12 -5q4 -5 2 -10q-54 -83 -89 -112t-76 -29q-40 0 -126 25.5t-137 25.5q-27 0 -47.5 -9t-28 -16t-28.5 -30zM1022 25q8 0 8 -12.5t-8 -12.5q-21 0 -86 2t-105 2 t-105 -2t-89 -2q-5 0 -5 12.5t5 12.5q75 0 100 28t25 113v319q0 120 -44 176t-138 56q-122 0 -230 -111v-440q0 -86 23.5 -113.5t97.5 -27.5q7 0 7 -12.5t-7 -12.5q-21 0 -85.5 2t-104.5 2t-105.5 -2t-89.5 -2q-4 0 -4 12.5t4 12.5q75 0 100 28t25 113v397q0 68 -16 98.5 t-54 30.5q-35 0 -108 -28q-5 -2 -9.5 3t-4.5 10.5t4 8.5l253 121q4 2 11 2q21 0 41.5 -45.5t21.5 -120.5q151 174 314 174q114 0 175.5 -66t61.5 -186v-399q0 -86 23.5 -113.5t97.5 -27.5z" />
<glyph unicode="&#xf2;" horiz-adv-x="989" d="M287 1489q-3 6 14 7q46 2 109 -17q25 -7 26 -13l92 -491q1 -3 -3.5 -5.5t-10 -2.5t-6.5 4zM479 -27q-122 0 -216 60.5t-142.5 158t-48.5 214.5q0 82 26.5 151t70.5 116t101.5 80.5t118.5 48.5t123 15q122 0 216.5 -61.5t142 -157t47.5 -203.5q0 -125 -60.5 -222.5 t-160 -148.5t-218.5 -51zM537 12q101 0 157 81t56 241q0 199 -87 320.5t-217 121.5q-102 0 -156 -77t-54 -228q0 -196 85.5 -327.5t215.5 -131.5z" />
<glyph unicode="&#xf3;" horiz-adv-x="989" d="M489 971q-1 -4 -6.5 -4t-10 2.5t-3.5 5.5l94 491q3 13 82 25q71 11 66 -2zM479 -27q-122 0 -216 60.5t-142.5 158t-48.5 214.5q0 82 26.5 151t70.5 116t101.5 80.5t118.5 48.5t123 15q122 0 216.5 -61.5t142 -157t47.5 -203.5q0 -125 -60.5 -222.5t-160 -148.5 t-218.5 -51zM537 12q101 0 157 81t56 241q0 199 -87 320.5t-217 121.5q-102 0 -156 -77t-54 -228q0 -196 85.5 -327.5t215.5 -131.5z" />
<glyph unicode="&#xf4;" horiz-adv-x="989" d="M657 975q3 -4 -6 -7q-12 -4 -14 3l-139 301l-142 -301q-1 -4 -7 -4t-11 2.5t-4 5.5l139 510q1 11 22 11t25 -11zM479 -27q-122 0 -216 60.5t-142.5 158t-48.5 214.5q0 82 26.5 151t70.5 116t101.5 80.5t118.5 48.5t123 15q122 0 216.5 -61.5t142 -157t47.5 -203.5 q0 -125 -60.5 -222.5t-160 -148.5t-218.5 -51zM537 12q101 0 157 81t56 241q0 199 -87 320.5t-217 121.5q-102 0 -156 -77t-54 -228q0 -196 85.5 -327.5t215.5 -131.5z" />
<glyph unicode="&#xf5;" horiz-adv-x="989" d="M651 1079q34 0 56 13.5t47 42.5q4 6 12 -5q4 -5 2 -10q-54 -83 -89 -112t-77 -29q-39 0 -125 25.5t-137 25.5q-12 0 -22 -1t-18.5 -4.5t-14 -6t-13.5 -9.5t-11 -9.5t-12.5 -12l-12.5 -12.5t-10.5 3.5t-4.5 10.5q93 141 176 141q27 0 114.5 -25.5t139.5 -25.5zM479 -27 q-122 0 -216 60.5t-142.5 158t-48.5 214.5q0 82 26.5 151t70.5 116t101.5 80.5t118.5 48.5t123 15q122 0 216.5 -61.5t142 -157t47.5 -203.5q0 -125 -60.5 -222.5t-160 -148.5t-218.5 -51zM537 12q101 0 157 81t56 241q0 199 -87 320.5t-217 121.5q-102 0 -156 -77t-54 -228 q0 -196 85.5 -327.5t215.5 -131.5z" />
<glyph unicode="&#xf6;" horiz-adv-x="989" d="M315 971q-43 0 -68.5 24t-25.5 68q0 41 25.5 65.5t68.5 24.5q44 0 69.5 -24.5t25.5 -65.5q0 -44 -25 -68t-70 -24zM676 971q-46 0 -70 24t-24 68q0 42 24.5 66t69.5 24q42 0 66 -24t24 -66q0 -44 -23.5 -68t-66.5 -24zM479 -27q-122 0 -216 60.5t-142.5 158t-48.5 214.5 q0 82 26.5 151t70.5 116t101.5 80.5t118.5 48.5t123 15q122 0 216.5 -61.5t142 -157t47.5 -203.5q0 -125 -60.5 -222.5t-160 -148.5t-218.5 -51zM537 12q101 0 157 81t56 241q0 199 -87 320.5t-217 121.5q-102 0 -156 -77t-54 -228q0 -196 85.5 -327.5t215.5 -131.5z" />
<glyph unicode="&#xf7;" horiz-adv-x="815" d="M406 612q-46 0 -73.5 27t-27.5 74q0 44 27.5 69t73.5 25q47 0 72.5 -24.5t25.5 -69.5q0 -48 -25.5 -74.5t-72.5 -26.5zM70 344q-6 0 -8 22t-0.5 44t6.5 22h677q9 0 9 -44t-9 -44h-675zM406 -23q-46 0 -73.5 27t-27.5 74q0 44 27.5 70t73.5 26q47 0 72.5 -25.5t25.5 -70.5 q0 -48 -25.5 -74.5t-72.5 -26.5z" />
<glyph unicode="&#xf8;" horiz-adv-x="976" d="M807 690q111 -123 111 -295q0 -125 -60.5 -222.5t-160 -148.5t-218.5 -51q-154 0 -270 101l-100 -105q-4 -4 -14 3t-17 17t-2 15l100 105q-104 119 -104 297q0 82 26.5 151t70.5 116t101.5 80.5t118.5 48.5t123 15q150 0 262 -94l92 94q3 4 13 -2t17.5 -15t2.5 -14z M236 471q0 -145 47 -254l397 410q-40 72 -101 110.5t-133 38.5q-102 0 -156 -77t-54 -228zM537 12q101 0 157 81t56 241q0 145 -48 250l-397 -412q41 -75 101 -117.5t131 -42.5z" />
<glyph unicode="&#xf9;" horiz-adv-x="1017" d="M512 971l-221 518q-6 14 68 2q78 -12 81 -25l92 -491q3 -4 -6 -7q-12 -4 -14 3zM1001 123q5 2 10 -3t5.5 -11t-2.5 -9l-254 -123q-6 -2 -10 -2q-11 0 -23.5 19.5t-22.5 62t-10 95.5q-151 -170 -313 -170q-106 0 -166.5 66.5t-60.5 187.5v307q0 77 -14 112t-46 35 q-20 0 -65 -20q-6 -2 -10.5 4t-5 12t2.5 8l244 113l8 2q7 0 16 -6.5t9 -11.5v-480q0 -231 172 -231q125 0 229 110v353q0 78 -14 112.5t-47 34.5q-18 0 -66 -20q-4 -2 -8 4t-4 12t4 8l242 113q4 2 8 2q7 0 16 -6.5t9 -11.5v-566q0 -71 15 -101t52 -30q31 0 100 29z" />
<glyph unicode="&#xfa;" horiz-adv-x="1017" d="M496 971q-2 -4 -8 -4t-11 2.5t-4 5.5l94 491q3 13 82 25q71 11 66 -2zM1001 123q5 2 10 -3t5.5 -11t-2.5 -9l-254 -123q-6 -2 -10 -2q-11 0 -23.5 19.5t-22.5 62t-10 95.5q-151 -170 -313 -170q-106 0 -166.5 66.5t-60.5 187.5v307q0 77 -14 112t-46 35q-20 0 -65 -20 q-6 -2 -10.5 4t-5 12t2.5 8l244 113l8 2q7 0 16 -6.5t9 -11.5v-480q0 -231 172 -231q125 0 229 110v353q0 78 -14 112.5t-47 34.5q-18 0 -66 -20q-4 -2 -8 4t-4 12t4 8l242 113q4 2 8 2q7 0 16 -6.5t9 -11.5v-566q0 -71 15 -101t52 -30q31 0 100 29z" />
<glyph unicode="&#xfb;" horiz-adv-x="1017" d="M360 971q-2 -8 -15 -2q-7 3 -5 6l137 510q3 11 23 11t24 -11l140 -510q1 -3 -4.5 -5.5t-11.5 -2.5t-7 4l-139 301zM1001 123q5 2 10 -3t5.5 -11t-2.5 -9l-254 -123q-6 -2 -10 -2q-11 0 -23.5 19.5t-22.5 62t-10 95.5q-151 -170 -313 -170q-106 0 -166.5 66.5t-60.5 187.5 v307q0 77 -14 112t-46 35q-20 0 -65 -20q-6 -2 -10.5 4t-5 12t2.5 8l244 113l8 2q7 0 16 -6.5t9 -11.5v-480q0 -231 172 -231q125 0 229 110v353q0 78 -14 112.5t-47 34.5q-18 0 -66 -20q-4 -2 -8 4t-4 12t4 8l242 113q4 2 8 2q7 0 16 -6.5t9 -11.5v-566q0 -71 15 -101 t52 -30q31 0 100 29z" />
<glyph unicode="&#xfc;" horiz-adv-x="1017" d="M319 971q-43 0 -67.5 24t-24.5 68q0 41 24.5 65.5t67.5 24.5q44 0 69.5 -24.5t25.5 -65.5q0 -44 -25 -68t-70 -24zM680 971q-46 0 -70 24t-24 68q0 42 24.5 66t69.5 24q42 0 66 -24t24 -66q0 -44 -23.5 -68t-66.5 -24zM1001 123q5 2 10 -3t5.5 -11t-2.5 -9l-254 -123 q-6 -2 -10 -2q-11 0 -23.5 19.5t-22.5 62t-10 95.5q-151 -170 -313 -170q-106 0 -166.5 66.5t-60.5 187.5v307q0 77 -14 112t-46 35q-20 0 -65 -20q-6 -2 -10.5 4t-5 12t2.5 8l244 113l8 2q7 0 16 -6.5t9 -11.5v-480q0 -231 172 -231q125 0 229 110v353q0 78 -14 112.5 t-47 34.5q-18 0 -66 -20q-4 -2 -8 4t-4 12t4 8l242 113q4 2 8 2q7 0 16 -6.5t9 -11.5v-566q0 -71 15 -101t52 -30q31 0 100 29z" />
<glyph unicode="&#xfd;" horiz-adv-x="1001" d="M526 971q-1 -4 -7 -4t-11 2.5t-4 5.5l94 491q3 13 83 26q69 10 64 -3zM831 809q5 0 15 -7t10 -11v-934q0 -195 -108 -313.5t-312 -118.5q-119 0 -200.5 43.5t-81.5 113.5q0 37 21.5 56.5t55.5 19.5q32 0 56.5 -19.5t43 -47.5t41 -56t62 -47.5t92.5 -19.5q33 0 58.5 7.5 t51 30t42 59t27 98t10.5 144.5v345q-148 -170 -322 -170q-105 0 -165 66.5t-60 187.5v307q0 79 -13 113t-46 34q-21 0 -66 -20q-5 -2 -9 4t-4 12t3 8l243 113q4 2 9 2q6 0 15 -7t9 -11v-480q0 -117 42 -173t128 -56q60 0 122.5 28.5t113.5 79.5v353q0 78 -14 112.5t-48 34.5 q-18 0 -63 -20q-5 -2 -9.5 4t-4.5 12t4 8l241 113q6 2 10 2z" />
<glyph unicode="&#xfe;" horiz-adv-x="1009" d="M621 817q131 0 224 -102t93 -275q0 -97 -28.5 -177.5t-74.5 -132.5t-105.5 -88.5t-118.5 -52.5t-117 -16q-113 0 -205 43v-413q0 -89 36.5 -115.5t161.5 -26.5q5 0 5 -12t-5 -12q-35 0 -125 2t-143 2q-40 0 -105.5 -2t-88.5 -2q-6 0 -6 12t6 12q78 0 101.5 27t23.5 115 v1616q0 74 -14 105.5t-50 31.5q-32 0 -88 -27q-5 -2 -10 4t-5.5 12t3.5 9l270 129q6 2 10 2q7 0 15 -7.5t8 -13.5v-811q164 164 332 164zM547 18q106 0 170.5 93.5t64.5 265.5q0 165 -75 257.5t-189 92.5q-66 0 -119 -28.5t-110 -84.5v-473q50 -59 111 -91t147 -32z" />
<glyph unicode="&#xff;" horiz-adv-x="1001" d="M350 971q-43 0 -67.5 24t-24.5 68q0 41 24.5 65.5t67.5 24.5q45 0 69.5 -24t24.5 -66q0 -44 -24 -68t-70 -24zM711 971q-45 0 -70 24t-25 68q0 41 25.5 65.5t69.5 24.5q42 0 66 -24t24 -66q0 -44 -23.5 -68t-66.5 -24zM831 809q5 0 15 -7t10 -11v-934q0 -195 -108 -313.5 t-312 -118.5q-119 0 -200.5 43.5t-81.5 113.5q0 37 21.5 56.5t55.5 19.5q32 0 56.5 -19.5t43 -47.5t41 -56t62 -47.5t92.5 -19.5q33 0 58.5 7.5t51 30t42 59t27 98t10.5 144.5v345q-148 -170 -322 -170q-105 0 -165 66.5t-60 187.5v307q0 79 -13 113t-46 34q-21 0 -66 -20 q-5 -2 -9 4t-4 12t3 8l243 113q4 2 9 2q6 0 15 -7t9 -11v-480q0 -117 42 -173t128 -56q60 0 122.5 28.5t113.5 79.5v353q0 78 -14 112.5t-48 34.5q-18 0 -63 -20q-5 -2 -9.5 4t-4.5 12t4 8l241 113q6 2 10 2z" />
<glyph unicode="&#x152;" horiz-adv-x="1884" d="M1761 309q1 6 13 5t12 -7q-21 -155 -21 -276q0 -18 -6 -24.5t-24 -6.5h-623q-45 0 -142 -4t-143 -4q-159 0 -295.5 48t-230.5 131.5t-147.5 198.5t-53.5 246q0 150 57.5 277t154.5 211.5t226.5 132t272.5 47.5q43 0 148 -2t155 -2h586q18 0 18 -18l4 -261q0 -5 -11 -5.5 t-11 5.5q-9 92 -78.5 162t-165.5 70h-117q-89 0 -119 -25t-30 -96v-422h225q105 0 154 36t49 112q0 4 12 4t12 -4q0 -46 -1 -98.5t-1 -73.5q0 -32 2.5 -95t2.5 -100q0 -6 -12.5 -6t-12.5 6q0 88 -50.5 130t-158.5 42h-221v-469q0 -73 28.5 -100t110.5 -27h146 q96 0 178.5 75.5t107.5 186.5zM1028 166v934q0 87 -37.5 118t-156.5 31q-244 0 -395.5 -155t-151.5 -432q0 -177 64 -321t187 -229t283 -85q123 0 165 26t42 113z" />
<glyph unicode="&#x153;" horiz-adv-x="1404" d="M1335 121q4 2 9.5 -2t7 -8.5t-1.5 -8.5q-133 -127 -291 -127q-112 0 -194 40.5t-128 111.5q-55 -73 -132.5 -113.5t-168.5 -40.5q-170 0 -279.5 127.5t-109.5 305.5q0 101 39.5 182.5t103 130t136.5 73.5t147 25q102 0 179.5 -47.5t121.5 -130.5q60 79 149.5 124.5 t192.5 45.5q108 0 167.5 -54t59.5 -149q0 -53 -22 -53l-483 -2q-13 -63 -13 -127q0 -170 84.5 -269.5t225.5 -99.5q120 0 200 66zM492 10q85 0 134.5 88t49.5 250q0 194 -74 312t-194 118q-95 0 -148 -80.5t-53 -232.5q0 -123 36.5 -227t102.5 -166t146 -62zM1047 768 q-75 0 -126 -48.5t-75 -135.5l332 8q-1 84 -37 130t-94 46z" />
<glyph unicode="&#x178;" horiz-adv-x="1253" d="M475 1458q-43 0 -68.5 25t-25.5 69q0 41 25.5 64.5t68.5 23.5q44 0 68 -23t24 -65q0 -44 -24 -69t-68 -25zM834 1458q-44 0 -68.5 25t-24.5 69q0 41 24.5 64.5t68.5 23.5q43 0 67.5 -23.5t24.5 -64.5q0 -44 -24.5 -69t-67.5 -25zM1262 1280q6 0 6 -12.5t-6 -12.5 q-68 0 -148.5 -61.5t-144.5 -163.5l-254 -401v-463q0 -90 29 -115.5t135 -25.5q6 0 6 -12.5t-6 -12.5q-30 0 -112.5 2t-135.5 2q-49 0 -133 -2t-115 -2q-5 0 -5 12.5t5 12.5q106 0 137 26t31 115v430l-326 483q-64 98 -115 137t-108 39q-4 0 -4 12.5t4 12.5q22 0 70 -3 t69 -3q61 0 167 3t138 3q4 0 4 -12.5t-4 -12.5q-143 0 -75 -108l315 -469l229 362q63 100 46.5 157.5t-109.5 57.5q-4 0 -4 12.5t4 12.5q36 0 113 -3t139 -3q35 0 82.5 3t75.5 3z" />
<glyph unicode="&#x2c6;" horiz-adv-x="536" d="M442 975q3 -5 -7 -7.5t-13 3.5l-139 301l-142 -301q-2 -4 -8 -4t-10.5 2.5t-3.5 5.5l139 510q2 11 22.5 11t24.5 -11z" />
<glyph unicode="&#x2dc;" horiz-adv-x="786" d="M551 1079q35 0 55.5 13t46.5 43q5 3 12 -4t3 -11q-54 -82 -88.5 -110.5t-75.5 -28.5q-42 0 -128 24.5t-136 24.5q-12 0 -21.5 -1t-19 -5t-14.5 -5.5t-14 -9t-10.5 -9l-12 -12l-11.5 -11.5q-3 -3 -7.5 -1t-6.5 6.5t0 8.5q94 139 174 139q29 0 115.5 -25.5t138.5 -25.5z " />
<glyph unicode="&#x2000;" horiz-adv-x="839" />
<glyph unicode="&#x2001;" horiz-adv-x="1679" />
<glyph unicode="&#x2002;" horiz-adv-x="839" />
<glyph unicode="&#x2003;" horiz-adv-x="1679" />
<glyph unicode="&#x2004;" horiz-adv-x="559" />
<glyph unicode="&#x2005;" horiz-adv-x="419" />
<glyph unicode="&#x2006;" horiz-adv-x="279" />
<glyph unicode="&#x2007;" horiz-adv-x="279" />
<glyph unicode="&#x2008;" horiz-adv-x="209" />
<glyph unicode="&#x2009;" horiz-adv-x="335" />
<glyph unicode="&#x200a;" horiz-adv-x="93" />
<glyph unicode="&#x2010;" horiz-adv-x="661" d="M66 334q-6 -1 -8.5 22.5t-1.5 48.5t5 27l535 94q6 1 8 -22.5t0 -48t-8 -25.5z" />
<glyph unicode="&#x2011;" horiz-adv-x="661" d="M66 334q-6 -1 -8.5 22.5t-1.5 48.5t5 27l535 94q6 1 8 -22.5t0 -48t-8 -25.5z" />
<glyph unicode="&#x2012;" horiz-adv-x="661" d="M66 334q-6 -1 -8.5 22.5t-1.5 48.5t5 27l535 94q6 1 8 -22.5t0 -48t-8 -25.5z" />
<glyph unicode="&#x2013;" horiz-adv-x="1054" d="M70 344q-6 0 -8 22t-0.5 44t6.5 22h917q9 0 9 -44t-9 -44h-915z" />
<glyph unicode="&#x2014;" horiz-adv-x="1699" d="M70 344q-6 0 -8 22t-0.5 44t6.5 22h1562q9 0 9 -44t-9 -44h-1560z" />
<glyph unicode="&#x2018;" horiz-adv-x="350" d="M197 1010q41 0 65.5 -25.5t24.5 -66.5q0 -93 -107 -93q-66 0 -102.5 48.5t-36.5 140.5q0 85 39 157.5t115 145.5q6 6 13.5 -1t2.5 -13q-100 -103 -100 -242q0 -55 18 -82q19 31 68 31z" />
<glyph unicode="&#x2019;" horiz-adv-x="327" d="M147 1290q66 0 103 -48t37 -140q0 -85 -38.5 -157.5t-115.5 -147.5q-10 -6 -17 5q-3 6 1 9q100 106 100 244q0 53 -18 82q-19 -31 -68 -31q-41 0 -66.5 25.5t-25.5 66.5q0 92 108 92z" />
<glyph unicode="&#x201a;" horiz-adv-x="327" d="M147 168q66 0 103 -49.5t37 -141.5q0 -85 -38.5 -156.5t-115.5 -146.5q-5 -4 -10.5 -1.5t-7 7.5t1.5 9q100 103 100 241q0 57 -20 84q-18 -30 -66 -30q-41 0 -66.5 24.5t-25.5 65.5q0 94 108 94z" />
<glyph unicode="&#x201c;" horiz-adv-x="645" d="M197 1010q41 0 66.5 -25.5t25.5 -66.5q0 -93 -109 -93q-66 0 -102.5 48.5t-36.5 140.5q0 85 39 157.5t115 145.5q5 4 10.5 2t7 -7t-1.5 -9q-100 -103 -100 -242q0 -55 20 -82q19 31 66 31zM514 1010q41 0 65.5 -25.5t24.5 -66.5q0 -93 -106 -93q-67 0 -103.5 48 t-36.5 141q0 85 39 157.5t115 145.5q6 6 13.5 -1t2.5 -13q-100 -103 -100 -242q0 -55 18 -82q19 31 68 31z" />
<glyph unicode="&#x201d;" horiz-adv-x="645" d="M150 1290q65 0 101 -48t36 -140q0 -85 -38.5 -157.5t-115.5 -147.5q-4 -3 -9 -0.5t-7 7t0 7.5q100 106 100 244q0 56 -18 80q-19 -29 -68 -29q-41 0 -65.5 25.5t-24.5 66.5q0 92 109 92zM465 1290q66 0 102.5 -48t36.5 -140q0 -85 -38.5 -157.5t-114.5 -147.5 q-9 -6 -17 4q-5 6 0 10q101 107 101 244q0 52 -19 82q-19 -31 -67 -31q-41 0 -67 25.5t-26 66.5q0 92 109 92z" />
<glyph unicode="&#x201e;" horiz-adv-x="655" d="M147 168q66 0 103 -49.5t37 -141.5q0 -85 -38.5 -156.5t-115.5 -146.5q-5 -4 -10.5 -1.5t-7 7.5t1.5 9q100 103 100 241q0 57 -20 84q-18 -30 -66 -30q-41 0 -66.5 24.5t-25.5 65.5q0 94 108 94zM465 168q65 0 102 -49t37 -142q0 -85 -38 -156.5t-115 -146.5 q-6 -6 -14 1.5t-3 13.5q101 104 101 241q0 57 -19 82q-19 -28 -67 -28q-41 0 -66 24.5t-25 65.5q0 94 107 94z" />
<glyph unicode="&#x2022;" horiz-adv-x="636" d="M319 295q-88 0 -150.5 62t-62.5 151q0 86 62.5 148.5t150.5 62.5q87 0 149 -62t62 -149q0 -89 -61.5 -151t-149.5 -62z" />
<glyph unicode="&#x2026;" horiz-adv-x="1370" d="M209 -23q-47 0 -73.5 27t-26.5 76q0 43 26.5 67.5t73.5 24.5q46 0 72 -24.5t26 -67.5q0 -49 -26 -76t-72 -27zM688 -23q-47 0 -73.5 27t-26.5 76q0 43 26.5 67.5t73.5 24.5q46 0 72 -24.5t26 -67.5q0 -49 -26 -76t-72 -27zM1167 -23q-48 0 -75 27t-27 76q0 43 27.5 67.5 t74.5 24.5q46 0 72.5 -24.5t26.5 -67.5q0 -49 -26.5 -76t-72.5 -27z" />
<glyph unicode="&#x202f;" horiz-adv-x="335" />
<glyph unicode="&#x2039;" horiz-adv-x="622" d="M487 82l-370 305q-9 9 -9 23.5t9 23.5l370 305q2 3 6.5 2t7.5 -5t1 -7l-232 -317l232 -318q2 -7 -7 -13q-6 -3 -8 1z" />
<glyph unicode="&#x203a;" horiz-adv-x="622" d="M135 739l371 -305q9 -9 9 -23.5t-9 -23.5l-371 -305q-4 -7 -11 1q-5 6 -3 11l231 316l-231 319q-2 5 6 11q6 4 8 -1z" />
<glyph unicode="&#x205f;" horiz-adv-x="419" />
<glyph unicode="&#x20ac;" horiz-adv-x="1427" d="M147 684q-15 0 -15 24.5t15 24.5h76q18 129 84 237.5t163.5 180.5t217.5 112t248 40q99 0 194 -25t158 -66q40 -30 29 -49l-98 -225q-2 -3 -6.5 -3t-9.5 3t-5 8q21 151 -70 231t-260 80q-210 0 -335 -142.5t-134 -381.5h723q15 0 4 -25q-11 -23 -24 -24h-955zM1305 334 q3 7 13.5 5.5t10.5 -7.5l-31 -230q-3 -25 -8 -32t-22 -15q-187 -80 -389 -80q-119 0 -220.5 31t-173.5 82.5t-126.5 121.5t-86 146.5t-45.5 159.5h-80q-15 0 -15 24.5t15 24.5h910q13 0 3 -24q-11 -25 -26 -25h-616q43 -221 176 -364.5t303 -143.5q276 0 408 326z" />
<glyph unicode="&#x2122;" horiz-adv-x="1484" d="M582 1311q2 5 13 5t11 -5q-8 -172 -8 -187q0 -4 -11.5 -4t-11.5 4q0 68 -27 98.5t-83 30.5q-44 0 -57 -14t-13 -57v-379q0 -45 17 -59.5t77 -14.5q5 0 5 -12t-5 -12q-18 0 -69 1t-84 1q-29 0 -80 -1t-70 -1q-4 0 -4 12t4 12q58 0 76.5 14.5t18.5 59.5v381q0 44 -13 56.5 t-57 12.5q-59 0 -89.5 -29.5t-37.5 -99.5q0 -4 -12.5 -4t-12.5 4q13 72 13 181q0 6 12 6.5t12 -6.5q0 -23 56 -23q23 0 85.5 -1t98.5 -1q43 0 95 1t69 1q41 0 59.5 5t22.5 24zM1421 729q3 0 3 -12t-3 -12q-17 0 -63 1t-72 1q-32 0 -78.5 -1t-62.5 -1q-5 0 -5 12t5 12 q58 0 75.5 14.5t14.5 59.5l-12 360l-197 -448q-3 -7 -15.5 -7t-15.5 7l-219 424l-10 -308q-3 -54 13.5 -78t54.5 -24q3 0 3 -12t-3 -12q-12 0 -43 1t-52 1q-17 0 -53.5 -1t-50.5 -1q-3 0 -3 12t3 12q89 0 92 102l12 373q-39 51 -92 51q-5 0 -5 12.5t5 12.5q9 0 36 -2t34 -2 q13 0 39.5 2t29.5 2q18 0 31.5 -12.5t34.5 -50.5l190 -379l179 409q4 15 14.5 24t21.5 9q3 0 26 -2t40 -2q22 0 50 2t40 2q5 0 5 -12.5t-5 -12.5q-48 0 -68.5 -16.5t-19.5 -67.5l12 -368q2 -45 17.5 -59.5t66.5 -14.5z" />
<glyph unicode="&#x25fc;" horiz-adv-x="788" d="M0 788h788v-788h-788v788z" />
</font>
</defs>
</svg>
