<?xml version="1.0" standalone="no"?>
<!DOCTYPE svg PUBLIC "-//W3C//DTD SVG 1.1//EN" "http://www.w3.org/Graphics/SVG/1.1/DTD/svg11.dtd" >
<svg xmlns="http://www.w3.org/2000/svg" xmlns:xlink="http://www.w3.org/1999/xlink" version="1.1">
<metadata></metadata>
<defs>
<font id="cormorant_uprightsemibold" horiz-adv-x="1503" >
<font-face units-per-em="2048" ascent="1638" descent="-410" />
<missing-glyph horiz-adv-x="479" />
<glyph unicode="&#xfb01;" horiz-adv-x="1046" d="M1032 158q4 4 10 2t11 -8t2 -11q-64 -83 -113.5 -121t-110.5 -38q-129 0 -129 188l3 428q1 31 -3 50.5t-20 36t-39 24.5t-70.5 14t-105 7.5t-150.5 2.5l25 -776q7 -199 -15 -311t-78 -160.5t-157 -48.5q-91 0 -145 30.5t-56 75.5q-3 35 20 55.5t60 20.5q43 0 69 -22.5 t34.5 -49t25 -49t41.5 -22.5q12 0 19.5 6t13 25.5t7.5 47t2.5 79.5t-1 113t-4.5 157l-24 723q-3 75 -26.5 92.5t-113.5 17.5q-5 0 -7.5 7.5t-1 14.5t6.5 7q76 0 105.5 19t29.5 71q1 331 111 481t320 150q114 0 184.5 -39t73.5 -98q1 -37 -22.5 -57.5t-61.5 -20.5 q-37 0 -65 18t-45 44t-33.5 52t-41 44t-57.5 18q-103 0 -154.5 -139.5t-42.5 -409.5l4 -125q172 1 335 9t184 8q25 0 29.5 -11t3.5 -57q-1 -26 -1.5 -43t0.5 -59l-2 -439q0 -104 52 -104q41 0 114 80z" />
<glyph unicode="&#xfb02;" horiz-adv-x="1118" d="M1075 156q7 7 17.5 0t7.5 -15q-66 -84 -115.5 -121.5t-110.5 -37.5q-68 0 -98.5 47t-30.5 141l11 1104q-39 80 -98.5 127t-125.5 47q-234 0 -219 -549l4 -125q41 2 115.5 7.5t99.5 6.5q11 0 17 -6.5t6 -15.5q-2 -21 -21.5 -47t-41.5 -23q-15 2 -48.5 7t-64.5 8.5t-60 5.5 l23 -760q7 -199 -15 -311t-78 -160.5t-157 -48.5q-91 0 -146 31t-55 75q-3 35 20 55.5t60 20.5q43 0 69 -22.5t34.5 -49t25 -49t41.5 -22.5q12 0 19.5 6t13 25.5t7.5 47t2.5 79.5t-1 113t-4.5 157l-24 723q-3 75 -26 92.5t-114 17.5q-5 0 -7.5 7.5t-1 14.5t6.5 7 q76 0 105.5 19t29.5 71q-2 329 100 480t333 151q154 0 245 -53q61 33 64 92q0 5 6.5 6.5t13 -0.5t6.5 -8l-6 -1342q0 -104 54 -104q23 0 49 19.5t63 58.5z" />
<glyph unicode="&#xfb03;" horiz-adv-x="1636" d="M1622 158q4 4 10 2t11 -8t2 -11q-64 -83 -113.5 -121t-110.5 -38q-129 0 -129 188l2 428q1 32 -3 51t-19.5 35.5t-39 24.5t-70.5 14t-104.5 7.5t-150.5 2.5l25 -776q7 -199 -15 -311t-78 -160.5t-157 -48.5q-91 0 -145 30.5t-56 75.5q-3 35 20 55.5t60 20.5 q43 0 69 -22.5t34.5 -49t25 -49t41.5 -22.5q12 0 19.5 6t13 25.5t7.5 47t2.5 79.5t-1 113t-4.5 157l-25 723q-3 51 -24 68t-82 22q-126 8 -318 8l23 -768q7 -199 -15 -311t-78 -160.5t-157 -48.5q-91 0 -145 30.5t-56 75.5q-4 35 19.5 55.5t60.5 20.5q43 0 69 -22.5 t34.5 -49t25 -49t41.5 -22.5q12 0 19.5 6t13 25.5t7.5 47t2.5 79.5t-1 113t-4.5 157l-24 723q-3 75 -27 92.5t-113 17.5q-6 0 -8 7.5t-0.5 14.5t6.5 7q76 0 105 19t30 71q6 250 111.5 382t306.5 132q141 0 271 -53q106 170 331 170q114 0 184.5 -39t73.5 -98 q1 -37 -22.5 -57.5t-61.5 -20.5q-37 0 -64.5 18t-45 44t-33.5 52t-40.5 44t-57.5 18q-103 0 -154.5 -139.5t-42.5 -409.5l4 -125q172 1 334.5 9t183.5 8q18 0 24.5 -4.5t8.5 -20t0 -45.5q-1 -57 0 -100l-2 -439q0 -104 51 -104q42 0 115 80zM313 899l4 -129q232 0 293 2 q71 3 99 22t28 62q0 167 31 291q-109 184 -250 184q-211 0 -205 -432z" />
<glyph unicode="&#xfb04;" horiz-adv-x="1705" d="M1665 156q7 7 17.5 0t7.5 -15q-66 -84 -115.5 -121.5t-110.5 -37.5q-68 0 -98.5 47t-30.5 141l11 1104q-39 80 -98.5 127t-125.5 47q-234 0 -219 -549l4 -125q41 2 115.5 7.5t99.5 6.5q11 0 17 -6.5t6 -15.5q-2 -21 -22 -47t-42 -23q-15 2 -48.5 7t-64 8.5t-59.5 5.5 l23 -760q7 -199 -15 -311t-78 -160.5t-157 -48.5q-91 0 -146 31t-55 75q-3 35 20 55.5t60 20.5q43 0 69 -22.5t34.5 -49t25 -49t41.5 -22.5q12 0 19.5 6t13 25.5t7.5 47t2.5 79.5t-1 113t-4.5 157l-25 723q-3 51 -24 68t-82 22q-126 8 -318 8l23 -768q7 -199 -15 -311 t-78 -160.5t-157 -48.5q-91 0 -145 30.5t-56 75.5q-4 35 19.5 55.5t60.5 20.5q43 0 69 -22.5t34.5 -49t25 -49t41.5 -22.5q12 0 19.5 6t13 25.5t7.5 47t2.5 79.5t-1 113t-4.5 157l-24 723q-3 75 -27 92.5t-113 17.5q-6 0 -8 7.5t-0.5 14.5t6.5 7q76 0 105 19t30 71 q6 250 111.5 382t306.5 132q134 0 262 -49q100 166 342 166q155 0 246 -53q61 33 64 92q0 5 6.5 6.5t13 -0.5t6.5 -8l-6 -1342q0 -104 53 -104q38 0 113 78zM313 899l4 -129q232 0 293 2q71 3 99 22t28 62q0 174 27 297q-109 178 -246 178q-211 0 -205 -432z" />
<glyph horiz-adv-x="0" />
<glyph horiz-adv-x="682" />
<glyph horiz-adv-x="0" />
<glyph horiz-adv-x="0" />
<glyph unicode="&#xd;" horiz-adv-x="479" />
<glyph unicode=" "  horiz-adv-x="479" />
<glyph unicode="&#x09;" horiz-adv-x="479" />
<glyph unicode="&#xa0;" horiz-adv-x="479" />
<glyph unicode="!" horiz-adv-x="528" d="M137 1264q-4 11 38 17.5t89 6.5q46 0 88.5 -6.5t38.5 -17.5q-30 -121 -53 -299t-30 -272.5t-21 -305.5q0 -9 -28 -9t-28 9q-9 182 -17 298.5t-28.5 287t-48.5 291.5zM252 -23q-51 0 -82 30.5t-31 82.5q0 49 31 78t82 29q53 0 81.5 -28.5t28.5 -78.5q0 -53 -28.5 -83 t-81.5 -30z" />
<glyph unicode="&#x22;" horiz-adv-x="581" d="M113 748l-50 495q-1 26 78 51q79 24 113 14q12 -3 10 -12l-121 -546q-2 -3 -9.5 -5t-14 -1.5t-6.5 4.5zM393 748l-49 495q-1 26 78 51q79 24 113 14q12 -3 10 -12l-121 -546q-2 -3 -9.5 -5t-14.5 -1.5t-7 4.5z" />
<glyph unicode="#" horiz-adv-x="1077" d="M948 651q9 0 9 -45t-9 -45h-135l-55 -315h119q9 0 9 -46t-9 -46h-136l-57 -322q-4 -5 -25.5 -4t-46 7t-22.5 11l55 308h-287l-57 -322q-4 -5 -25.5 -4t-46 7t-22.5 11l55 308h-133q-6 0 -8 23t-0.5 46t6.5 23h152l55 315h-133q-6 0 -8 22.5t-0.5 45t6.5 22.5h151l60 336 q3 5 24 3t45 -9.5t23 -13.5l-56 -316h287l60 336q3 5 24 3t45 -9.5t23 -13.5l-56 -316h119zM662 246l55 315h-287l-55 -315h287z" />
<glyph unicode="$" horiz-adv-x="856" d="M784 262q0 -113 -86 -192.5t-225 -92.5v-186q0 -13 -27.5 -13t-27.5 13v184q-86 1 -164.5 22t-116.5 52q-16 8 -16 43l-15 221q-1 9 9.5 10.5t15.5 -6.5q48 -109 122.5 -193t164.5 -101v403l-49 27q-49 26 -74.5 40.5t-64.5 43t-58.5 53t-35 60.5t-15.5 77 q0 108 85 175.5t212 78.5v168q0 15 27.5 15t27.5 -15v-166q125 -3 225 -47q28 -11 31 -39l4 -188q0 -7 -10.5 -10t-13.5 3q-7 23 -25 55t-46.5 70t-72 69t-92.5 42v-365q7 -3 21.5 -10t21.5 -10q40 -21 57 -30t52.5 -30t52 -35t41 -37.5t36 -45.5t20.5 -51.5t9 -61.5z M270 799q0 -63 39 -109.5t109 -85.5v338q-72 -3 -110 -42.5t-38 -100.5zM473 18q65 5 107.5 43.5t42.5 114.5q0 70 -39.5 121t-110.5 96v-375z" />
<glyph unicode="%" horiz-adv-x="1175" d="M307 621q-115 0 -189.5 76.5t-74.5 189.5q0 109 75 184.5t189 75.5t187 -77t73 -189q0 -110 -73.5 -185t-186.5 -75zM223 -14q-2 -4 -17.5 4t-29 18.5t-10.5 14.5l758 1114q4 4 19.5 -4.5t28.5 -20t11 -14.5zM322 649q56 0 75 55t19 162q0 124 -31 188t-90 64 q-31 0 -52 -17t-31.5 -50t-14.5 -70t-4 -88q0 -244 129 -244zM874 -10q-114 0 -189 77t-75 189q0 109 75 185.5t189 76.5q113 0 187 -77.5t74 -188.5t-74 -186.5t-187 -75.5zM889 20q30 0 49 15.5t28.5 47.5t13 67.5t3.5 87.5q0 122 -31 185.5t-90 63.5q-30 0 -50.5 -17 t-31 -50t-14.5 -69.5t-4 -86.5q0 -244 127 -244z" />
<glyph unicode="&#x26;" horiz-adv-x="1574" d="M1509 805q66 0 66 -76q0 -86 -72 -163t-162 -77q-58 0 -141 39q-42 -268 -192 -410.5t-367 -142.5q-100 0 -188 33t-149.5 90t-104 133t-51.5 161.5t8 176.5q35 167 167 275t295 108q102 0 173 -43q106 128 106 211q0 32 -11 53t-26.5 32l-31 22t-26.5 29.5t-11 46.5 q0 41 25 66.5t65 25.5q55 0 84.5 -45.5t29.5 -118.5q0 -43 -11.5 -87.5t-28.5 -83.5t-48.5 -83.5t-60.5 -79.5t-75 -79t-81 -75.5t-91 -76.5t-92 -73t-96.5 -74.5t-93.5 -72.5q27 -166 139.5 -265t258.5 -99q169 0 291.5 123.5t152.5 341.5q-15 8 -56 29.5t-61 31.5 t-52.5 23.5t-58.5 19.5t-50 6q-66 0 -66 -43q0 -22 22.5 -55t22.5 -55q0 -23 -15 -41.5t-46 -18.5q-29 0 -48.5 18t-19.5 58q0 88 84 164t182 76q49 0 114.5 -24.5t118 -54.5t112 -54.5t98.5 -24.5q61 0 61 39q0 15 -28.5 47.5t-28.5 61.5q0 25 16.5 40t48.5 15zM319 635 q-12 -76 -6 -143q24 19 79.5 63.5t90.5 72.5t83.5 69t86.5 75q-46 121 -143 121q-72 0 -121.5 -73t-69.5 -185z" />
<glyph unicode="'" horiz-adv-x="301" d="M113 748l-50 495q-1 26 78 51q79 24 113 14q12 -3 10 -12l-121 -546q-2 -3 -9.5 -5t-14 -1.5t-6.5 4.5z" />
<glyph unicode="(" horiz-adv-x="632" d="M104 623q0 291 120.5 522t336.5 340q3 2 7.5 -3t0.5 -9q-264 -280 -264 -850t264 -850q4 -3 -0.5 -9t-7.5 -4q-216 111 -336.5 342t-120.5 521z" />
<glyph unicode=")" horiz-adv-x="632" d="M528 623q0 -291 -120 -522.5t-336 -340.5q-3 -2 -8 3.5t-1 9.5q265 281 265 850t-265 850q-3 2 -1.5 5t5 5.5t5.5 1.5q216 -111 336 -341.5t120 -520.5z" />
<glyph unicode="*" horiz-adv-x="917" d="M463 1083l-35 263q-3 26 96 51q88 21 112 12q4 -2 3 -6l-156 -320q-1 -6 -10.5 -6t-9.5 6zM418 1047l-262 49q-27 5 -17 114q7 88 22 103q3 2 5 0l258 -248q3 -3 2.5 -7t-3 -8t-5.5 -3zM868 983l-356 49q-5 0 -6.5 9t2.5 10l237 114q18 7 53.5 -39t58.5 -95t11 -48z M311 762q-13 -24 -114 19q-78 33 -89 52q-2 3 1 5l313 168q4 4 12 -1.5t6 -11.5zM541 637l-66 348q-1 4 7.5 10.5t11.5 3.5l182 -194q18 -19 -51 -99q-53 -63 -77 -71q-6 -2 -7 2z" />
<glyph unicode="+" horiz-adv-x="815" d="M745 434q9 0 9 -46t-9 -46h-290v-291q0 -6 -23.5 -8.5t-47.5 -1t-24 5.5v295h-290q-6 0 -8 23t-0.5 46t6.5 23h292v291q0 9 47.5 9t47.5 -9v-291h290z" />
<glyph unicode="," horiz-adv-x="454" d="M207 193q68 0 106.5 -52t38.5 -149q0 -90 -39.5 -166t-117.5 -152q-5 -4 -11 -1.5t-7.5 7.5t1.5 9q101 104 101 241q0 56 -21 84q-18 -30 -72 -30q-44 0 -71 28t-27 74q0 52 31.5 79.5t87.5 27.5z" />
<glyph unicode="-" horiz-adv-x="661" d="M66 328q-6 -1 -8.5 24t-1.5 51.5t5 28.5l535 94q6 1 8 -24t0 -51t-8 -27z" />
<glyph unicode="." horiz-adv-x="417" d="M211 -23q-51 0 -82 30.5t-31 82.5q0 49 31 78t82 29q53 0 82 -28.5t29 -78.5q0 -53 -29 -83t-82 -30z" />
<glyph unicode="/" horiz-adv-x="712" d="M145 -336q-4 -9 -49 4t-43 21l516 1806q4 9 48 -4.5t42 -22.5z" />
<glyph unicode="0" horiz-adv-x="976" d="M492 -27q-189 0 -311 120.5t-122 305.5q0 184 121.5 301t311.5 117q188 0 307 -118.5t119 -303.5t-119.5 -303.5t-306.5 -118.5zM512 12q105 0 158 94t53 263q0 205 -71.5 307t-178.5 102q-104 0 -162.5 -97t-58.5 -261q0 -181 71 -294.5t189 -113.5z" />
<glyph unicode="1" horiz-adv-x="679" d="M94 0q-6 0 -6 12.5t6 12.5q119 0 154 26t35 115v366q0 57 -6.5 85.5t-29 38.5t-58 0t-101.5 -38q-5 -2 -9.5 3t-4.5 11t4 9l352 168q7 4 14 -1.5t7 -12.5v-629q0 -48 5.5 -73t26 -41.5t54.5 -21.5t98 -5q6 0 6 -12.5t-6 -12.5q-33 0 -123.5 2t-146.5 2q-55 0 -146 -2 t-125 -2z" />
<glyph unicode="2" horiz-adv-x="823" d="M76 47q261 230 344.5 329.5t83.5 194.5q0 79 -43 134t-117 55q-79 0 -130.5 -66.5t-94.5 -199.5q-2 -7 -19 -1q-6 3 -6 5l86 338q2 8 17 2q8 -4 6 -7q-11 -57 28 -57q13 0 84.5 21.5t135.5 21.5q110 0 172.5 -54t62.5 -142q0 -33 -10.5 -66.5t-25.5 -61.5t-43.5 -60.5 t-52 -56t-63.5 -56.5t-66.5 -53.5t-73 -55t-70.5 -53.5q-7 -6 -4 -10.5t12 -4.5h90t76.5 1t68 2.5t56 4.5t48.5 7t37 10.5t31.5 14.5t22.5 18.5t18.5 24t10.5 30.5q2 6 13 4.5t11 -6.5l-39 -231q0 -8 -5.5 -15.5t-12.5 -7.5h-627q-9 0 -15 19t3 28z" />
<glyph unicode="3" horiz-adv-x="802" d="M449 268q142 -21 213 -102t71 -189q0 -153 -157.5 -302t-460.5 -238q-5 -1 -9.5 4t-5 10t3.5 8q98 36 174.5 85t124 99t79 106.5t43.5 105.5t12 98q0 117 -60.5 190.5t-169.5 73.5q-41 0 -88 -12q-4 -1 -7.5 5t-3.5 11.5t3 7.5q148 38 214.5 113.5t66.5 206.5 q0 102 -35.5 158.5t-106.5 56.5q-179 0 -264 -236q-3 -3 -9 -3t-11.5 3t-4.5 7l76 299q3 4 9 4t11.5 -3t4.5 -6q-8 -31 2.5 -44t28.5 -13q15 0 89.5 22.5t135.5 22.5q120 0 187 -68t67 -165q0 -99 -59.5 -186t-163.5 -130z" />
<glyph unicode="4" horiz-adv-x="929" d="M856 96q6 0 7 -23.5t-2 -47t-9 -23.5q-16 1 -46 2.5t-54.5 2.5t-46.5 1v-297q0 -19 -17 -28l-135 -68q-11 -6 -14.5 -3.5t-3.5 15.5v387q-125 2 -469 2q-10 0 -16 8t1 17l623 770q4 6 17.5 3.5t13.5 -11.5v-713zM182 84q255 0 353 2v451l-363 -439q-11 -14 10 -14z" />
<glyph unicode="5" horiz-adv-x="837" d="M178 401q285 -3 419 -105.5t134 -277.5q0 -172 -137 -304.5t-455 -276.5q-8 -3 -13.5 7.5t1.5 14.5q231 125 324.5 252.5t93.5 272.5q0 169 -105 263.5t-301 94.5q-10 0 -16 8t-4 17l65 364q2 14 6 18t21 5q372 43 433 60q46 12 57 36l6 16q1 4 7 5t11 -1.5t4 -7.5 l-41 -200q-6 -24 -17.5 -30.5t-39.5 -6.5l-389 -9q-28 0 -31 -30z" />
<glyph unicode="6" horiz-adv-x="952" d="M627 586q69 0 122.5 -22.5t84.5 -61t46 -83t15 -93.5q0 -146 -124.5 -249.5t-299.5 -103.5q-180 0 -284.5 119.5t-104.5 331.5q0 192 87 375t256 331t394 224q7 1 11.5 -8.5t-1.5 -14.5q-182 -88 -312 -235t-190.5 -310.5t-60.5 -330.5q0 -186 71 -311.5t189 -125.5 q84 0 134.5 66.5t50.5 183.5q0 109 -46.5 175.5t-136.5 66.5q-41 0 -78 -16.5t-85 -53.5q-6 -6 -16 1.5t-7 13.5q115 131 285 131z" />
<glyph unicode="7" horiz-adv-x="878" d="M352 -438q-12 -34 -43 -49l-145 -76q-6 -1 -11.5 4t-2.5 10l536 1172q8 14 -8 14q-114 0 -186.5 -0.5t-140.5 -3.5t-105.5 -6t-73 -12t-50.5 -17t-30 -25t-21 -32.5t-14 -42.5q-3 -6 -14 -3.5t-10 9.5l86 342q2 3 8.5 3.5t11.5 -1t4 -4.5q-7 -35 10.5 -44t86.5 -9h542 q9 0 15.5 -9.5t3.5 -17.5z" />
<glyph unicode="8" horiz-adv-x="1001" d="M618 715q140 -83 193 -128q130 -112 131 -253q0 -103 -61 -186.5t-163.5 -129t-223.5 -45.5q-182 0 -297 99t-115 239q0 112 76.5 211.5t201.5 159.5q-155 107 -155 240q0 52 20 95.5t53 72t75.5 48.5t86.5 29t88 9q131 0 213 -66.5t82 -146.5q0 -62 -55.5 -131 t-149.5 -117zM504 1137q-61 0 -97 -39t-36 -101q0 -43 16.5 -80.5t51 -70.5t67.5 -57.5t86 -57.5q78 105 78 203q0 85 -50 144t-116 59zM551 16q98 0 158.5 70t60.5 172q0 44 -11 82.5t-35 71.5t-48.5 59t-64 53.5t-68 45.5t-75 45.5t-71.5 43.5q-129 -110 -129 -292 q0 -143 80 -247t203 -104z" />
<glyph unicode="9" horiz-adv-x="952" d="M344 205q-60 0 -109.5 18t-81.5 47.5t-53.5 68.5t-31 79t-9.5 80q0 141 106.5 230t274.5 89q199 0 314.5 -127t115.5 -342q0 -138 -50 -277t-142 -262t-233 -221.5t-312 -150.5q-6 -2 -10.5 8t2.5 14q136 60 245.5 159.5t177 215t103 237.5t35.5 238q0 77 -14.5 154 t-45 149.5t-86.5 118t-130 45.5q-85 0 -126.5 -61.5t-41.5 -169.5q0 -121 47.5 -195t140.5 -74q78 0 160 68q4 3 9.5 1.5t9.5 -6.5t1 -9q-96 -125 -266 -125z" />
<glyph unicode=":" horiz-adv-x="417" d="M211 553q-51 0 -82 30.5t-31 82.5q0 49 31 77.5t82 28.5q53 0 82 -28t29 -78q0 -53 -29 -83t-82 -30zM211 -23q-51 0 -82 30.5t-31 82.5q0 49 31 78t82 29q53 0 82 -28.5t29 -78.5q0 -53 -29 -83t-82 -30z" />
<glyph unicode=";" horiz-adv-x="468" d="M215 553q-51 0 -82 30.5t-31 82.5q0 49 31 77.5t82 28.5q53 0 82 -28t29 -78q0 -53 -29 -83t-82 -30zM221 193q68 0 107 -52t39 -149q0 -89 -40 -165t-118 -153q-5 -4 -10.5 -1.5t-7 7.5t1.5 9q100 103 100 241q0 56 -21 84q-18 -30 -71 -30q-44 0 -71.5 28t-27.5 74 q0 52 31.5 79.5t87.5 27.5z" />
<glyph unicode="&#x3c;" horiz-adv-x="833" d="M758 145q14 -6 13 -57q-2 -40 -13 -37l-684 303q-10 6 -10 36t10 34l684 301q8 5 12 -16q7 -40 -5 -67q-3 -7 -7 -9l-570 -244z" />
<glyph unicode="=" horiz-adv-x="958" d="M70 485q-6 0 -8 23.5t-0.5 46.5t6.5 23h821q9 0 9 -46.5t-9 -46.5h-819zM70 199q-6 0 -8 23t-0.5 46t6.5 23h821q9 0 9 -46t-9 -46h-819z" />
<glyph unicode="&#x3e;" horiz-adv-x="833" d="M760 422q10 -6 10 -36t-10 -34l-684 -301q-8 -5 -12 16q-7 40 5 67q3 7 7 9l569 244l-569 244q-14 6 -13 57q2 40 13 37z" />
<glyph unicode="?" horiz-adv-x="688" d="M334 1245q-36 0 -50 -24t-18 -64q-3 -25 -7 -41.5t-14.5 -38.5t-31.5 -33.5t-51 -11.5q-47 0 -69.5 27t-22.5 61q0 66 77 113t189 47q129 0 216 -63.5t87 -180.5q0 -33 -9 -64t-20 -52t-33.5 -47t-36.5 -39t-43.5 -38.5t-41.5 -35.5q-66 -60 -95.5 -119.5t-29.5 -132.5 q0 -41 12 -111q1 -4 -6 -7t-15 -3t-10 4q-24 54 -38.5 125.5t-14.5 120.5q0 53 18.5 96t45.5 74t54 63t45.5 80.5t18.5 110.5q0 81 -28.5 132.5t-77.5 51.5zM309 -23q-51 0 -81.5 30.5t-30.5 82.5q0 49 30.5 78t81.5 29q53 0 82 -28.5t29 -78.5q0 -53 -29 -83t-82 -30z" />
<glyph unicode="@" horiz-adv-x="1486" d="M956 111q-79 0 -109 48.5t-9 135.5l8 41q-70 -105 -152 -167.5t-153 -62.5q-57 0 -90.5 43t-20.5 134q16 110 86 215.5t163.5 170t176.5 64.5q67 0 100 -47q48 25 60 62q3 4 19 3t16 -6l-84 -458q-11 -62 3 -94.5t66 -32.5q37 0 76.5 21t74.5 59.5t57 102t22 140.5 q0 206 -145.5 350t-362.5 144q-117 0 -214 -46t-160 -124t-97.5 -180.5t-34.5 -216.5q0 -251 153.5 -401t409.5 -150q98 0 177 21.5t165 78.5q7 4 13 -7q4 -6 -1 -9q-184 -154 -424 -154q-127 0 -237.5 38.5t-193 109.5t-130 179t-47.5 240q0 145 57.5 271.5t152.5 212.5 t220.5 135t259.5 49q120 0 222.5 -39t171 -104.5t107 -152t38.5 -181.5q0 -117 -54.5 -217.5t-149.5 -159.5t-206 -59zM627 221q44 0 99 50.5t100 130t61 157.5q8 55 -8 91.5t-54 35.5q-75 -1 -144 -94.5t-93 -216.5q-15 -59 -6.5 -106.5t45.5 -47.5z" />
<glyph unicode="A" horiz-adv-x="1335" d="M1346 25q6 0 6 -12.5t-6 -12.5q-37 0 -117 4t-129 4q-48 0 -122.5 -4t-111.5 -4q-8 0 -8 12.5t8 12.5q93 0 113.5 30.5t-14.5 116.5l-183 457h-327l-150 -363q-40 -90 -33 -143.5t50 -75.5t131 -22q6 0 8 -6.5t-0.5 -12.5t-9.5 -6q-30 0 -120 4t-138 4q-47 0 -110 -4 t-99 -4q-8 0 -8.5 12.5t8.5 12.5q62 0 132 62t124 183l436 1028q2 7 18.5 6.5t22.5 -8.5l444 -1124q16 -41 25 -59.5t23.5 -40t31 -29t42 -13t63.5 -5.5zM475 680h287l-141 356z" />
<glyph unicode="B" horiz-adv-x="1206" d="M729 719q171 -19 273 -113.5t102 -232.5q0 -163 -131.5 -272t-327.5 -109q-37 0 -143 6t-154 6q-51 0 -134.5 -2t-115.5 -2q-4 0 -4 12.5t4 12.5q95 0 124.5 26.5t29.5 114.5v948q0 88 -28.5 114.5t-123.5 26.5q-4 0 -4 12.5t4 12.5q33 0 115 -3t133 -3q37 0 122.5 6 t127.5 6q183 0 281 -70t98 -196q0 -98 -64.5 -177t-183.5 -124zM561 1249q-66 0 -89 -27t-23 -112v-389q49 -2 86 -2q122 0 185.5 78.5t63.5 203.5q0 118 -56.5 183t-166.5 65zM612 33q283 0 283 291q0 157 -82 250.5t-242 93.5q-73 0 -122 -4v-498q0 -73 31.5 -103 t131.5 -30z" />
<glyph unicode="C" horiz-adv-x="1298" d="M788 -25q-152 0 -275 40.5t-202.5 106t-133.5 154.5t-76.5 180.5t-22.5 188.5q0 120 38.5 226t106 184t157.5 134.5t195.5 85t217.5 28.5q95 0 198 -18t164 -46q16 -10 21.5 -18t5.5 -29l16 -260q0 -6 -9 -6t-13 6q-66 155 -185 237t-276 82q-204 0 -316 -144t-112 -398 q0 -187 67 -347.5t184 -255t257 -94.5q232 0 397 316q4 8 13 6.5t9 -10.5l-14 -234q-5 -27 -9 -34t-22 -13q-187 -68 -381 -68z" />
<glyph unicode="D" horiz-adv-x="1390" d="M623 -8q-35 0 -137.5 6t-149.5 6q-53 0 -136.5 -2t-113.5 -2q-4 0 -4 12.5t4 12.5q96 0 123.5 26t26.5 115v948q-3 88 -31 114.5t-119 26.5q-4 0 -4 12.5t4 12.5q29 0 112.5 -3t133.5 -3q43 0 132.5 5t127.5 5q319 0 519 -174.5t200 -447.5q0 -149 -56.5 -276 t-151.5 -212.5t-219.5 -133.5t-260.5 -48zM604 29q224 0 359 154.5t135 432.5q0 95 -18.5 184.5t-59 171t-98.5 142.5t-143.5 97t-188.5 36q-94 0 -128 -29.5t-34 -107.5v-922q2 -86 38 -122.5t138 -36.5z" />
<glyph unicode="E" horiz-adv-x="1159" d="M1059 319q2 4 9 4t12.5 -2.5t4.5 -5.5q-20 -130 -20 -284q0 -18 -6.5 -24.5t-24.5 -6.5h-928q-5 0 -7 6t-0.5 12.5t5.5 6.5q94 0 120 25.5t26 115.5v948q-2 88 -29 114.5t-117 26.5q-5 0 -7 6.5t-1 12.5t4 6h877q16 0 16 -18q4 -156 4 -265q0 -7 -11.5 -7.5t-12.5 5.5 q-25 113 -105 179.5t-194 66.5h-90q-66 0 -95 -10.5t-38.5 -35t-10.5 -83.5v-420h277q98 0 143 35t45 117q0 6 7 8t14 -0.5t6 -9.5q1 -49 -0.5 -105.5t-1.5 -70.5q0 -33 2 -98.5t2 -104.5q0 -10 -13.5 -9t-13.5 9q0 176 -196 176h-271v-465q0 -83 26.5 -108t115.5 -25h120 q118 0 213.5 75.5t143.5 202.5z" />
<glyph unicode="F" horiz-adv-x="1069" d="M985 1262q1 -31 3 -131t3 -134q0 -7 -12.5 -7.5t-13.5 5.5q-23 113 -103 179.5t-194 66.5h-90q-41 0 -65.5 -3.5t-41 -10t-24 -23.5t-11 -36.5t-4.5 -55.5v-444h238q98 0 142 35.5t44 117.5q0 7 13.5 7t13.5 -7q0 -47 -1 -103.5t-1 -78.5q0 -33 2 -97.5t2 -103.5 q0 -6 -6.5 -7.5t-12.5 1t-6 8.5q0 174 -196 174h-232v-440q1 -49 9.5 -76t34.5 -44.5t68.5 -23t117.5 -5.5q6 0 6 -12.5t-6 -12.5q-19 0 -127.5 2t-200.5 2q-47 0 -128.5 -2t-109.5 -2q-6 0 -6 12.5t6 12.5q94 0 120 25.5t26 115.5v948q0 88 -28 114.5t-120 26.5 q-5 0 -5.5 12.5t5.5 12.5h875q16 0 16 -18z" />
<glyph unicode="G" horiz-adv-x="1398" d="M811 -25q-169 0 -308 51.5t-231 142t-142 213.5t-50 265q0 189 99 339.5t270.5 233.5t381.5 83q96 0 190.5 -18t152.5 -46q17 -10 20.5 -18t5.5 -29l19 -254q0 -9 -11 -10.5t-14 4.5q-61 153 -175.5 237t-270.5 84q-217 0 -338 -143t-121 -387q0 -209 76 -371t209 -249 t300 -87q118 0 160.5 49.5t42.5 192.5q0 52 -3 85t-13.5 59t-25 39.5t-43.5 22t-62.5 11t-89.5 2.5q-7 0 -9.5 8.5t-0.5 16.5t8 8q236 -16 483 -4q5 0 7.5 -7t1.5 -14.5t-7 -7.5q-46 1 -54.5 -27.5t-8.5 -158.5v-53q0 -82 6 -130.5t6 -50.5q0 -11 -3.5 -15t-15.5 -9 q-255 -58 -442 -58z" />
<glyph unicode="H" horiz-adv-x="1492" d="M1407 25q5 0 5 -12.5t-5 -12.5q-24 0 -108 2t-134 2t-132 -2t-113 -2q-6 0 -6 12.5t6 12.5q95 0 119 25t24 116l-2 473h-633v-473q0 -89 28 -115t122 -26q6 0 6 -12.5t-6 -12.5q-30 0 -113.5 2t-136.5 2q-47 0 -127.5 -2t-108.5 -2q-6 0 -6.5 12.5t6.5 12.5 q93 0 118.5 25.5t25.5 115.5v948q2 87 -26 114t-118 27q-6 0 -6 12.5t6 12.5q27 0 107.5 -3t130.5 -3q49 0 133.5 3t114.5 3q4 0 4 -12.5t-4 -12.5q-50 0 -78.5 -6t-44.5 -24t-21 -43t-6 -72v-418h633v418q0 88 -26.5 116.5t-116.5 28.5q-5 0 -6 12.5t6 12.5q28 0 109 -3 t132 -3q47 0 130.5 3t111.5 3q6 0 6 -12.5t-6 -12.5q-64 0 -94 -12t-41.5 -40t-14.5 -89v-948q1 -88 31.5 -114.5t124.5 -26.5z" />
<glyph unicode="I" horiz-adv-x="712" d="M111 0q-5 0 -5 12.5t5 12.5q95 0 122 26t25 115v948q0 88 -28 114.5t-119 26.5q-5 0 -5.5 12.5t5.5 12.5q29 0 110 -3t131 -3q56 0 138.5 3t109.5 3q6 0 6 -12.5t-6 -12.5q-50 0 -77.5 -5.5t-43.5 -23.5t-20.5 -43t-5.5 -73v-944q0 -89 27.5 -115t119.5 -26q6 0 6 -12.5 t-6 -12.5q-29 0 -110 2t-134 2q-49 0 -131.5 -2t-113.5 -2z" />
<glyph unicode="J" horiz-adv-x="663" d="M88 -395q-6 -2 -12 8t0 14q90 55 128.5 168t35.5 287v1032q0 87 -28.5 114t-121.5 27q-4 0 -4 12.5t4 12.5q32 0 112 -3t128 -3q57 0 141 3t109 3q6 0 6.5 -12.5t-6.5 -12.5q-49 0 -76.5 -5.5t-44 -23.5t-21.5 -43.5t-6 -72.5v-973q0 -121 -18 -205t-61.5 -146 t-105.5 -102.5t-159 -78.5z" />
<glyph unicode="K" horiz-adv-x="1359" d="M1358 25q6 0 6 -12.5t-6 -12.5h-203h-1h-1h-1h-1h-1h-1h-1h-1h-1h-1h-1h-2q-92 0 -117 10q-29 11 -63 60q-9 12 -30 44q-76 113 -146 205l-280 369l-78 -76v-446v-41t2 -31t5 -25.5t10 -17t16 -14t24.5 -7t35 -5t46.5 -0.5q5 0 5 -12.5t-5 -12.5q-33 0 -107.5 2t-133.5 2 q-48 0 -129 -2t-111 -2q-4 0 -4 12.5t4 12.5q95 0 122.5 26t27.5 115v948q0 88 -27 114.5t-117 26.5q-6 0 -6 12.5t6 12.5q27 0 107.5 -3t130.5 -3q49 0 133.5 3t114.5 3q4 0 4 -12.5t-4 -12.5q-50 0 -78.5 -5.5t-45 -23.5t-21 -43.5t-5.5 -72.5v-440l414 417 q68 69 53.5 118.5t-104.5 49.5q-5 0 -7 6.5t-1 12.5t5 6q25 0 121 -3t152 -3q58 0 125 3t90 3q6 0 6 -12.5t-6 -12.5q-88 0 -190 -46.5t-189 -133.5l-264 -262l287 -381q153 -198 222.5 -277t112.5 -104.5t103 -25.5z" />
<glyph unicode="L" horiz-adv-x="1107" d="M88 0q-4 0 -4 12.5t4 12.5q96 0 122 25.5t26 115.5v948q0 88 -27 114.5t-117 26.5q-6 0 -6 12.5t6 12.5q27 0 107.5 -3t130.5 -3q49 0 133.5 3t114.5 3q4 0 4 -12.5t-4 -12.5q-51 0 -79 -5.5t-44.5 -23t-21 -42.5t-5.5 -72v-938q0 -82 24.5 -107.5t100.5 -25.5h113 q152 0 249 73.5t152 223.5q1 6 15 3t14 -9q-17 -170 -17 -301q0 -17 -7.5 -24t-24.5 -7h-959z" />
<glyph unicode="M" horiz-adv-x="1640" d="M1587 25q6 0 6.5 -12.5t-6.5 -12.5q-26 0 -109 2t-135 2q-50 0 -130 -2t-111 -2q-6 0 -6 12.5t6 12.5q97 0 124 26t23 115l-28 975l-410 -1127q-1 -8 -14.5 -7.5t-16.5 9.5l-461 1086l-4 -850q-2 -111 38.5 -169t119.5 -58q5 0 5.5 -12.5t-5.5 -12.5q-23 0 -87.5 2 t-106.5 2q-34 0 -97.5 -2t-89.5 -2q-4 0 -4 12.5t4 12.5q78 0 121 58t43 165l10 940q-65 67 -168 67q-6 0 -6 12.5t6 12.5q15 0 60.5 -2t72.5 -2q43 0 98 2t64 2q26 0 43.5 -20t46.5 -86l379 -887l338 942q8 23 26.5 37t43.5 14q10 0 57.5 -2t71.5 -2q36 0 84 2t67 2 q4 0 5.5 -6t0.5 -12.5t-4 -6.5q-80 0 -114.5 -28t-26.5 -109l29 -952q5 -90 31 -115.5t116 -25.5z" />
<glyph unicode="N" horiz-adv-x="1449" d="M1403 1280q6 0 6 -12.5t-6 -12.5q-84 0 -131 -53.5t-47 -152.5l-2 -1065q0 -10 -23.5 -12.5t-30.5 8.5l-866 1101l-2 -850q0 -101 45 -153.5t129 -52.5q7 0 7 -12.5t-7 -12.5q-25 0 -91.5 2t-111.5 2q-39 0 -108.5 -2t-97.5 -2q-8 0 -8 12.5t8 12.5q84 0 131 53t47 153 l2 920q-94 104 -187 104q-6 0 -6 12.5t6 12.5q30 0 94.5 -2t86.5 -2q28 0 77 2t52 2q17 0 25.5 -7.5t27.5 -39t41 -59.5l702 -895l2 770q2 100 -43 153t-131 53q-7 0 -7 12.5t7 12.5q21 0 89 -3t114 -3q40 0 109 3t98 3z" />
<glyph unicode="O" d="M723 -25q-143 0 -264.5 51.5t-204 139.5t-128.5 208.5t-46 256.5q1 142 54 267t144.5 214t219.5 140t274 51q147 0 270.5 -50.5t207 -138t129 -207t44.5 -256.5q-1 -152 -58.5 -280.5t-153.5 -214t-222.5 -133.5t-265.5 -48zM811 29q186 0 298 140.5t112 375.5 q1 189 -64 350.5t-187 259.5t-274 98q-186 0 -300 -139.5t-115 -376.5q-1 -187 64.5 -348t188.5 -260.5t277 -99.5z" />
<glyph unicode="P" horiz-adv-x="1153" d="M92 0q-6 0 -6 12.5t6 12.5q95 0 122.5 26t27.5 115v948q0 89 -28.5 115t-121.5 26q-6 0 -6 12.5t6 12.5q28 0 108 -3t130 -3q56 0 147 6t125 6q99 0 184 -21t150 -62t102 -107t37 -150q0 -83 -30.5 -153t-80 -116t-113 -78.5t-128 -47t-127.5 -14.5q-60 0 -96 10 q-8 2 -3 27q3 11 7 10q35 -9 67 -9q124 0 208.5 84t84.5 246q0 156 -89.5 249t-209.5 93q-84 0 -109 -24.5t-26 -112.5l2 -944q0 -89 27 -115t119 -26q6 0 6.5 -12.5t-6.5 -12.5q-29 0 -110.5 2t-133.5 2q-48 0 -131 -2t-111 -2z" />
<glyph unicode="Q" d="M1642 -358q3 1 7.5 -4.5t5.5 -11t-2 -7.5q-96 -29 -152 -29q-141 0 -297 106t-295 302q-97 -23 -186 -23q-143 0 -264.5 51.5t-204 139.5t-128.5 208.5t-46 256.5q1 142 54 267t144.5 214t219.5 140t274 51q147 0 270.5 -50.5t207 -138t129 -207t44.5 -256.5 q-1 -199 -95.5 -352t-252.5 -238q104 -180 255.5 -304t246.5 -124q35 0 65 9zM281 737q-1 -187 64.5 -348t188.5 -260.5t277 -99.5q186 0 298 140.5t112 375.5q1 189 -64 350.5t-187 259.5t-274 98q-186 0 -300 -139.5t-115 -376.5z" />
<glyph unicode="R" horiz-adv-x="1390" d="M1419 25q6 0 6.5 -12.5t-6.5 -12.5h-303q-50 0 -179.5 169.5t-307.5 494.5q-61 -15 -129 -15q-19 0 -43 4v-487q-2 -88 25.5 -114.5t123.5 -26.5q6 0 8 -6.5t0.5 -12.5t-6.5 -6q-32 0 -116 2t-136 2q-50 0 -137.5 -2t-118.5 -2q-6 0 -8 6t-0.5 12.5t6.5 6.5 q102 0 133 26.5t33 114.5v948q0 89 -28 115t-127 26q-9 0 -9 12.5t9 12.5q31 0 115 -3t134 -3q53 0 132 6t104 6q195 0 294 -67.5t99 -188.5q0 -91 -57.5 -173t-153.5 -138q242 -388 383.5 -541t259.5 -153zM457 707q40 -7 75 -7q138 0 197 60.5t59 200.5q0 149 -59.5 217.5 t-153.5 68.5q-29 0 -43.5 -0.5t-30.5 -5.5t-22 -12.5t-12 -24t-7.5 -38t-2.5 -56.5v-403z" />
<glyph unicode="S" horiz-adv-x="1028" d="M328 1071q0 -60 26 -112t68 -90t96.5 -76.5t110.5 -70.5t110.5 -72.5t96.5 -81.5t68 -99t26 -125q0 -168 -119 -268.5t-313 -100.5q-86 0 -180.5 23t-141.5 55q-16 10 -18 39l-15 311q-1 9 10.5 11t14.5 -6q24 -59 46.5 -106.5t58.5 -102.5t74 -92t91 -62t111 -25 q87 0 144 48.5t57 160.5q0 80 -32.5 146t-84.5 112t-114.5 87.5t-125 81.5t-114.5 83.5t-84.5 103.5t-32.5 132q0 81 36 145.5t96 103.5t133 59t151 20q153 0 262 -48q30 -16 30 -38l4 -279q0 -6 -10.5 -8.5t-13.5 4.5q-11 35 -22.5 66t-40 83t-61 88t-84.5 63.5t-112 27.5 q-93 0 -147.5 -55t-54.5 -136z" />
<glyph unicode="T" horiz-adv-x="1220" d="M336 0q-4 0 -5.5 6t-0.5 12.5t4 6.5q83 0 121.5 11t53 39.5t13.5 90.5v948q1 74 -21 98.5t-89 24.5h-35q-117 0 -199.5 -85.5t-101.5 -225.5q-1 -4 -7.5 -4.5t-12.5 2t-5 6.5q12 87 31 395q0 4 7 5t13.5 -1t6.5 -6q0 -43 92 -43q167 -6 415 -6q98 0 226 3t170 3 q68 0 99 10t38 41q2 4 8.5 5t12 -1.5t4.5 -7.5q-22 -310 -17 -397q-1 -7 -15 -6.5t-14 8.5q2 137 -74 221t-202 84h-37q-36 0 -55.5 -5t-30 -22t-13 -37t-3.5 -63l4 -944q0 -48 5.5 -73t26.5 -41.5t55.5 -21.5t98.5 -5q6 0 6 -12.5t-6 -12.5q-33 0 -127 2t-158 2 q-56 0 -152 -2t-130 -2z" />
<glyph unicode="U" horiz-adv-x="1572" d="M1495 25q6 0 6 -12.5t-6 -12.5q-32 0 -93.5 1t-98.5 1q-27 0 -74 -1t-68 -1q-22 0 -27.5 6.5t-5.5 32.5v106q-104 -89 -205 -129.5t-221 -40.5q-217 0 -355 110.5t-138 295.5v733q0 88 -27.5 114.5t-118.5 26.5q-6 0 -6 12.5t6 12.5q28 0 108 -3t130 -3q49 0 133 3t111 3 q5 0 7 -6t1 -12.5t-4 -6.5q-50 0 -78 -5.5t-44.5 -23.5t-21.5 -43.5t-6 -72.5v-657q-1 -193 96.5 -300.5t274.5 -107.5q95 0 179.5 35t178.5 119l-2 911q2 89 -25.5 117t-117.5 28q-4 0 -5.5 6.5t-0.5 12.5t4 6q30 0 111.5 -3t130.5 -3q47 0 130.5 3t110.5 3q5 0 7 -6 t1 -12.5t-4 -6.5q-95 0 -122 -26.5t-27 -114.5v-948q0 -90 31.5 -115.5t144.5 -25.5z" />
<glyph unicode="V" horiz-adv-x="1320" d="M1329 1280q9 0 9 -12.5t-9 -12.5q-35 0 -62 -7t-56.5 -26.5t-55.5 -60.5t-49 -104l-397 -1055q-5 -10 -30 -9t-28 9l-499 1108q-34 80 -70 112.5t-94 32.5q-4 0 -6 6.5t-1 12.5t5 6q30 0 100 -3t100 -3q63 0 147.5 3t112.5 3q9 0 9 -12.5t-9 -12.5q-74 0 -102 -28t2 -97 l399 -882l297 817q35 90 -6.5 140t-142.5 50q-7 0 -7 12.5t7 12.5q33 0 109.5 -3t138.5 -3q39 0 95 3t93 3z" />
<glyph unicode="W" horiz-adv-x="1845" d="M1853 1280q9 0 9 -12.5t-9 -12.5q-35 0 -61.5 -7t-56 -26.5t-55.5 -60.5t-50 -104l-399 -1055q-5 -9 -28.5 -8.5t-26.5 8.5l-256 565l-211 -565q-5 -9 -30 -8.5t-28 8.5l-499 1108q-34 80 -70 112.5t-94 32.5q-5 0 -7 6.5t-0.5 12.5t5.5 6q30 0 100 -3t100 -3 q54 0 126.5 3t97.5 3q8 0 8 -12.5t-8 -12.5q-34 0 -55 -11t-28.5 -39t15.5 -75l401 -890l146 397l-215 473q-35 82 -65.5 113.5t-78.5 31.5q-5 0 -7 6.5t-1 12.5t4 6q30 0 93.5 -3t91.5 -3q41 0 94.5 3t71.5 3q9 0 9 -12.5t-9 -12.5q-30 0 -39.5 -8t-4.5 -34t31 -83 l129 -286l82 221q39 98 26 144t-83 46q-4 0 -4 12.5t4 12.5q22 0 68 -3t85 -3q36 0 85.5 3t78.5 3q6 0 8 -6t0.5 -12.5t-6.5 -6.5q-42 0 -71 -13t-61 -57.5t-64 -127.5l-111 -293l236 -522l301 823q31 83 0.5 136.5t-119.5 53.5q-6 0 -6 12.5t6 12.5q29 0 95.5 -3t119.5 -3 q41 0 97.5 3t92.5 3z" />
<glyph unicode="X" horiz-adv-x="1284" d="M1266 25q8 0 8 -12.5t-8 -12.5q-27 0 -95.5 2t-109.5 2q-55 0 -154.5 -2t-126.5 -2q-10 0 -9.5 12.5t9.5 12.5q55 0 84 20t2 59l-280 457l-236 -356q-45 -65 -42 -105t37 -57.5t97 -17.5q6 0 6 -12.5t-6 -12.5q-30 0 -123.5 2t-146.5 2q-32 0 -87.5 -2t-82.5 -2 q-9 0 -9.5 12.5t9.5 12.5q70 0 147.5 52.5t149.5 158.5l256 376l-305 498q-48 79 -92.5 112t-106.5 33q-6 0 -6 12.5t6 12.5q26 0 80.5 -3t79.5 -3q60 0 157.5 3t123.5 3q9 0 9 -12.5t-9 -12.5q-50 0 -69 -19t3 -62l252 -410l199 307q33 49 41 85.5t-7 57.5t-46 31t-77 10 q-5 0 -7 6.5t-0.5 12.5t5.5 6q30 0 125.5 -3t149.5 -3q30 0 84.5 3t81.5 3q11 0 11 -12.5t-11 -12.5q-69 0 -147 -54t-152 -161l-219 -327l335 -543q47 -80 97 -112.5t125 -32.5z" />
<glyph unicode="Y" horiz-adv-x="1177" d="M1180 1280q9 0 9 -12.5t-9 -12.5q-139 0 -262 -213l-224 -405v-471q1 -63 12.5 -90.5t44.5 -39t107 -11.5q8 0 8 -12.5t-8 -12.5q-31 0 -117.5 2t-140.5 2q-58 0 -147 -2t-119 -2q-8 0 -8.5 12.5t8.5 12.5q108 0 139.5 26t30.5 115l-2 448l-326 496q-52 77 -96 111 t-96 34q-5 0 -7 6.5t-0.5 12.5t5.5 6q30 0 98 -3t100 -3q48 0 140.5 3t117.5 3q5 0 6 -6t-2 -12.5t-8 -6.5q-76 0 -94 -17.5t14 -63.5l312 -482l204 383q41 77 15.5 128.5t-107.5 51.5q-5 0 -7 6.5t-0.5 12.5t5.5 6q32 0 117 -3t137 -3q32 0 78 3t72 3z" />
<glyph unicode="Z" horiz-adv-x="1224" d="M1120 -4q-313 4 -1032 4q-7 0 -11 10t1 17l819 1202q6 11 4 13.5t-14 2.5q-144 0 -237.5 -3.5t-173.5 -15t-127 -28.5t-89 -50t-69 -72.5t-58 -102.5q-2 -5 -8.5 -5.5t-12 3t-3.5 8.5l86 362q2 3 8.5 2.5t13.5 -3.5t6 -7q-4 -35 15 -44t96 -9h784q9 0 14.5 -10.5 t2.5 -16.5l-809 -1198q-8 -11 -6.5 -13.5t14.5 -2.5h311q206 0 319 58t179 206q1 7 12.5 5.5t11.5 -9.5l-28 -283q0 -8 -5 -14t-14 -6z" />
<glyph unicode="[" horiz-adv-x="561" d="M152 -217v1681q0 14 3 17.5t15 3.5h313q6 0 6 -12.5t-6 -12.5q-100 0 -128.5 -28t-28.5 -117v-1385q0 -89 28.5 -117t128.5 -28q6 0 6 -12.5t-6 -12.5h-313q-12 0 -15 4t-3 19z" />
<glyph unicode="\" horiz-adv-x="712" d="M567 -336l-514 1804q-2 6 20 15t43 13t27 -1l516 -1806q2 -8 -43 -21t-49 -4z" />
<glyph unicode="]" horiz-adv-x="561" d="M410 -217q0 -15 -3.5 -19t-15.5 -4h-313q-6 0 -6 12.5t6 12.5q100 0 129 28t29 117v1385q0 89 -29 117t-129 28q-6 0 -6 12.5t6 12.5h313q12 0 15.5 -4t3.5 -17v-1681z" />
<glyph unicode="^" horiz-adv-x="802" d="M682 778q2 -3 -2 -6.5t-8.5 -4.5t-7.5 1l-263 301l-262 -301q-6 -4 -14 0.5t-6 9.5l260 510q1 10 21.5 10t23.5 -10z" />
<glyph unicode="_" horiz-adv-x="815" d="M70 -162q-6 0 -8 23.5t-0.5 47t6.5 23.5h677q9 0 9 -47t-9 -47h-675z" />
<glyph unicode="`" horiz-adv-x="339" d="M252 973l-207 516q3 13 40.5 12.5t84 -12t47.5 -23.5l51 -491q1 -3 -3 -5t-8.5 -1.5t-4.5 4.5z" />
<glyph unicode="a" horiz-adv-x="968" d="M965 158q6 6 16.5 -2.5t5.5 -14.5q-115 -159 -217 -159q-135 0 -135 188v178q-58 -174 -161.5 -274.5t-219.5 -100.5q-81 0 -131 53t-53 164q-3 103 38.5 216t109.5 203t160 149t183 59q99 0 166 -53q34 23 53 70q2 6 20 1q7 -3 7 -6l-6 -647q-3 -104 49 -104 q45 0 115 80zM633 539q1 86 -42.5 137t-117.5 51q-110 -1 -179 -112.5t-69 -282.5q5 -226 127 -226q73 0 139.5 73t103.5 172.5t38 187.5z" />
<glyph unicode="b" horiz-adv-x="980" d="M688 817q105 0 169.5 -84.5t64.5 -218.5q0 -102 -33 -191.5t-86 -152t-120.5 -108.5t-136.5 -67.5t-134 -21.5q-127 0 -202.5 53.5t-74.5 145.5l10 1055q1 90 -35 110t-124 -22q-6 -3 -11 2t-5.5 11t3.5 9l306 148q7 3 16.5 -4.5t9.5 -12.5v-1003q45 157 148.5 254.5 t234.5 97.5zM487 29q108 0 182.5 114.5t71.5 307.5q2 108 -35.5 175.5t-113.5 67.5q-126 0 -206 -133.5t-81 -349.5v-14q0 -73 52.5 -120.5t129.5 -47.5z" />
<glyph unicode="c" horiz-adv-x="751" d="M430 -27q-77 0 -141 25.5t-107 68.5t-72.5 99t-42 117t-10.5 123q1 87 38.5 165t96 131t133 84t150.5 31q54 0 103.5 -13.5t86.5 -44t42 -73.5q3 -38 -18.5 -61t-67.5 -23q-49 0 -75 22t-44 62q-17 35 -42 56.5t-69 21.5q-81 0 -123 -80t-39 -209q0 -114 32.5 -205 t103 -149t170.5 -58q102 0 176 54q5 3 13.5 -6t4.5 -15q-120 -123 -299 -123z" />
<glyph unicode="d" horiz-adv-x="987" d="M991 158q7 7 18.5 -1t6.5 -16q-64 -84 -113 -121.5t-110 -37.5q-134 0 -131 188l2 170q-60 -170 -150 -268.5t-205 -98.5q-45 0 -86 16t-76 48.5t-56 89.5t-21 131q0 108 43.5 211.5t112.5 179t159 122t180 46.5q52 0 105 -16l4 426q1 90 -35.5 110t-122.5 -22 q-6 -3 -12 2t-6 11t4 9l305 148q7 3 18 -4.5t11 -12.5l-7 -1286q-3 -104 50 -104q24 0 49.5 19.5t62.5 60.5zM383 102q59 0 111.5 40t87 102t56.5 130t28 130v67q-7 74 -61 115t-132 41q-120 0 -186.5 -98t-63.5 -269q9 -258 160 -258z" />
<glyph unicode="e" horiz-adv-x="770" d="M725 123q4 2 9.5 -1t8.5 -8t0 -8q-128 -131 -313 -131q-93 0 -167 34t-119 90.5t-68 127t-21 146.5q1 84 33.5 163.5t90 142t143 100.5t184.5 38q89 0 139 -28.5t53 -81.5q4 -61 -59.5 -118t-170 -97.5t-235.5 -61.5q5 -164 81.5 -267.5t211.5 -103.5q119 0 199 64z M406 762q-83 0 -127 -84t-46 -217q274 58 271 203q1 45 -25.5 71.5t-72.5 26.5z" />
<glyph unicode="f" horiz-adv-x="575" d="M504 1487q91 0 149 -33t58 -80q0 -39 -22 -58.5t-60 -19.5t-63 15.5t-37.5 38t-22.5 45t-26.5 38t-41.5 15.5q-76 0 -104.5 -134t-20.5 -415l4 -125q41 2 115.5 7.5t99.5 6.5q11 0 17 -6.5t6 -15.5q-2 -21 -21.5 -47t-41.5 -23q-15 2 -48.5 7t-64.5 8.5t-60 5.5l23 -760 q6 -197 -18.5 -310t-82 -161.5t-159.5 -48.5q-90 0 -140.5 30.5t-50.5 75.5q0 36 22 56t58 20q43 0 69 -22.5t34.5 -49t25 -49t41.5 -22.5q12 0 19.5 6t13 25.5t7.5 47t2.5 79.5t-1 113t-4.5 157l-24 723q-3 76 -25.5 93t-114.5 17q-5 0 -7.5 7.5t-1 14.5t6.5 7 q76 0 105.5 19t29.5 71q-3 152 7 257.5t34.5 179.5t68.5 116t102.5 60t144.5 18z" />
<glyph unicode="g" horiz-adv-x="919" d="M780 834q3 6 15 4t12 -9l-4 -917q-2 -228 -114 -357.5t-310 -129.5q-126 0 -206.5 47.5t-80.5 121.5q-1 37 23.5 56.5t60.5 19.5t60.5 -21t39 -50.5t32 -59t51.5 -50.5t85 -21q42 0 73 16t58.5 57t43 122.5t16.5 201.5v485q-58 -175 -161.5 -276t-219.5 -101 q-80 0 -130 52t-54 161q-4 104 37.5 217.5t110 204.5t160.5 150t183 59q99 0 166 -53q34 23 53 70zM633 535q3 87 -40 139.5t-120 52.5q-110 -1 -180 -114t-68 -285q6 -222 127 -222q71 0 137 71t104 170t40 188z" />
<glyph unicode="h" horiz-adv-x="995" d="M989 160q7 6 17.5 -2.5t5.5 -16.5q-64 -84 -113 -121.5t-108 -37.5q-132 0 -129 188l2 338q0 205 -105 205q-108 0 -180.5 -183.5t-73.5 -509.5q0 -36 -102 -36q-65 0 -68 14q-1 4 0 26.5t2.5 60t1.5 67.5l11 1075q0 90 -36 110t-124 -22q-6 -3 -11.5 2t-5.5 11t4 9 l306 148q6 3 16 -4.5t10 -12.5l-2 -1044q40 187 125.5 290t204.5 103q192 0 192 -270l-4 -365q-3 -104 52 -104q40 0 112 82z" />
<glyph unicode="i" horiz-adv-x="532" d="M254 1026q-53 0 -83 29.5t-30 83.5q0 49 30 77.5t83 28.5q52 0 80 -28t28 -78q0 -54 -28 -83.5t-80 -29.5zM315 -18q-137 0 -131 188l9 438q3 107 -56 107q-48 0 -121 -86q-4 -4 -10.5 -2.5t-11 7.5t-0.5 11q62 85 118 124.5t117 39.5q129 0 129 -170l-8 -457 q-3 -104 51 -104q23 0 48.5 19.5t64.5 60.5q6 7 18 -1t7 -16q-63 -83 -113.5 -121t-110.5 -38z" />
<glyph unicode="j" horiz-adv-x="530" d="M260 1026q-53 0 -83 29.5t-30 83.5q0 49 30 77.5t83 28.5q52 0 80.5 -28t28.5 -78q0 -54 -28.5 -83.5t-80.5 -29.5zM125 -563q-89 0 -144 31t-57 75q0 36 22.5 56t55.5 20q42 0 67.5 -22.5t34 -50t24 -50t40.5 -22.5q37 0 44 71.5t7 348.5v714q0 107 -57 107 q-44 0 -121 -86q-4 -4 -10 -2.5t-10.5 7.5t-0.5 11q64 86 119.5 125t114.5 39q66 0 96.5 -42.5t32.5 -127.5v-694q2 -287 -53.5 -397.5t-204.5 -110.5z" />
<glyph unicode="k" horiz-adv-x="925" d="M963 156q4 4 10.5 0.5t9.5 -9.5t0 -10q-62 -80 -111.5 -117.5t-97.5 -37.5q-56 0 -104 30t-115 107l-170 200q-25 29 -40.5 39.5t-37.5 10.5l-2 -349q0 -36 -102 -36q-65 0 -68 14q-1 4 0 26.5t2.5 60t1.5 67.5l11 1075q0 90 -36 110t-124 -22q-6 -3 -11.5 2t-5.5 11t4 9 l306 148q5 3 15.5 -4t10.5 -13l-2 -806q69 72 156.5 113.5t179.5 41.5q50 0 86 -12.5t52.5 -33t23.5 -39t8 -38.5q2 -76 -83 -148t-241 -126l189 -217q57 -67 93.5 -90t70.5 -23q55 0 121 66zM528 737q-95 0 -155.5 -87t-65.5 -228v-19q169 38 241.5 94.5t65.5 145.5 q-6 94 -86 94z" />
<glyph unicode="l" horiz-adv-x="526" d="M283 -18q-134 0 -131 188l8 1057q1 91 -33.5 110t-122.5 -22q-11 -5 -16 9q-3 10 4 13l303 148q7 3 17 -4.5t10 -12.5l-5 -1286q-3 -104 52 -104q42 0 112 80q7 7 17.5 -1t5.5 -16q-61 -82 -111 -120.5t-110 -38.5z" />
<glyph unicode="m" horiz-adv-x="1515" d="M1509 158q7 7 17.5 -1t5.5 -16q-64 -84 -113 -121.5t-108 -37.5q-69 0 -100 46.5t-31 141.5l2 338q0 205 -97 205q-96 0 -164.5 -172t-72.5 -478v-43q0 -36 -100 -36q-63 0 -70 14q-1 4 0.5 27t3.5 60t2 67l2 358q0 203 -100 203q-96 0 -165 -171t-73 -460v-62 q0 -36 -100 -36q-63 0 -70 14q0 4 1 26.5t2.5 58t2.5 64.5l4 461q0 107 -57 107q-44 0 -121 -86q-7 -7 -17 0.5t-5 15.5q62 85 118 124.5t117 39.5q66 0 96.5 -42.5t30.5 -127.5v-201q40 181 122.5 280t195.5 99q182 0 182 -268v-111q41 183 123 281t192 98q181 0 181 -270 l-3 -365q0 -104 54 -104q39 0 112 80z" />
<glyph unicode="n" horiz-adv-x="1040" d="M1034 158q5 4 11.5 2t11 -8t0.5 -11q-61 -82 -111 -120.5t-110 -38.5q-132 0 -129 188l2 338q0 205 -105 205q-109 0 -181.5 -183.5t-72.5 -509.5q0 -36 -102 -36q-63 0 -70 14q0 2 1.5 26t3 60t1.5 68l4 456q0 107 -57 107q-44 0 -121 -86q-5 -4 -11 -2.5t-10.5 7.5 t-0.5 11q62 85 118 124.5t117 39.5q66 0 96.5 -42.5t30.5 -127.5v-219q42 189 127.5 293t204.5 104q193 0 190 -270l-2 -365q0 -104 52 -104q39 0 112 80z" />
<glyph unicode="o" horiz-adv-x="888" d="M422 -29q-117 0 -202.5 57.5t-126 151.5t-38.5 209q3 188 118.5 308t293.5 120q174 0 273.5 -114t97.5 -300q-2 -103 -37.5 -186.5t-93.5 -136t-131.5 -81t-153.5 -28.5zM487 23q81 0 128 78t49 214q1 118 -32 222t-94 167.5t-135 63.5q-80 0 -128 -75t-48 -218 q2 -182 77 -317t183 -135z" />
<glyph unicode="p" horiz-adv-x="899" d="M375 -2q-22 0 -88 4v-367q0 -82 27 -104.5t110 -11.5q7 3 11 -8q4 -13 -7 -15l-399 -59q-6 -1 -10 4.5t-4 12t5 7.5q64 10 79.5 37.5t15.5 122.5l6 979q-48 -29 -101 -70q-5 -5 -11.5 -1.5t-8.5 9.5t2 11q41 39 119 94v148q0 4 21.5 18.5t47.5 32.5t49 46.5t25 57.5 q0 5 6 6.5t11.5 -0.5t5.5 -8v-203q141 64 262 64q136 0 208 -78.5t72 -228.5q0 -137 -56 -250.5t-160.5 -181.5t-237.5 -68zM430 713q-72 0 -143 -27v-596q84 -33 155 -33q124 0 175 85.5t51 244.5q0 74 -11 130t-37 102t-74 70t-116 24z" />
<glyph unicode="q" horiz-adv-x="917" d="M961 -489q5 2 9 -3.5t3.5 -12t-6.5 -7.5l-437 -51q-6 -1 -8.5 5t-1.5 12.5t6 6.5q75 9 94 36.5t19 123.5v655q-53 -143 -148.5 -223t-201.5 -80q-97 0 -157 64.5t-60 185.5q0 154 66 291t180 220t245 83q100 0 170 -53q38 34 51 70q2 4 8.5 4t13 -3t5.5 -6l-8 -1194 q0 -79 33 -107.5t125 -16.5zM383 106q115 0 185.5 114t70.5 269q0 121 -46 180.5t-136 57.5q-106 0 -172 -106t-66 -252q0 -113 42 -188t122 -75z" />
<glyph unicode="r" horiz-adv-x="763" d="M571 811q50 0 100.5 -31t51.5 -71q0 -32 -28.5 -66.5t-63.5 -34.5q-32 0 -68.5 25.5t-54.5 25.5q-42 0 -81.5 -113.5t-61.5 -260.5t-23 -265q0 -36 -98 -36q-66 0 -70 14q0 2 1 26.5t2 60.5t1 67l4 430q0 133 -61 133q-51 0 -119 -78q-4 -5 -10.5 -2.5t-9.5 8t0 10.5 q114 156 235 156q67 0 97.5 -48t31.5 -161l-2 -231q14 94 33.5 171t46.5 139.5t64.5 97t82.5 34.5z" />
<glyph unicode="s" horiz-adv-x="677" d="M307 -23q-97 0 -173 41.5t-77 100.5q-1 35 21 54.5t57 19.5q28 0 52 -16t43.5 -38.5t40.5 -45t51 -38.5t67 -16q48 0 69 23.5t19 70.5q-2 44 -25 83t-58 68t-77.5 56.5t-84.5 55.5t-76.5 57.5t-55.5 69t-20 85.5q0 81 81 142t199 61q100 0 165.5 -32t66.5 -85 q3 -35 -19.5 -54t-54.5 -19q-34 0 -58.5 14t-40.5 34.5t-32 40.5t-42.5 34t-63.5 14q-39 0 -58.5 -20t-19.5 -50q0 -39 22.5 -75.5t58 -65t78.5 -56.5t85.5 -57.5t77.5 -60.5t56.5 -71t20.5 -85q-2 -90 -82.5 -165t-212.5 -75z" />
<glyph unicode="t" horiz-adv-x="649" d="M637 160q2 2 7 -1.5t8.5 -9.5t0.5 -10q-86 -87 -157.5 -125.5t-145.5 -38.5q-90 0 -148 45.5t-57 157.5l2 449q1 70 -17.5 90t-82.5 20q-5 0 -7.5 7.5t-1.5 14.5t5 7q93 0 150 48.5t79 125.5q2 7 21.5 4.5t19.5 -8.5v-164q86 4 273 16q10 0 16 -7t6 -15q-2 -22 -21.5 -49 t-43.5 -23q-14 1 -61 7t-89 10t-80 6l-2 -494q0 -75 33 -111t105 -36q91 0 188 84z" />
<glyph unicode="u" horiz-adv-x="1040" d="M1028 162q5 4 11.5 1.5t11 -9t0.5 -11.5q-63 -85 -117.5 -123t-114.5 -38q-131 0 -131 170v210q-42 -185 -127.5 -287t-204.5 -102q-98 0 -144.5 70.5t-43.5 200.5l8 364q3 105 -53 105q-35 0 -111 -80q-6 -7 -17.5 0.5t-6.5 15.5q64 83 114 121.5t111 38.5 q133 0 127 -188l-8 -338q-3 -205 104 -205q105 0 177 173.5t75 473.5v45q0 37 105 37q62 0 67 -14q1 -4 0 -26.5t-2.5 -60t-1.5 -67.5l-2 -457q0 -106 53 -106q50 0 121 86z" />
<glyph unicode="v" horiz-adv-x="966" d="M492 -27q-111 0 -192 82.5t-81 198.5q0 49 13.5 101t43 131.5t39.5 109.5q10 29 6 43t-28 14h-113q-81 0 -110.5 -19t-38.5 -73q-1 -6 -8.5 -8t-14.5 1.5t-6 10.5q11 58 20 92t22.5 63.5t33 43.5t47 21.5t68.5 7.5h206q20 0 23.5 -5t-2.5 -20q-66 -230 -66 -393 q0 -124 59 -193t148 -69q103 0 174.5 89t71.5 218q0 41 -7.5 72t-27 56.5t-33 38.5t-43.5 38q-73 58 -73 114q0 36 25 54t65 18q47 0 81 -26t51.5 -71t25.5 -94t8 -106q1 -239 -116 -390t-271 -151z" />
<glyph unicode="w" horiz-adv-x="1386" d="M1126 811q45 0 78.5 -28t51.5 -75t26 -98.5t8 -109.5q0 -233 -104.5 -380t-243.5 -147q-124 0 -211 129q-106 -129 -244 -129q-117 0 -188.5 74t-71.5 195q-3 150 88 354q12 31 7.5 44t-29.5 13h-113q-81 0 -110.5 -20t-38.5 -74q-1 -6 -8.5 -7.5t-14.5 2.5t-6 11 q14 73 25 111.5t32 68t52 39t82 9.5h206q20 0 23.5 -5t-2.5 -20q-65 -238 -62 -393q1 -126 58.5 -195t136.5 -69q78 0 139 61q-65 146 -65 348q0 283 133 283q119 0 119 -232q0 -199 -78 -358q93 -100 200 -100q93 0 153 75t60 205q0 84 -26.5 135t-85.5 101q-72 60 -72 110 q0 36 26.5 54t69.5 18zM737 639q-31 0 -48 -26.5t-17 -75.5q0 -65 23.5 -137.5t64.5 -133.5q59 109 59 242q0 131 -82 131z" />
<glyph unicode="x" horiz-adv-x="940" d="M918 152q7 9 18 -3q7 -9 2 -14q-131 -155 -240 -155q-53 0 -91.5 30.5t-82.5 108.5l-98 182l-86 -174q-45 -93 -73.5 -120t-78.5 -27q-55 0 -105.5 37t-51.5 85q-2 27 18.5 46.5t56.5 19.5q40 0 79 -25.5t63 -25.5q36 0 59 47l96 178l-137 256q-33 62 -64 83t-65 21 q-52 0 -114 -65q-7 -9 -19 3q-8 8 -2 13q132 156 238 156q55 0 95 -31t83 -112l84 -158l78 154q47 94 74.5 120.5t76.5 26.5q55 0 106.5 -37.5t51.5 -85.5q2 -28 -18.5 -48t-55.5 -20q-32 0 -56 14t-43 28t-40 14q-38 0 -62 -49l-88 -160l152 -281q30 -60 59.5 -79t63.5 -19 q54 0 117 66z" />
<glyph unicode="y" horiz-adv-x="978" d="M776 807q81 0 84 -12q0 -84 -4 -156l-4 -782q-3 -194 -110 -313t-293 -119q-122 0 -203 45t-76 110q0 47 23.5 69.5t58.5 22.5q36 0 59.5 -21t39 -51t33.5 -60t54 -51t90 -21q35 0 61.5 15t49 50.5t34.5 104.5t11 169l2 545q-43 -181 -128 -280t-202 -99q-96 0 -145 67 t-45 204l8 364q3 105 -51 105q-40 0 -113 -80q-7 -7 -17 0.5t-5 15.5q64 83 114 121.5t109 38.5q136 0 127 -188l-6 -338q-6 -205 104 -205q100 0 170.5 161t79.5 439l2 100q0 12 24 20.5t64 8.5z" />
<glyph unicode="z" horiz-adv-x="757" d="M735 225q0 4 6.5 4.5t13 -2t5.5 -6.5q-14 -105 -30 -153.5t-39 -63.5t-70 -14q-63 1 -221 27t-226 28q-35 0 -60 -12.5t-53 -46.5q-2 -4 -10.5 0t-15 11.5t-2.5 12.5l489 598h-16q-51 0 -176.5 23.5t-163.5 23.5q-41 0 -64 -17.5t-30 -59.5q-2 -10 -15 -8q-10 4 -8 12 q12 83 21.5 124t27.5 66t40 30.5t65 4.5q47 -3 183 -27.5t200 -27.5q36 0 60.5 12.5t51.5 46.5q4 6 18 -4.5t11 -15.5l-485 -601h14q62 0 208 -23.5t183 -23.5q38 0 57.5 18.5t30.5 63.5z" />
<glyph unicode="{" horiz-adv-x="591" d="M66 610q-6 0 -6 13.5t6 13.5q34 5 59 34.5t39 70.5t22 102t10.5 115t2.5 124q0 89 5 149.5t19.5 107.5t35.5 73.5t58.5 43.5t82 22.5t112.5 5.5q8 0 8 -12.5t-8 -12.5q-60 0 -92.5 -56.5t-34.5 -160.5q-2 -101 -3 -150t-5.5 -117t-10.5 -97.5t-18 -72t-27.5 -61.5 t-41 -44.5t-56 -41.5t-73.5 -34q57 -25 94 -47.5t64 -63.5t40.5 -73t21.5 -110t10.5 -138t4.5 -191q2 -104 34.5 -160.5t92.5 -56.5q8 0 8 -12.5t-8 -12.5q-68 0 -113.5 6t-82.5 23.5t-58 44t-35 74t-19 107.5t-5 149q0 72 -2.5 126t-10.5 115t-22 101.5t-39 69.5t-59 34z " />
<glyph unicode="|" horiz-adv-x="344" d="M129 -315v1812q0 13 46 13t46 -13v-1812q0 -15 -46 -15t-46 15z" />
<glyph unicode="}" horiz-adv-x="579" d="M514 610q-34 -5 -59 -34t-39 -69.5t-22 -101.5t-10.5 -115t-2.5 -126q0 -89 -5 -149t-19 -107.5t-35 -74t-58 -44t-82.5 -23.5t-113.5 -6q-8 0 -8 12.5t8 12.5q60 0 92.5 56.5t34.5 160.5q2 131 4.5 191t10.5 138t21.5 110t40.5 73t64 63.5t94 47.5q-43 18 -73.5 34 t-56 41.5t-41 44.5t-27.5 61.5t-18 72t-10.5 97.5t-5.5 117t-3 150q-2 104 -34.5 160.5t-92.5 56.5q-8 0 -8 12.5t8 12.5q68 0 112.5 -5.5t82 -22.5t58.5 -43.5t35.5 -73.5t19.5 -107.5t5 -149.5q0 -58 1.5 -104t6.5 -98.5t14 -91.5t23.5 -73.5t36.5 -54.5t51 -24 q6 0 6 -13.5t-6 -13.5z" />
<glyph unicode="~" horiz-adv-x="907" d="M643 424q40 0 72.5 14t46 26.5t35.5 37.5q3 3 7.5 0.5t6.5 -7t0 -8.5q-76 -114 -124 -153t-107 -39q-54 0 -154 37t-162 37q-20 0 -36.5 -3.5t-27 -6.5t-24.5 -13t-19.5 -14.5t-21.5 -20t-22 -20.5q-3 -3 -10.5 2.5t-4.5 11.5q124 193 246 193q40 0 139.5 -37t159.5 -37z " />
<glyph unicode="&#xa1;" horiz-adv-x="528" d="M276 748q51 0 82 -30.5t31 -82.5q0 -49 -31 -78t-82 -29q-53 0 -81.5 28.5t-28.5 78.5q0 53 28.5 83t81.5 30zM391 -539q4 -11 -38 -17.5t-89 -6.5q-46 0 -88.5 6.5t-38.5 17.5q30 121 53 296.5t31 277.5t21 303q0 9 27.5 9t27.5 -9q9 -182 17 -298.5t28.5 -287 t48.5 -291.5z" />
<glyph unicode="&#xa2;" horiz-adv-x="1091" d="M977 287q1 7 11.5 5.5t10.5 -7.5l-20 -217q-2 -18 -6.5 -24t-22.5 -13q-160 -56 -327 -56h-7v-184q0 -13 -27.5 -13t-27.5 13v186q-107 8 -193.5 44.5t-141.5 87.5t-92 116.5t-52.5 129.5t-15.5 128q0 196 140 335t355 161v170q0 15 27.5 15t27.5 -15v-166h17 q76 0 165 -15.5t146 -43.5q14 -6 18.5 -13t4.5 -22l14 -211q0 -6 -11 -7.5t-14 5.5q-121 257 -340 266v-926q12 -2 35 -2q112 0 189.5 65.5t136.5 207.5zM276 514q0 -111 28.5 -209t95 -176.5t161.5 -103.5v915q-133 -17 -209 -133t-76 -293z" />
<glyph unicode="&#xa3;" horiz-adv-x="884" d="M754 260q0 3 6 3.5t12 -1t6 -4.5q-18 -106 -18 -227q0 -17 -7 -24t-24 -7h-690q-6 0 -6 12t6 13q58 13 96 35t56 51t24 58t4 67q-5 108 -37 206h-88q-14 0 -14 28t14 28h70q-35 107 -35 176q0 81 31 142.5t85 97t119.5 52.5t141.5 17q96 0 182 -29q30 -12 33 -39l14 -210 q0 -9 -9.5 -9t-14.5 9q-24 55 -44.5 92.5t-50 74.5t-67 55.5t-82.5 18.5q-85 0 -122.5 -58.5t-37.5 -144.5q0 -19 1 -36.5t5 -39t6 -33t8.5 -37t8.5 -31.5t10.5 -36t9.5 -32h205q13 0 13 -28t-13 -28h-188q18 -81 18 -139q0 -77 -25 -124.5t-71 -84.5h219q130 0 173.5 30.5 t66.5 135.5z" />
<glyph unicode="&#xa4;" horiz-adv-x="847" d="M748 135l-70 -67l-100 112q-80 -47 -177 -47q-82 0 -143 39l-92 -104l-60 59l91 94q-72 81 -72 193q0 109 74 180l-103 102l70 64l104 -113q74 39 162 39q87 0 152 -41l104 109l57 -58l-100 -102q70 -77 70 -182q0 -101 -68 -176zM440 178q61 0 97 50t36 141 q0 110 -51 191t-137 81q-58 0 -91.5 -46.5t-33.5 -137.5q0 -69 18 -130t60.5 -105t101.5 -44z" />
<glyph unicode="&#xa5;" horiz-adv-x="1007" d="M999 958q6 0 6 -12t-6 -12q-125 0 -233 -184l-158 -279v-35h195q13 0 13 -24.5t-13 -24.5h-195v-88h195q13 0 13 -25.5t-13 -25.5h-195v-82q0 -63 11 -90.5t43.5 -39t105.5 -11.5q4 0 4 -12.5t-4 -12.5q-32 0 -115.5 2t-138.5 2q-47 0 -133 -2t-119 -2q-6 0 -6 12.5 t6 12.5q102 0 132 26t30 115v82h-201q-13 0 -13 25.5t13 25.5h201v88h-201q-13 0 -13 24.5t13 24.5h201v2l-227 350q-51 79 -95 112.5t-96 33.5q-6 0 -6 12t6 12q18 0 75 -3t75 -3q53 0 163.5 3t137.5 3q5 0 5 -12t-5 -12q-145 0 -74 -107l201 -309l131 234q44 76 27 129 t-93 53q-6 0 -6 12t6 12q33 0 104 -3t130 -3q28 0 62 3t54 3z" />
<glyph unicode="&#xa6;" horiz-adv-x="344" d="M129 737v760q0 13 46 13t46 -13v-760q0 -13 -46 -13t-46 13zM129 -315v757q0 15 46 15t46 -15v-757q0 -15 -46 -15t-46 15z" />
<glyph unicode="&#xa7;" horiz-adv-x="966" d="M705 68q83 -83 83 -185q0 -67 -28.5 -120t-76 -84.5t-106 -47.5t-122.5 -16q-104 0 -176 37q-23 15 -25 35l-14 227q0 4 10.5 4t13.5 -4q11 -31 32.5 -69.5t54.5 -82t79 -72t94 -28.5q52 0 83.5 35t31.5 106q0 62 -26.5 112.5t-68.5 87t-93 70t-101.5 69.5t-92.5 77 t-68.5 101t-26.5 133q0 72 31.5 132t117.5 134q-84 84 -84 184q0 88 49.5 150.5t123 90t161.5 27.5q108 0 176 -38q23 -11 23 -33l16 -228q0 -6 -11 -6t-13 6q-11 31 -32.5 69.5t-54.5 82t-79 72t-94 28.5q-54 0 -85.5 -35t-31.5 -106q0 -62 26.5 -112.5t68.5 -87t93 -70 t102.5 -69.5t93.5 -77t68.5 -100.5t26.5 -132.5q0 -72 -31.5 -132t-117.5 -134zM297 543q0 -74 24.5 -134t69.5 -104.5t88.5 -76t104.5 -71t94 -67.5q41 58 41 154q0 62 -19 115.5t-47.5 90t-71 72.5t-80.5 60.5t-85.5 56.5t-77.5 57q-41 -58 -41 -153z" />
<glyph unicode="&#xa8;" horiz-adv-x="563" d="M111 961q-47 0 -76 27t-29 75q0 45 29 71.5t76 26.5t73.5 -26t26.5 -72q0 -49 -26 -75.5t-74 -26.5zM455 961q-48 0 -75.5 26.5t-27.5 75.5q0 46 28 72t75 26q46 0 72 -26t26 -72q0 -49 -26 -75.5t-72 -26.5z" />
<glyph unicode="&#xa9;" horiz-adv-x="1482" d="M772 -215q-123 0 -236 40t-202.5 113.5t-143 189.5t-53.5 257q0 184 100.5 333t259 228.5t337.5 79.5q119 0 220 -39t168 -104t104.5 -151t37.5 -181q0 -92 -39.5 -177.5t-108 -150.5t-168 -104t-212.5 -39q-79 0 -143 18.5t-106 49.5t-70.5 72.5t-41 86t-12.5 92.5 q0 80 31.5 147t82.5 109.5t114.5 66t129.5 23.5q52 0 98.5 -12t79.5 -39.5t33 -64.5q0 -36 -19.5 -57t-58.5 -21q-50 0 -84 67q-13 21 -20 31t-21 24.5t-31.5 20.5t-39.5 6q-73 0 -101 -57.5t-28 -177.5q0 -68 17 -126t51.5 -104.5t94 -73t138.5 -26.5q129 0 222 95.5 t93 256.5q0 135 -62 247.5t-172.5 178.5t-244.5 66q-117 0 -212.5 -43t-156.5 -118t-94 -172.5t-33 -209.5q0 -179 77.5 -313t206 -201t288.5 -67q109 0 198.5 21.5t186.5 78.5q7 4 13 -6q4 -6 -1 -8q-114 -88 -227.5 -122t-239.5 -34z" />
<glyph unicode="&#xaa;" horiz-adv-x="598" d="M594 870q2 2 7 -0.5t9 -6t2 -5.5q-78 -113 -155 -113q-44 0 -63 30.5t-19 98.5l-2 82q-37 -105 -102.5 -161t-137.5 -56q-51 0 -84 39t-33 119q-2 87 42 180t118 156t150 63q63 0 106 -32q19 16 29 43q1 3 10.5 1t9.5 -5l-4 -429q0 -65 33 -65q32 0 84 61zM190 823 q46 0 89.5 47.5t68.5 115.5t25 130q1 55 -26.5 88t-74.5 33q-70 0 -113.5 -72t-45.5 -180q0 -84 21.5 -123t55.5 -39zM547 641q7 0 9.5 -14.5t0.5 -29.5t-8 -15h-508q-6 0 -8 15t-0.5 29.5t6.5 14.5h508z" />
<glyph unicode="&#xab;" horiz-adv-x="960" d="M489 82l-376 305q-9 9 -9 23.5t9 23.5l376 305q2 3 6.5 2t7.5 -5t1 -7l-209 -317l209 -318q2 -7 -7 -13q-6 -3 -8 1zM827 82l-378 305q-7 9 -7 23.5t7 23.5l378 305q2 3 6.5 2t7.5 -5t1 -7l-211 -317l211 -318q2 -7 -7 -13q-6 -2 -8 1z" />
<glyph unicode="&#xac;" horiz-adv-x="808" d="M745 553v-395q0 -6 -23 -8t-46 -0.5t-23 6.5v307h-583q-6 0 -8 22.5t-0.5 45t6.5 22.5h677z" />
<glyph unicode="&#xad;" horiz-adv-x="661" d="M66 328q-6 -1 -8.5 24t-1.5 51.5t5 28.5l535 94q6 1 8 -24t0 -51t-8 -27z" />
<glyph unicode="&#xae;" horiz-adv-x="1521" d="M813 1485q132 0 243 -43.5t186.5 -119t118 -178.5t42.5 -220q0 -176 -87 -323.5t-237.5 -232.5t-330.5 -85q-114 0 -223 40.5t-196 113.5t-139.5 184.5t-52.5 242.5q0 138 56 256t149.5 197t215.5 123.5t255 44.5zM819 338q223 0 344 143t121 377q0 264 -152.5 421 t-394.5 157q-122 0 -217 -41t-152.5 -112t-86.5 -160t-29 -191q0 -132 46.5 -245t124.5 -188.5t180.5 -118t215.5 -42.5zM1151 575q5 0 5 -8t-5 -8h-188q-33 0 -191 330q-44 -6 -88 -6v-209q0 -61 16 -76.5t76 -15.5q3 0 3 -11.5t-3 -11.5q-18 0 -67 1t-82 1q-25 0 -78 -1 t-68 -1q-3 0 -3 11.5t3 11.5q52 0 65 15t13 77v440q0 57 -13.5 73.5t-64.5 16.5q-3 0 -3 12.5t3 12.5q20 0 71 -1t75 -1q26 0 86 4t82 4q101 0 150.5 -33.5t49.5 -105.5q0 -117 -114 -174q82 -167 138.5 -241t131.5 -106zM684 915q100 -9 140 21.5t40 116.5q0 155 -102 155 q-47 0 -62.5 -16t-15.5 -82v-195z" />
<glyph unicode="&#xaf;" horiz-adv-x="681" d="M106 973q-17 0 -17 37t17 37h476q19 0 19 -37t-19 -37h-476z" />
<glyph unicode="&#xb0;" horiz-adv-x="679" d="M342 764q-126 0 -204.5 76t-78.5 190q0 108 79 184t204 76t202 -75.5t77 -188.5q0 -112 -77.5 -187t-201.5 -75zM356 791q32 0 54.5 11t35.5 28.5t20 47.5t9 60t2 74q0 252 -147 252q-72 0 -98.5 -58.5t-26.5 -169.5q0 -117 33 -181t118 -64z" />
<glyph unicode="&#xb1;" horiz-adv-x="815" d="M70 471q-6 0 -8 23t-0.5 46t6.5 23h292v293q0 8 47.5 8t47.5 -8v-293h290q9 0 9 -46t-9 -46h-290v-291q0 -6 -23.5 -8t-47.5 -0.5t-24 6.5v293h-290zM745 86q9 0 9 -42t-9 -42h-675q-6 0 -8 21t-0.5 42t6.5 21h677z" />
<glyph unicode="&#xb2;" horiz-adv-x="516" d="M49 838q17 68 49 127t65 99t64 79t50.5 84t19.5 96q0 119 -90 119q-46 0 -80.5 -30.5t-48.5 -78.5q-1 -4 -7 -4.5t-11.5 2.5t-4.5 8q23 72 70 114t133 42t130 -41.5t44 -107.5q0 -48 -26.5 -94t-66.5 -83.5t-81.5 -72.5t-78.5 -75.5t-50 -78.5q0 -8 6 -8q67 0 108.5 1 t77 4.5t54 9.5t33 17t19.5 24.5t7 35.5q0 3 11.5 3t11.5 -3l-4 -190q0 -3 -3 -7t-6 -4h-389q-10 0 -6 13z" />
<glyph unicode="&#xb3;" horiz-adv-x="514" d="M307 1178q69 -14 111.5 -54.5t42.5 -103.5q0 -80 -59 -143.5t-164 -63.5q-149 0 -193 141q-1 5 5 8.5t12.5 3.5t7.5 -5q18 -44 54 -70.5t85 -26.5q50 0 82.5 33t32.5 109q0 74 -39.5 112.5t-114.5 38.5q-8 0 -7 12.5t7 12.5q61 0 94 40t33 101q0 56 -25 85.5t-67 29.5 q-44 0 -79.5 -32t-43.5 -73q-2 -4 -8.5 -4.5t-12 2.5t-4.5 8q19 71 68.5 113.5t132.5 42.5q84 0 130 -43t46 -109q0 -56 -36 -100t-91 -65z" />
<glyph unicode="&#xb4;" horiz-adv-x="434" d="M143 969q-3 -4 -8.5 -3.5t-11 3.5t-4.5 6l80 491q3 18 91 29q83 11 86 -3q0 -2 -1 -3z" />
<glyph unicode="&#xb6;" horiz-adv-x="1333" d="M709 -395q-77 0 -122.5 29t-45.5 81q0 38 22.5 62t67.5 24q36 0 56.5 -16t26.5 -38.5t10.5 -45.5t15.5 -39t34 -16q46 0 64 80t18 290v240q-50 -6 -115 -6q-92 0 -178.5 16.5t-169.5 57t-145 100.5t-99.5 154.5t-37.5 212.5q0 243 153 369t424 126q41 0 140.5 -6 t162.5 -6q39 0 116 3t110 3q6 0 6 -12.5t-6 -12.5q-88 0 -135.5 -43t-47.5 -122l2 -977q0 -264 -77.5 -386t-249.5 -122z" />
<glyph unicode="&#xb7;" horiz-adv-x="399" d="M199 299q-51 0 -82 30.5t-31 82.5q0 49 31 77.5t82 28.5q53 0 81.5 -28t28.5 -78q0 -53 -28.5 -83t-81.5 -30z" />
<glyph unicode="&#xb8;" horiz-adv-x="401" d="M176 -563q-68 0 -116.5 28.5t-47.5 75.5q-3 29 16.5 45.5t47.5 16.5q30 0 51.5 -20t31.5 -43.5t28 -43.5t42 -20q25 0 38 15.5t12 43.5q-5 60 -127 182q-51 53 -19 160l39 123h31q-8 -29 -8 -55t5 -44.5t20 -40.5t27.5 -36t35.5 -37q50 -56 72.5 -94t21.5 -76 q2 -65 -49.5 -122.5t-151.5 -57.5z" />
<glyph unicode="&#xb9;" horiz-adv-x="536" d="M82 825q-4 0 -4 12.5t4 12.5q92 0 113.5 22t21.5 119v242q0 36 -0.5 56t-3 41t-5.5 30t-11.5 17t-17.5 7.5t-26 -4t-34.5 -10.5t-46.5 -20q-9 -4 -15 12q-3 9 2 10l265 119q7 4 13.5 -1.5t6.5 -12.5v-486q0 -97 19.5 -119t107.5 -22q5 0 5 -12.5t-5 -12.5q-24 0 -87 3 t-101 3q-40 0 -108.5 -3t-92.5 -3z" />
<glyph unicode="&#xba;" horiz-adv-x="581" d="M266 733q-117 0 -184.5 83.5t-65.5 201.5q0 122 78 197t191 75q117 0 184.5 -79.5t65.5 -196.5q-1 -127 -81 -204t-188 -77zM303 772q54 0 85.5 50.5t31.5 140.5q2 120 -48.5 205t-127.5 85q-110 0 -113 -184q0 -125 49 -211t123 -86zM51 582q-6 0 -8.5 15t-1 29.5 t5.5 14.5h500q10 0 9.5 -29.5t-9.5 -29.5h-496z" />
<glyph unicode="&#xbb;" horiz-adv-x="960" d="M133 739l377 -305q9 -9 9 -23.5t-9 -23.5l-377 -305q-4 -7 -11 1q-5 6 -3 11l211 316l-211 319q-2 5 6 11q6 4 8 -1zM469 739l379 -305q8 -9 8 -23.5t-8 -23.5l-379 -305q-4 -7 -11 1q-5 6 -3 11l209 316l-209 319q-2 5 6 11q6 4 8 -1z" />
<glyph unicode="&#xbc;" horiz-adv-x="1239" d="M471 655q5 0 5 -11t-5 -11q-24 0 -87 2t-101 2q-40 0 -108.5 -2t-92.5 -2q-4 0 -4 11t4 11q92 0 113.5 22.5t21.5 119.5v243q0 48 -1 71.5t-6.5 45.5t-13 27.5t-25.5 5.5t-39.5 -8t-59.5 -25q-8 -5 -14 10q-4 10 1 11l265 120q7 3 13.5 -3t6.5 -11v-487q0 -97 20 -119.5 t107 -22.5zM895 1288q4 7 33.5 -6t27.5 -18l-573 -1266q-1 -4 -16 2t-29.5 15t-13.5 12zM1190 180q-14 1 -41 2t-41 2v-100q0 -40 12 -50.5t70 -10.5q2 0 2 -12.5t-2 -12.5q-18 0 -62 1t-75 1q-35 0 -92.5 -1t-79.5 -1q-3 0 -3 12.5t3 12.5q69 0 86.5 10t17.5 51v104 q-180 5 -258 5q-6 0 -10 6.5t2 11.5l334 446q6 9 30.5 7.5t24.5 -9.5v-424q14 1 41.5 2.5t40.5 2.5q6 0 6 -28t-6 -28zM797 223q42 0 104 1t84 1v279l-192 -275q-6 -6 4 -6z" />
<glyph unicode="&#xbd;" horiz-adv-x="1251" d="M82 633q-4 0 -4 11t4 11q92 0 113.5 22.5t21.5 119.5v243q0 48 -1 71.5t-6.5 45.5t-13 27.5t-25.5 5.5t-39.5 -8t-59.5 -25q-8 -5 -14 10q-4 10 1 11l265 120q7 3 13.5 -3t6.5 -11v-487q0 -97 20 -119.5t107 -22.5q5 0 5 -11t-5 -11q-24 0 -87 2t-101 2q-40 0 -108.5 -2 t-92.5 -2zM383 -2q-1 -4 -16 2t-29.5 15t-13.5 12l571 1261q4 7 33.5 -6t27.5 -18zM784 12q17 68 49 127t65 99t64 79t50.5 84t19.5 97q0 116 -90 116q-46 0 -80.5 -30t-48.5 -76q-1 -5 -7 -5.5t-11 2.5t-4 7q23 72 69.5 114t132.5 42t130 -41t44 -107q0 -48 -26.5 -94 t-66.5 -83.5t-81.5 -72.5t-78.5 -75.5t-50 -79.5q0 -6 6 -6q130 0 188 6.5t82.5 25t28.5 60.5q0 3 11.5 3t11.5 -3l-4 -191q0 -10 -8 -10h-389q-10 0 -7 12z" />
<glyph unicode="&#xbe;" horiz-adv-x="1216" d="M461 827q0 -80 -59 -143t-164 -63q-150 0 -193 141q-1 5 5 8t12.5 2t7.5 -6q18 -42 54 -69t85 -27q50 0 82.5 33t32.5 110q0 73 -39.5 111.5t-114.5 38.5q-8 0 -7 12t7 12q62 0 94.5 40.5t32.5 102.5q0 56 -25 85.5t-67 29.5q-44 0 -79.5 -32t-43.5 -72q-2 -5 -8.5 -6 t-12 2t-4.5 8q40 155 201 155q84 0 130 -42t46 -107q0 -56 -36.5 -101.5t-90.5 -66.5q68 -13 111 -53t43 -103zM872 1288q4 7 34 -6t28 -18l-574 -1266q-1 -4 -16 2t-29.5 15t-13.5 12zM1167 180q-14 1 -41 2t-41 2v-100q0 -40 12 -50.5t70 -10.5q1 0 1 -12.5t-1 -12.5 q-19 0 -63 1t-74 1q-35 0 -92.5 -1t-79.5 -1q-3 0 -3 12.5t3 12.5q70 0 87.5 10t17.5 51v104q-180 5 -258 5q-6 0 -10.5 6.5t1.5 11.5l334 446q6 9 30.5 7.5t24.5 -9.5v-424q14 1 41.5 2.5t40.5 2.5q6 0 6 -28t-6 -28zM774 223q42 0 104.5 1t84.5 1v279l-193 -275 q-6 -6 4 -6z" />
<glyph unicode="&#xbf;" horiz-adv-x="669" d="M360 739q51 0 82 -30t31 -82q0 -49 -31 -78t-82 -29q-53 0 -81.5 28.5t-28.5 78.5q0 53 28.5 82.5t81.5 29.5zM336 -528q36 0 49.5 23.5t17.5 64.5q3 24 7.5 41t15 39t31.5 33.5t51 11.5q47 0 69.5 -27t22.5 -61q0 -66 -77 -113t-189 -47q-129 0 -216 63.5t-87 180.5 q0 33 9 64t20 52t33.5 47t36.5 39t43.5 38.5t41.5 35.5q66 60 95.5 119.5t29.5 132.5q0 39 -12 110q-1 4 6 7t14 3.5t10 -3.5q24 -55 39 -126.5t15 -119.5q0 -53 -19 -96t-46 -74t-53.5 -63t-45.5 -80.5t-19 -110.5q0 -81 29 -132.5t78 -51.5z" />
<glyph unicode="&#xc0;" horiz-adv-x="1335" d="M481 1548q-30 8 33 33q78 33 137 38q18 1 23 -3q28 -25 58.5 -50t47.5 -38t64 -49t65 -49q9 -6 2.5 -15t-14.5 -4q-210 81 -416 137zM1346 25q6 0 6 -12.5t-6 -12.5q-37 0 -117 4t-129 4q-48 0 -122.5 -4t-111.5 -4q-8 0 -8 12.5t8 12.5q93 0 113.5 30.5t-14.5 116.5 l-183 457h-327l-150 -363q-40 -90 -33 -143.5t50 -75.5t131 -22q6 0 8 -6.5t-0.5 -12.5t-9.5 -6q-30 0 -120 4t-138 4q-47 0 -110 -4t-99 -4q-8 0 -8.5 12.5t8.5 12.5q62 0 132 62t124 183l436 1028q2 7 18.5 6.5t22.5 -8.5l444 -1124q16 -41 25 -59.5t23.5 -40t31 -29 t42 -13t63.5 -5.5zM475 680h287l-141 356z" />
<glyph unicode="&#xc1;" horiz-adv-x="1335" d="M569 1391q-6 -3 -11 1.5t-5.5 10t2.5 8.5q54 38 135.5 111t110.5 96q13 12 117 -25q87 -31 82 -42q0 -2 -5 -3q-218 -57 -426 -157zM1346 25q6 0 6 -12.5t-6 -12.5q-37 0 -117 4t-129 4q-48 0 -122.5 -4t-111.5 -4q-8 0 -8 12.5t8 12.5q93 0 113.5 30.5t-14.5 116.5 l-183 457h-327l-150 -363q-40 -90 -33 -143.5t50 -75.5t131 -22q6 0 8 -6.5t-0.5 -12.5t-9.5 -6q-30 0 -120 4t-138 4q-47 0 -110 -4t-99 -4q-8 0 -8.5 12.5t8.5 12.5q62 0 132 62t124 183l436 1028q2 7 18.5 6.5t22.5 -8.5l444 -1124q16 -41 25 -59.5t23.5 -40t31 -29 t42 -13t63.5 -5.5zM475 680h287l-141 356z" />
<glyph unicode="&#xc2;" horiz-adv-x="1335" d="M492 1352q-2 -2 -7 0.5t-8 6.5t0 7l193 223q6 9 17 9t20 -9l204 -223q2 -3 0 -7.5t-5.5 -6.5t-6.5 0l-205 90zM1346 25q6 0 6 -12.5t-6 -12.5q-37 0 -117 4t-129 4q-48 0 -122.5 -4t-111.5 -4q-8 0 -8 12.5t8 12.5q93 0 113.5 30.5t-14.5 116.5l-183 457h-327l-150 -363 q-40 -90 -33 -143.5t50 -75.5t131 -22q6 0 8 -6.5t-0.5 -12.5t-9.5 -6q-30 0 -120 4t-138 4q-47 0 -110 -4t-99 -4q-8 0 -8.5 12.5t8.5 12.5q62 0 132 62t124 183l436 1028q2 7 18.5 6.5t22.5 -8.5l444 -1124q16 -41 25 -59.5t23.5 -40t31 -29t42 -13t63.5 -5.5zM475 680 h287l-141 356z" />
<glyph unicode="&#xc3;" horiz-adv-x="1335" d="M444 1411q-2 -2 -7 -0.5t-8.5 6t-0.5 8.5q14 28 26.5 48.5t33.5 48t48.5 42.5t57.5 15q27 0 117.5 -25.5t140.5 -25.5q40 0 64 12.5t51 42.5q3 3 10 -3.5t6 -10.5q-43 -91 -77 -122.5t-83 -31.5q-37 0 -127 25.5t-139 25.5q-12 0 -22 -0.5t-18.5 -2.5t-14.5 -3.5 t-12.5 -6t-10 -6t-9.5 -8t-8 -8.5t-9 -10t-9 -10zM1346 25q6 0 6 -12.5t-6 -12.5q-37 0 -117 4t-129 4q-48 0 -122.5 -4t-111.5 -4q-8 0 -8 12.5t8 12.5q93 0 113.5 30.5t-14.5 116.5l-183 457h-327l-150 -363q-40 -90 -33 -143.5t50 -75.5t131 -22q6 0 8 -6.5t-0.5 -12.5 t-9.5 -6q-30 0 -120 4t-138 4q-47 0 -110 -4t-99 -4q-8 0 -8.5 12.5t8.5 12.5q62 0 132 62t124 183l436 1028q2 7 18.5 6.5t22.5 -8.5l444 -1124q16 -41 25 -59.5t23.5 -40t31 -29t42 -13t63.5 -5.5zM475 680h287l-141 356z" />
<glyph unicode="&#xc4;" horiz-adv-x="1335" d="M518 1450q-47 0 -75.5 27t-28.5 75q0 45 29 72t75 27q47 0 73.5 -26.5t26.5 -72.5q0 -49 -26 -75.5t-74 -26.5zM862 1450q-48 0 -75 26.5t-27 75.5q0 46 27.5 72.5t74.5 26.5q46 0 72.5 -26.5t26.5 -72.5q0 -49 -26.5 -75.5t-72.5 -26.5zM1346 25q6 0 6 -12.5t-6 -12.5 q-37 0 -117 4t-129 4q-48 0 -122.5 -4t-111.5 -4q-8 0 -8 12.5t8 12.5q93 0 113.5 30.5t-14.5 116.5l-183 457h-327l-150 -363q-40 -90 -33 -143.5t50 -75.5t131 -22q6 0 8 -6.5t-0.5 -12.5t-9.5 -6q-30 0 -120 4t-138 4q-47 0 -110 -4t-99 -4q-8 0 -8.5 12.5t8.5 12.5 q62 0 132 62t124 183l436 1028q2 7 18.5 6.5t22.5 -8.5l444 -1124q16 -41 25 -59.5t23.5 -40t31 -29t42 -13t63.5 -5.5zM475 680h287l-141 356z" />
<glyph unicode="&#xc5;" horiz-adv-x="1335" d="M676 1354q-94 0 -149.5 48.5t-55.5 115.5q0 73 70 115t155 42t145 -47.5t60 -114.5q0 -71 -68.5 -115t-156.5 -44zM655 1649q-55 0 -55 -90q0 -69 30 -124t79 -55q59 0 59 97q0 70 -33 121t-80 51zM1346 25q6 0 6 -12.5t-6 -12.5q-37 0 -117 4t-129 4q-48 0 -122.5 -4 t-111.5 -4q-8 0 -8 12.5t8 12.5q93 0 113.5 30.5t-14.5 116.5l-183 457h-327l-150 -363q-40 -90 -33 -143.5t50 -75.5t131 -22q6 0 8 -6.5t-0.5 -12.5t-9.5 -6q-30 0 -120 4t-138 4q-47 0 -110 -4t-99 -4q-8 0 -8.5 12.5t8.5 12.5q62 0 132 62t124 183l436 1028 q2 7 18.5 6.5t22.5 -8.5l444 -1124q16 -41 25 -59.5t23.5 -40t31 -29t42 -13t63.5 -5.5zM475 680h287l-141 356z" />
<glyph unicode="&#xc6;" horiz-adv-x="1712" d="M1612 319q1 4 8 4t13 -2.5t5 -5.5q-18 -117 -18 -284q0 -17 -7 -24t-26 -7h-844q-11 0 -11 12.5t11 12.5q91 0 118.5 26.5t21.5 114.5l-25 473h-315l-226 -387q-61 -98 -20.5 -162.5t166.5 -64.5q10 0 9.5 -12.5t-9.5 -12.5q-39 0 -149 4t-164 4q-49 0 -114.5 -4 t-103.5 -4q-9 0 -9.5 12.5t9.5 12.5q91 0 164 52.5t158 196.5l524 906q28 48 16 61t-107 14h-50q-11 0 -11 12.5t11 12.5h891q16 0 16 -18q6 -234 6 -269q0 -5 -6.5 -5.5t-13 2t-6.5 5.5q-25 118 -108 187t-202 69h-55q-80 0 -109 -31.5t-24 -107.5l23 -420h217 q101 0 145 35.5t49 118.5q0 5 7 6.5t13.5 -0.5t6.5 -8v-178q0 -49 4 -205q0 -5 -7.5 -6t-14.5 1.5t-7 6.5q-3 176 -200 176h-209l24 -465q3 -87 29 -112t115 -25h73q107 0 192.5 76.5t125.5 205.5zM575 692h281l-22 443z" />
<glyph unicode="&#xc7;" horiz-adv-x="1298" d="M1192 328q4 8 13 6.5t9 -10.5l-14 -234q-5 -27 -9 -34t-22 -13q-187 -68 -381 -68q-9 -57 12.5 -96.5t73.5 -91.5q51 -57 73.5 -94.5t21.5 -75.5q2 -65 -49.5 -122.5t-151.5 -57.5q-68 0 -116.5 28.5t-47.5 75.5q-3 29 16.5 45.5t47.5 16.5q30 0 51.5 -20t31.5 -43.5 t28 -43.5t42 -20q25 0 38 15.5t11 43.5q-5 60 -127 182q-30 31 -32 74t14 86l31 98q-145 4 -262.5 46t-193.5 108t-127.5 153.5t-73 177.5t-21.5 185q0 120 38.5 226t106 184t157.5 134.5t195.5 85t217.5 28.5q95 0 198 -18t164 -46q16 -10 21.5 -18t5.5 -29l16 -260 q0 -6 -9 -6t-13 6q-66 155 -185 237t-276 82q-204 0 -316 -144t-112 -398q0 -187 67 -347.5t184 -255t257 -94.5q232 0 397 316z" />
<glyph unicode="&#xc8;" horiz-adv-x="1159" d="M385 1548q-30 8 33 33q78 33 137 38q18 1 23 -3q28 -25 58.5 -50t47.5 -38t64 -49t65 -49q9 -6 2.5 -15t-14.5 -4q-210 81 -416 137zM1059 319q2 4 9 4t12.5 -2.5t4.5 -5.5q-20 -130 -20 -284q0 -18 -6.5 -24.5t-24.5 -6.5h-928q-5 0 -7 6t-0.5 12.5t5.5 6.5 q94 0 120 25.5t26 115.5v948q-2 88 -29 114.5t-117 26.5q-5 0 -7 6.5t-1 12.5t4 6h877q16 0 16 -18q4 -156 4 -265q0 -7 -11.5 -7.5t-12.5 5.5q-25 113 -105 179.5t-194 66.5h-90q-66 0 -95 -10.5t-38.5 -35t-10.5 -83.5v-420h277q98 0 143 35t45 117q0 6 7 8t14 -0.5 t6 -9.5q1 -49 -0.5 -105.5t-1.5 -70.5q0 -33 2 -98.5t2 -104.5q0 -10 -13.5 -9t-13.5 9q0 176 -196 176h-271v-465q0 -83 26.5 -108t115.5 -25h120q118 0 213.5 75.5t143.5 202.5z" />
<glyph unicode="&#xc9;" horiz-adv-x="1159" d="M473 1391q-6 -3 -11 1.5t-5.5 10t2.5 8.5q54 38 135.5 111t110.5 96q13 12 117 -25q87 -31 82 -42q0 -2 -5 -3q-218 -57 -426 -157zM1059 319q2 4 9 4t12.5 -2.5t4.5 -5.5q-20 -130 -20 -284q0 -18 -6.5 -24.5t-24.5 -6.5h-928q-5 0 -7 6t-0.5 12.5t5.5 6.5 q94 0 120 25.5t26 115.5v948q-2 88 -29 114.5t-117 26.5q-5 0 -7 6.5t-1 12.5t4 6h877q16 0 16 -18q4 -156 4 -265q0 -7 -11.5 -7.5t-12.5 5.5q-25 113 -105 179.5t-194 66.5h-90q-66 0 -95 -10.5t-38.5 -35t-10.5 -83.5v-420h277q98 0 143 35t45 117q0 6 7 8t14 -0.5 t6 -9.5q1 -49 -0.5 -105.5t-1.5 -70.5q0 -33 2 -98.5t2 -104.5q0 -10 -13.5 -9t-13.5 9q0 176 -196 176h-271v-465q0 -83 26.5 -108t115.5 -25h120q118 0 213.5 75.5t143.5 202.5z" />
<glyph unicode="&#xca;" horiz-adv-x="1159" d="M395 1352q-4 -4 -12 5q-6 5 -2 9l192 223q6 9 17 9t20 -9l205 -223q2 -3 0 -7.5t-5.5 -6.5t-6.5 0l-205 90zM1059 319q2 4 9 4t12.5 -2.5t4.5 -5.5q-20 -130 -20 -284q0 -18 -6.5 -24.5t-24.5 -6.5h-928q-5 0 -7 6t-0.5 12.5t5.5 6.5q94 0 120 25.5t26 115.5v948 q-2 88 -29 114.5t-117 26.5q-5 0 -7 6.5t-1 12.5t4 6h877q16 0 16 -18q4 -156 4 -265q0 -7 -11.5 -7.5t-12.5 5.5q-25 113 -105 179.5t-194 66.5h-90q-66 0 -95 -10.5t-38.5 -35t-10.5 -83.5v-420h277q98 0 143 35t45 117q0 6 7 8t14 -0.5t6 -9.5q1 -49 -0.5 -105.5 t-1.5 -70.5q0 -33 2 -98.5t2 -104.5q0 -10 -13.5 -9t-13.5 9q0 176 -196 176h-271v-465q0 -83 26.5 -108t115.5 -25h120q118 0 213.5 75.5t143.5 202.5z" />
<glyph unicode="&#xcb;" horiz-adv-x="1159" d="M422 1450q-47 0 -76 27t-29 75q0 45 29.5 72t75.5 27q47 0 73.5 -26.5t26.5 -72.5q0 -49 -26 -75.5t-74 -26.5zM766 1450q-48 0 -75 26.5t-27 75.5q0 46 27.5 72.5t74.5 26.5q46 0 72 -26.5t26 -72.5q0 -49 -26 -75.5t-72 -26.5zM1059 319q2 4 9 4t12.5 -2.5t4.5 -5.5 q-20 -130 -20 -284q0 -18 -6.5 -24.5t-24.5 -6.5h-928q-5 0 -7 6t-0.5 12.5t5.5 6.5q94 0 120 25.5t26 115.5v948q-2 88 -29 114.5t-117 26.5q-5 0 -7 6.5t-1 12.5t4 6h877q16 0 16 -18q4 -156 4 -265q0 -7 -11.5 -7.5t-12.5 5.5q-25 113 -105 179.5t-194 66.5h-90 q-66 0 -95 -10.5t-38.5 -35t-10.5 -83.5v-420h277q98 0 143 35t45 117q0 6 7 8t14 -0.5t6 -9.5q1 -49 -0.5 -105.5t-1.5 -70.5q0 -33 2 -98.5t2 -104.5q0 -10 -13.5 -9t-13.5 9q0 176 -196 176h-271v-465q0 -83 26.5 -108t115.5 -25h120q118 0 213.5 75.5t143.5 202.5z" />
<glyph unicode="&#xcc;" horiz-adv-x="712" d="M555 1411q-210 81 -416 137q-30 8 33 33q78 33 137 38q18 1 23 -3q28 -25 58.5 -50t47.5 -38t64 -49t65 -49q9 -6 2.5 -15t-14.5 -4zM111 0q-5 0 -5 12.5t5 12.5q95 0 122 26t25 115v948q0 88 -28 114.5t-119 26.5q-5 0 -5.5 12.5t5.5 12.5q29 0 110 -3t131 -3 q56 0 138.5 3t109.5 3q6 0 6 -12.5t-6 -12.5q-50 0 -77.5 -5.5t-43.5 -23.5t-20.5 -43t-5.5 -73v-944q0 -89 27.5 -115t119.5 -26q6 0 6 -12.5t-6 -12.5q-29 0 -110 2t-134 2q-49 0 -131.5 -2t-113.5 -2z" />
<glyph unicode="&#xcd;" horiz-adv-x="712" d="M227 1391q-6 -3 -11 1.5t-5.5 10t2.5 8.5q54 38 135.5 111t110.5 96q13 12 117 -25q87 -31 82 -42q0 -2 -5 -3q-218 -57 -426 -157zM111 0q-5 0 -5 12.5t5 12.5q95 0 122 26t25 115v948q0 88 -28 114.5t-119 26.5q-5 0 -5.5 12.5t5.5 12.5q29 0 110 -3t131 -3 q56 0 138.5 3t109.5 3q6 0 6 -12.5t-6 -12.5q-50 0 -77.5 -5.5t-43.5 -23.5t-20.5 -43t-5.5 -73v-944q0 -89 27.5 -115t119.5 -26q6 0 6 -12.5t-6 -12.5q-29 0 -110 2t-134 2q-49 0 -131.5 -2t-113.5 -2z" />
<glyph unicode="&#xce;" horiz-adv-x="712" d="M150 1352q-2 -2 -7 0.5t-8 6.5t0 7l193 223q6 9 17 9t20 -9l204 -223q2 -3 0 -7.5t-5.5 -6.5t-6.5 0l-205 90zM111 0q-5 0 -5 12.5t5 12.5q95 0 122 26t25 115v948q0 88 -28 114.5t-119 26.5q-5 0 -5.5 12.5t5.5 12.5q29 0 110 -3t131 -3q56 0 138.5 3t109.5 3 q6 0 6 -12.5t-6 -12.5q-50 0 -77.5 -5.5t-43.5 -23.5t-20.5 -43t-5.5 -73v-944q0 -89 27.5 -115t119.5 -26q6 0 6 -12.5t-6 -12.5q-29 0 -110 2t-134 2q-49 0 -131.5 -2t-113.5 -2z" />
<glyph unicode="&#xcf;" horiz-adv-x="712" d="M201 1450q-50 0 -77.5 26.5t-27.5 75.5q0 46 28 72.5t77 26.5q47 0 73.5 -26.5t26.5 -72.5q0 -49 -26 -75.5t-74 -26.5zM502 1450q-48 0 -76.5 26.5t-28.5 75.5q0 45 28.5 72t76.5 27q47 0 73.5 -26.5t26.5 -72.5q0 -49 -26 -75.5t-74 -26.5zM111 0q-5 0 -5 12.5t5 12.5 q95 0 122 26t25 115v948q0 88 -28 114.5t-119 26.5q-5 0 -5.5 12.5t5.5 12.5q29 0 110 -3t131 -3q56 0 138.5 3t109.5 3q6 0 6 -12.5t-6 -12.5q-50 0 -77.5 -5.5t-43.5 -23.5t-20.5 -43t-5.5 -73v-944q0 -89 27.5 -115t119.5 -26q6 0 6 -12.5t-6 -12.5q-29 0 -110 2t-134 2 q-49 0 -131.5 -2t-113.5 -2z" />
<glyph unicode="&#xd0;" horiz-adv-x="1390" d="M592 1284q319 0 519 -174.5t200 -447.5q0 -149 -56.5 -276t-151.5 -212.5t-219.5 -133.5t-260.5 -48q-35 0 -137.5 6t-149.5 6q-53 0 -136.5 -2t-113.5 -2q-4 0 -4 12.5t4 12.5q96 0 123.5 26t26.5 115v444h-150q-9 0 -9 27t9 27h150v450q-3 88 -31 114.5t-119 26.5 q-4 0 -4 12.5t4 12.5q29 0 112.5 -3t133.5 -3q43 0 132.5 5t127.5 5zM604 29q224 0 359 154.5t135 432.5q0 95 -18.5 184.5t-59 171t-98.5 142.5t-143.5 97t-188.5 36q-94 0 -128 -29.5t-34 -107.5v-446h195q7 0 7 -27t-7 -27h-195v-422q2 -86 38 -122.5t138 -36.5z" />
<glyph unicode="&#xd1;" horiz-adv-x="1449" d="M469 1411q-2 -2 -7 -0.5t-8.5 6t-0.5 8.5q14 28 26 48.5t33.5 48t48.5 42.5t57 15q27 0 118 -25.5t141 -25.5q40 0 63.5 12.5t50.5 42.5q3 3 10.5 -3.5t6.5 -10.5q-43 -91 -77 -122.5t-83 -31.5q-37 0 -127 25.5t-139 25.5q-12 0 -22 -0.5t-18.5 -2.5t-14.5 -3.5 t-12.5 -6t-10 -6t-9.5 -8t-8 -8.5t-9 -10t-9 -10zM1403 1280q6 0 6 -12.5t-6 -12.5q-84 0 -131 -53.5t-47 -152.5l-2 -1065q0 -10 -23.5 -12.5t-30.5 8.5l-866 1101l-2 -850q0 -101 45 -153.5t129 -52.5q7 0 7 -12.5t-7 -12.5q-25 0 -91.5 2t-111.5 2q-39 0 -108.5 -2 t-97.5 -2q-8 0 -8 12.5t8 12.5q84 0 131 53t47 153l2 920q-94 104 -187 104q-6 0 -6 12.5t6 12.5q30 0 94.5 -2t86.5 -2q28 0 77 2t52 2q17 0 25.5 -7.5t27.5 -39t41 -59.5l702 -895l2 770q2 100 -43 153t-131 53q-7 0 -7 12.5t7 12.5q21 0 89 -3t114 -3q40 0 109 3t98 3z " />
<glyph unicode="&#xd2;" d="M961 1411q-210 81 -416 137q-30 8 33 34q78 32 137 37q17 1 22 -3q28 -25 58 -49.5t49.5 -39.5t62.5 -47.5t66 -49.5q9 -6 2.5 -15t-14.5 -4zM723 -25q-143 0 -264.5 51.5t-204 139.5t-128.5 208.5t-46 256.5q1 142 54 267t144.5 214t219.5 140t274 51q147 0 270.5 -50.5 t207 -138t129 -207t44.5 -256.5q-1 -152 -58.5 -280.5t-153.5 -214t-222.5 -133.5t-265.5 -48zM811 29q186 0 298 140.5t112 375.5q1 189 -64 350.5t-187 259.5t-274 98q-186 0 -300 -139.5t-115 -376.5q-1 -187 64.5 -348t188.5 -260.5t277 -99.5z" />
<glyph unicode="&#xd3;" d="M633 1391q-6 -3 -11 1.5t-6 10t2 8.5q54 38 135.5 111t110.5 96q13 12 118 -25q87 -31 82 -42q0 -2 -5 -3q-218 -57 -426 -157zM723 -25q-143 0 -264.5 51.5t-204 139.5t-128.5 208.5t-46 256.5q1 142 54 267t144.5 214t219.5 140t274 51q147 0 270.5 -50.5t207 -138 t129 -207t44.5 -256.5q-1 -152 -58.5 -280.5t-153.5 -214t-222.5 -133.5t-265.5 -48zM811 29q186 0 298 140.5t112 375.5q1 189 -64 350.5t-187 259.5t-274 98q-186 0 -300 -139.5t-115 -376.5q-1 -187 64.5 -348t188.5 -260.5t277 -99.5z" />
<glyph unicode="&#xd4;" d="M555 1352q-4 -4 -12 5q-6 5 -2 9l192 223q6 9 17 9t20 -9l205 -223q2 -3 0 -7.5t-5.5 -6.5t-6.5 0l-205 90zM723 -25q-143 0 -264.5 51.5t-204 139.5t-128.5 208.5t-46 256.5q1 142 54 267t144.5 214t219.5 140t274 51q147 0 270.5 -50.5t207 -138t129 -207t44.5 -256.5 q-1 -152 -58.5 -280.5t-153.5 -214t-222.5 -133.5t-265.5 -48zM811 29q186 0 298 140.5t112 375.5q1 189 -64 350.5t-187 259.5t-274 98q-186 0 -300 -139.5t-115 -376.5q-1 -187 64.5 -348t188.5 -260.5t277 -99.5z" />
<glyph unicode="&#xd5;" d="M508 1411q-2 -2 -7 -0.5t-8.5 6t-0.5 8.5q14 28 26 48.5t33.5 48t48.5 42.5t57 15q27 0 117.5 -25.5t140.5 -25.5q40 0 64 12.5t51 42.5q3 3 10.5 -3.5t6.5 -10.5q-43 -91 -77 -122.5t-83 -31.5q-37 0 -127 25.5t-139 25.5q-12 0 -22 -0.5t-18.5 -2.5t-14.5 -3.5 t-12.5 -6t-10 -6t-9.5 -8t-8 -8.5t-9 -10t-9 -10zM723 -25q-143 0 -264.5 51.5t-204 139.5t-128.5 208.5t-46 256.5q1 142 54 267t144.5 214t219.5 140t274 51q147 0 270.5 -50.5t207 -138t129 -207t44.5 -256.5q-1 -152 -58.5 -280.5t-153.5 -214t-222.5 -133.5t-265.5 -48 zM811 29q186 0 298 140.5t112 375.5q1 189 -64 350.5t-187 259.5t-274 98q-186 0 -300 -139.5t-115 -376.5q-1 -187 64.5 -348t188.5 -260.5t277 -99.5z" />
<glyph unicode="&#xd6;" d="M582 1450q-47 0 -76 27t-29 75q0 45 29.5 72t75.5 27q47 0 73.5 -26.5t26.5 -72.5q0 -49 -26 -75.5t-74 -26.5zM926 1450q-48 0 -75.5 26.5t-27.5 75.5q0 46 28 72.5t75 26.5q46 0 72 -26.5t26 -72.5q0 -49 -26 -75.5t-72 -26.5zM723 -25q-143 0 -264.5 51.5t-204 139.5 t-128.5 208.5t-46 256.5q1 142 54 267t144.5 214t219.5 140t274 51q147 0 270.5 -50.5t207 -138t129 -207t44.5 -256.5q-1 -152 -58.5 -280.5t-153.5 -214t-222.5 -133.5t-265.5 -48zM811 29q186 0 298 140.5t112 375.5q1 189 -64 350.5t-187 259.5t-274 98 q-186 0 -300 -139.5t-115 -376.5q-1 -187 64.5 -348t188.5 -260.5t277 -99.5z" />
<glyph unicode="&#xd7;" horiz-adv-x="804" d="M674 184q5 -4 -10 -22.5t-33.5 -34t-22.5 -10.5l-205 205l-204 -207q-7 -6 -41 26.5t-31 38.5l209 209l-205 205q-6 7 26.5 40t37.5 30l208 -207l203 202q5 4 24 -11t34 -33t10 -21l-205 -205z" />
<glyph unicode="&#xd8;" d="M1190 1167q114 -89 174.5 -222.5t58.5 -293.5q-1 -152 -58.5 -280.5t-153.5 -214t-222.5 -133.5t-265.5 -48q-235 0 -404 131l-108 -131q-3 -4 -15.5 4t-22 19t-5.5 16l108 131q-94 89 -145 215.5t-51 270.5q1 142 54 267t144.5 214t219.5 140t274 51q215 0 371 -103 l80 96q4 4 17 -2.5t23 -16t7 -13.5zM281 737q0 -253 114 -446l652 790q-146 172 -351 172q-186 0 -300 -139.5t-115 -376.5zM1221 545q0 288 -140 489l-653 -794q154 -211 383 -211q186 0 298 140.5t112 375.5z" />
<glyph unicode="&#xd9;" horiz-adv-x="1572" d="M553 1548q-30 8 33 34q78 32 137 37q17 1 22 -3q28 -25 58 -49.5t49.5 -39.5t62.5 -47.5t66 -49.5q9 -6 2.5 -15t-14.5 -4q-210 81 -416 137zM1495 25q6 0 6 -12.5t-6 -12.5q-32 0 -93.5 1t-98.5 1q-27 0 -74 -1t-68 -1q-22 0 -27.5 6.5t-5.5 32.5v106 q-104 -89 -205 -129.5t-221 -40.5q-217 0 -355 110.5t-138 295.5v733q0 88 -27.5 114.5t-118.5 26.5q-6 0 -6 12.5t6 12.5q28 0 108 -3t130 -3q49 0 133 3t111 3q5 0 7 -6t1 -12.5t-4 -6.5q-50 0 -78 -5.5t-44.5 -23.5t-21.5 -43.5t-6 -72.5v-657q-1 -193 96.5 -300.5 t274.5 -107.5q95 0 179.5 35t178.5 119l-2 911q2 89 -25.5 117t-117.5 28q-4 0 -5.5 6.5t-0.5 12.5t4 6q30 0 111.5 -3t130.5 -3q47 0 130.5 3t110.5 3q5 0 7 -6t1 -12.5t-4 -6.5q-95 0 -122 -26.5t-27 -114.5v-948q0 -90 31.5 -115.5t144.5 -25.5z" />
<glyph unicode="&#xda;" horiz-adv-x="1572" d="M641 1391q-6 -3 -11 1.5t-5.5 10t2.5 8.5q54 38 134.5 111t110.5 96q13 12 118 -25q87 -31 82 -42q0 -2 -5 -3q-218 -57 -426 -157zM1495 25q6 0 6 -12.5t-6 -12.5q-32 0 -93.5 1t-98.5 1q-27 0 -74 -1t-68 -1q-22 0 -27.5 6.5t-5.5 32.5v106q-104 -89 -205 -129.5 t-221 -40.5q-217 0 -355 110.5t-138 295.5v733q0 88 -27.5 114.5t-118.5 26.5q-6 0 -6 12.5t6 12.5q28 0 108 -3t130 -3q49 0 133 3t111 3q5 0 7 -6t1 -12.5t-4 -6.5q-50 0 -78 -5.5t-44.5 -23.5t-21.5 -43.5t-6 -72.5v-657q-1 -193 96.5 -300.5t274.5 -107.5q95 0 179.5 35 t178.5 119l-2 911q2 89 -25.5 117t-117.5 28q-4 0 -5.5 6.5t-0.5 12.5t4 6q30 0 111.5 -3t130.5 -3q47 0 130.5 3t110.5 3q5 0 7 -6t1 -12.5t-4 -6.5q-95 0 -122 -26.5t-27 -114.5v-948q0 -90 31.5 -115.5t144.5 -25.5z" />
<glyph unicode="&#xdb;" horiz-adv-x="1572" d="M563 1352q-4 -4 -12 5q-6 5 -2 9l192 223q6 9 17 9t20 -9l205 -223q2 -3 0 -7.5t-5.5 -6.5t-6.5 0l-205 90zM1495 25q6 0 6 -12.5t-6 -12.5q-32 0 -93.5 1t-98.5 1q-27 0 -74 -1t-68 -1q-22 0 -27.5 6.5t-5.5 32.5v106q-104 -89 -205 -129.5t-221 -40.5 q-217 0 -355 110.5t-138 295.5v733q0 88 -27.5 114.5t-118.5 26.5q-6 0 -6 12.5t6 12.5q28 0 108 -3t130 -3q49 0 133 3t111 3q5 0 7 -6t1 -12.5t-4 -6.5q-50 0 -78 -5.5t-44.5 -23.5t-21.5 -43.5t-6 -72.5v-657q-1 -193 96.5 -300.5t274.5 -107.5q95 0 179.5 35t178.5 119 l-2 911q2 89 -25.5 117t-117.5 28q-4 0 -5.5 6.5t-0.5 12.5t4 6q30 0 111.5 -3t130.5 -3q47 0 130.5 3t110.5 3q5 0 7 -6t1 -12.5t-4 -6.5q-95 0 -122 -26.5t-27 -114.5v-948q0 -90 31.5 -115.5t144.5 -25.5z" />
<glyph unicode="&#xdc;" horiz-adv-x="1572" d="M590 1450q-47 0 -76 27t-29 75q0 45 29.5 72t75.5 27q47 0 73.5 -26.5t26.5 -72.5q0 -49 -26 -75.5t-74 -26.5zM934 1450q-48 0 -75.5 26.5t-27.5 75.5q0 46 28 72.5t75 26.5q46 0 72 -26.5t26 -72.5q0 -49 -26 -75.5t-72 -26.5zM1495 25q6 0 6 -12.5t-6 -12.5 q-32 0 -93.5 1t-98.5 1q-27 0 -74 -1t-68 -1q-22 0 -27.5 6.5t-5.5 32.5v106q-104 -89 -205 -129.5t-221 -40.5q-217 0 -355 110.5t-138 295.5v733q0 88 -27.5 114.5t-118.5 26.5q-6 0 -6 12.5t6 12.5q28 0 108 -3t130 -3q49 0 133 3t111 3q5 0 7 -6t1 -12.5t-4 -6.5 q-50 0 -78 -5.5t-44.5 -23.5t-21.5 -43.5t-6 -72.5v-657q-1 -193 96.5 -300.5t274.5 -107.5q95 0 179.5 35t178.5 119l-2 911q2 89 -25.5 117t-117.5 28q-4 0 -5.5 6.5t-0.5 12.5t4 6q30 0 111.5 -3t130.5 -3q47 0 130.5 3t110.5 3q5 0 7 -6t1 -12.5t-4 -6.5 q-95 0 -122 -26.5t-27 -114.5v-948q0 -90 31.5 -115.5t144.5 -25.5z" />
<glyph unicode="&#xdd;" horiz-adv-x="1177" d="M477 1391q-6 -3 -11 1.5t-5.5 10t2.5 8.5q54 38 135.5 111t110.5 96q13 12 117 -25q87 -31 82 -42q0 -2 -5 -3q-218 -57 -426 -157zM1180 1280q9 0 9 -12.5t-9 -12.5q-139 0 -262 -213l-224 -405v-471q1 -63 12.5 -90.5t44.5 -39t107 -11.5q8 0 8 -12.5t-8 -12.5 q-31 0 -117.5 2t-140.5 2q-58 0 -147 -2t-119 -2q-8 0 -8.5 12.5t8.5 12.5q108 0 139.5 26t30.5 115l-2 448l-326 496q-52 77 -96 111t-96 34q-5 0 -7 6.5t-0.5 12.5t5.5 6q30 0 98 -3t100 -3q48 0 140.5 3t117.5 3q5 0 6 -6t-2 -12.5t-8 -6.5q-76 0 -94 -17.5t14 -63.5 l312 -482l204 383q41 77 15.5 128.5t-107.5 51.5q-5 0 -7 6.5t-0.5 12.5t5.5 6q32 0 117 -3t137 -3q32 0 78 3t72 3z" />
<glyph unicode="&#xde;" horiz-adv-x="1202" d="M594 311q48 0 93.5 9.5t90 32t77 56.5t53 88t20.5 121q0 155 -98.5 264t-262.5 109q-61 0 -133 -14l2 -811q0 -65 13 -92t53 -38t133 -11q5 0 5.5 -12.5t-5.5 -12.5q-35 0 -133.5 2t-161.5 2q-49 0 -132.5 -2t-113.5 -2q-5 0 -5.5 12.5t5.5 12.5q96 0 123 25.5t27 115.5 v948q0 88 -27 114.5t-119 26.5q-4 0 -4 12.5t4 12.5q30 0 109 -3t127 -3q67 0 170 3t135 3q5 0 5.5 -12.5t-5.5 -12.5q-59 0 -91.5 -3t-58 -10t-35.5 -25t-14.5 -41.5t-5.5 -65.5v-96q91 16 199 16q226 0 366 -98.5t140 -272.5q0 -80 -33.5 -146.5t-87.5 -110t-123.5 -73 t-139.5 -42.5t-139 -13q-50 0 -96 9q-7 5 -2 26q3 8 6 8q38 -6 70 -6z" />
<glyph unicode="&#xdf;" horiz-adv-x="1026" d="M84 -563q-91 0 -145.5 30.5t-59.5 75.5q-4 34 19.5 55t64.5 21q34 0 57 -14.5t34 -35.5t20 -42.5t22.5 -36t34.5 -14.5q31 0 39 87.5t0 340.5l-25 968q-5 184 39 320t144.5 215.5t249.5 79.5q121 0 190.5 -52.5t75.5 -140.5q3 -53 -19 -102.5t-55.5 -88t-67 -75t-57 -79 t-22.5 -85.5q1 -50 36 -106.5t85 -110.5t100.5 -111.5t86.5 -127.5t38 -140q1 -77 -28.5 -142t-93 -107t-149.5 -42t-142.5 36.5t-66.5 82.5q-6 38 13.5 63t60.5 25q36 0 60.5 -15t38.5 -37t27 -43.5t34 -36.5t51 -15q49 0 66.5 31t17.5 84q-3 57 -39 119t-85.5 117 t-98.5 111t-84 121.5t-37 129.5q-1 51 16 102t41.5 94.5t48.5 88.5t38 102t8 118q-8 85 -47.5 137t-110.5 52q-107 0 -155.5 -136t-45.5 -405l27 -946q6 -199 -16.5 -311t-78 -160.5t-155.5 -48.5z" />
<glyph unicode="&#xe0;" horiz-adv-x="968" d="M543 973l-207 516q3 13 40.5 12.5t84 -12t47.5 -23.5l51 -491q1 -3 -3 -5t-8.5 -1.5t-4.5 4.5zM965 158q6 6 16.5 -2.5t5.5 -14.5q-115 -159 -217 -159q-135 0 -135 188v178q-58 -174 -161.5 -274.5t-219.5 -100.5q-81 0 -131 53t-53 164q-3 103 38.5 216t109.5 203 t160 149t183 59q99 0 166 -53q34 23 53 70q2 6 20 1q7 -3 7 -6l-6 -647q-3 -104 49 -104q45 0 115 80zM633 539q1 86 -42.5 137t-117.5 51q-110 -1 -179 -112.5t-69 -282.5q5 -226 127 -226q73 0 139.5 73t103.5 172.5t38 187.5z" />
<glyph unicode="&#xe1;" horiz-adv-x="968" d="M520 969q-3 -4 -8.5 -3.5t-11 3.5t-4.5 6l79 491q3 18 92 29q83 11 85 -3q1 -2 0 -3zM965 158q6 6 16.5 -2.5t5.5 -14.5q-115 -159 -217 -159q-135 0 -135 188v178q-58 -174 -161.5 -274.5t-219.5 -100.5q-81 0 -131 53t-53 164q-3 103 38.5 216t109.5 203t160 149 t183 59q99 0 166 -53q34 23 53 70q2 6 20 1q7 -3 7 -6l-6 -647q-3 -104 49 -104q45 0 115 80zM633 539q1 86 -42.5 137t-117.5 51q-110 -1 -179 -112.5t-69 -282.5q5 -226 127 -226q73 0 139.5 73t103.5 172.5t38 187.5z" />
<glyph unicode="&#xe2;" horiz-adv-x="968" d="M403 971q-5 -5 -14.5 -2t-9.5 8l145 510q3 11 20.5 11t18.5 -11l144 -510q1 -3 -4 -4q-15 -4 -21 2l-139 254zM965 158q6 6 16.5 -2.5t5.5 -14.5q-115 -159 -217 -159q-135 0 -135 188v178q-58 -174 -161.5 -274.5t-219.5 -100.5q-81 0 -131 53t-53 164q-3 103 38.5 216 t109.5 203t160 149t183 59q99 0 166 -53q34 23 53 70q2 6 20 1q7 -3 7 -6l-6 -647q-3 -104 49 -104q45 0 115 80zM633 539q1 86 -42.5 137t-117.5 51q-110 -1 -179 -112.5t-69 -282.5q5 -226 127 -226q73 0 139.5 73t103.5 172.5t38 187.5z" />
<glyph unicode="&#xe3;" horiz-adv-x="968" d="M272 969q-1 -2 -5.5 0.5t-8 6.5t-2.5 7q16 30 27.5 49t34 47t50 43t58.5 15q25 0 116.5 -26t141.5 -26q40 0 64 13t49 43q2 6 12 -4q6 -6 4 -11q-41 -89 -75 -120t-83 -31q-38 0 -129 24.5t-141 24.5q-15 0 -26 -1t-21.5 -4.5t-15.5 -4.5t-14 -9t-11 -9.5t-12.5 -13 t-12.5 -13.5zM965 158q6 6 16.5 -2.5t5.5 -14.5q-115 -159 -217 -159q-135 0 -135 188v178q-58 -174 -161.5 -274.5t-219.5 -100.5q-81 0 -131 53t-53 164q-3 103 38.5 216t109.5 203t160 149t183 59q99 0 166 -53q34 23 53 70q2 6 20 1q7 -3 7 -6l-6 -647q-3 -104 49 -104 q45 0 115 80zM633 539q1 86 -42.5 137t-117.5 51q-110 -1 -179 -112.5t-69 -282.5q5 -226 127 -226q73 0 139.5 73t103.5 172.5t38 187.5z" />
<glyph unicode="&#xe4;" horiz-adv-x="968" d="M365 961q-47 0 -76 27t-29 75q0 45 29 71.5t76 26.5t73.5 -26t26.5 -72q0 -49 -26 -75.5t-74 -26.5zM709 961q-48 0 -75.5 26.5t-27.5 75.5q0 46 28 72t75 26q46 0 72 -26t26 -72q0 -49 -26 -75.5t-72 -26.5zM965 158q6 6 16.5 -2.5t5.5 -14.5q-115 -159 -217 -159 q-135 0 -135 188v178q-58 -174 -161.5 -274.5t-219.5 -100.5q-81 0 -131 53t-53 164q-3 103 38.5 216t109.5 203t160 149t183 59q99 0 166 -53q34 23 53 70q2 6 20 1q7 -3 7 -6l-6 -647q-3 -104 49 -104q45 0 115 80zM633 539q1 86 -42.5 137t-117.5 51q-110 -1 -179 -112.5 t-69 -282.5q5 -226 127 -226q73 0 139.5 73t103.5 172.5t38 187.5z" />
<glyph unicode="&#xe5;" horiz-adv-x="968" d="M524 958q-93 0 -149 48t-56 114q0 74 70.5 117t155.5 43q83 0 143 -48.5t60 -115.5q0 -71 -68 -114.5t-156 -43.5zM504 1253q-55 0 -55 -92q0 -69 29.5 -122.5t78.5 -53.5q31 0 45 22.5t14 71.5q0 71 -32.5 122.5t-79.5 51.5zM965 158q6 6 16.5 -2.5t5.5 -14.5 q-115 -159 -217 -159q-135 0 -135 188v178q-58 -174 -161.5 -274.5t-219.5 -100.5q-81 0 -131 53t-53 164q-3 103 38.5 216t109.5 203t160 149t183 59q99 0 166 -53q34 23 53 70q2 6 20 1q7 -3 7 -6l-6 -647q-3 -104 49 -104q45 0 115 80zM633 539q1 86 -42.5 137t-117.5 51 q-110 -1 -179 -112.5t-69 -282.5q5 -226 127 -226q73 0 139.5 73t103.5 172.5t38 187.5z" />
<glyph unicode="&#xe6;" horiz-adv-x="1265" d="M1202 125q5 3 11.5 1t11 -7.5t0.5 -9.5q-131 -134 -285 -134q-148 0 -229 107t-84 295q-59 -185 -155 -294.5t-212 -109.5q-81 0 -134 57.5t-56 162.5q-2 80 19.5 167.5t65.5 168t102.5 145.5t136 104t159.5 39q67 0 120 -25.5t72 -80.5q121 106 297 106 q100 0 146.5 -34.5t46.5 -90.5q2 -70 -95 -135.5t-349 -144.5q14 -161 81.5 -256t169.5 -95q90 0 160 64zM950 768q-78 0 -122.5 -88.5t-39.5 -230.5v-9q53 20 93.5 40.5t81 48t61.5 61.5t20 72q0 41 -22.5 73.5t-71.5 32.5zM621 530q2 95 -43 159t-113 63q-94 -3 -163 -124 t-69 -296q1 -120 37 -168.5t86 -48.5q56 0 118 66t103.5 164t43.5 185z" />
<glyph unicode="&#xe7;" horiz-adv-x="751" d="M711 117q5 3 13.5 -6t4.5 -15q-117 -120 -285 -123q-9 -56 12.5 -95t73.5 -91q51 -57 73.5 -94.5t21.5 -75.5q2 -65 -49.5 -122.5t-151.5 -57.5q-68 0 -116.5 28.5t-47.5 75.5q-3 29 16.5 45.5t47.5 16.5q30 0 51.5 -20t31.5 -43.5t28 -43.5t42 -20q25 0 38 15.5t11 43.5 q-5 60 -127 182q-30 31 -32 74t14 86l31 96q-91 4 -162.5 43.5t-113 102.5t-61.5 136.5t-18 150.5q1 87 38.5 165t96 131t133 84t150.5 31q54 0 103.5 -13.5t86.5 -44t42 -73.5q3 -38 -18.5 -61t-67.5 -23q-49 0 -75 22t-44 62q-17 35 -42 56.5t-69 21.5q-81 0 -123 -80 t-39 -209q0 -114 32.5 -205t103 -149t170.5 -58q102 0 176 54z" />
<glyph unicode="&#xe8;" horiz-adv-x="770" d="M442 973l-206 516q3 13 40.5 12.5t84 -12t47.5 -23.5l51 -491q1 -3 -3.5 -5t-9 -1.5t-4.5 4.5zM725 123q4 2 9.5 -1t8.5 -8t0 -8q-128 -131 -313 -131q-93 0 -167 34t-119 90.5t-68 127t-21 146.5q1 84 33.5 163.5t90 142t143 100.5t184.5 38q89 0 139 -28.5t53 -81.5 q4 -61 -59.5 -118t-170 -97.5t-235.5 -61.5q5 -164 81.5 -267.5t211.5 -103.5q119 0 199 64zM406 762q-83 0 -127 -84t-46 -217q274 58 271 203q1 45 -25.5 71.5t-72.5 26.5z" />
<glyph unicode="&#xe9;" horiz-adv-x="770" d="M420 969q-3 -4 -9 -3.5t-11.5 3.5t-4.5 6l80 491q3 18 91 29q83 11 86 -3q0 -2 -1 -3zM725 123q4 2 9.5 -1t8.5 -8t0 -8q-128 -131 -313 -131q-93 0 -167 34t-119 90.5t-68 127t-21 146.5q1 84 33.5 163.5t90 142t143 100.5t184.5 38q89 0 139 -28.5t53 -81.5 q4 -61 -59.5 -118t-170 -97.5t-235.5 -61.5q5 -164 81.5 -267.5t211.5 -103.5q119 0 199 64zM406 762q-83 0 -127 -84t-46 -217q274 58 271 203q1 45 -25.5 71.5t-72.5 26.5z" />
<glyph unicode="&#xea;" horiz-adv-x="770" d="M303 971q-5 -5 -14.5 -2t-9.5 8l145 510q3 11 20.5 11t18.5 -11l143 -510q1 -3 -4 -4.5t-11.5 -1t-8.5 3.5l-140 254zM725 123q4 2 9.5 -1t8.5 -8t0 -8q-128 -131 -313 -131q-93 0 -167 34t-119 90.5t-68 127t-21 146.5q1 84 33.5 163.5t90 142t143 100.5t184.5 38 q89 0 139 -28.5t53 -81.5q4 -61 -59.5 -118t-170 -97.5t-235.5 -61.5q5 -164 81.5 -267.5t211.5 -103.5q119 0 199 64zM406 762q-83 0 -127 -84t-46 -217q274 58 271 203q1 45 -25.5 71.5t-72.5 26.5z" />
<glyph unicode="&#xeb;" horiz-adv-x="770" d="M264 961q-47 0 -75.5 27t-28.5 75q0 45 29 71.5t75 26.5q47 0 74 -26t27 -72q0 -49 -26.5 -75.5t-74.5 -26.5zM608 961q-48 0 -75 26.5t-27 75.5q0 46 27.5 72t74.5 26q46 0 72.5 -26t26.5 -72q0 -49 -26.5 -75.5t-72.5 -26.5zM725 123q4 2 9.5 -1t8.5 -8t0 -8 q-128 -131 -313 -131q-93 0 -167 34t-119 90.5t-68 127t-21 146.5q1 84 33.5 163.5t90 142t143 100.5t184.5 38q89 0 139 -28.5t53 -81.5q4 -61 -59.5 -118t-170 -97.5t-235.5 -61.5q5 -164 81.5 -267.5t211.5 -103.5q119 0 199 64zM406 762q-83 0 -127 -84t-46 -217 q274 58 271 203q1 45 -25.5 71.5t-72.5 26.5z" />
<glyph unicode="&#xec;" horiz-adv-x="532" d="M18 1489q-6 15 89 1q86 -12 90 -24l77 -491q1 -3 -3.5 -5.5t-10 -2.5t-6.5 4zM315 -18q-137 0 -131 188l9 438q3 107 -56 107q-48 0 -121 -86q-4 -4 -10.5 -2.5t-11 7.5t-0.5 11q62 85 118 124.5t117 39.5q129 0 129 -170l-8 -457q-3 -104 51 -104q23 0 48.5 19.5 t64.5 60.5q6 7 18 -1t7 -16q-63 -83 -113.5 -121t-110.5 -38z" />
<glyph unicode="&#xed;" horiz-adv-x="532" d="M248 971q-1 -4 -7 -4t-11.5 2.5t-4.5 5.5l80 491q7 13 101 26q82 11 75 -3zM315 -18q-137 0 -131 188l9 438q3 107 -56 107q-48 0 -121 -86q-4 -4 -10.5 -2.5t-11 7.5t-0.5 11q62 85 118 124.5t117 39.5q129 0 129 -170l-8 -457q-3 -104 51 -104q23 0 48.5 19.5 t64.5 60.5q6 7 18 -1t7 -16q-63 -83 -113.5 -121t-110.5 -38z" />
<glyph unicode="&#xee;" horiz-adv-x="532" d="M279 1487l143 -510q1 -3 -4 -4q-16 -5 -21 2l-139 254l-139 -258q-5 -6 -15 -2.5t-10 8.5l146 510q3 11 20.5 11t18.5 -11zM315 -18q-137 0 -131 188l9 438q3 107 -56 107q-48 0 -121 -86q-4 -4 -10.5 -2.5t-11 7.5t-0.5 11q62 85 118 124.5t117 39.5q129 0 129 -170 l-8 -457q-3 -104 51 -104q23 0 48.5 19.5t64.5 60.5q6 7 18 -1t7 -16q-63 -83 -113.5 -121t-110.5 -38z" />
<glyph unicode="&#xef;" horiz-adv-x="532" d="M104 961q-50 0 -77 26.5t-27 75.5q0 46 27.5 72t76.5 26q47 0 74 -26t27 -72q0 -49 -26.5 -75.5t-74.5 -26.5zM406 961q-48 0 -76.5 26.5t-28.5 75.5q0 45 28.5 71.5t76.5 26.5q47 0 73.5 -26t26.5 -72q0 -49 -26 -75.5t-74 -26.5zM315 -18q-137 0 -131 188l9 438 q3 107 -56 107q-48 0 -121 -86q-4 -4 -10.5 -2.5t-11 7.5t-0.5 11q62 85 118 124.5t117 39.5q129 0 129 -170l-8 -457q-3 -104 51 -104q23 0 48.5 19.5t64.5 60.5q6 7 18 -1t7 -16q-63 -83 -113.5 -121t-110.5 -38z" />
<glyph unicode="&#xf0;" horiz-adv-x="880" d="M557 1188q132 -163 208 -360t75 -384q0 -115 -34 -206t-92.5 -148t-133.5 -87t-160 -30q-117 0 -204.5 57.5t-130 149.5t-40.5 203q0 106 38.5 192t100 137t131 78t138.5 27q68 0 135 -31q-56 187 -150 347l-252 -119q-8 -4 -16.5 6.5t-10.5 22t5 16.5l250 117 q-125 196 -258 282q-11 6 10 19q19 12 31 8q174 -82 327 -256l205 96q7 3 15 -7.5t10 -21.5t-4 -16zM471 18q92 0 140.5 97t39.5 301q-6 179 -57 269.5t-164 90.5q-90 0 -148.5 -90.5t-52.5 -247.5q5 -172 74.5 -296t167.5 -124z" />
<glyph unicode="&#xf1;" horiz-adv-x="1040" d="M242 969q-1 -2 -5.5 0.5t-8.5 6.5t-3 7q16 30 27.5 49t34 47t50 43t58.5 15q25 0 116.5 -26t141.5 -26q40 0 64 13t49 43q2 6 12 -4q6 -6 4 -11q-42 -90 -75 -120.5t-82 -30.5q-38 0 -129.5 24.5t-141.5 24.5q-15 0 -26.5 -1t-21 -4t-15 -5t-14 -9t-11 -9.5t-12 -13 t-12.5 -13.5zM1034 158q5 4 11.5 2t11 -8t0.5 -11q-61 -82 -111 -120.5t-110 -38.5q-132 0 -129 188l2 338q0 205 -105 205q-109 0 -181.5 -183.5t-72.5 -509.5q0 -36 -102 -36q-63 0 -70 14q0 2 1.5 26t3 60t1.5 68l4 456q0 107 -57 107q-44 0 -121 -86q-5 -4 -11 -2.5 t-10.5 7.5t-0.5 11q62 85 118 124.5t117 39.5q66 0 96.5 -42.5t30.5 -127.5v-219q42 189 127.5 293t204.5 104q193 0 190 -270l-2 -365q0 -104 52 -104q39 0 112 80z" />
<glyph unicode="&#xf2;" horiz-adv-x="888" d="M449 973l-207 516q3 13 40.5 12.5t84 -12t47.5 -23.5l51 -491q1 -3 -3 -5t-8.5 -1.5t-4.5 4.5zM422 -29q-117 0 -202.5 57.5t-126 151.5t-38.5 209q3 188 118.5 308t293.5 120q174 0 273.5 -114t97.5 -300q-2 -103 -37.5 -186.5t-93.5 -136t-131.5 -81t-153.5 -28.5z M487 23q81 0 128 78t49 214q1 118 -32 222t-94 167.5t-135 63.5q-80 0 -128 -75t-48 -218q2 -182 77 -317t183 -135z" />
<glyph unicode="&#xf3;" horiz-adv-x="888" d="M426 969q-3 -4 -9 -3.5t-11.5 3.5t-4.5 6l80 491q3 18 91 29q83 11 86 -3q0 -2 -1 -3zM422 -29q-117 0 -202.5 57.5t-126 151.5t-38.5 209q3 188 118.5 308t293.5 120q174 0 273.5 -114t97.5 -300q-2 -103 -37.5 -186.5t-93.5 -136t-131.5 -81t-153.5 -28.5zM487 23 q81 0 128 78t49 214q1 118 -32 222t-94 167.5t-135 63.5q-80 0 -128 -75t-48 -218q2 -182 77 -317t183 -135z" />
<glyph unicode="&#xf4;" horiz-adv-x="888" d="M469 1487l143 -510q1 -3 -4 -4.5t-11.5 -1t-8.5 3.5l-139 254l-140 -258q-5 -5 -14.5 -2t-9.5 8l145 510q3 11 20.5 11t18.5 -11zM422 -29q-117 0 -202.5 57.5t-126 151.5t-38.5 209q3 188 118.5 308t293.5 120q174 0 273.5 -114t97.5 -300q-2 -103 -37.5 -186.5 t-93.5 -136t-131.5 -81t-153.5 -28.5zM487 23q81 0 128 78t49 214q1 118 -32 222t-94 167.5t-135 63.5q-80 0 -128 -75t-48 -218q2 -182 77 -317t183 -135z" />
<glyph unicode="&#xf5;" horiz-adv-x="888" d="M178 969q-1 -2 -5.5 0.5t-8 6.5t-2.5 7q16 30 27.5 49t34 47t50 43t58.5 15q25 0 116.5 -26t141.5 -26q40 0 63.5 13t48.5 43q2 6 13 -4q6 -6 4 -11q-41 -89 -75 -120t-83 -31q-38 0 -129 24.5t-141 24.5q-15 0 -26 -1t-21.5 -4.5t-15.5 -4.5t-14 -9t-11 -9.5t-12.5 -13 t-12.5 -13.5zM422 -29q-117 0 -202.5 57.5t-126 151.5t-38.5 209q3 188 118.5 308t293.5 120q174 0 273.5 -114t97.5 -300q-2 -103 -37.5 -186.5t-93.5 -136t-131.5 -81t-153.5 -28.5zM487 23q81 0 128 78t49 214q1 118 -32 222t-94 167.5t-135 63.5q-80 0 -128 -75 t-48 -218q2 -182 77 -317t183 -135z" />
<glyph unicode="&#xf6;" horiz-adv-x="888" d="M270 961q-47 0 -75.5 27t-28.5 75q0 45 29 71.5t75 26.5q47 0 74 -26t27 -72q0 -49 -26.5 -75.5t-74.5 -26.5zM614 961q-48 0 -75 26.5t-27 75.5q0 46 27.5 72t74.5 26q46 0 72.5 -26t26.5 -72q0 -49 -26.5 -75.5t-72.5 -26.5zM422 -29q-117 0 -202.5 57.5t-126 151.5 t-38.5 209q3 188 118.5 308t293.5 120q174 0 273.5 -114t97.5 -300q-2 -103 -37.5 -186.5t-93.5 -136t-131.5 -81t-153.5 -28.5zM487 23q81 0 128 78t49 214q1 118 -32 222t-94 167.5t-135 63.5q-80 0 -128 -75t-48 -218q2 -182 77 -317t183 -135z" />
<glyph unicode="&#xf7;" horiz-adv-x="815" d="M412 586q-53 0 -83 29t-30 83q0 50 30.5 78.5t82.5 28.5q53 0 81.5 -28.5t28.5 -78.5q0 -54 -28 -83t-82 -29zM70 342q-6 0 -8 23t-0.5 46t6.5 23h677q9 0 9 -46t-9 -46h-675zM412 -23q-52 0 -82.5 30.5t-30.5 82.5q0 50 30.5 78.5t82.5 28.5q53 0 81.5 -28.5t28.5 -78.5 q0 -53 -28.5 -83t-81.5 -30z" />
<glyph unicode="&#xf8;" horiz-adv-x="888" d="M721 723q120 -117 117 -320q-2 -103 -37.5 -186.5t-93.5 -136t-131.5 -81t-153.5 -28.5q-139 0 -232 80l-67 -86q-5 -5 -24 11.5t-13 23.5l68 86q-102 118 -99 303q3 188 118.5 308t293.5 120q129 0 217 -63l53 67q4 4 15 -1t19.5 -13.5t4.5 -13.5zM227 475 q0 -129 43 -244l320 404q-36 63 -84.5 98t-102.5 35q-80 0 -128 -75t-48 -218zM664 315q0 148 -52 271l-319 -406q79 -157 194 -157q81 0 128 78t49 214z" />
<glyph unicode="&#xf9;" horiz-adv-x="1040" d="M518 973l-207 516q3 13 40.5 12.5t84 -12t47.5 -23.5l52 -491q1 -3 -3.5 -5t-9 -1.5t-4.5 4.5zM1028 162q5 4 11.5 1.5t11 -9t0.5 -11.5q-63 -85 -117.5 -123t-114.5 -38q-131 0 -131 170v210q-42 -185 -127.5 -287t-204.5 -102q-98 0 -144.5 70.5t-43.5 200.5l8 364 q3 105 -53 105q-35 0 -111 -80q-6 -7 -17.5 0.5t-6.5 15.5q64 83 114 121.5t111 38.5q133 0 127 -188l-8 -338q-3 -205 104 -205q105 0 177 173.5t75 473.5v45q0 37 105 37q62 0 67 -14q1 -4 0 -26.5t-2.5 -60t-1.5 -67.5l-2 -457q0 -106 53 -106q50 0 121 86z" />
<glyph unicode="&#xfa;" horiz-adv-x="1040" d="M496 969q-3 -4 -9 -3.5t-11.5 3.5t-4.5 6l80 491q3 18 91 29q83 11 86 -3q0 -2 -1 -3zM1028 162q5 4 11.5 1.5t11 -9t0.5 -11.5q-63 -85 -117.5 -123t-114.5 -38q-131 0 -131 170v210q-42 -185 -127.5 -287t-204.5 -102q-98 0 -144.5 70.5t-43.5 200.5l8 364 q3 105 -53 105q-35 0 -111 -80q-6 -7 -17.5 0.5t-6.5 15.5q64 83 114 121.5t111 38.5q133 0 127 -188l-8 -338q-3 -205 104 -205q105 0 177 173.5t75 473.5v45q0 37 105 37q62 0 67 -14q1 -4 0 -26.5t-2.5 -60t-1.5 -67.5l-2 -457q0 -106 53 -106q50 0 121 86z" />
<glyph unicode="&#xfb;" horiz-adv-x="1040" d="M379 971q-5 -6 -15 -2.5t-10 8.5l146 510q3 11 20.5 11t18.5 -11l143 -510q1 -3 -4 -4q-15 -4 -21 2l-139 254zM1028 162q5 4 11.5 1.5t11 -9t0.5 -11.5q-63 -85 -117.5 -123t-114.5 -38q-131 0 -131 170v210q-42 -185 -127.5 -287t-204.5 -102q-98 0 -144.5 70.5 t-43.5 200.5l8 364q3 105 -53 105q-35 0 -111 -80q-6 -7 -17.5 0.5t-6.5 15.5q64 83 114 121.5t111 38.5q133 0 127 -188l-8 -338q-3 -205 104 -205q105 0 177 173.5t75 473.5v45q0 37 105 37q62 0 67 -14q1 -4 0 -26.5t-2.5 -60t-1.5 -67.5l-2 -457q0 -106 53 -106 q50 0 121 86z" />
<glyph unicode="&#xfc;" horiz-adv-x="1040" d="M340 961q-47 0 -75.5 27t-28.5 75q0 45 29 71.5t75 26.5q47 0 73.5 -26t26.5 -72q0 -49 -26 -75.5t-74 -26.5zM684 961q-48 0 -75 26.5t-27 75.5q0 46 27.5 72t74.5 26q46 0 72 -26t26 -72q0 -49 -26 -75.5t-72 -26.5zM1028 162q5 4 11.5 1.5t11 -9t0.5 -11.5 q-63 -85 -117.5 -123t-114.5 -38q-131 0 -131 170v210q-42 -185 -127.5 -287t-204.5 -102q-98 0 -144.5 70.5t-43.5 200.5l8 364q3 105 -53 105q-35 0 -111 -80q-6 -7 -17.5 0.5t-6.5 15.5q64 83 114 121.5t111 38.5q133 0 127 -188l-8 -338q-3 -205 104 -205 q105 0 177 173.5t75 473.5v45q0 37 105 37q62 0 67 -14q1 -4 0 -26.5t-2.5 -60t-1.5 -67.5l-2 -457q0 -106 53 -106q50 0 121 86z" />
<glyph unicode="&#xfd;" horiz-adv-x="978" d="M494 969q-3 -4 -9 -3.5t-11.5 3.5t-4.5 6l80 491q3 18 91 29q83 11 86 -3q0 -2 -1 -3zM776 807q81 0 84 -12q0 -84 -4 -156l-4 -782q-3 -194 -110 -313t-293 -119q-122 0 -203 45t-76 110q0 47 23.5 69.5t58.5 22.5q36 0 59.5 -21t39 -51t33.5 -60t54 -51t90 -21 q35 0 61.5 15t49 50.5t34.5 104.5t11 169l2 545q-43 -181 -128 -280t-202 -99q-96 0 -145 67t-45 204l8 364q3 105 -51 105q-40 0 -113 -80q-7 -7 -17 0.5t-5 15.5q64 83 114 121.5t109 38.5q136 0 127 -188l-6 -338q-6 -205 104 -205q100 0 170.5 161t79.5 439l2 100 q0 12 24 20.5t64 8.5z" />
<glyph unicode="&#xfe;" horiz-adv-x="899" d="M375 -2q-22 0 -88 4v-367q0 -81 26.5 -103t110.5 -13q7 3 11 -8q4 -13 -7 -15l-403 -59q-4 -1 -7 4.5t-3 12t5 7.5q64 10 79.5 37.5t15.5 122.5l6 981q-79 -55 -101 -72q-5 -5 -11.5 -1.5t-8.5 9.5t2 11q43 38 119 96l4 582q1 91 -33.5 110t-122.5 -22q-6 -3 -11 2 t-4.5 11t5.5 9l301 148q7 3 18 -4.5t11 -12.5v-727q134 64 260 64q136 0 208 -78.5t72 -228.5q0 -137 -56 -250.5t-160.5 -181.5t-237.5 -68zM430 713q-68 0 -141 -25l-2 -600q88 -31 155 -31q124 0 175 85.5t51 244.5q0 74 -11 130t-37 102t-74 70t-116 24z" />
<glyph unicode="&#xff;" horiz-adv-x="978" d="M338 961q-47 0 -76 27t-29 75q0 45 29 71.5t76 26.5t73.5 -26t26.5 -72q0 -49 -26 -75.5t-74 -26.5zM682 961q-48 0 -75 26.5t-27 75.5q0 46 27.5 72t74.5 26q46 0 72 -26t26 -72q0 -49 -26 -75.5t-72 -26.5zM776 807q81 0 84 -12q0 -84 -4 -156l-4 -782 q-3 -194 -110 -313t-293 -119q-122 0 -203 45t-76 110q0 47 23.5 69.5t58.5 22.5q36 0 59.5 -21t39 -51t33.5 -60t54 -51t90 -21q35 0 61.5 15t49 50.5t34.5 104.5t11 169l2 545q-43 -181 -128 -280t-202 -99q-96 0 -145 67t-45 204l8 364q3 105 -51 105q-40 0 -113 -80 q-7 -7 -17 0.5t-5 15.5q64 83 114 121.5t109 38.5q136 0 127 -188l-6 -338q-6 -205 104 -205q100 0 170.5 161t79.5 439l2 100q0 12 24 20.5t64 8.5z" />
<glyph unicode="&#x152;" horiz-adv-x="1820" d="M1718 319q2 5 9 5t13 -3t5 -6q-19 -123 -19 -284q0 -18 -6 -24.5t-24 -6.5h-594q-47 0 -143.5 -4t-131.5 -4q-219 0 -391 84t-265.5 229t-92.5 324q1 146 60 270.5t158 208t229.5 130t273.5 46.5q36 0 139.5 -2t151.5 -2h571q14 0 14 -18q4 -156 4 -269q0 -7 -12.5 -7.5 t-13.5 5.5q-49 250 -254 250h-68q-52 0 -79 -4t-42.5 -20.5t-19.5 -37.5t-6 -67v-420h221q98 0 142.5 35t45.5 117q1 9 15 9t14 -9q0 -47 -2 -102t-2 -76q0 -33 3 -98t3 -105q0 -7 -13.5 -7t-13.5 7q0 176 -198 176h-215v-465q2 -86 28 -111.5t115 -25.5h98q110 0 177.5 71 t115.5 211zM803 29q59 0 90 3.5t57.5 17.5t35 42t7.5 76l-4 919q-2 47 -9.5 74.5t-26 48t-50.5 28t-84 7.5q-238 0 -381 -148.5t-143 -422.5q0 -183 64 -330t180.5 -231t263.5 -84z" />
<glyph unicode="&#x153;" horiz-adv-x="1347" d="M1319 123q4 2 9.5 -1.5t7.5 -8t-1 -7.5q-131 -131 -317 -131q-191 0 -295 140q-58 -69 -141 -106.5t-174 -37.5q-114 0 -198 58.5t-124.5 152.5t-40.5 209q3 188 118.5 307t293.5 119q103 0 179 -41t120 -114q135 155 342 155q89 0 139 -28.5t53 -81.5 q3 -62 -64.5 -119.5t-172 -97t-228.5 -60.5q6 -163 82.5 -267t210.5 -104q121 0 201 64zM647 305v21q-2 14 -2 45q-11 163 -81 280t-173 117q-80 0 -126 -75.5t-46 -215.5q0 -116 33.5 -220t93.5 -169t131 -65q78 0 123 75.5t47 206.5zM999 762q-85 0 -128.5 -83.5 t-45.5 -217.5q129 27 200 74.5t71 128.5q1 46 -25.5 72t-71.5 26z" />
<glyph unicode="&#x178;" horiz-adv-x="1177" d="M426 1450q-47 0 -75.5 27t-28.5 75q0 45 29 72t75 27q47 0 73.5 -26.5t26.5 -72.5q0 -49 -26 -75.5t-74 -26.5zM770 1450q-48 0 -75 26.5t-27 75.5q0 46 27.5 72.5t74.5 26.5q46 0 72 -26.5t26 -72.5q0 -49 -26 -75.5t-72 -26.5zM1180 1280q9 0 9 -12.5t-9 -12.5 q-139 0 -262 -213l-224 -405v-471q1 -63 12.5 -90.5t44.5 -39t107 -11.5q8 0 8 -12.5t-8 -12.5q-31 0 -117.5 2t-140.5 2q-58 0 -147 -2t-119 -2q-8 0 -8.5 12.5t8.5 12.5q108 0 139.5 26t30.5 115l-2 448l-326 496q-52 77 -96 111t-96 34q-5 0 -7 6.5t-0.5 12.5t5.5 6 q30 0 98 -3t100 -3q48 0 140.5 3t117.5 3q5 0 6 -6t-2 -12.5t-8 -6.5q-76 0 -94 -17.5t14 -63.5l312 -482l204 383q41 77 15.5 128.5t-107.5 51.5q-5 0 -7 6.5t-0.5 12.5t5.5 6q32 0 117 -3t137 -3q32 0 78 3t72 3z" />
<glyph unicode="&#x2c6;" horiz-adv-x="489" d="M276 1489l144 -510q1 -4 -4 -6t-10.5 -1t-6.5 5l-139 252l-143 -258q-3 -5 -13 -1.5t-10 9.5l146 510q3 11 18.5 11t17.5 -11z" />
<glyph unicode="&#x2dc;" horiz-adv-x="559" d="M16 969q-1 -2 -5.5 0.5t-8 6.5t-2.5 7q16 30 27.5 49t34 47t50 43t58.5 15q25 0 116.5 -26t141.5 -26q40 0 64 13t49 43q2 6 12 -4q6 -6 4 -11q-41 -89 -75 -120t-83 -31q-38 0 -129 24.5t-141 24.5q-15 0 -26 -1t-21.5 -4.5t-15.5 -4.5t-14 -9t-11 -9.5t-12.5 -13 t-12.5 -13.5z" />
<glyph unicode="&#x2000;" horiz-adv-x="837" />
<glyph unicode="&#x2001;" horiz-adv-x="1675" />
<glyph unicode="&#x2002;" horiz-adv-x="837" />
<glyph unicode="&#x2003;" horiz-adv-x="1675" />
<glyph unicode="&#x2004;" horiz-adv-x="558" />
<glyph unicode="&#x2005;" horiz-adv-x="418" />
<glyph unicode="&#x2006;" horiz-adv-x="279" />
<glyph unicode="&#x2007;" horiz-adv-x="279" />
<glyph unicode="&#x2008;" horiz-adv-x="209" />
<glyph unicode="&#x2009;" horiz-adv-x="335" />
<glyph unicode="&#x200a;" horiz-adv-x="93" />
<glyph unicode="&#x2010;" horiz-adv-x="661" d="M66 328q-6 -1 -8.5 24t-1.5 51.5t5 28.5l535 94q6 1 8 -24t0 -51t-8 -27z" />
<glyph unicode="&#x2011;" horiz-adv-x="661" d="M66 328q-6 -1 -8.5 24t-1.5 51.5t5 28.5l535 94q6 1 8 -24t0 -51t-8 -27z" />
<glyph unicode="&#x2012;" horiz-adv-x="661" d="M66 328q-6 -1 -8.5 24t-1.5 51.5t5 28.5l535 94q6 1 8 -24t0 -51t-8 -27z" />
<glyph unicode="&#x2013;" horiz-adv-x="1054" d="M70 342q-6 0 -8 23t-0.5 46t6.5 23h917q9 0 9 -46t-9 -46h-915z" />
<glyph unicode="&#x2014;" horiz-adv-x="1699" d="M70 342q-6 0 -8 23t-0.5 46t6.5 23h1562q9 0 9 -46t-9 -46h-1560z" />
<glyph unicode="&#x2018;" horiz-adv-x="370" d="M219 1022q44 0 71 -28t27 -74q0 -52 -31 -79.5t-87 -27.5q-68 0 -107 52t-39 149q0 89 40 164.5t118 152.5q5 4 10.5 2t7 -7t-1.5 -9q-100 -103 -100 -242q0 -57 20 -84q19 31 72 31z" />
<glyph unicode="&#x2019;" horiz-adv-x="370" d="M172 1284q68 0 106.5 -52t38.5 -149q0 -90 -39.5 -165.5t-117.5 -151.5q-5 -4 -11 -2t-7.5 7t1.5 9q101 104 101 242q0 56 -21 84q-19 -31 -71 -31q-44 0 -71.5 28.5t-27.5 74.5q0 52 31.5 79t87.5 27z" />
<glyph unicode="&#x201a;" horiz-adv-x="370" d="M172 193q68 0 106.5 -52t38.5 -149q0 -90 -39.5 -166t-117.5 -152q-5 -4 -11 -1.5t-7.5 7.5t1.5 9q101 104 101 241q0 56 -21 84q-18 -30 -71 -30q-44 0 -71.5 28t-27.5 74q0 52 31.5 79.5t87.5 27.5z" />
<glyph unicode="&#x201c;" horiz-adv-x="688" d="M201 1022q44 0 71 -28t27 -74q0 -52 -31.5 -79.5t-87.5 -27.5q-68 0 -106.5 52t-38.5 149q0 89 40 164.5t118 152.5q5 4 10.5 2t7 -7t-1.5 -9q-100 -103 -100 -242q0 -57 20 -84q19 31 72 31zM537 1022q44 0 71 -28t27 -74q0 -52 -31.5 -79.5t-87.5 -27.5 q-68 0 -106.5 52t-38.5 149q0 90 39.5 165.5t117.5 151.5q5 4 11 2t7.5 -7t-1.5 -9q-101 -104 -101 -242q0 -56 21 -84q19 31 72 31z" />
<glyph unicode="&#x201d;" horiz-adv-x="708" d="M172 1286q68 0 106.5 -52t38.5 -149q0 -90 -39.5 -165.5t-117.5 -151.5q-5 -4 -11 -2t-7.5 7t1.5 9q101 104 101 242q0 56 -21 84q-19 -31 -71 -31q-44 0 -71.5 28.5t-27.5 74.5q0 52 31.5 79t87.5 27zM508 1286q68 0 106.5 -52t38.5 -149q0 -90 -39.5 -165.5 t-117.5 -151.5q-5 -4 -11 -2t-7.5 7t1.5 9q101 104 101 242q0 56 -21 84q-19 -31 -72 -31q-44 0 -71 28.5t-27 74.5q0 52 31.5 79t87.5 27z" />
<glyph unicode="&#x201e;" horiz-adv-x="708" d="M172 193q68 0 106.5 -52t38.5 -149q0 -90 -39.5 -166t-117.5 -152q-5 -4 -11 -1.5t-7.5 7.5t1.5 9q101 104 101 241q0 56 -21 84q-18 -30 -71 -30q-44 0 -71.5 28t-27.5 74q0 52 31.5 79.5t87.5 27.5zM508 193q68 0 106.5 -52t38.5 -149q0 -90 -39.5 -166t-117.5 -152 q-5 -4 -11 -1.5t-7.5 7.5t1.5 9q101 104 101 241q0 56 -21 84q-18 -30 -72 -30q-44 0 -71 28t-27 74q0 52 31.5 79.5t87.5 27.5z" />
<glyph unicode="&#x2022;" horiz-adv-x="651" d="M328 283q-96 0 -163 65t-67 160q0 92 67.5 158.5t162.5 66.5q92 0 158.5 -66.5t66.5 -158.5q0 -95 -66 -160t-159 -65z" />
<glyph unicode="&#x2026;" horiz-adv-x="1376" d="M211 -23q-51 0 -82 30.5t-31 82.5q0 49 31 78t82 29q53 0 82 -28.5t29 -78.5q0 -53 -29 -83t-82 -30zM690 -23q-51 0 -81.5 30.5t-30.5 82.5q0 49 30.5 78t81.5 29q53 0 82 -28.5t29 -78.5q0 -53 -29 -83t-82 -30zM1169 -23q-51 0 -81.5 30.5t-30.5 82.5q0 49 30.5 78 t81.5 29q53 0 82 -28.5t29 -78.5q0 -53 -29 -83t-82 -30z" />
<glyph unicode="&#x202f;" horiz-adv-x="335" />
<glyph unicode="&#x2039;" horiz-adv-x="622" d="M489 82l-376 305q-9 9 -9 23.5t9 23.5l376 305q2 3 6.5 2t7.5 -5t1 -7l-209 -317l209 -318q2 -7 -7 -13q-6 -3 -8 1z" />
<glyph unicode="&#x203a;" horiz-adv-x="622" d="M133 739l377 -305q9 -9 9 -23.5t-9 -23.5l-377 -305q-4 -7 -11 1q-5 6 -3 11l211 316l-211 319q-2 5 6 11q6 4 8 -1z" />
<glyph unicode="&#x205f;" horiz-adv-x="418" />
<glyph unicode="&#x20ac;" horiz-adv-x="1202" d="M1087 264q3 6 14 4t11 -8l-29 -192q-3 -18 -7 -24t-21 -13q-163 -56 -330 -56q-96 0 -178 22t-139.5 58.5t-102 87t-71 103.5t-41.5 112h-99q-14 0 -14 28t14 28h88q-4 50 -4 69v29h-84q-14 0 -14 27.5t14 27.5h92q32 183 191.5 299.5t382.5 116.5q198 0 301 -68 q10 -6 14 -8t10 -7t7.5 -9t1.5 -10.5t-4 -14.5l-82 -190q-2 -2 -7 -2t-10 3.5t-4 8.5q10 107 -70 184.5t-200 77.5q-135 0 -228.5 -106.5t-107.5 -274.5h580q15 0 4 -27q-12 -27 -27 -28h-559q0 -49 6 -98h520q14 0 3.5 -28t-25.5 -28h-488q21 -97 65 -173t118 -125.5 t167 -49.5q228 0 342 254z" />
<glyph unicode="&#x2122;" horiz-adv-x="1499" d="M582 1311q2 5 13 5t11 -5q-8 -172 -8 -187q0 -4 -11.5 -4t-11.5 4q0 57 -31 93t-79 36q-36 0 -46.5 -13.5t-10.5 -57.5v-379q0 -46 16 -60t74 -14q3 0 3 -12t-3 -12q-20 0 -74 1t-88 1q-30 0 -84 -1t-74 -1q-3 0 -3 12t3 12q56 0 73 14.5t17 59.5v381q0 44 -10 56.5 t-47 12.5q-52 0 -86 -33.5t-41 -95.5q0 -4 -12.5 -4t-12.5 4q13 72 13 181q0 6 12 6.5t12 -6.5q0 -23 56 -23q23 0 85.5 -1t98.5 -1q43 0 95 1t69 1q41 0 59.5 5t22.5 24zM1434 729q4 0 4 -12t-4 -12q-17 0 -66 1t-76 1q-31 0 -77.5 -1t-63.5 -1q-3 0 -3 12t3 12 q52 0 68 14.5t14 59.5l-12 340l-187 -428q-4 -7 -20 -7t-19 7l-211 405l-10 -289q-6 -102 68 -102q4 0 4 -12t-4 -12q-12 0 -43.5 1t-53.5 1l-110 -2q-3 0 -3 12t3 12q95 0 98 102l12 363q-39 61 -98 61q-5 0 -5 12.5t5 12.5q9 0 40 -2t38 -2q11 0 42.5 2t35.5 2 q18 0 32 -12.5t33 -50.5l187 -363l170 393q6 15 17 24t22 9q1 0 25.5 -2t41.5 -2q23 0 53 2t43 2q3 0 3 -12.5t-3 -12.5q-47 0 -67 -16.5t-19 -67.5l13 -368q2 -45 16.5 -59.5t63.5 -14.5z" />
<glyph unicode="&#x25fc;" horiz-adv-x="808" d="M0 809h809v-809h-809v809z" />
</font>
</defs>
</svg>
